<?xml version="1.0" encoding="UTF-8"?>
<svg version="1.1" xmlns="http://www.w3.org/2000/svg" width="512" height="512">
<path d="M0 0 C0.94520508 0.22913086 1.89041016 0.45826172 2.86425781 0.69433594 C29.54137488 7.32751301 61.17393428 18.32022805 76.81640625 42.63671875 C80.14563359 49.28418588 81.55854484 54.98254628 81.5 62.4375 C81.49355469 63.30785889 81.48710937 64.17821777 81.48046875 65.07495117 C80.909346 85.71991122 70.30532191 103.0854307 58 119 C57.23816406 119.98742187 56.47632813 120.97484375 55.69140625 121.9921875 C49.58663262 129.51326861 42.82217598 136.38364711 36 143.25 C35.08637695 144.17296875 34.17275391 145.0959375 33.23144531 146.046875 C27.12549391 152.12444694 20.73291288 157.63292146 14 163 C12.69448309 164.0844213 11.39201383 165.17253077 10.09375 166.265625 C0.9466235 173.89386983 -8.58153419 180.73359604 -18.49511719 187.32763672 C-21.04118142 189.02749442 -23.5723501 190.74784315 -26.1015625 192.47265625 C-45.98353659 205.97322445 -66.73756006 217.81551578 -88 229 C-88.69851074 229.38325439 -89.39702148 229.76650879 -90.11669922 230.16137695 C-92 231 -92 231 -95 231 C-94.2575 232.485 -94.2575 232.485 -93.5 234 C-90.8688097 240.17269761 -91.51398199 245.78495497 -94 252 C-93.113125 252.66 -92.22625 253.32 -91.3125 254 C-85.06787684 259.22599669 -81.64690202 266.20773887 -80.74609375 274.2734375 C-80.3425837 282.52586885 -82.57412074 290.35565481 -87.75 296.875 C-94.14089695 303.55420809 -101.44424255 306.83658669 -110.6640625 307.06640625 C-119.96268394 306.6342168 -127.03129804 303.45609659 -133.4375 296.6875 C-140.18313891 288.37469246 -141.07502433 280.64029761 -140 270 C-138.30810198 263.24247874 -134.1334182 257.6403066 -129 253 C-128.34 253 -127.68 253 -127 253 C-127.33 252.236875 -127.66 251.47375 -128 250.6875 C-129.82931707 243.94189332 -129.92149029 237.41104814 -127 231 C-128.32269897 230.58379395 -128.32269897 230.58379395 -129.67211914 230.15917969 C-162.86369182 218.59776915 -196.4964575 193.7733352 -224 172 C-224.67595215 171.46536133 -225.3519043 170.93072266 -226.04833984 170.37988281 C-234.27472752 163.84197968 -242.2654565 157.11630618 -250 150 C-251.70760347 148.47834722 -253.41594542 146.95752278 -255.125 145.4375 C-263.19010538 138.15248282 -270.24864823 130.52330123 -277 122 C-278.22589844 120.49953125 -278.22589844 120.49953125 -279.4765625 118.96875 C-294.21883318 100.69164915 -305.24975153 78.73550266 -302.7578125 54.66015625 C-300.55132222 41.84900352 -291.12293821 32.30955019 -281 25 C-206.96779603 -25.72164246 -83.35632413 -20.31372605 0 0 Z M-284.0625 44.9375 C-288.86383532 50.83962927 -290.58943452 58.07007646 -290.28515625 65.59765625 C-287.74734338 86.9778606 -275.49887627 104.88900227 -261.40771484 120.44091797 C-260.09490936 121.89488533 -258.80620526 123.37051397 -257.51953125 124.84765625 C-253.66641194 129.2445893 -249.73533186 133.28517282 -245.26171875 137.046875 C-242.99933562 139.00057373 -240.83645258 141.04152879 -238.67163086 143.10205078 C-231.24946467 150.12670147 -223.32129003 156.3095923 -215.12890625 162.40625 C-213.09275772 163.93055936 -211.07520101 165.47616512 -209.0625 167.03125 C-184.53767563 185.89388001 -157.39958961 201.71700108 -130 216 C-128.87368164 216.5887793 -128.87368164 216.5887793 -127.72460938 217.18945312 C-125.70202121 218.23295403 -123.66857553 219.24833954 -121.625 220.25 C-120.52414063 220.79140625 -119.42328125 221.3328125 -118.2890625 221.890625 C-110.59998566 224.48409035 -105.74393879 222.84995001 -98.67895508 219.44580078 C-97.13630981 218.66825439 -97.13630981 218.66825439 -95.5625 217.875 C-94.47283936 217.3372998 -93.38317871 216.79959961 -92.26049805 216.24560547 C-49.02317968 194.65022386 -8.11783183 167.30890058 27 134 C27.53125488 133.49742676 28.06250977 132.99485352 28.60986328 132.47705078 C46.88495921 115.05953286 67.34837378 91.32689264 68.40429688 64.93188477 C68.51018521 58.17293918 68.13898677 52.56906857 64 47 C63.34 46.030625 62.68 45.06125 62 44.0625 C35.70670744 14.75064213 -16.47197111 7.9455361 -53.0625 3.75 C-53.78286438 3.66691589 -54.50322876 3.58383179 -55.24542236 3.49822998 C-73.27251422 1.44851435 -91.17346653 0.7923836 -109.3125 0.8125 C-110.32401123 0.81310425 -111.33552246 0.8137085 -112.37768555 0.81433105 C-165.45071303 0.90010142 -244.08160991 3.54062005 -284.0625 44.9375 Z M-116 239 C-115.67 241.31 -115.34 243.62 -115 246 C-112.69 246.33 -110.38 246.66 -108 247 C-106.33153266 245.30504044 -106.33153266 245.30504044 -105 243 C-104.99364754 240.36462492 -104.99364754 240.36462492 -106 238 C-110.48210466 235.01193023 -112.09861387 235.77126665 -116 239 Z M-124.3125 267.5625 C-127.45315182 272.09899707 -127.66896279 276.64829769 -127 282 C-125.37794216 285.35026165 -125.37794216 285.35026165 -123 288 C-122.46375 288.7425 -121.9275 289.485 -121.375 290.25 C-117.12346302 293.38271146 -111.9749533 294.44856315 -106.74609375 293.66015625 C-100.67327225 291.71270495 -97.83746114 288.09027556 -94.625 282.6875 C-93.36867709 277.28531147 -94.18847653 272.59299052 -96.6875 267.6875 C-99.95617621 263.88876819 -102.50064009 261.36503319 -107.62109375 260.6171875 C-115.16220063 260.3102225 -119.18518417 261.88087976 -124.3125 267.5625 Z " fill="#000000" transform="translate(366,44)"/>
<path d="M0 0 C7.66998731 5.8505443 15.57275735 14.24317095 19.9375 22.97265625 C21.6390625 23.01132812 21.6390625 23.01132812 23.375 23.05078125 C40.80715669 23.63050046 40.80715669 23.63050046 47.375 30.53515625 C49.78951284 34.30179627 50.06889901 37.16314466 50.09863281 41.54223633 C50.10824036 42.6838472 50.1178479 43.82545807 50.12774658 45.00166321 C50.1341214 46.85322273 50.1341214 46.85322273 50.140625 48.7421875 C50.14632507 50.01108322 50.15202515 51.27997894 50.15789795 52.58732605 C50.16735201 55.27480658 50.17424671 57.96217534 50.17773438 60.6496582 C50.18321164 64.08278691 50.20722702 67.51551752 50.23570633 70.94852161 C50.25888392 74.23387986 50.26078593 77.51925895 50.265625 80.8046875 C50.2779718 82.03298782 50.2903186 83.26128815 50.30303955 84.52680969 C50.28551225 91.24938197 50.1835456 96.41384063 45.4375 101.6171875 C37.69628957 107.64484875 28.34767365 106.50187182 18.9375 105.97265625 C1.10646482 103.71037706 -16.37773279 96.03332613 -28.0625 81.97265625 C-28.3925 81.31265625 -28.7225 80.65265625 -29.0625 79.97265625 C-31.64696155 80.60593491 -34.19082466 81.29776674 -36.75 82.03515625 C-44.22807071 83.88039448 -50.74464853 83.08118972 -58.0625 80.97265625 C-59.39458911 80.63438493 -60.72762122 80.29974575 -62.0625 79.97265625 C-62.57296875 80.60171875 -63.0834375 81.23078125 -63.609375 81.87890625 C-74.71508144 94.95370958 -89.89230625 103.20616038 -106.9375 105.7265625 C-111.2508411 106.06623811 -115.54925086 106.22026796 -119.875 106.28515625 C-120.68815674 106.30304199 -121.50131348 106.32092773 -122.33911133 106.33935547 C-128.05059217 106.33111124 -132.36616447 105.48966305 -136.70703125 101.4375 C-140.08965573 97.01406799 -141.18629275 94.96781686 -141.23950195 89.44067383 C-141.25233719 88.28219437 -141.26517242 87.1237149 -141.27839661 85.93013 C-141.28578354 84.67185898 -141.29317047 83.41358795 -141.30078125 82.1171875 C-141.308853 80.82705246 -141.31692474 79.53691742 -141.32524109 78.20768738 C-141.34027174 75.47138602 -141.35010656 72.73511063 -141.35766602 69.9987793 C-141.36870121 66.50619198 -141.40306494 63.01424696 -141.44283772 59.52188587 C-141.47539778 56.17867965 -141.47979166 52.83553998 -141.48828125 49.4921875 C-141.50578934 48.24403763 -141.52329742 46.99588776 -141.54133606 45.70991516 C-141.5244141 38.91791633 -141.27193676 34.42398842 -137.0625 28.97265625 C-131.92572415 24.98903416 -128.59736525 23.94993133 -122.16064453 24.09033203 C-114.80386338 24.20181418 -114.80386338 24.20181418 -108.55078125 20.84765625 C-107.27800166 18.96917232 -106.07146727 17.04452712 -104.92578125 15.0859375 C-95.89865553 0.00287838 -79.37605639 -8.14129506 -62.99243164 -12.58935547 C-40.78398192 -18.05792705 -18.71072837 -12.38631125 0 0 Z M-94.390625 21.5546875 C-94.94234375 22.35261719 -95.4940625 23.15054688 -96.0625 23.97265625 C-95.7325 24.96265625 -95.4025 25.95265625 -95.0625 26.97265625 C-92.69759743 27.83400429 -90.4255051 28.52143426 -88 29.16015625 C-81.74461114 30.94812283 -75.99060806 33.21697543 -70.1875 36.16015625 C-69.50421631 36.50522217 -68.82093262 36.85028809 -68.11694336 37.20581055 C-65.43669609 38.5968422 -63.21001925 39.825137 -61.0625 41.97265625 C-58.23292171 41.6098898 -55.77165709 40.87570861 -53.0625 39.97265625 C-50.60637046 39.85126134 -48.14659804 39.79723433 -45.6875 39.78515625 C-44.38039062 39.77097656 -43.07328125 39.75679688 -41.7265625 39.7421875 C-38.27421635 39.95933934 -36.20366256 40.69352304 -33.0625 41.97265625 C-29.7422424 41.63618655 -27.50243486 40.09634396 -24.75 38.28515625 C-15.60670049 32.6585104 -5.25883881 29.19255272 4.9375 25.97265625 C-2.23856525 13.13127632 -14.39228811 5.60069384 -28.0625 0.97265625 C-28.77277344 0.72773438 -29.48304687 0.4828125 -30.21484375 0.23046875 C-53.92788661 -6.41464499 -78.54735063 3.98353925 -94.390625 21.5546875 Z M-127.78662109 38.85693359 C-129.63185559 43.36303437 -129.49131221 47.52235939 -129.4609375 52.34765625 C-129.46380768 53.34974121 -129.46667786 54.35182617 -129.46963501 55.38427734 C-129.47167286 57.4990292 -129.46616257 59.61380002 -129.45361328 61.72851562 C-129.43755607 64.96136716 -129.45347188 68.1929685 -129.47265625 71.42578125 C-129.47067377 73.48307567 -129.46682999 75.54036931 -129.4609375 77.59765625 C-129.46701019 78.5623584 -129.47308289 79.52706055 -129.4793396 80.52099609 C-129.43647955 87.26344485 -129.43647955 87.26344485 -126.0625 92.97265625 C-112.19251441 95.83556353 -95.60793166 90.47488081 -84.0625 82.97265625 C-75.30908682 76.31318728 -75.30908682 76.31318728 -70.0625 66.97265625 C-71.61710937 66.89917969 -71.61710937 66.89917969 -73.203125 66.82421875 C-74.57294208 66.74916028 -75.94273248 66.67361378 -77.3125 66.59765625 C-77.99441406 66.56671875 -78.67632812 66.53578125 -79.37890625 66.50390625 C-83.04989038 66.29006251 -85.92501616 65.9618857 -89.0625 63.97265625 C-89.1875 57.22265625 -89.1875 57.22265625 -88.0625 54.97265625 C-81.7925 54.64265625 -75.5225 54.31265625 -69.0625 53.97265625 C-75.13962155 43.84412033 -88.17083066 41.25829785 -99.12060547 38.42578125 C-105.13957706 37.0213041 -111.16023444 36.70859874 -117.3125 36.59765625 C-118.11429688 36.56027344 -118.91609375 36.52289063 -119.7421875 36.484375 C-120.51304688 36.47277344 -121.28390625 36.46117187 -122.078125 36.44921875 C-122.77196289 36.42939941 -123.46580078 36.40958008 -124.18066406 36.38916016 C-126.24740752 36.85646229 -126.24740752 36.85646229 -127.78662109 38.85693359 Z M-22.0625 51.97265625 C-22.0625 52.63265625 -22.0625 53.29265625 -22.0625 53.97265625 C-15.4625 54.30265625 -8.8625 54.63265625 -2.0625 54.97265625 C-2.0625 62.97265625 -2.0625 62.97265625 -3.0625 64.97265625 C-6.66028356 66.29126139 -10.52143187 66.28943887 -14.3125 66.53515625 C-15.57578125 66.61894531 -16.8390625 66.70273437 -18.140625 66.7890625 C-19.10484375 66.84964844 -20.0690625 66.91023438 -21.0625 66.97265625 C-17.90964312 76.23620481 -9.52717932 81.90740108 -1.26171875 86.46875 C7.96906445 90.80800706 17.45794709 93.11036657 27.625 93.16015625 C28.63916992 93.17852539 28.63916992 93.17852539 29.67382812 93.19726562 C31.42997427 93.20250785 33.18561122 93.09497748 34.9375 92.97265625 C37.48023722 90.42991903 37.1901488 89.52826186 37.19628906 86.00390625 C37.20259338 84.96943359 37.20889771 83.93496094 37.21539307 82.86914062 C37.2113446 81.74830078 37.20729614 80.62746094 37.203125 79.47265625 C37.20503845 78.32603516 37.2069519 77.17941406 37.20892334 75.99804688 C37.21028622 73.57031027 37.20658267 71.14256641 37.19824219 68.71484375 C37.18754438 64.98811552 37.19813431 61.26186939 37.2109375 57.53515625 C37.20961592 55.18098851 37.20705357 52.82682108 37.203125 50.47265625 C37.20717346 49.35181641 37.21122192 48.23097656 37.21539307 47.07617188 C37.20908875 46.04169922 37.20278442 45.00722656 37.19628906 43.94140625 C37.19469788 43.02810547 37.19310669 42.11480469 37.19146729 41.17382812 C37.14460017 38.76548998 37.14460017 38.76548998 34.9375 36.97265625 C32.16302343 36.74119937 29.52524205 36.64018227 26.75 36.66015625 C25.53594482 36.66861572 25.53594482 36.66861572 24.29736328 36.67724609 C9.74160461 36.96567686 -11.59828908 40.54463643 -22.0625 51.97265625 Z M-52.87890625 53.12109375 C-54.57260133 55.77063655 -54.49617419 57.85079573 -54.5 60.97265625 C-54.51933594 62.02453125 -54.53867188 63.07640625 -54.55859375 64.16015625 C-54.31538442 67.04408643 -54.31538442 67.04408643 -52.31640625 68.82421875 C-49.84568838 70.08312872 -48.31982779 70.37598496 -45.5625 70.34765625 C-44.8096875 70.35539062 -44.056875 70.363125 -43.28125 70.37109375 C-40.39335461 69.85249282 -39.08024923 69.11228295 -37.0625 66.97265625 C-36.46536038 64.11280015 -36.46536038 64.11280015 -36.625 60.97265625 C-36.62628906 59.92078125 -36.62757812 58.86890625 -36.62890625 57.78515625 C-36.86285405 55.0102929 -36.86285405 55.0102929 -38.24609375 53.12109375 C-40.75626631 51.5340169 -42.61044401 51.57384935 -45.5625 51.59765625 C-46.5215625 51.58992188 -47.480625 51.5821875 -48.46875 51.57421875 C-51.04684395 51.79331027 -51.04684395 51.79331027 -52.87890625 53.12109375 Z " fill="#000000" transform="translate(143.0625,256.02734375)"/>
<path d="M0 0 C5.09620539 3.01237564 8.70841667 7.93775001 10.5625 13.5 C11.44202708 22.45861153 10.38385738 28.87192386 5.5625 36.5 C17.33421354 52.04945542 32.67848071 68.1963801 52.76171875 71.90625 C66.09162888 73.74774465 78.63400555 69.28133136 89.4375 61.5625 C98.20826194 54.67779901 106.99422797 46.54747275 113.5625 37.5 C113.5625 34.46998621 112.25260797 33.05863863 110.5 30.5625 C107.38923668 25.31734432 107.94016475 19.38182704 108.5625 13.5 C110.65515515 7.33217429 115.20291347 3.07305769 120.5625 -0.5 C126.8462762 -2.59459207 134.87190943 -2.6958848 141 0 C146.09620539 3.01237564 149.70841667 7.93775001 151.5625 13.5 C152.19683713 21.10164663 152.55319563 28.32840737 147.5625 34.5 C142.44219258 39.66654044 137.56324029 41.17001924 130.5625 42.5 C130.23378906 44.26150391 130.23378906 44.26150391 129.8984375 46.05859375 C125.09149609 70.8723837 116.60711363 94.76816514 95.625 110.4375 C90.27112822 113.93286215 84.55240373 116.31484199 78.5625 118.5 C77.44875 118.9125 76.335 119.325 75.1875 119.75 C58.11742211 123.28174025 40.76301957 121.15295973 25.875 111.75 C5.20372278 96.88185198 -5.70745314 74.24124057 -10.16796875 49.5625 C-10.52130552 46.85870561 -10.58071727 44.22112811 -10.4375 41.5 C-11.38625 41.62375 -12.335 41.7475 -13.3125 41.875 C-18.84282275 41.875 -23.1803096 38.77076823 -27.4375 35.5 C-32.53071048 29.94013411 -32.7953781 24.02525386 -32.70703125 16.796875 C-32.24774245 11.17890764 -30.65498567 7.53455426 -26.49609375 3.71875 C-18.95595481 -2.16894597 -9.07096459 -3.99052124 0 0 Z M-19.4375 16.5 C-20.27083333 20 -20.27083333 20 -19.4375 23.5 C-16.84533917 27.19186542 -15.39600936 28.32883761 -10.9375 29.125 C-6.47899064 28.32883761 -5.02966083 27.19186542 -2.4375 23.5 C-1.60416667 20 -1.60416667 20 -2.4375 16.5 C-5.02966083 12.80813458 -6.47899064 11.67116239 -10.9375 10.875 C-15.39600936 11.67116239 -16.84533917 12.80813458 -19.4375 16.5 Z M121.5625 16.5 C120.72916667 20 120.72916667 20 121.5625 23.5 C124.15466083 27.19186542 125.60399064 28.32883761 130.0625 29.125 C134.52100936 28.32883761 135.97033917 27.19186542 138.5625 23.5 C139.39583333 20 139.39583333 20 138.5625 16.5 C135.97033917 12.80813458 134.52100936 11.67116239 130.0625 10.875 C125.60399064 11.67116239 124.15466083 12.80813458 121.5625 16.5 Z M6.5625 59.5 C9.94523025 75.57602279 18.74950222 89.79304616 31.859375 99.74609375 C43.38546901 107.22472989 56.0832374 109.8796143 69.5625 107.5 C85.38713272 103.19599673 96.64810171 93.60815179 104.75 79.625 C109.41889113 71.38565325 109.41889113 71.38565325 112.5625 62.5 C112.0675 61.015 112.0675 61.015 111.5625 59.5 C111.13582031 59.97308594 110.70914063 60.44617188 110.26953125 60.93359375 C97.88256582 74.03568295 80.93523049 84.11127922 62.71484375 85.4609375 C42.0725225 85.71672835 26.81031173 76.38217581 11.5625 63.5 C9.89987932 62.16162485 8.23442485 60.8267339 6.5625 59.5 Z " fill="#000000" transform="translate(358.4375,260.5)"/>
<path d="M0 0 C3.06746537 4.21173336 3.65480762 7.390079 3.46484375 12.50390625 C2.48673001 17.75613046 -0.77119446 20.43546592 -4.9921875 23.3984375 C-11.15723405 26.91827377 -17.70963793 28.20537998 -24.66699219 29.2175293 C-29.07234341 29.99024343 -29.07234341 29.99024343 -32.5637207 32.62426758 C-33.89276312 34.47217856 -33.89276312 34.47217856 -34.96142578 36.35424805 C-36.81583108 39.29278733 -38.72708773 39.98837257 -42 41 C-49.00974844 41.87992611 -54.45644529 41.59402094 -60.37890625 37.58203125 C-62 36 -62 36 -63.20703125 33.453125 C-65.80776972 29.89481615 -69.01123687 29.67011217 -73.125 28.9375 C-74.66796169 28.61684669 -76.20966374 28.29006809 -77.75 27.95703125 C-78.48734375 27.79799316 -79.2246875 27.63895508 -79.984375 27.47509766 C-87.15637173 25.78460521 -92.90980396 22.30228754 -98 17 C-99.90553526 13.18892949 -99.70798975 9.13296582 -99 5 C-95.2498522 -2.21373946 -88.43149969 -5.53221664 -81 -8 C-57.00915892 -14.45699439 -20.41733885 -16.75167763 0 0 Z M-84.83203125 8.62890625 C-85.41017578 9.30759766 -85.41017578 9.30759766 -86 10 C-80.45471734 14.34630263 -73.44951934 17.40333772 -66.28515625 16.75390625 C-62.82761073 15.61321175 -61.91819021 12.9971722 -60 10 C-55.68253747 6.31745843 -50.51168329 5.86577331 -45 6 C-40.55127713 6.8517213 -37.75507934 8.20517964 -34.625 11.5 C-34.08875 12.325 -33.5525 13.15 -33 14 C-32.34 14.99 -31.68 15.98 -31 17 C-24.30291433 16.49455957 -18.06541854 14.96123127 -12 12 C-11.34 11.01 -10.68 10.02 -10 9 C-27.57778039 -0.80299291 -68.43691192 -5.94841733 -84.83203125 8.62890625 Z M-51.3125 19.375 C-51.869375 19.91125 -52.42625 20.4475 -53 21 C-52.72459296 24.81813447 -52.72459296 24.81813447 -51 28 C-48.04195427 28.33340471 -48.04195427 28.33340471 -45 28 C-42.74837398 25.24528606 -42.74837398 25.24528606 -43.0625 22.4375 C-43.79974599 19.8080892 -43.79974599 19.8080892 -46.3125 18.5 C-49.04922956 17.68513662 -49.04922956 17.68513662 -51.3125 19.375 Z " fill="#000000" transform="translate(466,426)"/>
<path d="M0 0 C5.3015322 3.16744085 9.27157128 7.85198729 12.0625 13.3125 C13.49007996 21.40211978 13.32858023 27.97532511 9.25390625 35.265625 C5.661227 40.1937126 1.5000945 43.03122638 -4.375 44.5 C-4.375 55.39 -4.375 66.28 -4.375 77.5 C-2.725 78.16 -1.075 78.82 0.625 79.5 C5.22206785 84.31088496 7.64815171 88.18413226 8 94.8125 C7.86062186 99.73992711 6.58817287 103.54623154 3.625 107.5 C-1.43344553 112.13307625 -6.12687104 113.87029321 -12.9609375 113.78125 C-18.24663564 113.16544051 -22.13122464 110.80923722 -25.75 107 C-29.60407419 101.07065509 -30.01008884 96.53719412 -29.375 89.5 C-27.6422033 84.09775146 -24.00025047 80.64294128 -19.375 77.5 C-18.715 77.5 -18.055 77.5 -17.375 77.5 C-17.375 66.61 -17.375 55.72 -17.375 44.5 C-19.355 43.84 -21.335 43.18 -23.375 42.5 C-28.74155218 39.16976802 -32.69143699 34.62657545 -34.375 28.5 C-35.18961295 21.78994071 -35.31597386 15.22514115 -31.77734375 9.28125 C-24.0192023 -0.57310237 -12.15138604 -5.37419422 0 0 Z M-19.375 14.5 C-21.94689679 17.92919572 -21.877142 21.33939486 -21.375 25.5 C-19.47506771 28.70613573 -18.04025993 30.89902918 -14.4375 32.19921875 C-10.97716679 32.80870926 -8.85306703 32.69122681 -5.5625 31.375 C-2.15262671 28.45225147 -0.63129935 26.00575866 0.125 21.5625 C-0.57910075 17.24988288 -2.33592855 15.61143029 -5.375 12.5 C-10.30703697 10.03398152 -15.22564171 11.18051336 -19.375 14.5 Z M-15.1875 90.6875 C-16.81552002 93.17237266 -16.88475499 94.58711432 -16.375 97.5 C-14.77883995 99.50965774 -14.77883995 99.50965774 -12.375 100.5 C-9.73962492 100.50635246 -9.73962492 100.50635246 -7.375 99.5 C-5.07862221 96.74104365 -5.07862221 96.74104365 -5.625 93.9375 C-6.21308052 91.34999433 -6.21308052 91.34999433 -8.375 89.5 C-11.22102594 89.13512488 -12.7614306 89.09800625 -15.1875 90.6875 Z " fill="#000000" transform="translate(231.375,366.5)"/>
<path d="M0 0 C5.96898735 3.58894809 9.96073777 8.80406929 12.09375 15.40625 C13.77757337 22.70281794 12.35606385 29.82249158 8.49609375 36.19921875 C5.45311871 40.18621905 1.97562721 42.27256967 -2.4375 44.4375 C-3.0975 44.4375 -3.7575 44.4375 -4.4375 44.4375 C-4.44283295 49.06497592 -4.40923369 53.68993461 -4.33984375 58.31689453 C-4.32169819 59.89004989 -4.31411269 61.46336449 -4.31738281 63.03662109 C-4.32024457 65.30170512 -4.28489441 67.56349757 -4.2421875 69.828125 C-4.25128143 70.52931458 -4.26037537 71.23050415 -4.26974487 71.95294189 C-4.26511828 74.22277835 -4.26511828 74.22277835 -3.4375 77.4375 C-0.60805818 79.79179421 -0.60805818 79.79179421 2.5625 81.4375 C6.99288332 87.1850243 8.05139778 91.22625769 7.5625 98.4375 C5.45933661 104.85768298 2.41913371 108.55471869 -3.1875 112.25 C-8.9298029 114.34814914 -14.07563876 114.34313177 -19.6875 111.8125 C-24.44564358 109.14376079 -27.68779965 105.68660104 -29.4375 100.4375 C-29.92264482 94.92593667 -30.20487316 90.06078938 -27.8125 85 C-25.15367937 82.13127248 -22.58488423 79.76382748 -19.4375 77.4375 C-18.7775 77.4375 -18.1175 77.4375 -17.4375 77.4375 C-17.4375 66.5475 -17.4375 55.6575 -17.4375 44.4375 C-19.4175 43.7775 -21.3975 43.1175 -23.4375 42.4375 C-27.86976674 39.49559266 -32.26609894 35.74193072 -34.03125 30.57421875 C-35.57747716 22.44165862 -35.272768 14.8781649 -31.13671875 7.6015625 C-23.96162452 -1.53637359 -10.6801945 -4.84334402 0 0 Z M-20.4375 16.4375 C-20.7675 16.7675 -21.0975 17.0975 -21.4375 17.4375 C-22.0441518 22.55945137 -22.0441518 22.55945137 -20.390625 27.265625 C-17.6979852 30.52847087 -15.90274123 32.27099531 -11.6875 32.75 C-7.57982771 32.35503151 -5.60823386 31.0317368 -2.4375 28.4375 C-0.31423775 25.76034324 -0.43616416 24.47423574 -0.5625 21 C-1.51104467 17.13806814 -2.69163274 15.26657536 -5.4375 12.4375 C-11.79465327 9.25892337 -16.29634757 11.29243183 -20.4375 16.4375 Z M-15.25 90.625 C-16.86275784 93.08657776 -16.8709014 94.54815736 -16.4375 97.4375 C-15.4375 99.4375 -15.4375 99.4375 -13.4375 100.4375 C-10.35416667 100.4375 -10.35416667 100.4375 -7.4375 99.4375 C-5.14112221 96.67854365 -5.14112221 96.67854365 -5.6875 93.875 C-6.27558052 91.28749433 -6.27558052 91.28749433 -8.4375 89.4375 C-11.28352594 89.07262488 -12.8239306 89.03550625 -15.25 90.625 Z " fill="#000000" transform="translate(301.4375,366.5625)"/>
<path d="M0 0 C4.66634793 4.05184944 7.59854379 8.61563081 8.3359375 14.83203125 C8.43647875 22.50332885 7.72755058 28.0427899 2.3515625 33.75 C-3.66670439 39.21637342 -8.92779268 40.4710139 -16.9921875 40.3125 C-22.96752727 39.69168548 -26.57593901 37.39241519 -30.8125 33.25 C-34.88727764 27.19604464 -37.01605271 21.34133858 -36 14 C-34.61167726 7.48363829 -31.287971 2.99770607 -26 -1 C-17.32032538 -5.89533649 -8.44901898 -4.83204765 0 0 Z M-21 12 C-23.08606926 14.65499724 -22.99879455 16.06750504 -22.9375 19.5 C-22.25739486 23.06540182 -22.25739486 23.06540182 -19.875 25.4375 C-16.19933618 27.43514338 -14.12848931 27.66350721 -10 27 C-6.91666667 25.08333333 -6.91666667 25.08333333 -5 22 C-4.33649279 17.87151069 -4.56485662 15.80066382 -6.5625 12.125 C-11.33264532 7.96641178 -16.18117289 8.00725754 -21 12 Z " fill="#000000" transform="translate(74,418)"/>
<path d="M0 0 C6.5096741 5.58449781 9.533469 10.86815899 10.3125 19.4375 C9.68539335 26.58651584 7.18153794 31.93360734 2 37 C-4.08614951 41.55753521 -10.61090843 41.96595941 -18 41 C-25.00810226 39.01944936 -29.3765483 34.20471025 -33.140625 28.171875 C-35.24494333 22.85368866 -34.83744557 15.98815804 -33.3125 10.546875 C-30.55805353 4.53300021 -26.14912726 0.73046226 -20.0625 -1.8125 C-13.17166415 -4.09639446 -6.37077577 -3.45810945 0 0 Z M-19 13 C-21.50031654 16.75047482 -21.53603554 18.55856266 -21 23 C-18.40783917 26.69186542 -16.95850936 27.82883761 -12.5 28.625 C-8.09230048 27.8379108 -6.67552141 26.54113128 -4 23 C-2.84525388 20.56189845 -2.84525388 20.56189845 -3 18 C-4.64150645 14.3714068 -6.53807069 11.99323203 -10 10 C-14.32150563 10 -15.57637837 10.56742674 -19 13 Z " fill="#000000" transform="translate(147,417)"/>
</svg>
