<?xml version="1.0" encoding="UTF-8"?>
<svg version="1.1" xmlns="http://www.w3.org/2000/svg" width="512" height="512">
<path d="M0 0 C2.01974313 -0.00436544 4.03728522 -0.04067029 6.05664062 -0.07861328 C7.97476563 -0.08441406 7.97476563 -0.08441406 9.93164062 -0.09033203 C11.10130371 -0.0985498 12.2709668 -0.10676758 13.47607422 -0.11523438 C17.33835288 0.47444911 18.92680758 1.61864127 21.65820312 4.37060547 C23.95644799 7.67587815 23.92257921 10.64938744 23.96679688 14.61279297 C23.99193359 15.84513672 24.01707031 17.07748047 24.04296875 18.34716797 C24.07759601 20.90702035 24.10895085 23.4669195 24.13671875 26.02685547 C24.5027147 43.2732987 28.18925118 57.61962511 38.65820312 71.37060547 C39.40070313 72.40185547 40.14320313 73.43310547 40.90820312 74.49560547 C52.43862646 86.55013896 67.89784968 93.19223921 84.38085938 94.33544922 C102.21474596 94.52675432 118.77351161 87.56839098 131.65820312 75.37060547 C145.49166208 59.39947169 149.11158111 42.57612936 149.09399414 21.92651367 C149.09757504 19.97157962 149.12565256 18.01673918 149.15429688 16.06201172 C149.1561499 14.91933838 149.15800293 13.77666504 149.15991211 12.59936523 C149.89689615 7.82395419 152.1353695 4.88502565 155.51416016 1.52490234 C160.27015364 -1.03560064 166.26565075 -0.14004681 171.53320312 -0.12939453 C173.43392578 -0.17193359 173.43392578 -0.17193359 175.37304688 -0.21533203 C185.76764234 -0.23719238 185.76764234 -0.23719238 189.41601562 2.58935547 C193.38343799 7.51061806 193.92304671 11.54304642 194.07226562 17.80029297 C194.09172241 18.53089432 194.1111792 19.26149567 194.13122559 20.01423645 C194.19202322 22.42457523 194.23826757 24.83492234 194.28320312 27.24560547 C194.32058784 28.93807438 194.35818907 30.63053852 194.39599609 32.32299805 C194.65299171 44.56688039 194.75993767 56.81171494 194.78320312 69.05810547 C194.78588196 69.84288269 194.78856079 70.62765991 194.7913208 71.43621826 C194.80514336 76.74924547 194.75262433 82.05846831 194.65820312 87.37060547 C194.64629944 88.43870453 194.64629944 88.43870453 194.63415527 89.52838135 C194.20013828 119.08761966 186.20810678 148.41266163 179.64135742 177.0859375 C178.76630471 180.91067059 177.90668367 184.73860862 177.05648613 188.56893921 C176.73432006 190.0055497 176.40622701 191.44084549 176.07185555 192.87466431 C175.60974265 194.85698547 175.16877827 196.84420072 174.72875977 198.83154297 C174.47292618 199.95351074 174.21709259 201.07547852 173.95350647 202.23144531 C173.43457907 207.747794 175.93670834 212.1080479 178.22045898 217.02441406 C183.85215278 229.17853575 188.31991875 241.70745458 192.65820312 254.37060547 C193.02026855 255.41877441 193.38233398 256.46694336 193.75537109 257.546875 C201.0326145 278.78988441 206.60700191 300.47419797 212.11553955 322.22859192 C212.48534494 323.68829584 212.85780952 325.14732803 213.23260498 326.60575867 C214.18527919 330.34287261 214.97154826 333.81734561 215.03320312 337.68310547 C215.0615625 338.50423828 215.08992188 339.32537109 215.11914062 340.17138672 C214.65820312 342.37060547 214.65820312 342.37060547 212.85351562 344.14013672 C209.65187804 345.93464889 207.26406265 345.75694756 203.65820312 345.37060547 C201.59008789 344.37426758 201.59008789 344.37426758 199.65820312 342.37060547 C198.6705139 339.52349449 197.91488858 336.85913764 197.24804688 333.93701172 C197.03953598 333.08448822 196.83102509 332.23196472 196.61619568 331.35360718 C196.16626386 329.51210251 195.72263089 327.66904988 195.28460693 325.82467651 C194.1152406 320.91643563 192.88957846 316.0224003 191.66210938 311.12841797 C191.41356201 310.13537155 191.16501465 309.14232513 190.90893555 308.1191864 C187.09633389 293.02406399 182.45496261 278.17793347 177.65820312 263.37060547 C177.25859375 262.13455566 176.85898437 260.89850586 176.44726562 259.625 C171.69492916 245.0789433 166.17006917 231.22124119 159.65820312 217.37060547 C149.09820312 217.04060547 138.53820312 216.71060547 127.65820312 216.37060547 C128.64820313 219.83560547 128.64820313 219.83560547 129.65820312 223.37060547 C129.94968008 224.88633572 130.20824208 226.40910461 130.42016602 227.93798828 C130.53691177 228.76284729 130.65365753 229.5877063 130.77394104 230.43756104 C130.89172409 231.30749695 131.00950714 232.17743286 131.13085938 233.07373047 C131.25883408 233.99216736 131.38680878 234.91060425 131.5186615 235.85687256 C131.78737039 237.79292377 132.05364852 239.72931375 132.31762695 241.66601562 C132.71766392 244.5983278 133.12575901 247.52943082 133.53515625 250.46044922 C137.12255816 276.31525312 137.12255816 276.31525312 135.28320312 280.49560547 C132.80173254 283.35884076 132.80173254 283.35884076 128.84570312 283.68310547 C125.85490566 283.84583178 124.93818123 283.60358961 122.59277344 281.65185547 C120.39766363 279.06337667 120.02333963 277.77194808 119.59960938 274.44482422 C119.45281738 273.38312012 119.30602539 272.32141602 119.15478516 271.22753906 C118.99091309 269.95475098 118.82704102 268.68196289 118.65820312 267.37060547 C118.42937116 265.7811259 118.19721268 264.19212303 117.96240234 262.60351562 C117.29390652 258.07607025 116.64313236 253.54632043 115.9987793 249.01538086 C115.59503444 246.17840688 115.18828304 243.34187496 114.78125 240.50537109 C114.52000266 238.6753186 114.25892895 236.84524131 113.99804688 235.01513672 C113.87823959 234.18053421 113.75843231 233.3459317 113.63499451 232.48603821 C113.52140091 231.6845787 113.40780731 230.8831192 113.29077148 230.05737305 C113.19243515 229.36742752 113.09409882 228.67748199 112.99278259 227.96662903 C112.49543667 224.10769008 112.08787632 220.23766426 111.65820312 216.37060547 C96.14820313 216.37060547 80.63820312 216.37060547 64.65820312 216.37060547 C63.99820313 221.65060547 63.33820313 226.93060547 62.65820312 232.37060547 C61.80832649 238.95019688 60.93733878 245.52667265 60.05371094 252.10180664 C59.78745041 254.09202193 59.52382795 256.08259173 59.26269531 258.07348633 C58.87990129 260.9897974 58.48870958 263.90487406 58.09570312 266.81982422 C57.98105713 267.70627121 57.86641113 268.5927182 57.74829102 269.50602722 C56.61976847 277.74633427 56.61976847 277.74633427 54.65820312 281.37060547 C51.68902909 283.35005482 51.00118034 283.66411128 47.65820312 283.68310547 C46.97757812 283.69986328 46.29695313 283.71662109 45.59570312 283.73388672 C42.99256786 283.24579886 42.25867287 282.47474099 40.65820312 280.37060547 C39.05436024 269.77172801 41.53923259 258.30019073 43.11181641 247.80957031 C43.53536861 244.98114466 43.94364566 242.15082272 44.34960938 239.31982422 C44.61565546 237.49547677 44.88255241 235.67125317 45.15039062 233.84716797 C45.33177078 232.59693344 45.33177078 232.59693344 45.51681519 231.32144165 C45.69677536 230.12882217 45.69677536 230.12882217 45.88037109 228.91210938 C45.98251923 228.22597565 46.08466736 227.53984192 46.18991089 226.83291626 C46.8593743 223.31283447 47.78915506 219.84679772 48.65820312 216.37060547 C37.43820313 216.37060547 26.21820313 216.37060547 14.65820312 216.37060547 C13.66820313 219.34060547 12.67820312 222.31060547 11.65820312 225.37060547 C10.83702228 227.28009828 10.01489031 229.18940722 9.16040039 231.08422852 C-20.68634508 297.74893903 -33.40214906 374.51135118 -43.34179688 446.37060547 C-42.36932007 446.33930542 -42.36932007 446.33930542 -41.37719727 446.30737305 C-3.18635422 445.30266438 33.38031104 460.3291209 68.43731689 473.63581848 C86.77280377 480.59194133 105.03498445 487.39814944 124.18310547 491.80078125 C125.72308957 492.15532089 127.26051559 492.52142462 128.79345703 492.90527344 C148.60371171 497.83949881 173.25866798 497.88140836 192.65820312 491.37060547 C193.3165918 491.15098145 193.97498047 490.93135742 194.65332031 490.70507812 C203.17190921 487.76210352 214.16289619 483.86591241 220.65820312 477.37060547 C220.59143689 474.81527974 220.462022 472.29377448 220.28320312 469.74560547 C220.21746094 468.72466797 220.21746094 468.72466797 220.15039062 467.68310547 C220.05540487 466.22138029 219.95781538 464.75982232 219.8578186 463.2984314 C219.61353744 459.7154792 219.3747476 456.13216751 219.13623047 452.54882812 C219.09012131 451.85662674 219.04401215 451.16442535 218.99650574 450.45124817 C218.88370016 448.75770314 218.77094637 447.06415465 218.65820312 445.37060547 C216.72713966 445.38392914 216.72713966 445.38392914 214.75706482 445.39752197 C202.61847468 445.47864613 190.47993962 445.53858948 178.34113979 445.57785416 C172.10060251 445.59871923 165.86028427 445.62701784 159.61987305 445.67236328 C153.59631767 445.71585852 147.57297285 445.7397507 141.54927254 445.75011444 C139.25237781 445.75749912 136.95549447 445.77191966 134.6586895 445.7935257 C131.4387926 445.8226077 128.21976319 445.82655934 124.99975586 445.82470703 C124.05244598 445.83908813 123.10513611 445.85346924 122.12911987 445.86828613 C116.1120229 445.83088797 112.58159016 444.89235773 107.65820312 441.37060547 C103.52832553 436.04173116 104.10997013 429.79169058 104.65820312 423.37060547 C107.95226469 400.92502319 118.63023802 379.97616969 136.93164062 366.20654297 C151.48071023 356.40989152 173.94844671 343.08805706 192.28320312 345.93310547 C198.62587312 348.63461306 200.82603269 353.63881756 204.03320312 359.43310547 C207.86223726 366.09876748 210.86933417 369.31469117 218.47070312 371.43310547 C227.14342222 371.95013295 234.4460976 366.71915181 240.73242188 361.30419922 C260.21007289 342.58412317 272.09958163 315.3299478 283.34570312 291.30810547 C293.01355503 270.78367502 305.40847446 250.5595213 327.65820312 242.37060547 C337.69448222 239.14922736 348.95335249 237.45649678 358.65820312 242.37060547 C370.58690992 248.70012336 376.63930665 261.03812631 380.84570312 273.30810547 C389.05568202 301.95715317 385.65104507 326.43232419 373.49414062 353.13623047 C373.13602295 353.92739258 372.77790527 354.71855469 372.40893555 355.53369141 C371.72305983 357.04120057 371.02852249 358.54481318 370.32348633 360.04345703 C365.91416795 369.66662445 365.37633738 378.61210149 365.38476562 389.12841797 C365.3696698 391.11852814 365.35455083 393.10863845 365.33807945 395.09873772 C365.30051486 399.96649054 365.28314087 404.83426206 365.27734375 409.70214844 C365.27328904 412.44743573 365.25868423 415.1922998 365.23300171 417.93746948 C365.20965893 420.51169315 365.20214794 423.08612245 365.21255493 425.66043091 C365.13601062 432.42230978 364.83190278 436.93240921 360.65820312 442.37060547 C355.67601573 445.99064951 350.64940881 445.85630633 344.72070312 445.80810547 C343.85251953 445.82808594 342.98433594 445.84806641 342.08984375 445.86865234 C336.10032849 445.86412512 332.49009819 444.98064201 327.65820312 441.37060547 C324.68715049 437.41196084 324.27489531 434.48163535 324.24169922 429.58349609 C324.23311386 428.92089783 324.2245285 428.25829956 324.21568298 427.57562256 C324.19066849 425.39259097 324.18624403 423.21001724 324.18164062 421.02685547 C324.16731025 419.49571373 324.15154961 417.96458477 324.13442993 416.43347168 C324.09259983 412.40090504 324.06760899 408.36841742 324.04693604 404.33569336 C324.0111444 397.91101594 323.94936391 391.48653621 323.88844681 385.0620575 C323.86965137 382.83731082 323.85770543 380.61261592 323.84701538 378.38781738 C324.58257776 364.51299522 324.58257776 364.51299522 321.65820312 351.37060547 C311.53208544 357.38251342 303.06364983 364.13954563 294.65820312 372.37060547 C294.00464844 372.97388672 293.35109375 373.57716797 292.67773438 374.19873047 C276.43129063 389.48042102 262.36824764 411.55646335 255.03320312 432.55810547 C253.07101945 438.00180253 250.71217222 441.44840533 245.65820312 444.37060547 C242.90741429 445.28753508 241.298714 445.4794663 238.47070312 445.43310547 C237.21257812 445.41248047 235.95445312 445.39185547 234.65820312 445.37060547 C234.74384521 446.03479492 234.8294873 446.69898438 234.91772461 447.38330078 C235.31311485 450.46205853 235.70442311 453.54132276 236.09570312 456.62060547 C236.23041016 457.66474609 236.36511719 458.70888672 236.50390625 459.78466797 C236.90800265 462.97801511 237.28928697 466.1730089 237.65820312 469.37060547 C237.78727051 470.45921875 237.91633789 471.54783203 238.04931641 472.66943359 C238.15872559 473.72066406 238.26813477 474.77189453 238.38085938 475.85498047 C238.48277588 476.79567383 238.58469238 477.73636719 238.68969727 478.70556641 C238.63387978 483.42885038 237.17871568 485.83826308 233.90820312 489.18310547 C223.04852195 497.96134775 209.48889902 504.06130619 196.22070312 508.05810547 C195.55321045 508.26072998 194.88571777 508.46335449 194.19799805 508.67211914 C182.65592396 511.98982529 171.2228251 512.77992473 159.28320312 512.74560547 C158.53531525 512.74472931 157.78742737 512.74385315 157.01687622 512.74295044 C144.18979788 512.69359253 132.12528309 511.53888286 119.65820312 508.37060547 C118.71879883 508.13986328 117.77939453 507.90912109 116.81152344 507.67138672 C94.85324082 502.19087775 73.69579712 494.14358352 52.5337677 486.21099854 C20.05056847 474.03593589 -12.01541832 462.34802644 -47.21484375 463.67333984 C-48.19130859 463.69074219 -49.16777344 463.70814453 -50.17382812 463.72607422 C-51.0475708 463.75338623 -51.92131348 463.78069824 -52.8215332 463.80883789 C-56.30298965 463.20346985 -57.91753889 461.90957683 -60.34179688 459.37060547 C-62.92172385 448.71567679 -58.94464422 434.77158843 -57.34179688 424.12060547 C-57.18629364 423.07070435 -57.03079041 422.02080322 -56.87057495 420.93908691 C-53.82065735 400.41402339 -50.11001215 380.05782226 -45.84246826 359.75292969 C-45.34869198 357.40341416 -44.85901409 355.05307024 -44.36962891 352.70263672 C-34.82840604 307.08629414 -23.77457325 258.74982052 -3.08398438 216.82348633 C-2.72433594 216.07333252 -2.3646875 215.32317871 -1.99414062 214.55029297 C-1.51448853 213.58712158 -1.51448853 213.58712158 -1.02514648 212.60449219 C0.54201489 207.48140303 -0.39676302 202.25227308 -1.54760742 197.12939453 C-1.81175949 195.9357428 -2.07591156 194.74209106 -2.34806824 193.51226807 C-2.63861588 192.23317566 -2.92916351 190.95408325 -3.22851562 189.63623047 C-3.53120125 188.27619475 -3.83309003 186.91598147 -4.13423157 185.55560303 C-4.93006629 181.96759727 -5.73385591 178.38142834 -6.54022217 174.79577637 C-7.96636403 168.45297794 -9.38421867 162.10834804 -10.79101562 155.76123047 C-10.94390926 155.07142719 -11.0968029 154.38162392 -11.25432968 153.67091751 C-13.40786764 143.92425515 -15.41334103 134.16192718 -17.23632812 124.34716797 C-17.43828293 123.26203918 -17.64023773 122.1769104 -17.84831238 121.05889893 C-21.65463459 100.06341465 -21.65463459 100.06341465 -18.96679688 94.55029297 C-17.34179688 92.37060547 -17.34179688 92.37060547 -15.34179688 91.37060547 C-9.0862629 90.79138936 -9.0862629 90.79138936 -6.18164062 93.05126953 C-4.01675458 95.7803589 -3.67954063 97.35475467 -3.27929688 100.79248047 C-3.12831543 101.93612061 -2.97733398 103.07976074 -2.82177734 104.25805664 C-2.66338379 105.53269775 -2.50499023 106.80733887 -2.34179688 108.12060547 C-0.12151254 124.43604534 3.2913401 140.47416742 6.78320312 156.55810547 C7.04891113 157.78565552 7.31461914 159.01320557 7.58837891 160.2779541 C10.45278275 173.60477503 10.45278275 173.60477503 13.49603271 186.89126587 C13.77110657 188.04758514 14.04618042 189.20390442 14.32958984 190.39526367 C14.58328339 191.44357864 14.83697693 192.49189362 15.09835815 193.57197571 C15.65820312 196.37060547 15.65820312 196.37060547 15.65820312 200.37060547 C62.51820313 200.37060547 109.37820312 200.37060547 157.65820312 200.37060547 C160.13320313 187.99560547 160.13320313 187.99560547 162.65820312 175.37060547 C163.57264458 171.05583111 164.49321111 166.7464895 165.44726562 162.44091797 C165.9188079 160.2847091 166.39015659 158.12845788 166.86132812 155.97216797 C167.57420776 152.72100477 168.28880609 149.47024469 169.00683594 146.22021484 C171.33675821 135.65832092 173.66549959 125.09869585 175.43164062 114.42529297 C175.54577301 113.76651154 175.6599054 113.1077301 175.77749634 112.4289856 C177.95984716 98.41549656 177.80616697 84.01060199 177.75585938 69.86279297 C177.75398649 68.27426194 177.75256673 66.68573031 177.75157166 65.09719849 C177.74781482 60.98417469 177.73804597 56.87118813 177.72686768 52.75817871 C177.71650359 48.53394067 177.71204244 44.3096964 177.70703125 40.08544922 C177.69641504 31.84715118 177.67942464 23.608883 177.65820312 15.37060547 C173.69820312 15.37060547 169.73820313 15.37060547 165.65820312 15.37060547 C165.70460938 17.05025391 165.75101563 18.72990234 165.79882812 20.46044922 C166.33634622 47.91052102 160.70071012 69.38129253 141.47851562 89.67138672 C124.17536572 105.99212335 103.90948464 111.06511672 80.90820312 110.67529297 C61.31660749 109.96383346 43.27370928 101.3816557 29.65820312 87.37060547 C13.70525527 70.1434605 7.40687322 49.58215798 7.59570312 26.37060547 C7.60021484 25.30970703 7.60472656 24.24880859 7.609375 23.15576172 C7.62106454 20.56068492 7.63899647 17.96563752 7.65820312 15.37060547 C4.02820313 15.37060547 0.39820313 15.37060547 -3.34179688 15.37060547 C-3.36161621 17.04606445 -3.38143555 18.72152344 -3.40185547 20.44775391 C-3.47786538 26.65754353 -3.56659027 32.86709742 -3.65917969 39.07666016 C-3.69857699 41.76542437 -3.73316476 44.45418697 -3.76367188 47.14306641 C-3.80928064 51.00555878 -3.86728302 54.86769544 -3.92773438 58.72998047 C-3.94506119 60.53641022 -3.94506119 60.53641022 -3.96273804 62.3793335 C-3.98260773 63.50019348 -4.00247742 64.62105347 -4.02294922 65.77587891 C-4.03627289 66.76183044 -4.04959656 67.74778198 -4.06332397 68.76361084 C-4.35081769 71.4550561 -4.91274105 73.09004594 -6.34179688 75.37060547 C-9.03767491 77.4673995 -10.43474087 77.36571368 -13.90429688 77.18310547 C-17.38009545 76.36155308 -18.29653268 76.12802662 -20.34179688 73.37060547 C-20.70928955 71.07850647 -20.70928955 71.07850647 -20.69824219 68.35522461 C-20.70124329 67.33308365 -20.70424438 66.31094269 -20.70733643 65.25782776 C-20.69498962 64.15164597 -20.68264282 63.04546417 -20.66992188 61.90576172 C-20.66804871 60.76207626 -20.66617554 59.61839081 -20.66424561 58.44004822 C-20.6575145 56.0131439 -20.64357922 53.58625062 -20.62304688 51.15942383 C-20.59218228 47.4790618 -20.58210215 43.79913039 -20.57617188 40.11865234 C-20.56698892 37.75601702 -20.55660909 35.39338598 -20.54492188 33.03076172 C-20.540672 31.942798 -20.53642212 30.85483429 -20.53204346 29.73390198 C-20.33280564 7.94879173 -20.33280564 7.94879173 -15.34179688 2.37060547 C-10.61538219 -0.78033765 -5.56243389 -0.0013488 0 0 Z M321.65820312 264.37060547 C320.83449219 264.99064453 320.01078125 265.61068359 319.16210938 266.24951172 C305.05592066 278.19906004 297.33889356 298.71577473 289.64526367 314.99487305 C281.07227049 333.11690886 271.61427892 349.97670569 258.65820312 365.37060547 C258.12066406 366.05380859 257.583125 366.73701172 257.02929688 367.44091797 C248.27889623 378.19442238 237.00560744 385.7371134 223.15820312 387.30810547 C213.39265892 387.76658172 204.99132368 384.92557115 197.65820312 378.37060547 C193.45846038 373.37056209 189.96956532 367.98773215 186.65820312 362.37060547 C168.7988413 364.80788308 152.32537399 373.76784395 139.65820312 386.37060547 C138.95953125 387.03447266 138.26085937 387.69833984 137.54101562 388.38232422 C127.12565076 399.02058599 120.65820312 414.52921529 120.65820312 429.37060547 C159.59820312 429.37060547 198.53820312 429.37060547 238.65820312 429.37060547 C241.29820312 423.43060547 243.93820312 417.49060547 246.65820312 411.37060547 C261.82318536 380.78789129 286.48695493 349.08637882 318.65820312 335.37060547 C322.61025606 334.16064723 326.56066992 333.7012873 330.65820312 334.37060547 C335.80026821 337.57011264 336.73242791 342.07321039 338.08007812 347.65185547 C339.73662993 358.30751305 339.84252686 369.09720194 339.97460938 379.85888672 C339.99524704 381.29762779 340.01624491 382.73636374 340.0375824 384.1750946 C340.0921014 387.91494525 340.14181219 391.654844 340.19042969 395.39477539 C340.2411659 399.22985992 340.29657649 403.06487681 340.3515625 406.89990234 C340.4582822 414.39007904 340.55990885 421.88031296 340.65820312 429.37060547 C343.29820312 429.37060547 345.93820312 429.37060547 348.65820312 429.37060547 C348.66406937 428.71264984 348.66993561 428.05469421 348.67597961 427.37680054 C348.74042723 420.46463575 348.8249726 413.55291469 348.9206543 406.64111328 C348.95369738 404.06923308 348.98179187 401.49728395 349.00463867 398.92529297 C349.16470143 381.3796906 349.55253791 366.04412265 356.97070312 349.87060547 C357.56347046 348.52905396 357.56347046 348.52905396 358.16821289 347.16040039 C359.31908946 344.55800152 360.48542588 341.96319616 361.65820312 339.37060547 C371.61464321 317.3370938 371.91327638 296.42787905 363.65820312 273.37060547 C360.67723489 266.72674816 356.93317433 260.41746247 350.65820312 256.49560547 C340.63539348 252.73705185 329.50583426 258.20998909 321.65820312 264.37060547 Z " fill="#000000" transform="translate(90.341796875,-0.37060546875)"/>
<path d="M0 0 C1.06260544 -0.0071553 2.12521088 -0.01431061 3.22001648 -0.02168274 C4.38577713 -0.02437164 5.55153778 -0.02706055 6.75262451 -0.02983093 C7.980522 -0.03640213 9.20841949 -0.04297333 10.473526 -0.04974365 C14.54670453 -0.06949301 18.61984368 -0.08114468 22.6930542 -0.09111023 C24.09673838 -0.09515866 25.50042236 -0.09927561 26.90410614 -0.10346031 C33.49981774 -0.12250818 40.09551818 -0.13673958 46.69125199 -0.14507228 C54.29757143 -0.15484107 61.90359958 -0.18115258 69.50981641 -0.22157317 C75.39359189 -0.25176425 81.27728401 -0.26654401 87.16113544 -0.26985329 C90.67309929 -0.27220056 94.18475182 -0.28111806 97.69663239 -0.30631447 C101.61773429 -0.33399259 105.53845502 -0.32975486 109.45965576 -0.32279968 C111.19615135 -0.34201477 111.19615135 -0.34201477 112.96772766 -0.36161804 C119.48338063 -0.31948735 123.60333573 0.18220951 128.8649292 4.14717102 C130.78973389 6.91914368 130.78973389 6.91914368 132.2868042 10.18623352 C132.56836365 10.78932343 132.8499231 11.39241333 133.14001465 12.01377869 C134.07635627 14.04686176 134.97395667 16.09382167 135.8649292 18.14717102 C136.19017578 18.88866394 136.51542236 19.63015686 136.8505249 20.39411926 C138.96900409 25.24300923 141.0298685 30.11447494 143.06414795 34.9992218 C144.12299143 37.54152863 145.18868005 40.08088133 146.2555542 42.61982727 C146.94344738 44.26158967 147.63096112 45.90351111 148.3180542 47.54560852 C148.63059143 48.29160309 148.94312866 49.03759766 149.26513672 49.80619812 C155.37258448 64.48396091 155.37258448 64.48396091 154.8024292 68.77217102 C154.72895264 69.46568665 154.65547607 70.15920227 154.57977295 70.87373352 C152.66121324 76.97538242 147.86768357 81.49799367 143.5524292 86.02217102 C142.38362867 87.26357591 141.2156522 88.50575721 140.04852295 89.74873352 C139.49406494 90.33815735 138.93960693 90.92758118 138.36834717 91.53486633 C136.0255557 94.04733708 133.77430563 96.63385348 131.5289917 99.23310852 C127.27260597 104.12895126 122.88454473 108.91068403 118.5368042 113.72529602 C114.54788343 118.14838503 110.58925013 122.59332107 106.6774292 127.08467102 C103.83345125 130.32092179 100.93880219 133.5112577 98.0524292 136.70967102 C96.13938771 138.84134583 94.24605308 140.98736212 92.3649292 143.14717102 C89.72803284 146.17471869 87.05476351 149.16654381 84.3649292 152.14717102 C81.59763 155.21567285 78.84093101 158.29189939 76.1149292 161.39717102 C75.55289795 162.03525696 74.9908667 162.6733429 74.4118042 163.33076477 C73.43061124 164.48292317 72.47825207 165.66079938 71.5680542 166.86982727 C68.4894919 170.93792746 65.77490565 172.75601103 60.8649292 174.14717102 C56.72096471 174.52796776 53.38675662 174.10817144 49.82977295 171.86201477 C44.29471022 167.20728011 39.62332925 161.57028794 34.8649292 156.14717102 C33.32542022 154.43689298 31.78377917 152.72853152 30.2399292 151.02217102 C27.01982417 147.44551457 23.83820981 143.83871543 20.6774292 140.20967102 C18.59281755 137.83752674 16.48064276 135.49161037 14.3649292 133.14717102 C11.10102072 129.53040757 7.87701971 125.88327494 4.6774292 122.20967102 C1.8322363 118.97203772 -1.06360916 115.78030812 -3.95147705 112.58076477 C-5.84355765 110.47205956 -7.71412838 108.34797301 -9.5725708 106.20967102 C-12.38329605 102.9815759 -15.2508698 99.80978659 -18.1350708 96.64717102 C-38.50085505 74.27869996 -38.50085505 74.27869996 -38.39825439 64.92353821 C-37.96292426 60.33116873 -36.31371448 56.45340498 -34.4475708 52.27217102 C-34.10790283 51.4445929 -33.76823486 50.61701477 -33.41827393 49.76435852 C-31.41034462 45.1104663 -29.67645999 41.78247635 -25.1350708 39.14717102 C-21.63834118 39.20745946 -19.2368157 39.44939925 -16.2600708 41.33467102 C-14.57723576 44.04590526 -14.25603484 45.94162388 -14.1350708 49.14717102 C-15.1250708 51.78717102 -16.1150708 54.42717102 -17.1350708 57.14717102 C-4.5950708 56.81717102 7.9449292 56.48717102 20.8649292 56.14717102 C22.8449292 42.94717102 24.8249292 29.74717102 26.8649292 16.14717102 C22.5130542 16.14717102 18.1611792 16.14717102 13.6774292 16.14717102 C12.31335938 16.12654602 10.94928955 16.10592102 9.54388428 16.08467102 C3.22925682 15.97772926 3.22925682 15.97772926 -2.01080322 18.9355011 C-3.35097254 21.05250849 -3.35097254 21.05250849 -4.24005127 23.26753235 C-5.1350708 25.14717102 -5.1350708 25.14717102 -8.0725708 26.83467102 C-11.99481824 27.23490035 -13.86760646 26.27482222 -17.1350708 24.14717102 C-18.64895634 21.11939995 -18.66748181 18.41940497 -18.1350708 15.14717102 C-15.99520278 9.36686363 -13.54869639 4.42383914 -8.1350708 1.14717102 C-5.13578428 0.14740885 -3.13405473 0.01448421 0 0 Z M42.8649292 16.14717102 C42.14889428 21.02132303 41.43549898 25.89571519 40.72869873 30.77119446 C40.4877157 32.42799324 40.24522202 34.08457305 40.00115967 35.74092102 C39.64964152 38.12837486 39.30365018 40.51657596 38.9586792 42.90498352 C38.8493103 43.63959808 38.73994141 44.37421265 38.6272583 45.13108826 C38.04027162 49.23733766 37.8649292 52.95876849 37.8649292 57.14717102 C51.3949292 57.14717102 64.9249292 57.14717102 78.8649292 57.14717102 C77.21269574 43.37855883 75.41994515 29.77392276 72.8649292 16.14717102 C62.9649292 16.14717102 53.0649292 16.14717102 42.8649292 16.14717102 Z M88.8649292 16.14717102 C90.8449292 29.67717102 92.8249292 43.20717102 94.8649292 57.14717102 C107.7349292 57.14717102 120.6049292 57.14717102 133.8649292 57.14717102 C131.97116709 51.46588468 130.13646565 46.21195934 127.7633667 40.77607727 C127.48143463 40.1276738 127.19950256 39.47927032 126.9090271 38.81121826 C126.02291193 36.77578372 125.13146696 34.74273528 124.2399292 32.70967102 C123.63542176 31.32244968 123.03125249 29.93508092 122.4274292 28.54756165 C119.75425322 22.29723852 119.75425322 22.29723852 116.8649292 16.14717102 C107.6249292 16.14717102 98.3849292 16.14717102 88.8649292 16.14717102 Z M-16.1350708 73.14717102 C-12.3688844 78.16875289 -9.28635991 82.13768836 -4.91241455 86.37763977 C-2.47967943 88.79968155 -0.2592855 91.38098493 1.9821167 93.97920227 C4.0806824 96.39560053 6.2193262 98.77246126 8.3649292 101.14717102 C11.05476351 104.12779823 13.72803284 107.11962335 16.3649292 110.14717102 C20.47575513 114.8642017 24.67245638 119.50277328 28.8649292 124.14717102 C30.55271218 126.0219163 32.24022189 127.89690764 33.9274292 129.77217102 C34.68153076 130.61006165 35.43563232 131.44795227 36.21258545 132.31123352 C37.03049561 133.22002258 37.03049561 133.22002258 37.8649292 134.14717102 C39.07451875 130.51840237 38.540957 129.30786169 37.43377686 125.69770813 C37.09657623 124.583228 36.75937561 123.46874786 36.41195679 122.32049561 C36.03807831 121.11732193 35.66419983 119.91414825 35.2789917 118.67451477 C34.90261566 117.44052444 34.52623962 116.20653412 34.13845825 114.93515015 C33.34158406 112.32343713 32.5391292 109.71353257 31.7321167 107.10493469 C30.69699199 103.75897118 29.67094689 100.41031799 28.64844704 97.06047726 C26.95896877 91.52683435 25.26347108 85.99500698 23.55487061 80.46723938 C23.25207184 79.48589523 22.94927307 78.50455109 22.63729858 77.49346924 C21.93251463 75.16140879 21.93251463 75.16140879 20.8649292 73.14717102 C8.6549292 73.14717102 -3.5550708 73.14717102 -16.1350708 73.14717102 Z M37.8649292 73.14717102 C39.56074006 80.78463766 39.56074006 80.78463766 41.62078857 88.27778625 C41.95453491 89.3918132 42.28828125 90.50584015 42.63214111 91.65362549 C43.16502747 93.41193443 43.16502747 93.41193443 43.7086792 95.20576477 C44.07843872 96.43126541 44.44819824 97.65676605 44.8291626 98.91940308 C45.60740808 101.49416423 46.38712214 104.06842805 47.16912842 106.64204407 C48.17105566 109.94093791 49.16397932 113.24246881 50.15471649 116.54473782 C51.10446496 119.70431931 52.06336747 122.86111998 53.0211792 126.01826477 C53.37643677 127.20464035 53.73169434 128.39101593 54.09771729 129.61334229 C54.43146362 130.70530411 54.76520996 131.79726593 55.10906982 132.9223175 C55.40059937 133.88556442 55.69212891 134.84881134 55.99249268 135.84124756 C56.74118727 138.29751823 56.74118727 138.29751823 58.8649292 140.14717102 C59.15214844 139.16845032 59.43936768 138.18972961 59.73529053 137.18135071 C60.80600335 133.54097804 61.88765604 129.90393215 62.97259521 126.26777649 C63.44009281 124.69541706 63.90464336 123.12217822 64.3661499 121.54804993 C65.03113007 119.28182041 65.70674463 117.01899487 66.38446045 114.75654602 C66.58771439 114.05535645 66.79096832 113.35416687 67.00038147 112.63172913 C68.11198309 108.96096671 69.2105653 105.9633163 71.8649292 103.14717102 C75.29200016 102.26967503 78.70688098 102.56814691 81.8649292 104.14717102 C84.2167027 108.85071803 83.00780648 114.21078844 81.51727295 119.01435852 C80.95734505 120.68758567 80.3855393 122.35688097 79.8024292 124.02217102 C79.22163823 125.70481269 78.64707929 127.38962272 78.07977295 129.07685852 C77.82316895 129.81146301 77.56656494 130.5460675 77.30218506 131.30293274 C76.63768118 133.22725193 76.63768118 133.22725193 77.8649292 135.14717102 C87.16053011 125.22715015 87.16053011 125.22715015 96.1930542 115.06904602 C98.22250993 112.73612028 100.2925762 110.44205857 102.3649292 108.14717102 C105.05476351 105.16654381 107.72803284 102.17471869 110.3649292 99.14717102 C113.00182556 96.11962335 115.67509489 93.12779823 118.3649292 90.14717102 C119.11903076 89.3092804 119.87313232 88.47138977 120.65008545 87.60810852 C122.0722641 86.02791002 123.49656373 84.44961638 124.92352295 82.87373352 C125.54356201 82.1802179 126.16360107 81.48670227 126.8024292 80.77217102 C127.34770264 80.16631165 127.89297607 79.56045227 128.45477295 78.93623352 C130.15653668 76.90137848 130.15653668 76.90137848 131.8649292 73.14717102 C119.9849292 73.14717102 108.1049292 73.14717102 95.8649292 73.14717102 C94.8749292 75.78717102 93.8849292 78.42717102 92.8649292 81.14717102 C90.32869732 85.91528696 90.32869732 85.91528696 87.8649292 87.14717102 C84.41504625 87.5221583 82.47469921 87.49114385 79.4274292 85.77217102 C77.8649292 83.14717102 77.8649292 83.14717102 78.8649292 73.14717102 C65.3349292 73.14717102 51.8049292 73.14717102 37.8649292 73.14717102 Z " fill="#000000" transform="translate(328.13507080078125,58.85282897949219)"/>
</svg>
