<?xml version="1.0" encoding="UTF-8"?>
<svg version="1.1" xmlns="http://www.w3.org/2000/svg" width="512" height="512">
<path d="M0 0 C1.52866176 -0.00679667 1.52866176 -0.00679667 3.08820558 -0.01373065 C6.4957194 -0.02636903 9.90307327 -0.02475461 13.31060791 -0.02310181 C15.75681768 -0.02908742 18.20302556 -0.03589304 20.64923096 -0.04345703 C26.60033415 -0.05928719 32.5513747 -0.06556531 38.50249311 -0.06668179 C43.34253134 -0.06763366 48.18255654 -0.0717509 53.02259064 -0.07808304 C66.75990002 -0.09568822 80.49717821 -0.10492311 94.23449895 -0.10342209 C94.97440006 -0.10334218 95.71430118 -0.10326227 96.47662354 -0.10317993 C97.58783819 -0.10305729 97.58783819 -0.10305729 98.72150162 -0.10293217 C110.72201898 -0.10211961 122.72241073 -0.12125158 134.72289178 -0.14945666 C147.05952082 -0.17822184 159.39608867 -0.19199494 171.73275208 -0.19026911 C178.6529612 -0.18960643 185.57303865 -0.19504484 192.49321747 -0.21662521 C199.00380146 -0.23679892 205.51417958 -0.2361262 212.02478027 -0.22159195 C214.40997982 -0.21950374 216.79519678 -0.22420538 219.18036652 -0.23631287 C222.4454381 -0.25180916 225.70955746 -0.2424274 228.97460938 -0.22705078 C229.91053035 -0.23733791 230.84645133 -0.24762503 231.81073356 -0.25822389 C242.63579878 -0.14615639 252.01098245 3.64282357 259.74127197 11.26742554 C267.26300539 20.14911522 270.36694047 30.44392341 270.22229004 41.92933655 C270.22570774 42.9432891 270.22912544 43.95724166 270.2326467 45.00192004 C270.23918603 48.36765503 270.21731459 51.73257574 270.19537354 55.09823608 C270.19424421 57.52347291 270.19488058 59.94871111 270.19714355 62.37394714 C270.19805166 67.57892784 270.18677597 72.7837276 270.1641922 77.98865318 C270.13156213 85.51390455 270.121254 93.03905915 270.11624023 100.56437359 C270.10750475 112.77623714 270.08093683 124.98799328 270.04302979 137.19979858 C270.00626431 149.05623846 269.97797482 160.91264908 269.96099854 172.76913452 C269.95994764 173.50104548 269.95889675 174.23295643 269.95781401 174.9870465 C269.95259353 178.65915087 269.94753877 182.33125544 269.94256639 186.00336015 C269.9011588 216.42479215 269.83045906 246.84609388 269.74127197 277.26742554 C271.03226807 277.24647827 272.32326416 277.22553101 273.65338135 277.20394897 C278.46902256 277.13123908 283.28461578 277.08551329 288.10064697 277.04769897 C290.18015722 277.02765394 292.2596116 277.0004104 294.33892822 276.96566772 C297.33776685 276.91683606 300.3358566 276.89438526 303.33502197 276.87680054 C304.25617798 276.8561554 305.17733398 276.83551025 306.12640381 276.8142395 C312.18037558 276.81216176 316.68202023 277.84510293 321.74127197 281.26742554 C325.12331916 284.64947272 326.59372495 287.65162257 327.74127197 292.26742554 C327.73747249 293.96475721 327.68296474 295.66232806 327.59283447 297.35726929 C326.84774941 309.37647374 326.84774941 309.37647374 332.01080322 319.79476929 C335.35557912 323.09531607 338.98820981 325.98946596 342.76177979 328.78353882 C345.34794822 330.72220825 347.69267684 332.87547264 350.05377197 335.07992554 C352.54257727 337.32489518 355.04913308 339.52592847 357.61627197 341.68148804 C358.58564697 342.51422241 359.55502197 343.34695679 360.55377197 344.20492554 C361.42646729 344.93582397 362.2991626 345.66672241 363.19830322 346.41976929 C371.31065379 355.50410656 371.48849122 364.94477472 371.40533447 376.51742554 C371.4087102 378.18311923 371.41356909 379.8488105 371.41983032 381.51449585 C371.42716614 384.99097341 371.4166037 388.46680487 371.39312744 391.94320679 C371.36464087 396.37490277 371.38106274 400.80508429 371.41098976 405.23672485 C371.4291527 408.67199895 371.42326388 412.10692046 371.4103508 415.54220581 C371.40704154 417.17510157 371.41101546 418.8080305 371.42274857 420.44088745 C371.47914974 430.49344407 371.09160561 439.22045609 364.09567261 447.12728882 C358.08586276 453.03278193 350.85244627 455.47190065 342.56488037 455.4102478 C341.84836304 455.39663208 341.1318457 455.38301636 340.39361572 455.36898804 C339.65558716 455.36165649 338.91755859 455.35432495 338.15716553 455.34677124 C336.35177388 455.32777481 334.54649379 455.29863513 332.74127197 455.26742554 C333.1047876 456.31084106 333.46830322 457.35425659 333.84283447 458.42929077 C335.19863379 462.33275498 336.53604452 466.24231891 337.8682251 470.15390015 C338.44532248 471.84016707 339.0272738 473.52478144 339.61431885 475.20761108 C340.46139622 477.63863672 341.29034866 480.07523741 342.11627197 482.51351929 C342.37875732 483.25452377 342.64124268 483.99552826 342.91168213 484.75898743 C345.02274818 491.08621236 345.83038861 497.12108858 343.61627197 503.51742554 C341.00433323 507.34826902 337.93803568 510.16904368 333.74127197 512.26742554 C332.29916115 512.3638313 330.85268699 512.39839241 329.40736103 512.40164661 C328.49156279 512.40610446 327.57576455 512.4105623 326.63221484 512.41515523 C325.61949596 512.41497087 324.60677708 512.41478651 323.56336975 512.41459656 C322.49262559 512.41827325 321.42188143 512.42194993 320.31869048 512.42573804 C316.70669791 512.43681013 313.09473408 512.44062468 309.48272705 512.44442749 C306.90268868 512.45068948 304.32265121 512.45733604 301.74261475 512.46434021 C293.98213545 512.48411551 286.22165483 512.49417274 278.46115664 512.503068 C274.80751 512.50744966 271.15386483 512.51281683 267.50021935 512.51805687 C255.35577222 512.53507116 243.211326 512.54956516 231.06686878 512.55680561 C227.91430981 512.55871554 224.76175084 512.56063587 221.60919189 512.56259155 C220.82562739 512.56307529 220.04206288 512.56355903 219.23475399 512.56405743 C206.54254026 512.57235707 193.85042079 512.59769194 181.15824822 512.63017223 C168.13023624 512.66324034 155.10227215 512.68125419 142.07421798 512.68444985 C134.75834574 512.68661532 127.44261091 512.69536908 120.12677956 512.72091103 C113.24445324 512.74488372 106.36237804 512.74844522 99.48001862 512.73814964 C96.95284643 512.73765294 94.42566228 512.74401275 91.89852715 512.75770569 C88.45008363 512.77534617 85.0025359 512.7683561 81.55409241 512.75517273 C80.0517445 512.7716266 80.0517445 512.7716266 78.51904613 512.78841287 C72.38815486 512.73177374 68.73838527 511.89524957 63.74127197 508.26742554 C59.97669322 503.53757018 59.10391118 499.72188267 59.19073486 493.73104858 C59.87994737 489.39496974 61.42274075 485.84531178 63.20611572 481.85726929 C77.51169501 448.89124288 77.33371855 417.48035352 76.93438721 382.10507202 C76.92400295 381.12344526 76.9136187 380.1418185 76.90291977 379.13044548 C76.85026283 374.45334759 76.77632843 369.77859348 76.65737915 365.10269165 C76.62578196 363.43779638 76.59425331 361.7728998 76.56280518 360.10800171 C76.53627334 359.35253524 76.5097415 358.59706877 76.48240566 357.81870937 C76.40484278 352.76726996 76.40484278 352.76726996 78.06492615 350.30082703 C80.69865449 348.67723674 82.72802977 348.89077026 85.74127197 349.26742554 C86.73127197 350.25742554 87.72127197 351.24742554 88.74127197 352.26742554 C88.74127197 379.98742554 88.74127197 407.70742554 88.74127197 436.26742554 C149.79127197 436.26742554 210.84127197 436.26742554 273.74127197 436.26742554 C273.74127197 411.51742554 273.74127197 386.76742554 273.74127197 361.26742554 C278.23671848 351.1526709 278.23671848 351.1526709 281.59185791 348.19833374 C282.70255646 347.1947155 282.70255646 347.1947155 283.83569336 346.17082214 C284.62437805 345.47695908 285.41306274 344.78309601 286.22564697 344.06820679 C287.90132766 342.51426155 289.57442653 340.95752843 291.24517822 339.39828491 C293.85744059 336.98303127 296.48046216 334.58942552 299.15289307 332.24081421 C310.55813143 322.61112807 310.55813143 322.61112807 315.9854126 309.26107788 C316.65183471 299.97362688 316.65183471 299.97362688 313.43671799 291.66273212 C310.5106922 289.2546914 306.81358654 289.855665 303.18658447 289.88265991 C302.31314392 289.87728714 301.43970337 289.87191437 300.53979492 289.86637878 C298.64260065 289.85659182 296.74536156 289.8536594 294.84814453 289.85673523 C291.847621 289.86120331 288.84769036 289.84724224 285.847229 289.82833862 C279.47858639 289.79151391 273.1100054 289.77783666 266.74127197 289.76742554 C259.36253175 289.75536333 251.98407939 289.73391069 244.60546875 289.68742371 C241.64557737 289.67381032 238.68604589 289.67803211 235.72613525 289.68283081 C233.91607193 289.67349332 232.10601264 289.6633253 230.29595947 289.65219116 C229.46989197 289.65833939 228.64382446 289.66448761 227.79272461 289.67082214 C222.17904928 289.60999874 222.17904928 289.60999874 220.03378296 287.93126678 C218.74127197 286.26742554 218.74127197 286.26742554 218.30377197 283.26742554 C218.74127197 280.26742554 218.74127197 280.26742554 220.26568604 278.59823608 C223.73087273 276.73544193 226.95629033 276.89480991 230.78814697 276.97445679 C231.55934875 276.97870163 232.33055054 276.98294647 233.12512207 276.98731995 C235.58086512 277.00407171 238.03577826 277.04171615 240.49127197 277.07992554 C242.15922884 277.09497696 243.82719862 277.10866457 245.49517822 277.12094116 C249.57752775 277.15396359 253.6592593 277.20572069 257.74127197 277.26742554 C257.72778089 246.22600796 257.6888077 215.18474914 257.61441635 184.14342261 C257.60564993 180.4760985 257.59710006 176.80877391 257.58868408 173.14144897 C257.58700502 172.41137146 257.58532596 171.68129395 257.58359601 170.92909287 C257.55694902 159.11826424 257.54783258 147.30748414 257.54523055 135.49662854 C257.54216769 123.37147945 257.52018273 111.24647036 257.4807474 99.1213845 C257.45701968 91.6435763 257.44793232 84.16604782 257.45775887 76.68820719 C257.46371879 70.94761993 257.4433119 65.20735629 257.41321182 59.466856 C257.40498166 57.1167371 257.40522487 54.76657053 257.41467476 52.41645622 C257.42632287 49.20078204 257.4071365 45.98667128 257.38050842 42.77111816 C257.39118168 41.84696425 257.40185494 40.92281033 257.41285163 39.97065175 C257.3193887 33.89673675 255.87545315 29.67951905 252.91020507 24.37862384 C251.74127197 22.26742554 251.74127197 22.26742554 250.74127197 19.26742554 C248.90422319 18.14799972 248.90422319 18.14799972 246.74127197 17.26742554 C246.09287354 16.92582397 245.4444751 16.58422241 244.77642822 16.23226929 C244.12545166 15.89324585 243.4744751 15.55422241 242.80377197 15.20492554 C242.15537354 14.86332397 241.5069751 14.52172241 240.83892822 14.16976929 C236.13820863 12.14767203 231.33431835 12.1045994 226.28887939 12.06210327 C225.55663147 12.05220367 224.82438354 12.04230408 224.06994629 12.03210449 C221.6622434 12.00064929 219.25452082 11.97579564 216.84674072 11.95101929 C215.17236331 11.93043594 213.49799093 11.90943911 211.82362366 11.88804626 C207.42605681 11.83296816 203.02844419 11.78349624 198.63079834 11.73519897 C194.13958686 11.68487955 189.6484415 11.62924809 185.1572876 11.57406616 C176.35200356 11.46665911 167.54666305 11.36566685 158.74127197 11.26742554 C158.74127197 18.52742554 158.74127197 25.78742554 158.74127197 33.26742554 C161.11870605 33.25171509 163.49614014 33.23600464 165.94561768 33.21981812 C173.79263711 33.17015258 181.63966342 33.13698873 189.48679829 33.11198902 C194.24545403 33.09631993 199.003949 33.07505904 203.76251221 33.04110718 C208.35311149 33.00855796 212.94355595 32.99058189 217.5342617 32.98279381 C219.28740057 32.9772423 221.04053078 32.96640179 222.7936039 32.95023537 C225.24550443 32.92851979 227.69676176 32.9254561 230.14874268 32.92684937 C230.87666519 32.91606354 231.60458771 32.90527771 232.35456848 32.89416504 C237.19618445 32.92401781 237.19618445 32.92401781 239.42745686 34.32973003 C241.41567242 37.26207287 241.15451581 40.20985603 241.1222229 43.63131714 C241.12690287 44.3872209 241.13158284 45.14312467 241.13640463 45.9219346 C241.14839923 48.46240536 241.13888022 51.00234112 241.12945557 53.54281616 C241.13351929 55.36103125 241.13886005 57.17924387 241.14538574 58.99745178 C241.15908883 63.94159409 241.15374836 68.88554907 241.14424849 73.82969475 C241.13666737 78.99729807 241.14369318 84.16488508 241.14840698 89.33248901 C241.15386906 98.01151416 241.14666107 106.69046278 241.13238525 115.36947632 C241.11605789 125.41187182 241.12134608 135.45408462 241.13786447 145.4964757 C241.15146647 154.10969119 241.1534053 162.72285159 241.14554846 171.33607435 C241.14086486 176.48430852 241.14026592 181.63245674 241.15015793 186.78068542 C241.15880662 191.62011607 241.15284417 196.45931054 241.13547516 201.29871559 C241.13149907 203.07771728 241.13266344 204.85673876 241.13926315 206.63573265 C241.14742466 209.05860391 241.13722314 211.48071172 241.1222229 213.90353394 C241.12891507 214.61257449 241.13560723 215.32161504 241.14250219 216.05214167 C241.10813699 218.90103665 241.05080735 220.81969933 239.40496254 223.20032501 C236.75587932 224.89946195 234.79704816 224.71305957 231.74127197 224.26742554 C229.25473003 221.90469446 228.76490413 220.47390129 228.37212849 217.04219437 C228.37489387 215.75537136 228.37765924 214.46854836 228.38050842 213.14273071 C228.37794515 212.42469135 228.37538187 211.70665199 228.37274092 210.96685386 C228.36779915 208.56063114 228.38430193 206.15503577 228.4006958 203.74887085 C228.40154199 202.02416499 228.40106709 200.29945804 228.39936829 198.57475281 C228.39850659 193.89116028 228.41616059 189.20779765 228.43709016 184.52425861 C228.45582788 179.63020807 228.45760511 174.73615241 228.46116638 169.84207153 C228.47049539 160.5737952 228.49512077 151.30562487 228.52521485 142.03739524 C228.55873222 131.48612759 228.57523817 120.93485492 228.59030116 110.38354731 C228.62166956 88.67811419 228.67444671 66.97277654 228.74127197 45.26742554 C219.68311147 45.23595243 210.62597842 45.24198344 201.56792068 45.29589176 C197.36178285 45.31974585 193.15643779 45.33068127 188.95025635 45.31210327 C184.89081207 45.29464852 180.83279211 45.3111151 176.77352142 45.35110283 C175.22500821 45.36039671 173.67637183 45.35746862 172.1279068 45.34211922 C164.02575353 44.83870808 164.02575353 44.83870808 156.9743042 47.80230713 C155.72261275 49.8840795 155.72261275 49.8840795 154.74127197 53.26742554 C149.96030339 57.69856715 146.5665181 58.39214711 140.16192627 58.42855835 C139.49812958 58.43352325 138.83433289 58.43848816 138.15042114 58.44360352 C135.95543376 58.45820225 133.76051867 58.46502369 131.56549072 58.47055054 C130.03715514 58.47630439 128.50881957 58.48206209 126.98048401 58.48782349 C123.77517359 58.49832731 120.5698882 58.50417385 117.36456299 58.50765991 C113.265587 58.51313983 109.166944 58.53715944 105.06807232 58.56563187 C101.91013129 58.58429499 98.75226984 58.58946582 95.59427834 58.59099579 C94.0836588 58.59401515 92.57304042 58.60201948 91.0624752 58.61518097 C88.94432951 58.63231717 86.82698896 58.63034322 84.70880127 58.62387085 C83.50539597 58.62751648 82.30199066 58.63116211 81.06211853 58.63491821 C75.69925204 58.04145082 71.79311904 55.90139978 68.36627197 51.76742554 C67.8635376 51.17961304 67.36080322 50.59180054 66.84283447 49.98617554 C65.74127197 48.26742554 65.74127197 48.26742554 65.74127197 45.26742554 C44.29127197 45.26742554 22.84127197 45.26742554 0.74127197 45.26742554 C0.7644751 53.60637085 0.78767822 61.94531616 0.81158447 70.53695679 C0.82309811 76.47996759 0.83335146 82.42297005 0.84177971 88.36598492 C0.85287503 96.07086835 0.866975 103.77570863 0.89215088 111.4805603 C0.91419532 118.23027352 0.92583031 124.97993035 0.93102646 131.72968102 C0.93473099 134.30896427 0.94196466 136.88824488 0.95273209 139.46750832 C0.96718212 143.07119972 0.96925263 146.6746963 0.96832275 150.27841187 C0.97551331 151.35231171 0.98270386 152.42621155 0.9901123 153.53265381 C0.98736298 154.51281967 0.98461365 155.49298553 0.98178101 156.50285339 C0.98362459 157.3555119 0.98546818 158.20817041 0.98736763 159.08666706 C0.74127197 161.26742554 0.74127197 161.26742554 -1.25872803 164.26742554 C-4.13372803 165.20492554 -4.13372803 165.20492554 -7.25872803 165.26742554 C-9.83524744 163.27823225 -11.09663031 162.05625874 -11.75929928 158.83144283 C-11.7596132 157.4601288 -11.7596132 157.4601288 -11.75993347 156.06111145 C-11.76976761 155.00817902 -11.77960175 153.95524658 -11.78973389 152.8704071 C-11.78006592 151.72065903 -11.77039795 150.57091095 -11.76043701 149.38632202 C-11.76584 148.17136047 -11.77124298 146.95639893 -11.77680969 145.70462036 C-11.78717373 142.37588914 -11.77959605 139.04815192 -11.76309848 135.71950793 C-11.7492444 132.23621388 -11.75570834 128.75294972 -11.75923157 125.26963806 C-11.76193306 119.42124096 -11.74846227 113.57304918 -11.72528076 107.72470093 C-11.6986588 100.96152303 -11.69692799 94.19868812 -11.70866913 87.43547577 C-11.71944409 80.92995718 -11.71326292 74.42456276 -11.69911385 67.91905403 C-11.69335279 65.14995453 -11.69343759 62.38094586 -11.69817924 59.61184502 C-11.70383278 55.74747587 -11.6846416 51.88345074 -11.66278076 48.01913452 C-11.66728241 46.86736221 -11.67178406 45.7155899 -11.67642212 44.52891541 C-11.66651749 43.4788028 -11.65661285 42.42869019 -11.64640808 41.34675598 C-11.64397819 40.43292365 -11.64154829 39.51909132 -11.63904476 38.5775671 C-11.18148402 35.79822557 -10.52559081 34.90172237 -8.25872803 33.26742554 C-5.12660217 32.90666199 -5.12660217 32.90666199 -1.21697998 32.92684937 C-0.50453125 32.92641129 0.20791748 32.92597321 0.94195557 32.92552185 C3.29591312 32.92761123 5.64915766 32.95094839 8.00299072 32.97445679 C9.6353771 32.98005223 11.26776852 32.98432257 12.90016174 32.98731995 C17.19601355 32.99877283 21.49156093 33.02824367 25.78729248 33.06143188 C30.17099896 33.0921233 34.55475464 33.10582329 38.9385376 33.12094116 C47.53960431 33.15311315 56.1403652 33.20588454 64.74127197 33.26742554 C64.74127197 26.00742554 64.74127197 18.74742554 64.74127197 11.26742554 C55.91728093 11.33056867 47.09363055 11.40616832 38.26994514 11.50314045 C34.17186612 11.54769201 30.07388303 11.58698068 25.97564697 11.61386108 C22.01376411 11.64004715 18.05225348 11.68055494 14.09060287 11.7306118 C12.58614643 11.74717784 11.08162575 11.75875556 9.57709122 11.76503944 C-6.0272136 11.80803644 -6.0272136 11.80803644 -19.25872803 19.26742554 C-19.91872803 19.26742554 -20.57872803 19.26742554 -21.25872803 19.26742554 C-21.92545702 20.6007277 -22.59210926 21.93406826 -23.25872803 23.26742554 C-23.6061502 23.94224818 -23.95357237 24.61707083 -24.31152248 25.31234264 C-26.96232546 30.77670968 -27.83292077 35.17575913 -27.75701904 41.21200562 C-27.76253784 42.05545532 -27.76805664 42.89890503 -27.77374268 43.76791382 C-27.78300115 45.5815124 -27.78321925 47.39517603 -27.77514839 49.20878029 C-27.76244404 52.07994975 -27.77387334 54.95016853 -27.79118347 57.82130432 C-27.81778763 62.87497651 -27.82348228 67.92841257 -27.82208252 72.98214722 C-27.81984667 81.08774243 -27.83392823 89.19304766 -27.87766838 97.29852867 C-27.88750923 100.12602915 -27.87879216 102.9530723 -27.86897278 105.78056335 C-27.87511507 107.51031801 -27.88202616 109.24007016 -27.88983154 110.96981812 C-27.88211227 111.75481186 -27.87439301 112.5398056 -27.86643982 113.34858704 C-27.8962759 116.54753996 -28.06612425 118.8984425 -29.55912781 121.75868225 C-31.25872803 123.26742554 -31.25872803 123.26742554 -34.82122803 123.70492554 C-35.95560303 123.56055054 -37.08997803 123.41617554 -38.25872803 123.26742554 C-40.80062399 119.45458159 -40.55424658 116.36698829 -40.54925537 111.94735718 C-40.5559726 111.09812683 -40.56268982 110.24889648 -40.5696106 109.37393188 C-40.58864771 106.55842264 -40.5925189 103.74315146 -40.59466553 100.92758179 C-40.60109391 98.96521406 -40.6078223 97.00284729 -40.61483765 95.04048157 C-40.62682781 90.91876 -40.63051713 86.7971223 -40.6293335 82.67538452 C-40.62913122 77.42004551 -40.65633059 72.16525284 -40.69087791 66.91004276 C-40.71324334 62.85111579 -40.71716795 58.79231774 -40.71611404 54.73333549 C-40.71845947 52.7978472 -40.72722266 50.86235477 -40.74277878 48.92692757 C-40.84533673 34.83736672 -40.23504765 22.68926693 -30.60247803 11.52914429 C-21.47292289 2.71912358 -12.30560283 -0.04033784 0 0 Z M76.74127197 11.26742554 C76.74127197 21.82742554 76.74127197 32.38742554 76.74127197 43.26742554 C79.3699739 46.50220964 79.3699739 46.50220964 82.51153564 46.64164734 C83.63277832 46.64101791 84.754021 46.64038849 85.90924072 46.63973999 C87.18065918 46.64596878 88.45207764 46.65219757 89.76202393 46.65861511 C91.15094392 46.64992702 92.5398601 46.64060904 93.92877197 46.63070679 C95.35219319 46.63018812 96.77561513 46.63070608 98.19903564 46.63221741 C101.18164774 46.6321277 104.16398942 46.62170275 107.14654541 46.60360718 C110.97002003 46.58091986 114.79309952 46.58037604 118.61662292 46.58712482 C121.55572014 46.59046606 124.49472725 46.58383184 127.43380737 46.57399559 C128.84361296 46.57014596 130.25342858 46.5689944 131.66323853 46.57058144 C133.63328296 46.57095221 135.60331412 46.55685304 137.57330322 46.54208374 C138.6945459 46.53747635 139.81578857 46.53286896 140.9710083 46.52812195 C143.95369014 46.46836656 143.95369014 46.46836656 146.74127197 44.26742554 C150.22137414 33.82711903 147.74127197 22.27247488 147.74127197 11.26742554 C124.31127197 11.26742554 100.88127197 11.26742554 76.74127197 11.26742554 Z M303.29498291 343.36361694 C302.01813841 344.6239756 300.73596385 345.8789592 299.44830322 347.12826538 C297.58817658 348.9332594 295.74537569 350.75448559 293.90533447 352.57992554 C293.33336334 353.12922729 292.76139221 353.67852905 292.17208862 354.24447632 C285.19770785 361.25586513 284.39768781 368.00847603 284.32443237 377.59959412 C284.33050507 378.91439255 284.33657776 380.22919098 284.34283447 381.58383179 C284.34080951 382.9681056 284.33789456 384.35237837 284.33413696 385.73664856 C284.3297349 388.62551111 284.33607662 391.51409378 284.35015869 394.40292358 C284.36726584 398.09032959 284.35738688 401.77708108 284.3394413 405.46446323 C284.32855946 408.31880047 284.33206955 411.17298453 284.33982468 414.02732658 C284.34277465 416.04295659 284.33372761 418.05859276 284.32443237 420.07420349 C284.38685674 428.22643374 284.72460765 433.69505989 290.11627197 440.07992554 C294.42516884 443.67067293 298.03226619 444.52053903 303.58111572 444.49789429 C305.28412842 444.49656494 305.28412842 444.49656494 307.02154541 444.49520874 C308.22843018 444.48191528 309.43531494 444.46862183 310.67877197 444.45492554 C311.92046143 444.44485474 313.16215088 444.43478394 314.44146729 444.42440796 C318.20835771 444.38507904 321.97464715 444.32649022 325.74127197 444.26742554 C326.84164795 444.25872437 327.94202393 444.25002319 329.07574463 444.24105835 C332.0488214 444.21409378 335.01902513 444.15341303 337.99127197 444.07992554 C338.86388672 444.07436646 339.73650146 444.06880737 340.63555908 444.06307983 C346.75858949 443.84570477 350.99095661 442.1815866 355.74127197 438.26742554 C359.4281671 433.3912094 359.86543128 429.04355975 359.90240479 423.04940796 C359.91201233 421.7909758 359.92161987 420.53254364 359.93151855 419.23597717 C359.93636717 417.8649514 359.94064584 416.4939235 359.94439697 415.12289429 C359.95015384 413.71048482 359.9559115 412.29807535 359.96166992 410.88566589 C359.9721627 407.92591998 359.9780165 404.96620109 359.98150635 402.00643921 C359.98698503 398.22706396 360.01100656 394.44805007 360.0394783 390.66878796 C360.05816841 387.75100179 360.06331367 384.83330154 360.06484222 381.91546059 C360.06785534 380.52289163 360.07583826 379.1303237 360.0890274 377.73781395 C360.29833468 365.6862986 360.29833468 365.6862986 354.35455322 355.63461304 C353.49217041 354.85344116 352.6297876 354.07226929 351.74127197 353.26742554 C350.95107666 352.46562866 350.16088135 351.66383179 349.34674072 350.83773804 C344.84762226 346.28774101 340.29787038 341.89255885 335.42877197 337.74008179 C334.01266865 336.50426939 332.67791999 335.17609061 331.36627197 333.82992554 C329.87671697 332.0363893 329.87671697 332.0363893 327.74127197 332.26742554 C326.54267628 341.28903724 326.54267628 341.28903724 329.38189697 349.38851929 C331.44837558 350.800613 333.56961911 352.02588786 335.74127197 353.26742554 C340.02667437 358.10223849 341.11341845 362.93163179 340.74127197 369.26742554 C339.53956391 374.7146417 337.73658419 378.96237002 333.17877197 382.32992554 C327.33794329 385.62202898 322.33086639 385.82362879 315.74127197 385.26742554 C312.24127197 383.82992554 312.24127197 383.82992554 309.74127197 382.26742554 C308.25627197 381.77242554 308.25627197 381.77242554 306.74127197 381.26742554 C305.67877197 379.51742554 305.67877197 379.51742554 304.74127197 377.26742554 C304.39967041 376.51719116 304.05806885 375.76695679 303.70611572 374.99398804 C301.8361027 369.70949779 301.70327708 363.4206857 303.46392822 358.07211304 C306.35182178 352.67046598 310.39757496 349.93927404 315.74127197 347.26742554 C315.74127197 342.31742554 315.74127197 337.36742554 315.74127197 332.26742554 C312.25825362 332.26742554 305.81518901 340.86728376 303.29498291 343.36361694 Z M315.80377197 359.70492554 C313.31974256 362.7911439 313.05277536 364.49021011 313.32720947 368.36117554 C313.67325662 370.4718834 313.67325662 370.4718834 315.30377197 372.76742554 C318.69015526 374.85135371 320.83512515 374.82544651 324.74127197 374.26742554 C327.73582845 372.21851847 328.57429854 370.75790998 329.74127197 367.32992554 C329.98146805 364.18654318 329.98146805 364.18654318 328.24127197 361.45492554 C324.17124207 357.89364938 320.68155855 357.3179236 315.80377197 359.70492554 Z M86.74127197 447.26742554 C84.59230113 453.56197534 82.45756881 459.8612237 80.33258057 466.16390991 C79.60829942 468.30661548 78.88078808 470.44823204 78.14996338 472.5887146 C77.09892496 475.66890065 76.05963643 478.75284013 75.02252197 481.83773804 C74.53036194 483.26776657 74.53036194 483.26776657 74.02825928 484.72668457 C71.7024516 491.35468135 71.7024516 491.35468135 71.74127197 498.26742554 C74.52005169 500.86129507 76.40297575 501.64254795 80.1734848 501.64494896 C81.06028128 501.6527722 81.94707776 501.66059544 82.86074686 501.66865575 C83.83077693 501.66196359 84.80080701 501.65527142 85.80023193 501.64837646 C87.35083321 501.65539642 87.35083321 501.65539642 88.93275976 501.6625582 C92.40747126 501.67455408 95.8817917 501.66503282 99.35650635 501.65560913 C101.84318777 501.65967278 104.3298674 501.66501349 106.81654358 501.67153931 C112.8760375 501.68381904 118.93537711 501.68199373 124.99486506 501.67330138 C129.91894421 501.66652984 134.84299211 501.66560582 139.76707458 501.66887283 C140.46754413 501.66933253 141.16801367 501.66979223 141.88970956 501.67026586 C143.31264151 501.67122502 144.73557345 501.67219766 146.15850538 501.67318363 C159.50547273 501.68174096 172.8523783 501.67189803 186.19933552 501.65578254 C197.65491429 501.64237903 209.11040187 501.64470703 220.565979 501.65853882 C233.86475517 501.67458859 247.16347717 501.68091696 260.46226168 501.67170203 C261.87999756 501.67074637 263.29773346 501.66980325 264.71546936 501.66887283 C265.41304646 501.66841001 266.11062356 501.66794718 266.82933936 501.66747033 C271.74825422 501.66487863 276.66713476 501.66925531 281.58604431 501.67631149 C288.20489719 501.68559742 294.82360418 501.67899864 301.44244957 501.66162872 C303.87573141 501.65765234 306.30902771 501.65881749 308.74230385 501.66541672 C312.05583801 501.67357664 315.36881373 501.6633775 318.68231201 501.64837646 C319.65234209 501.65506863 320.62237216 501.6617608 321.62179708 501.66865575 C322.50859356 501.66083251 323.39539004 501.65300927 324.30905914 501.64494896 C325.07392592 501.6444619 325.8387927 501.64397485 326.62683725 501.64347303 C329.28984584 501.1698629 330.71092319 500.00720488 332.74127197 498.26742554 C332.18640562 492.42551653 330.97893094 487.34763959 329.01861572 481.82992554 C328.62120934 480.68161255 328.62120934 480.68161255 328.21577454 479.51010132 C327.37746999 477.09323834 326.52833577 474.6803507 325.67877197 472.26742554 C325.10448064 470.61793771 324.530906 468.96820018 323.95806885 467.31820679 C322.5607344 463.29834687 321.15368224 459.28201196 319.74127197 455.26742554 C319.09166504 455.28313599 318.44205811 455.29884644 317.77276611 455.31503296 C314.78319266 455.37801891 311.79375948 455.41661575 308.80377197 455.45492554 C307.27139893 455.49263062 307.27139893 455.49263062 305.70806885 455.53109741 C298.98119787 455.59557221 291.76167665 455.52633971 286.28093666 451.08368713 C281.83643626 447.48274423 278.25781938 446.55265967 272.53450012 446.66615295 C271.73630999 446.66188083 270.93811986 446.65760871 270.11574215 446.65320712 C267.45591389 446.64500741 264.79768207 446.67241063 262.13800049 446.69979858 C260.22566261 446.70120971 258.31332202 446.70041581 256.40098572 446.69758606 C251.21950902 446.69615304 246.0386125 446.72552466 240.85727048 446.76045585 C235.43874643 446.79173817 230.02020869 446.79465158 224.60160828 446.80058289 C214.34524916 446.81611577 204.08915691 446.8571369 193.83291525 446.90733033 C182.15465733 446.96324092 170.47638658 446.99071465 158.79802811 447.01580751 C134.77896152 447.06805309 110.76013171 447.15598477 86.74127197 447.26742554 Z " fill="#000000" transform="translate(141.25872802734375,-0.267425537109375)"/>
<path d="M0 0 C1.33800252 0.00051994 2.6760058 -0.00000293 4.01400757 -0.00151062 C6.80275037 -0.00142145 9.59120076 0.0088959 12.37988281 0.02709961 C15.93824252 0.04982924 19.4961778 0.0503169 23.05459023 0.04358196 C25.81197829 0.04022738 28.56927114 0.04689924 31.32664108 0.0567112 C33.27135176 0.06238005 35.21607868 0.06113384 37.16079712 0.05973816 C52.84535122 0.18519497 52.84535122 0.18519497 59.0234375 6.36328125 C61.60517488 10.86880516 62.96412065 15.40187761 64.1015625 20.4296875 C64.27725769 21.18620102 64.45295288 21.94271454 64.63397217 22.72215271 C65.00074835 24.31216911 65.36358286 25.90309943 65.72265625 27.49487305 C66.27325256 29.92496499 66.84287828 32.35006588 67.4140625 34.77539062 C67.7693872 36.3265581 68.12359251 37.87798251 68.4765625 39.4296875 C68.64730286 40.15064102 68.81804321 40.87159454 68.99395752 41.61439514 C69.85123783 45.49191128 70.31263263 48.55980671 69.0234375 52.36328125 C67.0234375 54.36328125 67.0234375 54.36328125 64.0859375 54.67578125 C61.0234375 54.36328125 61.0234375 54.36328125 59.44165039 53.25463867 C57.4387398 50.58351656 56.99313337 48.04119945 56.26953125 44.7890625 C56.12314713 44.14639938 55.976763 43.50373627 55.82594299 42.84159851 C55.36060042 40.78849221 54.91044034 38.73240737 54.4609375 36.67578125 C54.15532483 35.31161826 53.84869427 33.94768288 53.54101562 32.58398438 C52.96935156 30.049896 52.40485832 27.51464978 51.84545898 24.9777832 C50.96127816 21.08996109 50.00249724 17.22818673 49.0234375 13.36328125 C40.86108437 13.31696064 32.69878607 13.28141352 24.53633404 13.25965691 C20.74626209 13.24921534 16.95628 13.23504943 13.16625977 13.21240234 C9.50934273 13.19068712 5.85251219 13.17871543 2.19553566 13.17352676 C0.79966686 13.16982862 -0.59619716 13.16260714 -1.99202919 13.15182114 C-3.94556699 13.13732462 -5.89919163 13.13646449 -7.8527832 13.13623047 C-8.9653096 13.13178925 -10.077836 13.12734802 -11.22407532 13.12277222 C-14.19205104 13.16015295 -14.19205104 13.16015295 -16.9765625 15.36328125 C-17.95482653 18.04756535 -17.95482653 18.04756535 -18.60229492 21.28173828 C-18.88235886 22.52287384 -19.16242279 23.7640094 -19.45097351 25.04275513 C-19.74491851 26.40214534 -20.03859817 27.76159295 -20.33203125 29.12109375 C-20.64056934 30.50852623 -20.95017931 31.89572075 -21.26081848 33.28268433 C-22.07542191 36.93329836 -22.87540938 40.58696667 -23.67242432 44.24145508 C-24.48833016 47.97021062 -25.3179779 51.69590293 -26.14648438 55.421875 C-27.76999694 62.73274392 -29.37808522 70.04689298 -30.9765625 77.36328125 C-29.69584869 77.35661942 -28.41513489 77.34995758 -27.09561157 77.34309387 C-15.00208213 77.28217125 -2.908584 77.23725506 9.18506432 77.20784473 C15.40192456 77.19221611 21.6186605 77.17102889 27.83544922 77.13696289 C33.83955729 77.10426973 39.84354611 77.08640716 45.84773636 77.07864952 C48.13376364 77.07312389 50.4197847 77.0623338 52.70576096 77.04609108 C55.91775156 77.02418474 59.12925482 77.02131987 62.34130859 77.02270508 C63.27783264 77.01191925 64.21435669 77.00113342 65.17926025 76.99002075 C73.76092978 77.02983849 81.89522658 78.4735068 88.3984375 84.42578125 C89.18992188 85.11800781 89.98140625 85.81023437 90.796875 86.5234375 C96.70767989 94.06230619 97.59862328 101.96152576 97.4140625 111.27734375 C97.40840271 112.37299652 97.40274292 113.46864929 97.39691162 114.59750366 C97.37470554 118.06156021 97.32453789 121.52454279 97.2734375 124.98828125 C97.25335217 127.35154745 97.23510498 129.71483004 97.21875 132.078125 C97.17489267 137.84020379 97.10814031 143.60166576 97.0234375 149.36328125 C97.58853027 149.35280762 98.15362305 149.34233398 98.73583984 149.33154297 C101.28999403 149.29003337 103.84407732 149.26397165 106.3984375 149.23828125 C107.28789062 149.22152344 108.17734375 149.20476562 109.09375 149.1875 C109.94453125 149.18105469 110.7953125 149.17460937 111.671875 149.16796875 C112.45739746 149.15749512 113.24291992 149.14702148 114.05224609 149.13623047 C116.0234375 149.36328125 116.0234375 149.36328125 118.0234375 151.36328125 C118.22333977 154.20868267 118.30320726 156.95465909 118.2890625 159.80078125 C118.29097595 160.63665771 118.2928894 161.47253418 118.29486084 162.33374023 C118.29622286 164.10237936 118.29252526 165.87102848 118.28417969 167.63964844 C118.27348025 170.35244119 118.28407426 173.06457169 118.296875 175.77734375 C118.29555341 177.49349105 118.29299102 179.20963794 118.2890625 180.92578125 C118.29311096 181.74038818 118.29715942 182.55499512 118.30133057 183.39428711 C118.25335678 189.13336197 118.25335678 189.13336197 116.0234375 191.36328125 C114.05224609 191.59033203 114.05224609 191.59033203 111.671875 191.55859375 C110.82109375 191.55214844 109.9703125 191.54570312 109.09375 191.5390625 C108.20429688 191.52230469 107.31484375 191.50554687 106.3984375 191.48828125 C105.50125 191.47925781 104.6040625 191.47023438 103.6796875 191.4609375 C101.46067164 191.43733095 99.24218673 191.40440435 97.0234375 191.36328125 C97.03231995 191.96969955 97.04120239 192.57611786 97.050354 193.20091248 C97.13923018 199.54424562 97.19933815 205.88740027 97.24316406 212.23120117 C97.26321032 214.5948811 97.29045469 216.95851186 97.32519531 219.32202148 C97.37402021 222.73042982 97.39647698 226.13817928 97.4140625 229.546875 C97.43470764 230.5941124 97.45535278 231.64134979 97.47662354 232.72032166 C97.4795634 242.45446982 94.56165647 249.4945767 87.96484375 256.6328125 C84.69336978 259.54883457 80.53452411 262.36328125 76.0234375 262.36328125 C75.91620361 263.57806152 75.80896973 264.7928418 75.69848633 266.04443359 C75.00085536 272.28442681 73.60703463 278.3469135 72.22265625 284.46484375 C71.94500931 285.70068207 71.66736237 286.93652039 71.38130188 288.20980835 C70.7947105 290.81076708 70.20583144 293.4110909 69.61352539 296.01074219 C68.85935074 299.32436393 68.12040102 302.64118219 67.38511944 305.95903969 C66.67454169 309.15079627 65.94752917 312.33880852 65.22265625 315.52734375 C64.96207932 316.70978668 64.70150238 317.89222961 64.43302917 319.11050415 C61.28058705 332.75960724 61.28058705 332.75960724 55.33146667 337.51516724 C51.51779416 339.64577167 49.26132157 339.86962586 44.91992188 339.88085938 C43.89430901 339.89137329 43.89430901 339.89137329 42.84797668 339.90209961 C40.60395832 339.91960186 38.36121707 339.90808608 36.1171875 339.89453125 C34.54829671 339.89722844 32.97940755 339.90111274 31.41052246 339.90612793 C28.12882509 339.9120124 24.84756441 339.90349446 21.56591797 339.88476562 C17.36929309 339.86197613 13.17369156 339.87510494 8.97710419 339.89905548 C5.73932246 339.91354227 2.50178148 339.90889441 -0.73600769 339.89854431 C-2.28289411 339.89588495 -3.82980272 339.89911887 -5.37666321 339.90846252 C-7.54270934 339.91867646 -9.70712176 339.90306303 -11.87304688 339.88085938 C-13.71787659 339.87608582 -13.71787659 339.87608582 -15.59997559 339.87121582 C-20.88550944 339.07612141 -23.95398934 336.64869424 -27.23144531 332.52880859 C-29.04565631 329.23794964 -30.02139945 326.36259549 -30.8984375 322.71484375 C-31.20136719 321.461875 -31.50429688 320.20890625 -31.81640625 318.91796875 C-31.96577637 318.27182617 -32.11514648 317.62568359 -32.26904297 316.95996094 C-32.72466079 314.99647668 -33.20259546 313.03943391 -33.68359375 311.08203125 C-36.58942311 298.82974641 -36.58942311 298.82974641 -35.9765625 292.36328125 C-34.3515625 290.30078125 -34.3515625 290.30078125 -31.9765625 289.36328125 C-28.9140625 289.17578125 -28.9140625 289.17578125 -25.9765625 290.36328125 C-22.35209309 298.21787554 -20.99456506 306.82701384 -19.2265625 315.24804688 C-18.9790625 316.37533203 -18.7315625 317.50261719 -18.4765625 318.6640625 C-18.26 319.68669189 -18.0434375 320.70932129 -17.8203125 321.76293945 C-16.89610992 324.61122696 -16.34212081 325.58111544 -13.9765625 327.36328125 C-11.28177999 327.82634726 -11.28177999 327.82634726 -8.19165039 327.76733398 C-7.00354263 327.78001816 -5.81543488 327.79270233 -4.59132385 327.80577087 C-3.30692917 327.80283524 -2.02253448 327.7998996 -0.69921875 327.796875 C0.61881241 327.80211685 1.93684357 327.8073587 3.29481506 327.8127594 C6.08490565 327.82169396 8.87471008 327.8192641 11.66479492 327.80932617 C15.23732385 327.79784025 18.8088638 327.81803857 22.38126278 327.84724331 C25.79198804 327.87002192 29.20248171 327.86313811 32.61328125 327.859375 C33.8956517 327.87060898 35.17802216 327.88184296 36.49925232 327.89341736 C38.2861422 327.87934593 38.2861422 327.87934593 40.10913086 327.86499023 C41.6810746 327.86474098 41.6810746 327.86474098 43.28477478 327.86448669 C46.80022401 327.22112076 47.90335061 326.2121305 50.0234375 323.36328125 C51.07028917 320.66319156 51.07028917 320.66319156 51.6550293 317.61669922 C51.91176926 316.46225311 52.16850922 315.30780701 52.43302917 314.11837769 C52.69360611 312.87661774 52.95418304 311.63485779 53.22265625 310.35546875 C53.65116747 308.40480387 54.07968031 306.45413935 54.50829029 304.50349617 C55.10333043 301.77712571 55.68450927 299.04786632 56.26611328 296.31860352 C57.14828218 292.19293877 58.04897406 288.07128767 58.94896412 283.94948006 C59.64874805 280.7443008 60.34404772 277.53831809 61.03068542 274.33029175 C61.2779689 273.18214996 61.52525238 272.03400818 61.7800293 270.85107422 C62.10501656 269.33028763 62.10501656 269.33028763 62.43656921 267.77877808 C63.0234375 265.36328125 63.0234375 265.36328125 64.0234375 263.36328125 C62.74272369 263.36994308 61.46200989 263.37660492 60.14248657 263.38346863 C48.04895713 263.44439125 35.955459 263.48930744 23.86181068 263.51871777 C17.64495044 263.53434639 11.4282145 263.55553361 5.21142578 263.58959961 C-0.79268229 263.62229277 -6.79667111 263.64015534 -12.80086136 263.64791298 C-15.08688864 263.65343861 -17.3729097 263.6642287 -19.65888596 263.68047142 C-22.87087656 263.70237776 -26.08237982 263.70524263 -29.29443359 263.70385742 C-30.69921967 263.72003616 -30.69921967 263.72003616 -32.13238525 263.73654175 C-41.97768203 263.69086096 -50.84210531 261.46602974 -57.9765625 254.36328125 C-62.12070375 248.92023006 -64.09424115 244.42323214 -64.13046265 237.52708435 C-64.13906311 236.30894547 -64.14766357 235.09080658 -64.15652466 233.83575439 C-64.16095983 232.48352093 -64.1652582 231.13128702 -64.16943359 229.77905273 C-64.17733653 228.35642802 -64.1856056 226.93380531 -64.19421387 225.51118469 C-64.22042085 220.8356009 -64.23574427 216.16000823 -64.25 211.484375 C-64.255361 209.87273719 -64.26073851 208.26109944 -64.26613235 206.64946175 C-64.28776279 199.94194915 -64.30649666 193.23443894 -64.31775475 186.52690029 C-64.33397433 176.92740225 -64.36710145 167.32831023 -64.42415559 157.72896522 C-64.46293415 150.97296574 -64.482397 144.21707446 -64.48767531 137.46096665 C-64.49131915 133.42962331 -64.50323572 129.39871315 -64.53577805 125.36749077 C-64.56599718 121.56949097 -64.57212195 117.77218326 -64.56039429 113.97408867 C-64.56017467 112.58662324 -64.56838628 111.19912442 -64.58604813 109.81177139 C-64.69873269 100.44373197 -63.78616515 92.58590707 -57.22102928 85.45699215 C-54.40333072 82.79284936 -52.21569418 81.44329223 -48.47851562 80.19287109 C-44.79087895 78.71450186 -44.79087895 78.71450186 -43.62451172 75.50415039 C-43.26897217 73.68838501 -43.26897217 73.68838501 -42.90625 71.8359375 C-42.76065643 71.14798599 -42.61506287 70.46003448 -42.46505737 69.75123596 C-42.13394304 68.18048922 -41.81568479 66.60699845 -41.50769043 65.03155518 C-40.48480118 59.89277681 -39.31142121 54.78580346 -38.171875 49.671875 C-37.66496654 47.38615595 -37.15846174 45.10034734 -36.65234375 42.81445312 C-36.39662598 41.66259521 -36.1409082 40.5107373 -35.87744141 39.32397461 C-35.35696793 36.96055335 -34.8433756 34.59560697 -34.33642578 32.22924805 C-33.59277215 28.76799536 -32.82235891 25.31361611 -32.046875 21.859375 C-31.82790558 20.80826035 -31.60893616 19.75714569 -31.3833313 18.67417908 C-29.93621659 12.36674633 -28.25676643 7.39481166 -22.9765625 3.36328125 C-15.94300223 -0.61885368 -7.83804763 -0.05702428 0 0 Z M-50.4140625 96.36328125 C-52.66575792 100.68653646 -53.1022008 104.03029972 -53.11700439 108.88435364 C-53.12271454 110.00723282 -53.12842468 111.130112 -53.13430786 112.28701782 C-53.13542572 113.51463837 -53.13654358 114.74225891 -53.13769531 116.00708008 C-53.14266022 117.30339859 -53.14762512 118.5997171 -53.15274048 119.93531799 C-53.16584189 123.4891563 -53.17230499 127.04297574 -53.17675114 130.59683442 C-53.17968545 132.81876201 -53.18379093 135.04068448 -53.18825531 137.26260948 C-53.20192416 144.21926181 -53.21159387 151.1759024 -53.2154572 158.13256723 C-53.21993689 166.15425318 -53.23748311 174.17576865 -53.2664578 182.19740278 C-53.28809552 188.40391442 -53.29816259 194.61037818 -53.29949832 200.81692713 C-53.30054483 204.52107757 -53.30641979 208.22506762 -53.32431793 211.92917824 C-53.343906 216.06332318 -53.33950134 220.19711256 -53.33300781 224.33129883 C-53.3422226 225.55284668 -53.35143738 226.77439453 -53.3609314 228.03295898 C-53.32604343 235.12023128 -53.11702502 240.78029901 -48.2578125 246.32421875 C-47.67 246.79085937 -47.0821875 247.2575 -46.4765625 247.73828125 C-45.88875 248.22039062 -45.3009375 248.7025 -44.6953125 249.19921875 C-41.64882903 251.26251892 -38.98476412 251.49169683 -35.41767883 251.51045227 C-34.48273087 251.51760757 -33.5477829 251.52476288 -32.58450317 251.53213501 C-31.04861038 251.53616837 -31.04861038 251.53616837 -29.48168945 251.5402832 C-27.86170799 251.55014 -27.86170799 251.55014 -26.20899963 251.56019592 C-22.62761366 251.57993909 -19.04626965 251.59159433 -15.46484375 251.6015625 C-14.24193319 251.60563803 -13.01902264 251.60971355 -11.75905418 251.61391258 C-5.28541609 251.63477844 1.18820078 251.64907751 7.66186523 251.65844727 C13.01906733 251.66650507 18.37604507 251.68762207 23.7331543 251.7199707 C30.20109213 251.75840454 36.66880245 251.777212 43.13685036 251.78172874 C45.60037294 251.78659746 48.0638919 251.79821948 50.52734947 251.81676674 C53.9790313 251.84113723 57.42985011 251.84019634 60.8815918 251.83325195 C61.89539917 251.84606201 62.90920654 251.85887207 63.95373535 251.87207031 C70.14288836 251.82678663 74.87330317 250.94027357 80.0234375 247.36328125 C84.18218356 242.99126616 85.14637381 239.73056596 85.16387939 233.80387878 C85.16958954 232.64727249 85.17529968 231.4906662 85.18118286 230.29901123 C85.18230072 229.02882141 85.18341858 227.75863159 85.18457031 226.44995117 C85.18919932 225.09965377 85.19422409 223.74935768 85.19961548 222.39906311 C85.21273392 218.72953393 85.21918339 215.06002305 85.22362614 211.39047408 C85.22655787 209.09736812 85.23066288 206.80426716 85.23513031 204.51116371 C85.24880403 197.33506232 85.25847119 190.15897235 85.2623322 182.98285884 C85.26681223 174.70193284 85.28435798 166.42117196 85.3133328 158.14029616 C85.33495722 151.73764368 85.34503689 145.33503763 85.34637332 138.93234903 C85.34742084 135.10916916 85.35331729 131.28614454 85.37119293 127.46300316 C85.38768679 123.86540179 85.3898229 120.26807213 85.38105392 116.6704464 C85.37991796 114.72498981 85.39362536 112.77954219 85.4078064 110.83413696 C85.37563909 104.10474164 85.27393938 98.92698254 80.5234375 93.71875 C76.39117737 90.50118287 73.61186721 89.24312885 68.42658997 89.21611023 C67.48322784 89.20895493 66.53986572 89.20179962 65.56791687 89.19442749 C64.5346376 89.19173859 63.50135834 89.18904968 62.43676758 89.1862793 C61.34702637 89.1797081 60.25728516 89.1731369 59.13452148 89.16636658 C55.5206699 89.14662283 51.9068599 89.13496806 48.29296875 89.125 C46.44205407 89.11888671 46.44205407 89.11888671 44.55374718 89.11264992 C38.69539803 89.09393577 32.83706523 89.0793718 26.97869188 89.07103795 C20.22870325 89.06127596 13.47904345 89.03498249 6.72917062 88.99453706 C0.87350914 88.96066106 -4.98204271 88.94888652 -10.83779335 88.94483376 C-13.32364442 88.93996477 -15.8094919 88.92834202 -18.29527855 88.90979576 C-21.77809104 88.88542761 -25.26004813 88.88636575 -28.74291992 88.89331055 C-29.76607803 88.88050049 -30.78923615 88.86769043 -31.84339905 88.85449219 C-39.55397015 88.91041173 -45.41213505 90.20706286 -50.4140625 96.36328125 Z M97.0234375 160.36328125 C97.0234375 166.96328125 97.0234375 173.56328125 97.0234375 180.36328125 C99.9934375 180.36328125 102.9634375 180.36328125 106.0234375 180.36328125 C106.0234375 173.76328125 106.0234375 167.16328125 106.0234375 160.36328125 C103.0534375 160.36328125 100.0834375 160.36328125 97.0234375 160.36328125 Z " fill="#000000" transform="translate(63.9765625,172.63671875)"/>
<path d="M0 0 C17.78943358 14.73573242 31.00513631 36.01404126 34.04614258 59.19677734 C34.15571289 60.02564453 34.2652832 60.85451172 34.37817383 61.70849609 C35.84454418 74.475694 35.27256871 87.3714617 31.38989258 99.67724609 C26.51621508 115.26108994 25.25064545 129.23283311 25.39746094 145.4765625 C25.39876007 146.2745224 25.4000592 147.0724823 25.40139771 147.8946228 C25.40658423 149.39238355 25.42927299 150.89023166 25.47311401 152.38735962 C25.49256642 157.47821418 24.22334763 160.26796358 21.04614258 164.19677734 C16.90712122 167.65441866 12.90470073 167.56450189 7.73364258 167.38427734 C6.99307617 167.37074219 6.25250977 167.35720703 5.48950195 167.34326172 C3.67473183 167.30813714 1.8603397 167.25433706 0.04614258 167.19677734 C-0.13948242 168.37240234 -0.13948242 168.37240234 -0.32885742 169.57177734 C-0.95385742 172.19677734 -0.95385742 172.19677734 -2.95385742 174.19677734 C-7.4964602 174.59706152 -12.05352382 174.52578384 -16.61181641 174.51245117 C-18.87931489 174.50929411 -21.14550502 174.53273494 -23.4128418 174.55810547 C-24.85229327 174.56037876 -26.29174826 174.56108182 -27.73120117 174.56005859 C-29.04338623 174.56303955 -30.35557129 174.56602051 -31.70751953 174.5690918 C-34.95385742 174.19677734 -34.95385742 174.19677734 -36.63249207 173.06474304 C-38.55528533 170.34656079 -38.33510708 168.2459923 -38.34204102 164.93701172 C-38.3514975 163.64557251 -38.36095398 162.3541333 -38.37069702 161.02355957 C-38.36532734 159.61254571 -38.35917439 158.20153465 -38.35229492 156.79052734 C-38.35431577 155.34468438 -38.3572273 153.89884241 -38.36099243 152.45300293 C-38.36541531 149.42332247 -38.35898619 146.39390742 -38.3449707 143.36425781 C-38.32787847 139.48014959 -38.3377199 135.59666323 -38.3556881 131.71257782 C-38.36652712 128.7271455 -38.36307913 125.7418607 -38.35530472 122.75642395 C-38.35330302 121.32428412 -38.35576095 119.89213092 -38.36274338 118.46000671 C-38.37035886 116.45885472 -38.35669404 114.4576558 -38.34204102 112.45654297 C-38.33965424 111.3175354 -38.33726746 110.17852783 -38.33480835 109.00500488 C-37.95385742 106.19677734 -37.95385742 106.19677734 -36.63150024 104.33079529 C-33.83602304 102.44116701 -31.08343676 102.78794708 -27.76635742 102.76318359 C-27.06744385 102.75794174 -26.36853027 102.75269989 -25.6484375 102.74729919 C-24.17245816 102.74088288 -22.69642767 102.74221103 -21.22045898 102.75073242 C-18.96139642 102.75924892 -16.70485798 102.73047196 -14.44604492 102.69873047 C-13.01114985 102.69711847 -11.57625029 102.69769596 -10.14135742 102.70068359 C-8.83553711 102.69883057 -7.5297168 102.69697754 -6.18432617 102.69506836 C-2.95385742 103.19677734 -2.95385742 103.19677734 -1.00463867 105.1027832 C0.04614258 107.19677734 0.04614258 107.19677734 0.04614258 109.19677734 C0.86598633 109.18517578 1.68583008 109.17357422 2.53051758 109.16162109 C3.60817383 109.15259766 4.68583008 109.14357422 5.79614258 109.13427734 C7.3971582 109.116875 7.3971582 109.116875 9.03051758 109.09912109 C11.57982759 109.18167647 13.62547849 109.45060176 16.04614258 110.19677734 C16.15571289 109.62572266 16.2652832 109.05466797 16.37817383 108.46630859 C17.11691182 104.68853466 17.85842694 100.93135844 18.81176758 97.20068359 C24.40467992 75.24027778 22.35865137 52.75849322 10.83129883 32.94677734 C-2.07180826 13.06978087 -19.31625342 -0.22427768 -42.51635742 -6.11572266 C-65.71866175 -10.00163704 -86.6658794 -4.11641928 -105.82885742 9.00927734 C-122.26468371 21.67496657 -133.47162533 40.75967726 -136.95385742 61.19677734 C-138.86436089 76.13445649 -136.89118526 89.71083542 -132.75854492 104.11474609 C-131.95385742 107.19677734 -131.95385742 107.19677734 -131.95385742 110.19677734 C-131.42276367 110.03306641 -130.89166992 109.86935547 -130.34448242 109.70068359 C-127.41508978 109.08321358 -124.69562806 109.1017581 -121.70385742 109.13427734 C-120.62620117 109.14330078 -119.54854492 109.15232422 -118.43823242 109.16162109 C-117.2084668 109.17902344 -117.2084668 109.17902344 -115.95385742 109.19677734 C-115.64448242 108.39240234 -115.33510742 107.58802734 -115.01635742 106.75927734 C-113.95385742 104.19677734 -113.95385742 104.19677734 -112.95385742 103.19677734 C-108.43011265 102.95407928 -103.90087674 102.96825477 -99.37133789 102.95654297 C-97.09508604 102.94684648 -94.81974051 102.91584105 -92.54370117 102.88427734 C-91.09969613 102.87774656 -89.65568461 102.87249638 -88.21166992 102.86865234 C-86.89312012 102.85930664 -85.57457031 102.84996094 -84.21606445 102.84033203 C-80.95385742 103.19677734 -80.95385742 103.19677734 -79.27423096 104.32781982 C-77.35326255 107.04690519 -77.57260736 109.14775531 -77.56567383 112.45654297 C-77.55621735 113.74798218 -77.54676086 115.03942139 -77.53701782 116.36999512 C-77.54238751 117.78100898 -77.54854045 119.19202004 -77.55541992 120.60302734 C-77.55339907 122.04887031 -77.55048754 123.49471228 -77.54672241 124.94055176 C-77.54229953 127.97023222 -77.54872866 130.99964727 -77.56274414 134.02929688 C-77.57983637 137.9134051 -77.56999495 141.79689146 -77.55202675 145.68097687 C-77.54118772 148.66640918 -77.54463571 151.65169399 -77.55241013 154.63713074 C-77.55441182 156.06927056 -77.55195389 157.50142377 -77.54497147 158.93354797 C-77.53735598 160.93469996 -77.55102081 162.93589889 -77.56567383 164.93701172 C-77.56806061 166.07601929 -77.57044739 167.21502686 -77.57290649 168.3885498 C-77.95385742 171.19677734 -77.95385742 171.19677734 -79.2762146 173.0627594 C-82.0716918 174.95238767 -84.82427809 174.60560761 -88.14135742 174.63037109 C-89.18972778 174.63823387 -89.18972778 174.63823387 -90.25927734 174.64625549 C-91.73525668 174.65267181 -93.21128718 174.65134365 -94.68725586 174.64282227 C-96.94631842 174.63430577 -99.20285687 174.66308273 -101.46166992 174.69482422 C-102.896565 174.69643621 -104.33146455 174.69585873 -105.76635742 174.69287109 C-107.07217773 174.69472412 -108.37799805 174.69657715 -109.72338867 174.69848633 C-112.95385742 174.19677734 -112.95385742 174.19677734 -114.90307617 172.35327148 C-115.95385742 170.19677734 -115.95385742 170.19677734 -115.95385742 167.19677734 C-117.03924805 167.24318359 -118.12463867 167.28958984 -119.24291992 167.33740234 C-120.68820474 167.37494221 -122.13351953 167.41133999 -123.57885742 167.44677734 C-124.29170898 167.48029297 -125.00456055 167.51380859 -125.73901367 167.54833984 C-130.94593234 167.64387964 -133.87694347 166.71177061 -137.95385742 163.19677734 C-141.15763836 159.02067402 -141.3308745 155.39039345 -141.21948242 150.31005859 C-141.21702944 148.72737807 -141.21645358 147.14469378 -141.2175293 145.56201172 C-141.21422607 144.73660889 -141.21092285 143.91120605 -141.20751953 143.06079102 C-141.18397099 126.65373481 -142.81910817 112.28966649 -148.21362305 96.66162109 C-154.93039311 74.29601734 -149.58556319 48.40900076 -138.95385742 28.19677734 C-126.12733058 5.61448114 -105.62443286 -10.30244075 -80.75024414 -17.39599609 C-52.83570757 -24.85538439 -22.45161694 -17.91279203 0 0 Z M-103.95385742 115.19677734 C-103.95385742 130.70677734 -103.95385742 146.21677734 -103.95385742 162.19677734 C-99.33385742 162.19677734 -94.71385742 162.19677734 -89.95385742 162.19677734 C-89.95385742 146.68677734 -89.95385742 131.17677734 -89.95385742 115.19677734 C-94.57385742 115.19677734 -99.19385742 115.19677734 -103.95385742 115.19677734 Z M-25.95385742 115.19677734 C-25.95385742 130.70677734 -25.95385742 146.21677734 -25.95385742 162.19677734 C-21.33385742 162.19677734 -16.71385742 162.19677734 -11.95385742 162.19677734 C-11.95385742 146.68677734 -11.95385742 131.17677734 -11.95385742 115.19677734 C-16.57385742 115.19677734 -21.19385742 115.19677734 -25.95385742 115.19677734 Z M-127.95385742 121.19677734 C-131.11991228 125.94585963 -130.28770957 131.06163331 -130.26953125 136.6484375 C-130.26636818 138.68983188 -130.28984869 140.72978053 -130.31518555 142.77099609 C-130.31583008 144.05619141 -130.31647461 145.34138672 -130.31713867 146.66552734 C-130.32011963 147.84566406 -130.32310059 149.02580078 -130.32617188 150.24169922 C-130.21647935 153.5473253 -130.21647935 153.5473253 -126.95385742 156.19677734 C-123.32385742 156.19677734 -119.69385742 156.19677734 -115.95385742 156.19677734 C-115.95385742 144.64677734 -115.95385742 133.09677734 -115.95385742 121.19677734 C-119.91385742 121.19677734 -123.87385742 121.19677734 -127.95385742 121.19677734 Z M0.04614258 121.19677734 C0.04614258 132.74677734 0.04614258 144.29677734 0.04614258 156.19677734 C3.67614258 156.19677734 7.30614258 156.19677734 11.04614258 156.19677734 C14.30876451 153.5473253 14.30876451 153.5473253 14.41845703 150.24169922 C14.41547607 149.0615625 14.41249512 147.88142578 14.40942383 146.66552734 C14.4087793 145.38033203 14.40813477 144.09513672 14.4074707 142.77099609 C14.39917236 142.10245605 14.39087402 141.43391602 14.38232422 140.74511719 C14.3587245 138.70386283 14.36176605 136.66391479 14.3684082 134.62255859 C14.64775024 127.51684271 14.64775024 127.51684271 12.04614258 121.19677734 C8.08614258 121.19677734 4.12614258 121.19677734 0.04614258 121.19677734 Z " fill="#000000" transform="translate(313.953857421875,127.80322265625)"/>
<path d="M0 0 C11.44232781 9.6707174 19.0086089 22.01715265 21 37 C22.0194605 53.19373789 18.48708662 67.85433813 7.6875 80.3125 C-2.81842692 91.238664 -14.62820597 97.94893716 -30 99 C-46.59437778 99.14137915 -60.84987203 94.27479029 -73.125 82.96484375 C-85.20197395 70.30918147 -88.5246281 55.98100937 -88.27734375 39.1015625 C-87.74091537 24.6313403 -80.49138755 11.74847409 -70 2 C-49.14111991 -13.823978 -21.47847907 -15.95631329 0 0 Z M-60 10 C-61.010625 10.70125 -62.02125 11.4025 -63.0625 12.125 C-71.19549562 19.19137324 -75.41462357 29.76710571 -76.875 40.1875 C-77.60671284 51.30330781 -74.40730204 61.03321269 -68 70 C-67.13375 71.3303125 -67.13375 71.3303125 -66.25 72.6875 C-57.89683505 81.27269731 -46.50850354 87.00490348 -34.4375 87.25 C-21.02315421 87.03107151 -10.4229938 81.87175974 -1.125 72.3125 C7.67339826 62.01616655 9.97712809 50.17058572 9 37 C6.43743763 24.74363027 0.02164177 15.39116253 -10 8 C-26.15515953 -1.86842303 -44.55118985 -1.49761677 -60 10 Z " fill="#000000" transform="translate(114,299)"/>
<path d="M0 0 C0.66521119 -0.00297112 1.33042237 -0.00594224 2.01579148 -0.0090034 C4.25517423 -0.01770729 6.49450363 -0.01920006 8.73390198 -0.02069092 C10.33522151 -0.02531783 11.93653993 -0.03034232 13.53785706 -0.03573608 C17.89523868 -0.04887276 22.25260489 -0.0553073 26.61000323 -0.05974674 C29.33006229 -0.06267492 32.0501171 -0.0667792 34.77017403 -0.07125092 C43.27417146 -0.08492808 51.77815923 -0.09459413 60.2821669 -0.09845281 C70.11109549 -0.10293676 79.93988523 -0.12049932 89.76877159 -0.1494534 C97.35860781 -0.1710386 104.94840488 -0.18115536 112.53827149 -0.18249393 C117.07509286 -0.18354407 121.61178376 -0.18949622 126.14857292 -0.20731354 C130.41425044 -0.2237401 134.67969864 -0.22597627 138.94539642 -0.21717453 C140.51316248 -0.21640128 142.0809406 -0.22078453 143.64867592 -0.23063278 C145.78477789 -0.24326719 147.92005712 -0.23752297 150.05615234 -0.22705078 C151.8511349 -0.22925062 151.8511349 -0.22925062 153.68237972 -0.2314949 C156.59156799 0.14044189 156.59156799 0.14044189 158.47659397 1.47591019 C160.22202008 4.08163646 159.97231715 6.09444864 159.59156799 9.14044189 C158.4761734 10.80455303 158.4761734 10.80455303 156.59156799 12.14044189 C153.68517303 12.515172 153.68517303 12.515172 150.06288147 12.5146637 C149.06378305 12.52062531 149.06378305 12.52062531 148.04450083 12.52670735 C145.80802096 12.53634774 143.57217094 12.52450233 141.33570862 12.51275635 C139.73424035 12.51518375 138.1327736 12.51890257 136.53131104 12.52381897 C132.17803966 12.53323872 127.82499269 12.5237935 123.47173882 12.51048684 C118.92073906 12.49918637 114.36975059 12.50327876 109.81874084 12.50523376 C102.1754336 12.50611719 94.53221498 12.49502631 86.88893127 12.47662354 C78.04625623 12.45545517 69.20371104 12.45194575 60.3610158 12.45818549 C51.86234347 12.46387596 43.36371698 12.45823724 34.86505127 12.44701195 C31.24469151 12.44236175 27.62435974 12.44149393 24.0039978 12.44359779 C19.74242634 12.44547849 15.48098743 12.4373937 11.21944618 12.4215374 C9.65330364 12.41728712 8.08714766 12.41644897 6.52100182 12.4192276 C4.38727287 12.42243947 2.25394247 12.41339314 0.12025452 12.40113831 C-1.0751017 12.39908544 -2.27045792 12.39703257 -3.50203705 12.39491749 C-6.40843201 12.14044189 -6.40843201 12.14044189 -9.40843201 10.14044189 C-10.38711353 7.27968051 -10.62978312 5.75341421 -9.59593201 2.89044189 C-7.1595532 -0.70001108 -4.0298728 0.01002067 0 0 Z " fill="#000000" transform="translate(268.40843200683594,467.85955810546875)"/>
<path d="M0 0 C3.46219189 -0.6414721 5.89852852 -0.59176476 9.04492188 1.09863281 C11.35176328 2.69478065 13.55192978 4.38208226 15.75 6.125 C17.42005498 7.40562364 19.09064463 8.68555026 20.76171875 9.96484375 C21.61813965 10.6285498 22.47456055 11.29225586 23.35693359 11.97607422 C26.00792841 14.00607117 28.69147355 15.98138309 31.39453125 17.94140625 C32.26045898 18.56966309 33.12638672 19.19791992 34.01855469 19.84521484 C35.68839388 21.0544861 37.35957612 22.26190539 39.03222656 23.46728516 C39.78600586 24.01819824 40.53978516 24.56911133 41.31640625 25.13671875 C41.98099854 25.61842529 42.64559082 26.10013184 43.33032227 26.59643555 C45 28 45 28 47 31 C47.10074979 34.14952603 46.8027121 36.14049356 44.60595703 38.49267578 C42.64899028 40.11111131 40.63437074 41.59396495 38.5625 43.0625 C37.81202393 43.61470215 37.06154785 44.1669043 36.28833008 44.73583984 C33.87097858 46.50788035 31.43661734 48.25457073 29 50 C27.3351382 51.20853507 25.67107135 52.41816604 24.0078125 53.62890625 C20.29528278 56.32585935 16.57128607 59.00608711 12.83666992 61.67236328 C11.51673677 62.62647686 10.22679475 63.62259526 8.95825195 64.64404297 C6.18831304 66.56203832 4.29080809 66.42010316 1 66 C-0.6603241 64.83911133 -0.6603241 64.83911133 -2 63 C-2.3742218 60.3815918 -2.3742218 60.3815918 -2.37231445 57.19921875 C-2.37854324 56.0078833 -2.38477203 54.81654785 -2.39118958 53.58911133 C-2.38197983 52.30157959 -2.37277008 51.01404785 -2.36328125 49.6875 C-2.36276254 48.35375977 -2.36328066 47.02001877 -2.36479187 45.6862793 C-2.36470218 42.89197363 -2.35428049 40.0979567 -2.33618164 37.30371094 C-2.31349429 33.72236515 -2.31295064 30.1414412 -2.31969929 26.56004333 C-2.32304118 23.80623629 -2.31640509 21.05252538 -2.30657005 18.29873657 C-2.30085011 16.33612868 -2.30215381 14.37350441 -2.30354309 12.41088867 C-2.29401108 11.21955322 -2.28447906 10.02821777 -2.2746582 8.80078125 C-2.27005081 7.75059814 -2.26544342 6.70041504 -2.26069641 5.6184082 C-2 3 -2 3 0 0 Z M10 18 C10 27.9 10 37.8 10 48 C15.11196341 44.59202439 20.1263894 41.24897993 25.0625 37.625 C26.00222656 36.93664062 26.94195312 36.24828125 27.91015625 35.5390625 C28.59980469 35.03117187 29.28945312 34.52328125 30 34 C28.83388983 30.5016695 27.935543 29.9544097 25 27.86328125 C23.7934375 26.99799805 23.7934375 26.99799805 22.5625 26.11523438 C21.716875 25.52033203 20.87125 24.92542969 20 24.3125 C19.154375 23.70599609 18.30875 23.09949219 17.4375 22.47460938 C13.99608889 19.52806318 13.99608889 19.52806318 10 18 Z " fill="#000000" transform="translate(64,310)"/>
<path d="M0 0 C2.3125 1.375 2.3125 1.375 4.3125 4.375 C4.61328125 6.71484375 4.61328125 6.71484375 4.625 9.3125 C4.65013672 10.59447266 4.65013672 10.59447266 4.67578125 11.90234375 C4.23690392 14.88954103 3.4365393 16.24608905 1.3125 18.375 C-2.25 18.75 -2.25 18.75 -5.6875 18.375 C-8.54293983 15.51956017 -8.05521402 13.41530073 -8.125 9.4375 C-8.16496094 8.19097656 -8.20492188 6.94445312 -8.24609375 5.66015625 C-7.6875 2.375 -7.6875 2.375 -5.328125 0.39453125 C-2.6875 -0.625 -2.6875 -0.625 0 0 Z " fill="#000000" transform="translate(476.6875,173.625)"/>
<path d="M0 0 C5.875 1.875 5.875 1.875 7 3 C7.12569503 5.1221998 7.17576773 7.24911345 7.1875 9.375 C7.20167969 10.53773437 7.21585938 11.70046875 7.23046875 12.8984375 C7 16 7 16 5 19 C1.5625 19.4375 1.5625 19.4375 -2 19 C-4.78355796 16.17144226 -5.45166283 13.98385271 -5.5 10.0625 C-5.41443924 6.44221051 -5.10073581 4.45357045 -2.5 1.875 C-1.675 1.25625 -0.85 0.6375 0 0 Z " fill="#000000" transform="translate(36,32)"/>
<path d="M0 0 C2.13749925 3.20624887 2.29574999 4.22458103 2.3125 7.9375 C2.33763672 9.21947266 2.33763672 9.21947266 2.36328125 10.52734375 C1.92646938 13.50048258 1.08644864 14.8598021 -1 17 C-4.09296856 17.45105792 -6.03667547 17.66866056 -8.66015625 15.84765625 C-10.56675838 13.21843524 -10.43355768 11.2169355 -10.4375 8 C-10.45683594 6.948125 -10.47617187 5.89625 -10.49609375 4.8125 C-10 2 -10 2 -8.16796875 0.1171875 C-5.08795633 -1.46999007 -3.25685993 -0.99121824 0 0 Z " fill="#000000" transform="translate(479,210)"/>
<path d="M0 0 C2.875 0.875 2.875 0.875 4.875 2.875 C5.17578125 5.58984375 5.17578125 5.58984375 5.1875 8.8125 C5.20425781 9.87339844 5.22101562 10.93429688 5.23828125 12.02734375 C4.875 14.875 4.875 14.875 3.54296875 16.7265625 C0.91229955 18.53784294 -1.03000066 18.32635407 -4.125 17.875 C-6.91833452 14.98964975 -7.55644751 12.84543194 -7.5625 8.875 C-7.44849521 5.51929371 -7.26772199 4.11104022 -5.5 1.1875 C-3.125 -0.125 -3.125 -0.125 0 0 Z " fill="#000000" transform="translate(38.125,68.125)"/>
<path d="M0 0 C1.4375 1.875 1.4375 1.875 1.875 4.875 C1.4375 7.875 1.4375 7.875 0.28515625 9.5390625 C-2.34867989 11.44344296 -4.3448649 11.27365908 -7.5625 11.25 C-8.614375 11.25773437 -9.66625 11.26546875 -10.75 11.2734375 C-13.5625 10.875 -13.5625 10.875 -15.44140625 9.57421875 C-16.5625 7.875 -16.5625 7.875 -16.5 4.3125 C-15.5625 0.875 -15.5625 0.875 -13.78515625 -0.3203125 C-9.25390443 -1.96080086 -4.40938192 -1.93582621 0 0 Z " fill="#000000" transform="translate(62.5625,54.125)"/>
<path d="M0 0 C1.5625 1.4375 1.5625 1.4375 2.5 4.875 C2.5625 8.4375 2.5625 8.4375 1.44140625 10.13671875 C-1.21972957 11.97904355 -3.22916353 11.83609071 -6.4375 11.8125 C-7.489375 11.82023438 -8.54125 11.82796875 -9.625 11.8359375 C-12.4375 11.4375 -12.4375 11.4375 -14.28125 10.1015625 C-16.1274151 7.44458165 -15.95899353 5.56646116 -15.4375 2.4375 C-11.04602157 -1.67951103 -5.60074736 -1.29248016 0 0 Z " fill="#000000" transform="translate(463.4375,194.5625)"/>
<path d="M0 0 C3.125 2.1875 3.125 2.1875 5 5 C4.91985673 8.44616056 4.4443896 9.5556104 2 12 C-0.71484375 12.265625 -0.71484375 12.265625 -3.9375 12.25 C-5.52884766 12.25773438 -5.52884766 12.25773438 -7.15234375 12.265625 C-10 12 -10 12 -13 10 C-13.76045884 4.02496626 -13.76045884 4.02496626 -11.5625 1.0625 C-7.67544156 -0.54920716 -4.13548077 -0.78596171 0 0 Z " fill="#000000" transform="translate(497,194)"/>
<path d="M0 0 C2.5625 1.0625 2.5625 1.0625 4 3 C4.4375 6.5625 4.4375 6.5625 4 10 C0.56877276 12.28748482 -0.94887104 12.32535381 -5 12.375 C-6.051875 12.40335938 -7.10375 12.43171875 -8.1875 12.4609375 C-11 12 -11 12 -12.87890625 10.13671875 C-14 8 -14 8 -13.9375 5.4375 C-11.48121996 -0.94882811 -6.02498885 -0.7849068 0 0 Z " fill="#000000" transform="translate(24,53)"/>
<path d="M0 0 C1.875 1.125 1.875 1.125 3 3 C3.49573337 6.89504791 3.58016848 9.09493717 1.4375 12.4375 C-1.96719488 14.61999672 -4.03430012 14.63734462 -8 14 C-10.5 11.875 -10.5 11.875 -12 9 C-11.84286879 5.07171964 -11.19403928 3.29105892 -9 0 C-5.45026831 -1.1832439 -3.60040463 -0.90010116 0 0 Z " fill="#000000" transform="translate(111,140)"/>
<path d="M0 0 C2.80803082 1.44196177 3.75137334 2.38672091 4.9375 5.3125 C5.02497416 9.07388901 4.20948641 10.96195618 2 14 C-1.55955617 15.03550725 -3.84406836 15.3954503 -7.375 14.1875 C-9 13 -9 13 -10 11 C-10.57842047 3.71190211 -10.57842047 3.71190211 -8.375 1 C-5.32806078 -0.28292178 -3.27967299 -0.40995912 0 0 Z " fill="#000000" transform="translate(227,320)"/>
<path d="M0 0 C2.80803082 1.44196177 3.75137334 2.38672091 4.9375 5.3125 C5.02497416 9.07388901 4.20948641 10.96195618 2 14 C-1.55955617 15.03550725 -3.84406836 15.3954503 -7.375 14.1875 C-9 13 -9 13 -10 11 C-10.57842047 3.71190211 -10.57842047 3.71190211 -8.375 1 C-5.32806078 -0.28292178 -3.27967299 -0.40995912 0 0 Z " fill="#000000" transform="translate(379,238)"/>
</svg>
