<?xml version="1.0" encoding="UTF-8"?>
<svg version="1.1" xmlns="http://www.w3.org/2000/svg" width="512" height="512">
<path d="M0 0 C0.825 -0.01289063 1.65 -0.02578125 2.5 -0.0390625 C6.30550888 0.9717758 7.61817842 2.47928466 10 5.625 C10.72699709 9.27076058 10.63177447 12.85929498 10.56762695 16.56567383 C10.56835709 17.66855743 10.56908722 18.77144104 10.56983948 19.90774536 C10.56635872 23.54967592 10.52747152 27.19032437 10.48828125 30.83203125 C10.47895494 33.3583659 10.47183797 35.88470959 10.46684265 38.41105652 C10.44970887 44.37873703 10.41031158 50.34586801 10.3600952 56.31332844 C10.30415496 63.10889696 10.27670361 69.90448774 10.25161803 76.70022929 C10.1993936 90.67541463 10.11047043 104.65016465 10 118.625 C15.94 118.625 21.88 118.625 28 118.625 C27.98334541 116.51814568 27.98334541 116.51814568 27.96635437 114.36872864 C27.86505417 101.14054665 27.78977034 87.91243177 27.74093914 74.68394947 C27.71516591 67.88280971 27.68003299 61.08195966 27.62280273 54.28100586 C27.56761235 47.71932815 27.5385886 41.15787258 27.52561378 34.59595299 C27.51636585 32.09085028 27.49830703 29.5857643 27.47134972 27.08078957 C27.43512211 23.57538699 27.43005229 20.07123309 27.43237305 16.56567383 C27.41439667 15.52701675 27.39642029 14.48835968 27.37789917 13.41822815 C27.42841399 6.3799041 27.42841399 6.3799041 30.37922668 2.48271179 C33.21466269 0.47283826 34.56268446 -0.05370806 38 0 C38.825 -0.01289063 39.65 -0.02578125 40.5 -0.0390625 C44.30550888 0.9717758 45.61817842 2.47928466 48 5.625 C48.72699709 9.27076058 48.63177447 12.85929498 48.56762695 16.56567383 C48.56835709 17.66855743 48.56908722 18.77144104 48.56983948 19.90774536 C48.56635872 23.54967592 48.52747152 27.19032437 48.48828125 30.83203125 C48.47895494 33.3583659 48.47183797 35.88470959 48.46684265 38.41105652 C48.44970887 44.37873703 48.41031158 50.34586801 48.3600952 56.31332844 C48.30415496 63.10889696 48.27670361 69.90448774 48.25161803 76.70022929 C48.1993936 90.67541463 48.11047043 104.65016465 48 118.625 C53.94 118.625 59.88 118.625 66 118.625 C65.98889694 117.22043045 65.97779388 115.8158609 65.96635437 114.36872864 C65.86505417 101.14054665 65.78977034 87.91243177 65.74093914 74.68394947 C65.71516591 67.88280971 65.68003299 61.08195966 65.62280273 54.28100586 C65.56761235 47.71932815 65.5385886 41.15787258 65.52561378 34.59595299 C65.51636585 32.09085028 65.49830703 29.5857643 65.47134972 27.08078957 C65.43512211 23.57538699 65.43005229 20.07123309 65.43237305 16.56567383 C65.41439667 15.52701675 65.39642029 14.48835968 65.37789917 13.41822815 C65.42841399 6.3799041 65.42841399 6.3799041 68.37922668 2.48271179 C71.21466269 0.47283826 72.56268446 -0.05370806 76 0 C76.825 -0.01289063 77.65 -0.02578125 78.5 -0.0390625 C82.30550888 0.9717758 83.61817842 2.47928466 86 5.625 C86.72699709 9.27076058 86.63177447 12.85929498 86.56762695 16.56567383 C86.56835709 17.66855743 86.56908722 18.77144104 86.56983948 19.90774536 C86.56635872 23.54967592 86.52747152 27.19032437 86.48828125 30.83203125 C86.47895494 33.3583659 86.47183797 35.88470959 86.46684265 38.41105652 C86.44970887 44.37873703 86.41031158 50.34586801 86.3600952 56.31332844 C86.30415496 63.10889696 86.27670361 69.90448774 86.25161803 76.70022929 C86.1993936 90.67541463 86.11047043 104.65016465 86 118.625 C91.94 118.625 97.88 118.625 104 118.625 C103.98889694 117.22043045 103.97779388 115.8158609 103.96635437 114.36872864 C103.86505417 101.14054665 103.78977034 87.91243177 103.74093914 74.68394947 C103.71516591 67.88280971 103.68003299 61.08195966 103.62280273 54.28100586 C103.56761235 47.71932815 103.5385886 41.15787258 103.52561378 34.59595299 C103.51636585 32.09085028 103.49830703 29.5857643 103.47134972 27.08078957 C103.43512211 23.57538699 103.43005229 20.07123309 103.43237305 16.56567383 C103.41439667 15.52701675 103.39642029 14.48835968 103.37789917 13.41822815 C103.42841399 6.3799041 103.42841399 6.3799041 106.37922668 2.48271179 C109.21466269 0.47283826 110.56268446 -0.05370806 114 0 C114.825 -0.01289063 115.65 -0.02578125 116.5 -0.0390625 C119.24133001 0.68910328 120.97294257 1.67458394 122.93269157 3.73698425 C125.42778555 8.15068193 124.67704729 13.73463266 124.63110352 18.65429688 C124.63624499 19.99353991 124.643528 21.33277617 124.65278625 22.67199707 C124.67129447 26.30494443 124.6583604 29.93715732 124.63869596 33.57007408 C124.62227582 37.38367908 124.63112827 41.19723875 124.63621521 45.01086426 C124.64073683 51.42337716 124.6248732 57.83559849 124.59692383 64.24804688 C124.56498069 71.63310857 124.56484479 79.0176413 124.5821386 86.40274 C124.59808685 93.53028375 124.59121011 100.65763596 124.57420158 107.78517151 C124.56737705 110.80559978 124.56831609 113.82587239 124.57574654 116.84629822 C124.58349208 120.41865147 124.57101892 123.99041471 124.54389763 127.56266785 C124.53388483 129.47689488 124.54311428 131.3911934 124.55322266 133.30541992 C124.36804327 150.35863158 117.83785194 165.41388245 106 177.625 C100.34983078 182.43998997 94.65904518 186.35862502 88 189.625 C88.00016235 190.25735022 88.0003247 190.88970045 88.00049198 191.5412128 C88.00935987 229.04389768 87.98698729 266.54644357 87.92420971 304.0490794 C87.91669393 308.55501742 87.90943839 313.06095583 87.90234375 317.56689453 C87.90021862 318.91243551 87.90021862 318.91243551 87.89805056 320.28515914 C87.87574991 334.79765711 87.8745175 349.31008394 87.88111137 363.82259426 C87.88741 378.72080046 87.87097437 393.61885737 87.83356392 408.51701856 C87.8112039 417.70536554 87.80644274 426.89337201 87.82440336 436.0817301 C87.83502917 442.38796235 87.82351361 448.69391568 87.79483847 455.00009063 C87.77895543 458.63512867 87.77259355 462.26950264 87.79260826 465.90453529 C87.81410302 469.85499197 87.78884688 473.80439942 87.75949097 477.75482178 C87.77307707 478.89104312 87.78666317 480.02726446 87.80066097 481.19791675 C87.67308025 490.06503643 85.15790283 497.83431456 79.25907028 504.63087821 C77.60141863 506.2068392 75.93706855 507.41131805 74 508.625 C73.06800781 509.23988281 73.06800781 509.23988281 72.1171875 509.8671875 C65.13757762 513.71526139 56.73954955 513.87554524 49 512.625 C40.40177762 509.90014341 34.41077452 505.46775853 29.89626598 497.73427069 C26.64030602 491.1887086 26.46077922 485.38371416 26.56176758 478.16268921 C26.56273312 476.93078909 26.56369865 475.69888896 26.56469345 474.42965853 C26.57111873 471.03123927 26.59537442 467.63380252 26.62710309 464.23558283 C26.65684609 460.56281952 26.66301385 456.89001079 26.6716156 453.21714783 C26.68918733 446.85914502 26.72002929 440.50132111 26.75866699 434.14341354 C26.81857479 424.09290447 26.83690779 414.04251603 26.84863281 403.99185181 C26.8531569 400.55010766 26.85794925 397.10836392 26.86282349 393.66662025 C26.86463417 392.37666344 26.86463417 392.37666344 26.86648142 391.06064688 C26.88076791 381.28357778 26.90357533 371.506535 26.93017578 361.72949219 C26.9325949 360.83624283 26.93501401 359.94299347 26.93750644 359.02267595 C26.977802 344.53311401 27.04879194 330.04381886 27.12748611 315.55442218 C27.20721829 300.66840542 27.24099327 285.78273493 27.23541355 270.89650595 C27.23369022 261.71847742 27.26978133 252.54215113 27.35448819 243.36450614 C27.40935555 237.07837175 27.4207122 230.7931123 27.39779395 224.50678371 C27.38595109 220.87955139 27.39372695 217.25512424 27.4540081 213.62831306 C27.51891536 209.69554847 27.49095792 205.76654099 27.45410156 201.83334351 C27.48789319 200.68869704 27.52168482 199.54405057 27.55650043 198.36471784 C27.47833242 195.04807233 27.29756781 192.68381728 26 189.625 C23.15547203 187.24454885 20.37713659 185.67177363 17.03164291 184.08105433 C4.27305337 177.95328794 -3.51344435 164.3098768 -8.125 151.5 C-9.5346108 146.86842166 -10.12709254 142.66077137 -10.15390015 137.81835938 C-10.16250061 136.65755859 -10.17110107 135.49675781 -10.17996216 134.30078125 C-10.18422211 133.03621094 -10.18848206 131.77164063 -10.19287109 130.46875 C-10.20077909 129.11653435 -10.20904847 127.76432078 -10.21765137 126.41210938 C-10.24377489 121.98309316 -10.25916201 117.5540679 -10.2734375 113.125 C-10.27879978 111.5980631 -10.2841773 110.07112625 -10.28956985 108.54418945 C-10.31117786 102.19430356 -10.32991623 95.84442013 -10.34119225 89.49450684 C-10.35744821 80.40163195 -10.39068914 71.30918311 -10.44759309 62.21646881 C-10.48627519 55.817192 -10.50582242 49.41802928 -10.51111281 43.01863861 C-10.51476659 39.19818548 -10.52679123 35.37818777 -10.55921555 31.55786133 C-10.58926905 27.96585349 -10.59561845 24.37457742 -10.58383179 20.7824707 C-10.58350561 18.83798375 -10.60798542 16.89354212 -10.63320923 14.94921875 C-10.56509448 5.44415968 -10.56509448 5.44415968 -7.61978149 2.34423828 C-4.79639032 0.49138063 -3.34917855 -0.05233091 0 0 Z M11 138.625 C12.82216423 146.82473903 14.53610154 150.99926589 19 157.625 C19.5775 158.511875 20.155 159.39875 20.75 160.3125 C26.47152734 166.19295866 33.10549601 170.07510544 40.87109375 172.60546875 C43.54422738 173.88562999 44.45246896 175.10579225 46 177.625 C46.37555552 180.06940824 46.37555552 180.06940824 46.37638092 182.86093616 C46.38398736 183.92701912 46.39159381 184.99310207 46.39943075 186.09149057 C46.39253682 187.26180359 46.38564288 188.43211662 46.37854004 189.63789368 C46.38307017 190.88185589 46.3876003 192.12581809 46.3922677 193.40747613 C46.40189707 196.86257421 46.39810492 200.31719285 46.38876271 203.77226102 C46.38197506 207.49766739 46.39249451 211.22302822 46.40104675 214.94842529 C46.41362288 221.40520936 46.4155829 227.86192647 46.41069031 234.31871986 C46.40388786 243.66180881 46.41638995 253.00479663 46.43419749 262.34786751 C46.46285993 277.51600555 46.48036345 292.68413268 46.48876953 307.85229492 C46.48927671 308.76033425 46.48978389 309.66837357 46.49030644 310.60392924 C46.4938332 317.04845269 46.49696238 323.49297631 46.5 329.9375 C46.50346817 337.29386409 46.5071175 344.65022803 46.51123047 352.0065918 C46.51173308 352.91261673 46.5122357 353.81864167 46.51275355 354.7521219 C46.52149774 369.85943901 46.5419352 384.96671864 46.57071257 400.07401055 C46.58789513 409.39307384 46.59447621 418.7120311 46.58740652 428.03110816 C46.58322729 434.41754273 46.58957663 440.80391046 46.60420525 447.19032947 C46.61226383 450.87523992 46.61537344 454.55998462 46.60538292 458.24489403 C46.59464065 462.24045183 46.60696394 466.23560961 46.62145996 470.2311554 C46.61456603 471.39477626 46.60767209 472.55839712 46.60056925 473.75727922 C46.64333024 479.79443624 46.92513447 484.35734018 50 489.625 C53.67682095 492.07621397 56.72920963 492.44918762 61 491.625 C64.51635315 488.93162312 66.24098831 486.94347759 67 482.625 C67.08906877 480.87960251 67.12479778 479.13114584 67.12469864 477.38347721 C67.12828506 475.78250269 67.12828506 475.78250269 67.13194394 474.14918524 C67.12951145 472.97750797 67.12707896 471.80583071 67.12457275 470.59864807 C67.12668798 468.73058806 67.12668798 468.73058806 67.12884593 466.82478946 C67.1312372 464.08849032 67.13179691 461.35226109 67.12928963 458.6159687 C67.12523057 454.16400638 67.12799868 449.71206309 67.13163757 445.26010132 C67.13572835 439.63480364 67.13796721 434.00951023 67.13805357 428.38421106 C67.13825623 417.33277641 67.15071182 406.28138568 67.16766357 395.22996521 C67.17026936 393.4905612 67.17286817 391.75115717 67.1754601 390.01175314 C67.1793985 387.37566592 67.18334502 384.7395787 67.18732132 382.10349153 C67.20226781 372.16494335 67.21589272 362.22639382 67.22802734 352.2878418 C67.2291409 351.37927785 67.23025447 350.4707139 67.23140177 349.53461771 C67.24898497 334.80426307 67.25184529 320.07393589 67.25017694 305.3435725 C67.2488987 290.22493858 67.26661193 275.10640704 67.30119491 259.98781246 C67.32186592 250.65948397 67.32716656 241.33140046 67.3128666 232.0030589 C67.3044189 225.61285148 67.31410905 219.22283488 67.3381761 212.83266778 C67.35150656 209.14385673 67.35663338 205.45550315 67.34005547 201.76669502 C67.32229293 197.77018726 67.34297376 193.77480711 67.36749268 189.77833557 C67.35045961 188.02416576 67.35045961 188.02416576 67.33308244 186.23455817 C67.42699309 178.39820243 67.42699309 178.39820243 70.32859421 174.48284817 C73.9836114 171.94094045 77.79299306 170.07876067 81.828125 168.22070312 C92.56217367 163.14536489 98.20323512 154.61824066 102.37109375 143.75390625 C103.14165468 141.51546187 103.14165468 141.51546187 103 138.625 C72.64 138.625 42.28 138.625 11 138.625 Z " fill="#FFFFFF" transform="translate(10,-0.625)"/>
<path d="M0 0 C0.80695313 -0.01289063 1.61390625 -0.02578125 2.4453125 -0.0390625 C6.08420086 0.95548898 7.5245181 2.7029444 9.875 5.625 C10.36752562 8.54065082 10.55064506 10.87060502 10.50699902 13.78114414 C10.51456582 14.60217944 10.52213262 15.42321474 10.52992871 16.2691299 C10.54924679 19.03253949 10.53281448 21.79458523 10.51664734 24.55799866 C10.52312198 26.55429779 10.53177406 28.55059085 10.54242164 30.54687208 C10.5652975 36.04230699 10.55682819 41.53732001 10.54328239 47.03276956 C10.53405106 52.95597482 10.55350223 58.87909478 10.56925964 64.80227661 C10.59387951 75.74009577 10.59553276 86.67777172 10.58513172 97.61561007 C10.57554662 107.72388865 10.57482641 117.83211729 10.58301735 127.94039726 C10.58408315 129.29585997 10.58514869 130.65132267 10.58621398 132.00678537 C10.58783505 134.04934431 10.58946735 136.09190324 10.591127 138.13446215 C10.60638855 157.13043117 10.61188062 176.12638339 10.59652996 195.12235355 C10.59595119 195.83870808 10.59537242 196.5550626 10.59477612 197.29312484 C10.59001135 203.110516 10.58495341 208.9279069 10.57987839 214.74529779 C10.56029801 237.4236066 10.56946976 260.10173728 10.60229492 282.7800293 C10.63909632 308.25948091 10.65616277 333.73882822 10.64288265 359.21830648 C10.64152517 361.93650176 10.6402251 364.65469706 10.63895607 367.37289238 C10.63862811 368.04217878 10.63830014 368.71146519 10.63796224 369.401033 C10.63338824 379.49707193 10.64401035 389.59302171 10.66220665 399.68904305 C10.68253775 411.177078 10.68165293 422.66487562 10.65357425 434.1528982 C10.63980544 440.01365895 10.63560962 445.87400546 10.65752411 451.73475075 C10.67733349 457.10353344 10.66928462 462.4715376 10.63932977 467.84026664 C10.63333765 469.77907549 10.6373925 471.71794789 10.652693 473.65670563 C10.73834318 485.36623015 10.29995584 495.32253095 2.13405341 504.60372311 C0.48031866 506.20455223 -1.17610357 507.40390722 -3.125 508.625 C-4.05699219 509.23988281 -4.05699219 509.23988281 -5.0078125 509.8671875 C-11.98742238 513.71526139 -20.38545045 513.87554524 -28.125 512.625 C-36.77892335 509.88249126 -42.53798867 505.44624343 -47.23722267 497.82001019 C-50.95163797 490.64066794 -50.54912739 483.62301684 -50.32177734 475.72387695 C-50.29444898 474.2312072 -50.26925482 472.7384971 -50.24601746 471.24575806 C-50.19380057 468.04373802 -50.13083907 464.84217284 -50.06068039 461.64049721 C-49.95365727 456.55541095 -49.89754879 451.47053949 -49.85293579 446.38456726 C-49.8451474 445.5224799 -49.83735902 444.66039255 -49.82933462 443.77218133 C-49.81348203 442.00972649 -49.79773281 440.24727072 -49.7820847 438.48481405 C-49.67475343 426.65924977 -49.53391444 414.83636405 -49.2578125 403.01342773 C-49.07149138 395.01830664 -48.96577651 387.02634754 -48.9487015 379.02902192 C-48.93654643 374.80928568 -48.88604885 370.59861154 -48.73600388 366.38134193 C-47.69806606 345.33230318 -47.69806606 345.33230318 -57.30325997 327.44766468 C-60.52899664 324.18163389 -64.02328669 321.31600612 -67.60952759 318.4506073 C-76.09961952 311.56005353 -82.46908752 301.55695828 -84.125 290.625 C-84.51507542 285.44497471 -84.53626885 280.29351519 -84.51318359 275.10375977 C-84.5172563 273.5567742 -84.52260209 272.00979155 -84.52911377 270.46281433 C-84.54272041 266.2845047 -84.53751365 262.10641884 -84.52797651 257.92810559 C-84.52033299 253.5301032 -84.5274396 249.13211882 -84.53213501 244.7341156 C-84.53758415 237.3410197 -84.53042852 229.94801384 -84.51611328 222.55493164 C-84.49984281 214.05491792 -84.50503776 205.55512076 -84.5215925 197.05511242 C-84.5352968 189.72047332 -84.53708212 182.38589868 -84.52927649 175.05125087 C-84.52464169 170.68732002 -84.52385648 166.32349015 -84.53388596 161.95956612 C-84.60309208 127.12072049 -84.60309208 127.12072049 -81.125 111.625 C-80.88809952 110.56405624 -80.65119904 109.50311249 -80.40711975 108.41001892 C-79.82633721 105.95191312 -79.16238742 103.54416594 -78.4375 101.125 C-78.18403809 100.26245605 -77.93057617 99.39991211 -77.66943359 98.51123047 C-69.23776515 70.79850616 -54.64755889 46.86726378 -35.125 25.625 C-33.97064453 24.36236328 -33.97064453 24.36236328 -32.79296875 23.07421875 C-26.52179196 16.52380589 -19.35799844 11.06049699 -12.125 5.625 C-11.52864746 5.15723145 -10.93229492 4.68946289 -10.31787109 4.20751953 C-6.8841516 1.59432038 -4.47605471 -0.07196229 0 0 Z M-21.125 41.625 C-33.41196593 54.55614535 -42.78317224 69.42443791 -50.125 85.625 C-50.40327637 86.23811035 -50.68155273 86.8512207 -50.96826172 87.48291016 C-63.78459795 116.27905969 -64.28633925 146.25829875 -64.29225707 177.23723173 C-64.29297552 179.35590716 -64.29512433 181.47457641 -64.29775429 183.59325027 C-64.30694749 191.01057588 -64.31109587 198.42788373 -64.31030273 205.84521484 C-64.30970013 212.72147396 -64.32030315 219.5976551 -64.3360464 226.47389448 C-64.34916384 232.41831271 -64.35448503 238.36270551 -64.35384732 244.30713809 C-64.35359404 247.84015652 -64.35635228 251.37310507 -64.36702538 254.90610886 C-64.37859635 258.84157066 -64.37393386 262.77692636 -64.36791992 266.71240234 C-64.37353943 267.86174255 -64.37915894 269.01108276 -64.38494873 270.19525146 C-64.32545794 285.5752985 -61.2008536 295.78264803 -50.32421875 306.78125 C-48.17146566 308.91454863 -45.99412929 311.02129749 -43.8125 313.125 C-42.14848449 314.74641016 -40.48739935 316.37072398 -38.8285675 317.99743652 C-37.80383904 319.00055972 -36.77563661 320.00014952 -35.74357605 320.99572754 C-31.18360158 325.42726395 -31.18360158 325.42726395 -30.99471474 329.28785229 C-30.99215864 330.42731462 -30.98960255 331.56677694 -30.98696899 332.74076843 C-30.98151566 334.04600967 -30.97606232 335.35125092 -30.97044373 336.69604492 C-30.96932387 338.151123 -30.96827335 339.60620113 -30.96728516 341.0612793 C-30.96261804 342.58714444 -30.95747465 344.11300818 -30.95188904 345.63887024 C-30.94059702 348.93026792 -30.93216807 352.22165648 -30.92576981 355.51306725 C-30.91509892 360.71974952 -30.89485548 365.92636659 -30.87265015 371.13301086 C-30.8106986 385.94077562 -30.75674044 400.74853711 -30.72363281 415.55639648 C-30.70527657 423.73052057 -30.67632601 431.904536 -30.6356281 440.0785802 C-30.61457102 444.40423316 -30.59910272 448.72974925 -30.59682083 453.05545616 C-30.59467035 457.12749721 -30.57876031 461.19925353 -30.55243111 465.27120781 C-30.54525126 466.76309386 -30.54313077 468.25501446 -30.54653358 469.74691391 C-30.76954858 480.15004207 -30.76954858 480.15004207 -27.125 489.625 C-23.44817905 492.07621397 -20.39579037 492.44918762 -16.125 491.625 C-12.61296823 488.93493312 -10.83785853 486.94999087 -10.125 482.625 C-10.03260029 480.10874598 -9.99266219 477.62090204 -10.00195217 475.10499191 C-10.00079833 474.34060838 -9.99964448 473.57622484 -9.99845567 472.78867817 C-9.99579662 470.21251104 -10.00030536 467.63640568 -10.00474548 465.0602417 C-10.00430964 463.20062916 -10.00343448 461.34101669 -10.00215632 459.48140454 C-9.99991401 454.35972592 -10.00392907 449.2380681 -10.00893438 444.11639214 C-10.01324245 438.59766514 -10.0117922 433.07893938 -10.0110321 427.56021118 C-10.0105071 417.99477611 -10.01365149 408.42934785 -10.01926994 398.86391449 C-10.02738807 385.03380765 -10.03000049 371.20370411 -10.03125793 357.37359515 C-10.03344796 334.93656152 -10.04009814 312.49953147 -10.04956055 290.0625 C-10.0587432 268.26367207 -10.06582769 246.4648451 -10.07006836 224.66601562 C-10.07019989 223.99421657 -10.07033141 223.32241751 -10.07046692 222.63026091 C-10.07178543 215.88384943 -10.07306125 209.13743794 -10.07430578 202.39102645 C-10.08474891 145.80234842 -10.10239707 89.2136744 -10.125 32.625 C-13.77846419 32.625 -18.54878887 39.06535894 -21.125 41.625 Z " fill="#FFFFFF" transform="translate(502.125,-0.625)"/>
<path d="M0 0 C23.55054002 20.35993542 39.30072968 45.47469844 47.25 75.5625 C47.73146484 77.33947266 47.73146484 77.33947266 48.22265625 79.15234375 C56.5032582 116.47282418 48.08194558 155.7587656 27.9375 187.75 C8.09059315 218.27141764 -22.60044144 239.55620741 -57.75 248.5625 C-59.42642578 249.01109375 -59.42642578 249.01109375 -61.13671875 249.46875 C-98.5617622 257.77687887 -137.83670315 249.46343556 -169.9375 229.25 C-200.45891764 209.40309315 -221.74370741 178.71205856 -230.75 143.5625 C-231.0490625 142.44488281 -231.348125 141.32726562 -231.65625 140.17578125 C-239.96437887 102.7507378 -231.65093556 63.47579685 -211.4375 31.375 C-191.457483 0.6488799 -160.93931073 -20.14039855 -125.75 -29.4375 C-124.56535156 -29.75847656 -123.38070312 -30.07945313 -122.16015625 -30.41015625 C-79.57834604 -39.85813272 -33.19884566 -27.9540928 0 0 Z M-181.01953125 26.82421875 C-202.10054084 49.16048985 -213.1974169 78.7298705 -213.0625 109.25 C-213.06034485 109.9126889 -213.0581897 110.57537781 -213.05596924 111.25814819 C-212.87604578 145.74365066 -198.63606544 174.60083503 -174.48828125 198.83203125 C-152.17139415 219.89474618 -121.38714262 231.71069228 -90.75 231.5625 C-55.23581123 230.25274714 -24.58676029 215.72338437 -0.25 189.9375 C19.29848771 167.56189414 29.69342296 139.49164352 29.5625 109.875 C29.56034485 109.2123111 29.5581897 108.54962219 29.55596924 107.86685181 C29.37604578 73.38134934 15.13606544 44.52416497 -9.01171875 20.29296875 C-58.71267044 -26.6148716 -134.14566726 -19.88828943 -181.01953125 26.82421875 Z " fill="#FFFFFF" transform="translate(347.75,146.4375)"/>
<path d="M0 0 C2.80703896 1.34040619 3.86054551 2.54745461 6 5 C7.23828376 9.00621216 7.40475733 11.04620277 5.76171875 14.91796875 C4.00800818 17.98599013 2.16179945 20.30297611 -0.25 22.875 C-3.02855345 25.86797559 -5.75206292 28.87021517 -8.375 32 C-38.93624538 66.71923795 -87.19543643 86.30756218 -132.58105469 89.60327148 C-172.40673501 91.90613797 -221.81621938 83.9667569 -253 57 C-254.72869779 53.54260443 -254.48966895 49.78024432 -254 46 C-252.20606332 43.12970131 -251.01736724 41.50868362 -248 40 C-241.12631238 39.34394305 -237.40509538 40.93250166 -231.625 44.5 C-230.03320586 45.42748912 -228.43805504 46.34923788 -226.83984375 47.265625 C-225.63110596 47.95881836 -225.63110596 47.95881836 -224.39794922 48.66601562 C-206.03546919 58.88110327 -185.74013694 64.32436002 -165 67 C-163.96746094 67.14308594 -162.93492187 67.28617187 -161.87109375 67.43359375 C-131.304363 70.73040492 -99.5368951 64.28522799 -72 51 C-71.3090625 50.67016113 -70.618125 50.34032227 -69.90625 50.00048828 C-55.39273927 42.98051124 -42.67391856 33.87055862 -31.015625 22.7421875 C-29 21 -29 21 -26.859375 20.0078125 C-24.47368753 18.71472979 -24.11255668 17.43029799 -23 15 C-21.484375 13.32421875 -21.484375 13.32421875 -19.75 11.6875 C-16.70092437 8.74027241 -13.94632007 5.66317466 -11.26171875 2.3828125 C-8.26823645 -0.89796996 -4.11792512 -0.66467437 0 0 Z " fill="#FFFFFF" transform="translate(402,358)"/>
<path d="M0 0 C2.24622938 2.10428755 4.55176128 4.09021893 6.91015625 6.06640625 C14.28698515 12.59323018 14.28698515 12.59323018 14.625 17.55078125 C14.39518236 21.15715032 13.84054208 23.7032632 11.97265625 26.81640625 C8.19268173 29.08439096 4.87071418 29.83425387 0.47265625 29.31640625 C-4.57818167 26.97242516 -8.21364283 22.63244276 -12.02734375 18.69140625 C-22.88973869 7.64631048 -35.80868742 -0.63780802 -49.52734375 -7.68359375 C-50.19846191 -8.03405762 -50.86958008 -8.38452148 -51.56103516 -8.74560547 C-62.80821294 -14.56089239 -74.30042222 -18.46109708 -86.52734375 -21.68359375 C-87.70554687 -22.00199219 -88.88375 -22.32039063 -90.09765625 -22.6484375 C-126.37154538 -31.43283716 -165.9571941 -26.37680504 -199.51293945 -10.57958984 C-204.3748385 -8.34404656 -208.05115879 -7.03647151 -213.52734375 -7.68359375 C-216.56295071 -9.50495793 -218.13334466 -11.00304986 -219.90234375 -14.05859375 C-220.6917836 -17.3742411 -220.48213677 -19.41001766 -219.52734375 -22.68359375 C-216.3655822 -27.67374771 -212.66038246 -29.42113618 -207.40234375 -31.62109375 C-206.60465576 -31.96245361 -205.80696777 -32.30381348 -204.98510742 -32.65551758 C-137.25089341 -61.10268969 -54.48717888 -51.27733034 0 0 Z " fill="#FFFFFF" transform="translate(383.52734375,112.68359375)"/>
<path d="M0 0 C5.57894737 3.15789474 5.57894737 3.15789474 7 6 C7.23828125 7.98828125 7.23828125 7.98828125 7.3125 10.3125 C7.36857422 11.45138672 7.36857422 11.45138672 7.42578125 12.61328125 C6.81462748 16.03910652 5.44438263 17.53982168 3 20 C0.67103773 21.32683668 -1.58384545 22.49341436 -4 23.625 C-20.41686357 31.88642812 -31.4390228 45.92911888 -38 63 C-39.74807859 68.30793094 -40.88777035 73.57521198 -41.4453125 79.1328125 C-41.51911133 79.84590576 -41.59291016 80.55899902 -41.66894531 81.29370117 C-41.80293224 82.68770496 -41.91545906 84.08399566 -42.00292969 85.48168945 C-42.33526351 89.15159129 -42.99050773 90.98766662 -45.2578125 93.93359375 C-48.17702026 96.13339561 -49.40564747 96.68116176 -53 96.625 C-54.2375 96.64433594 -54.2375 96.64433594 -55.5 96.6640625 C-59.24000587 95.67062344 -60.69808452 94.0827058 -63 91 C-63.49062218 88.01360411 -63.66917623 85.71719144 -63.5625 82.75 C-63.54517822 81.95932129 -63.52785645 81.16864258 -63.51000977 80.35400391 C-62.53001736 55.27318049 -50.68232918 33.31297545 -32.6953125 16.2421875 C-24.83547682 9.12376716 -11.15939757 -1.9838929 0 0 Z " fill="#FFFFFF" transform="translate(227,170)"/>
<path d="M0 0 C3.07933335 2.01099321 4.49196824 3.41519652 5.62109375 6.9375 C6.24070841 10.31024781 6.1452985 12.65587196 4.8125 15.8125 C1.83038672 19.41160223 0.33699707 20.85414577 -4.4375 21.375 C-8.20656993 20.9782558 -10.02618388 20.29408672 -13 18 C-15.83953044 13.74070434 -15.73987876 9.99617057 -15 5 C-11.45728952 -0.90451747 -6.336616 -1.26940419 0 0 Z " fill="#FFFFFF" transform="translate(133,374)"/>
<path d="M0 0 C3.125 1.875 3.125 1.875 5 5 C5.68455021 8.47979689 5.708039 11.52261493 5 15 C2.63095184 18.41421647 1.02503506 19.64346607 -2.875 21 C-6.96755025 21 -9.44771072 20.01072978 -13 18 C-15.27042717 15.29013532 -15.91835776 13.54816936 -16.4375 10.0625 C-15.88393677 6.1875574 -14.40826469 4.04574652 -12 1 C-8.26428749 -0.86785626 -4.06846525 -0.53650091 0 0 Z " fill="#FFFFFF" transform="translate(261,164)"/>
</svg>
