<?xml version="1.0" standalone="no"?>
<!DOCTYPE svg PUBLIC "-//W3C//DTD SVG 20010904//EN"
 "http://www.w3.org/TR/2001/REC-SVG-20010904/DTD/svg10.dtd">
<svg version="1.0" xmlns="http://www.w3.org/2000/svg"
 width="512.000000pt" height="512.000000pt" viewBox="0 0 512.000000 512.000000"
 preserveAspectRatio="xMidYMid meet">

<g transform="translate(0.000000,512.000000) scale(0.100000,-0.100000)"
fill="#000000" stroke="none">
<path d="M474 5106 c-17 -8 -40 -25 -50 -39 -11 -13 -64 -137 -119 -273 -62
-159 -109 -261 -127 -283 -16 -18 -34 -44 -39 -58 -5 -15 -9 -644 -9 -1586 0
-1751 -7 -1597 73 -1661 l39 -31 277 -3 c274 -3 277 -3 321 21 34 18 52 36 72
76 l28 53 0 1544 c0 1684 3 1583 -55 1644 -13 14 -67 134 -123 276 -55 138
-106 261 -114 273 -16 26 -85 61 -119 61 -13 -1 -38 -7 -55 -14z m135 -342
c39 -99 71 -183 71 -187 0 -4 -68 -7 -151 -7 -117 0 -150 3 -146 13 3 6 35 88
72 181 67 173 75 190 80 184 2 -2 35 -84 74 -184z m-149 -1674 l0 -1330 -90 0
-90 0 0 1323 c0 728 3 1327 7 1330 3 4 44 7 90 7 l83 0 0 -1330z m318 1318 c9
-9 12 -318 12 -1330 l0 -1318 -90 0 -90 0 0 1330 0 1330 78 0 c47 0 83 -5 90
-12z m12 -2932 c0 -101 -3 -136 -14 -145 -9 -8 -85 -11 -252 -9 l-239 3 -3
143 -3 142 256 0 255 0 0 -134z"/>
<path d="M1313 5109 c-44 -13 -100 -70 -112 -116 -6 -21 -11 -75 -11 -119 0
-69 -4 -89 -25 -125 l-25 -44 0 -682 c0 -456 4 -691 11 -710 5 -15 25 -44 43
-63 25 -26 54 -86 111 -230 42 -107 83 -210 92 -227 21 -45 70 -73 126 -73 83
0 102 27 202 279 58 149 94 225 112 242 56 52 63 85 62 309 0 219 -2 230 -50
249 -21 8 -81 -6 -91 -21 -1 -2 -4 -97 -7 -213 l-6 -210 -225 0 -225 0 -3 654
c-1 475 1 658 9 667 14 17 399 20 430 4 18 -10 19 -25 19 -331 l0 -320 26 -26
c20 -20 31 -24 57 -19 18 3 40 16 50 28 16 20 18 47 15 364 -3 337 -3 343 -25
373 -20 26 -23 43 -23 113 0 100 -12 147 -47 189 -51 60 -87 69 -283 68 -96 0
-190 -5 -207 -10z m377 -158 c5 -11 10 -40 10 -65 l0 -46 -180 0 -180 0 0 53
c0 29 5 58 12 65 8 8 60 12 170 12 145 0 158 -1 168 -19z m-54 -1768 c-37 -99
-112 -283 -117 -283 -5 0 -119 279 -119 293 0 4 54 7 121 7 111 0 121 -1 115
-17z"/>
<path d="M2605 5108 c-11 -6 -33 -23 -50 -39 -29 -27 -32 -28 -171 -31 -134
-3 -142 -4 -182 -31 -23 -15 -51 -45 -62 -67 -19 -38 -20 -58 -20 -479 l0
-440 26 -20 c35 -27 57 -26 91 3 l28 24 3 423 c2 317 6 425 15 431 7 4 63 8
125 8 l112 0 0 -1755 0 -1756 -122 3 -123 3 -5 1186 c-5 1149 -6 1188 -24
1208 -25 27 -86 29 -110 3 -15 -17 -16 -111 -14 -1229 l3 -1210 28 -36 c49
-65 87 -77 241 -77 123 0 136 -2 146 -19 5 -11 25 -29 44 -40 28 -18 49 -21
137 -21 111 0 155 15 179 59 11 21 13 21 924 21 1027 0 966 -4 1055 76 29 26
62 69 78 102 l28 57 0 1660 c0 1574 -1 1663 -18 1712 -24 69 -85 136 -155 170
l-57 28 -920 3 c-894 2 -920 3 -936 21 -39 47 -79 61 -179 61 -52 0 -104 -6
-115 -12z m175 -1973 l0 -1835 -55 0 -55 0 0 1835 0 1835 55 0 55 0 0 -1835z
m1974 1732 c22 -12 49 -38 60 -57 21 -35 21 -38 21 -1675 0 -1636 0 -1640 -21
-1675 -11 -19 -35 -45 -54 -57 l-33 -23 -898 0 -899 0 0 1755 0 1755 893 0
892 0 39 -23z"/>
<path d="M4402 1937 c-31 -33 -29 -80 4 -106 43 -34 86 -26 110 20 39 76 -56
148 -114 86z"/>
<path d="M4180 1763 c-51 -19 -68 -85 -30 -123 18 -18 33 -20 178 -20 184 0
202 6 202 70 0 30 -6 43 -26 59 -24 19 -40 21 -168 20 -77 0 -148 -3 -156 -6z"/>
<path d="M1280 2439 c-33 -13 -78 -57 -97 -94 -9 -17 -18 -67 -21 -120 -4 -75
-9 -95 -28 -118 -40 -48 -44 -86 -44 -442 0 -307 2 -344 19 -380 23 -51 81
-102 123 -110 18 -3 160 -5 315 -3 l281 3 39 31 c76 61 78 67 81 437 4 366 -2
418 -49 471 -27 31 -29 39 -29 115 0 113 -27 164 -107 205 -27 13 -68 16 -245
15 -117 0 -224 -5 -238 -10z m438 -202 l3 -57 -203 2 -203 3 -3 37 c-2 20 2
46 8 58 11 20 18 20 203 18 l192 -3 3 -58z m72 -226 c6 -13 10 -137 10 -336 0
-199 -4 -323 -10 -336 -10 -18 -24 -19 -268 -19 -187 0 -261 3 -270 12 -17 17
-17 669 0 686 9 9 83 12 270 12 244 0 258 -1 268 -19z"/>
<path d="M175 1006 c-43 -19 -94 -74 -105 -115 -6 -21 -10 -186 -10 -386 0
-319 2 -354 19 -390 22 -48 54 -79 103 -100 33 -13 239 -15 1871 -15 l1834 0
27 21 c36 28 36 80 0 108 l-27 21 -1826 0 c-1408 0 -1830 3 -1839 12 -17 17
-17 679 0 696 8 8 58 12 160 12 l148 0 0 -64 c0 -80 5 -93 42 -112 25 -13 35
-13 59 -3 40 16 49 36 49 113 l0 66 99 0 99 0 4 -70 c4 -81 26 -113 77 -113
54 0 71 26 71 110 l0 73 105 0 105 0 0 -64 c0 -80 5 -93 42 -112 24 -12 36
-13 58 -4 36 15 50 48 50 120 l0 60 99 0 99 0 4 -70 c4 -81 26 -113 77 -113
54 0 71 26 71 110 l0 73 105 0 105 0 0 -66 c0 -36 5 -74 11 -85 24 -46 105
-42 128 7 6 14 11 52 11 84 l0 60 100 0 100 0 0 -64 c0 -80 26 -119 80 -119
51 0 70 30 70 114 l0 69 105 0 105 0 0 -69 c0 -84 19 -114 70 -114 54 0 80 39
80 119 l0 64 100 0 100 0 0 -64 c0 -80 26 -119 80 -119 51 0 70 30 70 114 l0
69 105 0 105 0 0 -69 c0 -84 19 -114 70 -114 54 0 80 39 80 119 l0 64 100 0
100 0 0 -64 c0 -80 26 -119 80 -119 51 0 70 30 70 114 l0 69 105 0 105 0 0
-73 c0 -84 17 -110 71 -110 51 0 73 32 77 113 l4 70 99 0 99 0 0 -60 c0 -72
14 -105 50 -120 22 -9 34 -8 58 4 37 19 42 32 42 112 l0 64 148 0 c102 0 152
-4 160 -12 17 -17 17 -679 0 -696 -9 -9 -104 -12 -365 -12 l-354 0 -24 -25
c-14 -13 -25 -36 -25 -50 0 -14 11 -37 25 -50 l24 -25 363 0 c358 0 365 0 408
23 24 12 58 39 74 60 l31 39 0 387 0 387 -27 41 c-16 24 -44 49 -70 62 l-44
21 -2350 0 c-1918 -1 -2355 -3 -2379 -14z"/>
</g>
</svg>
