<?xml version="1.0" encoding="UTF-8"?>
<svg version="1.1" xmlns="http://www.w3.org/2000/svg" width="512" height="512">
<path d="M0 0 C0.73093872 0.00248749 1.46187744 0.00497498 2.21496582 0.00753784 C13.00077986 0.06433168 23.37122766 0.34492808 33.8125 3.3125 C34.60946289 3.53292969 35.40642578 3.75335937 36.22753906 3.98046875 C71.89719978 14.1372535 101.01391018 36.27619863 119.8125 68.3125 C132.46959947 91.17122163 136.97030207 114.24661484 137.4375 140.125 C137.47578169 141.89650142 137.51483889 143.66798626 137.5546875 145.43945312 C137.64955004 149.73033037 137.73397313 154.021294 137.8125 158.3125 C140.23042121 159.5214606 141.77311292 159.44334062 144.47412109 159.4543457 C145.92605362 159.46489738 145.92605362 159.46489738 147.40731812 159.47566223 C148.45626251 159.47982651 149.50520691 159.48399078 150.5859375 159.48828125 C152.79428039 159.51147678 155.00261376 159.53559401 157.2109375 159.56054688 C160.70253899 159.59569888 164.19378977 159.62502414 167.68554688 159.63842773 C171.04861156 159.65387426 174.41064434 159.69406251 177.7734375 159.73828125 C178.81833344 159.73637283 179.86322937 159.73446442 180.93978882 159.73249817 C181.91404816 159.74898911 182.8883075 159.76548004 183.89208984 159.7824707 C184.74765472 159.78833694 185.6032196 159.79420319 186.48471069 159.80024719 C189.69422738 160.50653273 190.86853218 161.69023044 192.8125 164.3125 C195.19415848 176.81251952 191.55228325 191.93689907 190.1875 204.44140625 C189.91773988 206.9652504 189.64870903 209.48917259 189.38037109 212.01316833 C188.74811357 217.94657347 188.10973374 223.87929721 187.46790886 229.8116731 C186.24848048 241.08491169 185.04275152 252.359616 183.83868408 263.63450432 C183.44259925 267.33131306 183.04262514 271.0276854 182.64208984 274.72401428 C182.39932195 276.98339871 182.1566414 279.24279253 181.9140625 281.50219727 C181.80185364 282.52821045 181.68964478 283.55422363 181.57403564 284.61132812 C181.42258087 286.03011009 181.42258087 286.03011009 181.26806641 287.47755432 C181.17957428 288.2954371 181.09108215 289.11331987 180.99990845 289.95598698 C180.80128234 292.45355325 180.6241747 294.81062553 180.8125 297.3125 C183.18539625 299.81597202 183.18539625 299.81597202 186.25 302 C191.74349897 306.17449794 191.74349897 306.17449794 192.8125 308.3125 C192.91557555 310.50780315 192.95204683 312.70631378 192.95967102 314.90402222 C192.96334771 315.5889456 192.9670244 316.27386898 192.9708125 316.97954762 C192.98186807 319.28568897 192.98569631 321.5917853 192.98950195 323.89794922 C192.9957651 325.54690698 193.00241177 327.19586333 193.00941467 328.84481812 C193.02683613 333.33242353 193.03737917 337.82001828 193.0456202 342.30764914 C193.05076706 345.1094605 193.05684287 347.91126853 193.06313133 350.71307755 C193.08218508 359.47389767 193.09641683 368.23470935 193.1047433 376.99554622 C193.11452281 387.11881547 193.14086012 397.24186647 193.18124419 407.36505878 C193.21136669 415.18335785 193.22620842 423.00159423 193.22952431 430.81995022 C193.23187889 435.49266363 193.24089213 440.16514393 193.26598549 444.83779526 C193.2892043 449.2323821 193.29352459 453.62658133 193.28322411 458.02121353 C193.28272715 459.63533057 193.28909454 461.24946629 193.30278015 462.86352539 C193.3204054 465.06515568 193.31344099 467.26538063 193.30024719 469.4670105 C193.30263555 470.69961546 193.3050239 471.93222042 193.30748463 473.20217705 C192.694923 477.05131575 191.89759933 477.98009308 188.8125 480.3125 C186.21191593 480.70573325 184.03383519 480.85251518 181.43533325 480.81865788 C180.68636349 480.82477123 179.93739373 480.83088459 179.16572791 480.83718321 C176.64158275 480.85285498 174.11838862 480.83988855 171.59423828 480.8271637 C169.77204608 480.83248587 167.94985826 480.83954965 166.12767887 480.84821075 C161.10889277 480.8669099 156.09040028 480.86050805 151.07160163 480.85005772 C145.66304912 480.84308592 140.25455816 480.85904863 134.84602356 480.87205505 C124.24389345 480.89373736 113.6418705 480.8935568 103.03972548 480.88542951 C94.42101453 480.87913642 85.80233488 480.88026021 77.18362427 480.88670158 C75.95814587 480.88760324 74.73266748 480.88850489 73.47005337 480.88943387 C70.98061728 480.89128505 68.49118119 480.89314761 66.0017451 480.89502143 C42.635016 480.91161593 19.26834719 480.90286808 -4.0983783 480.88603585 C-25.47164283 480.87108436 -46.84475622 480.88594681 -68.21800423 480.91480602 C-90.15852493 480.94421057 -112.09898072 480.9551683 -134.03952026 480.94562382 C-136.52237955 480.94460126 -139.00523884 480.94360665 -141.48809814 480.9426403 C-143.32054667 480.94192572 -143.32054667 480.94192572 -145.19001436 480.9411967 C-153.79310346 480.93903321 -162.39613108 480.9488337 -170.99920654 480.96341133 C-181.49178435 480.98094214 -191.98418299 480.98080706 -202.47675377 480.95805968 C-207.82913219 480.946922 -213.18119506 480.94374424 -218.5335598 480.96236038 C-223.43785816 480.97919813 -228.34156658 480.97276916 -233.24582696 480.94814359 C-235.01575857 480.94327055 -236.78573806 480.94674793 -238.55562949 480.95963103 C-252.69555263 481.05509039 -263.46042385 478.94349221 -273.99609375 468.6953125 C-284.13380849 457.67212892 -285.56417439 446.90414314 -285.1875 432.3125 C-284.95136205 427.48317713 -284.60028832 422.667025 -284.2253418 417.84667969 C-284.12141658 416.46187429 -284.01792442 415.07703634 -283.91482544 413.69216919 C-283.63674834 409.97716342 -283.35189227 406.2627095 -283.06507468 402.54836941 C-282.88563045 400.22025533 -282.7077113 397.8920297 -282.53031349 395.56375885 C-281.90986145 387.42098526 -281.28386965 379.27865974 -280.65258789 371.13671875 C-280.06658019 363.57679441 -279.49286188 356.01600451 -278.92479771 348.45471263 C-278.43416817 341.93141701 -277.93494473 335.40881536 -277.42912799 328.88667989 C-277.12821093 325.00472357 -276.83067177 321.1225842 -276.54184532 317.23970795 C-276.27015375 313.59115237 -275.98769718 309.94358247 -275.69723892 306.29647446 C-275.54371701 304.33577713 -275.40105894 302.37423842 -275.25883484 300.41268921 C-274.43984206 290.34615896 -272.59959691 281.89720544 -267.1875 273.3125 C-268.29609375 273.28671875 -269.4046875 273.2609375 -270.546875 273.234375 C-272.01045547 273.17808344 -273.47399562 273.12073633 -274.9375 273.0625 C-275.66710937 273.04832031 -276.39671875 273.03414063 -277.1484375 273.01953125 C-280.35332848 272.87385439 -282.70067294 272.63755333 -285.39746094 270.83691406 C-288.04732262 267.09992963 -287.76183497 263.79162166 -287.71875 259.3125 C-287.7225769 258.43980469 -287.72640381 257.56710937 -287.73034668 256.66796875 C-287.7330649 254.82550908 -287.72570994 252.98301076 -287.70898438 251.140625 C-287.68757248 248.32204066 -287.70878801 245.50600515 -287.734375 242.6875 C-287.73173171 240.89582771 -287.72660669 239.10415701 -287.71875 237.3125 C-287.72684692 236.47074219 -287.73494385 235.62898437 -287.74328613 234.76171875 C-287.68527158 231.13775534 -287.57144826 228.93257523 -285.63769531 225.80957031 C-282.31583127 223.77991006 -279.25153044 223.5171423 -275.453125 223.359375 C-274.29145813 223.30197144 -274.29145813 223.30197144 -273.10632324 223.2434082 C-270.54939991 223.1439505 -267.99612788 223.0946385 -265.4375 223.0625 C-264.56355591 223.04803833 -263.68961182 223.03357666 -262.78918457 223.01867676 C-247.61694598 222.9187188 -234.86906237 226.20411588 -220.9375 232.0625 C-220.06838989 232.4277478 -219.19927979 232.79299561 -218.30383301 233.16931152 C-202.7373017 239.8313815 -202.7373017 239.8313815 -199.1875 244.3125 C-198.66082191 248.37845488 -199.00843125 252.19391883 -199.1875 256.3125 C-193.5775 256.3125 -187.9675 256.3125 -182.1875 256.3125 C-182.5175 255.6525 -182.8475 254.9925 -183.1875 254.3125 C-183.51218531 251.99084521 -183.78523297 249.66191671 -184.03540039 247.33105469 C-184.15266228 246.25244171 -184.15266228 246.25244171 -184.27229309 245.15203857 C-184.5307319 242.76324301 -184.78325179 240.3738679 -185.03515625 237.984375 C-185.21295893 236.31681962 -185.39089363 234.64927832 -185.56895447 232.98175049 C-185.94237029 229.47477397 -186.3125918 225.9674765 -186.6809082 222.45996094 C-187.14958826 218.00119957 -187.62842639 213.54359739 -188.11010075 209.0862236 C-188.48152711 205.63426407 -188.84615285 202.18160958 -189.20898247 198.72873688 C-189.38244963 197.08773232 -189.55822433 195.44696977 -189.73649788 193.80648041 C-192.70609276 166.39360759 -192.70609276 166.39360759 -189.47270203 161.96250916 C-186.8117931 160.04122428 -185.51747188 159.80475718 -182.26708984 159.7824707 C-181.29283051 159.76597977 -180.31857117 159.74948883 -179.31478882 159.73249817 C-178.26989288 159.73440659 -177.22499695 159.736315 -176.1484375 159.73828125 C-175.07123444 159.72411667 -173.99403137 159.70995209 -172.88418579 159.69535828 C-169.44352231 159.65341797 -166.0033833 159.6382083 -162.5625 159.625 C-159.11471948 159.59597262 -155.66707302 159.56146366 -152.21939087 159.52250671 C-150.07376149 159.4999699 -147.92804894 159.48418072 -145.78231812 159.47566223 C-144.8143631 159.46862778 -143.84640808 159.46159332 -142.84912109 159.4543457 C-141.9951474 159.45086624 -141.14117371 159.44738678 -140.26132202 159.44380188 C-138.12533288 159.44383451 -138.12533288 159.44383451 -136.1875 158.3125 C-136.17348145 156.69746582 -136.17348145 156.69746582 -136.15917969 155.04980469 C-135.745408 114.39166792 -135.745408 114.39166792 -131.1875 99.3125 C-130.86821533 98.2301709 -130.86821533 98.2301709 -130.54248047 97.12597656 C-120.84127598 65.16491741 -100.22331632 38.28680073 -72.1875 20.3125 C-71.21039063 19.68472656 -70.23328125 19.05695312 -69.2265625 18.41015625 C-58.95566976 12.11820185 -47.98137339 8.02491034 -36.5 4.5625 C-35.84813721 4.36382324 -35.19627441 4.16514648 -34.5246582 3.96044922 C-23.10932561 0.66503966 -11.80714817 -0.06415836 0 0 Z M-84.1875 52.3125 C-84.85007813 52.91449219 -85.51265625 53.51648438 -86.1953125 54.13671875 C-107.45337696 73.76335036 -117.58940787 104.66196144 -119.0703125 132.76953125 C-119.23074776 137.62002388 -119.27829013 142.46027192 -119.1875 147.3125 C-118.61 146.98765625 -118.0325 146.6628125 -117.4375 146.328125 C-115.12528867 145.2844185 -113.69733373 145.04289192 -111.1875 145.0625 C-110.5275 145.05734375 -109.8675 145.0521875 -109.1875 145.046875 C-106.86123077 145.35583263 -105.25299109 146.22919296 -103.1875 147.3125 C-103.1781543 146.61390869 -103.16880859 145.91531738 -103.15917969 145.19555664 C-102.59335186 111.42062814 -94.64858479 84.29202754 -70.09399414 59.78442383 C-48.48456423 39.09525355 -20.83649529 32.65812955 8.2734375 33.03515625 C16.96721929 33.25105076 24.61017018 34.50002385 32.8125 37.3125 C33.45670898 37.53212402 34.10091797 37.75174805 34.76464844 37.97802734 C60.28556679 46.88199219 81.876186 64.98237907 93.84765625 89.33203125 C99.4799481 101.40684892 103.66474402 114.19154181 104.12890625 127.5859375 C104.19174805 129.31650391 104.19174805 129.31650391 104.25585938 131.08203125 C104.29517578 132.27183594 104.33449219 133.46164063 104.375 134.6875 C104.41818359 135.90050781 104.46136719 137.11351562 104.50585938 138.36328125 C104.61155513 141.34625032 104.71365321 144.32929742 104.8125 147.3125 C105.740625 146.82571777 105.740625 146.82571777 106.6875 146.32910156 C108.94350255 145.24982828 110.33534952 145.04314726 112.8125 145.0625 C113.4725 145.05734375 114.1325 145.0521875 114.8125 145.046875 C117.13826355 145.35576547 118.77918138 146.16875828 120.8125 147.3125 C122.14227368 115.76731315 113.64396102 82.78851141 92.1887207 58.92773438 C89.77744564 56.34064893 87.30077516 53.82569351 84.8125 51.3125 C84.21050781 50.64992187 83.60851562 49.98734375 82.98828125 49.3046875 C63.84100881 28.56582819 33.64255784 17.96361428 6.08691406 16.38696289 C-28.24085422 15.18822859 -59.99251004 28.35740371 -84.1875 52.3125 Z M-59.1875 72.3125 C-59.81914062 72.86292969 -60.45078125 73.41335937 -61.1015625 73.98046875 C-76.95951063 88.64363996 -86.01657833 111.22627389 -87.09375 132.52734375 C-87.1246875 133.77644531 -87.155625 135.02554688 -87.1875 136.3125 C-87.21328125 137.19437988 -87.2390625 138.07625977 -87.265625 138.98486328 C-87.34503204 141.98992328 -87.39594726 144.99419051 -87.4375 148 C-87.4590918 148.98178223 -87.48068359 149.96356445 -87.50292969 150.97509766 C-87.50711914 151.89468262 -87.51130859 152.81426758 -87.515625 153.76171875 C-87.5249707 154.59018311 -87.53431641 155.41864746 -87.54394531 156.2722168 C-87.36750488 157.28215698 -87.36750488 157.28215698 -87.1875 158.3125 C-83.52047408 160.75718394 -81.76626529 160.5638228 -77.39306641 160.56646729 C-76.69841593 160.56958727 -76.00376545 160.57270725 -75.28806496 160.57592177 C-72.95497842 160.58391395 -70.62215109 160.57757348 -68.2890625 160.57128906 C-66.61863044 160.57399839 -64.94819958 160.57755899 -63.277771 160.58190918 C-58.73654004 160.59104243 -54.19539976 160.58748507 -49.65416718 160.58115101 C-44.90697481 160.57609586 -40.15979032 160.58078111 -35.41259766 160.58392334 C-27.43976443 160.5875644 -19.46696823 160.58276021 -11.49414062 160.57324219 C-2.26975093 160.56235737 6.95455036 160.56588285 16.17893791 160.576895 C24.09151403 160.58596388 32.0040635 160.58725511 39.91664314 160.58201766 C44.64567642 160.57889576 49.37466811 160.57849463 54.10369873 160.58509064 C58.54911193 160.59085768 62.99441088 160.586879 67.43981171 160.57530212 C69.0736853 160.5726521 70.70756847 160.57342645 72.34143829 160.57782745 C74.56711188 160.5832709 76.7924165 160.57646366 79.01806641 160.56646729 C80.26504303 160.56571323 81.51201965 160.56495918 82.79678345 160.56418228 C85.99168482 160.54229475 85.99168482 160.54229475 88.8125 158.3125 C89.2611102 156.28893689 89.2611102 156.28893689 89.17578125 153.9375 C89.17682861 153.04369629 89.17787598 152.14989258 89.17895508 151.22900391 C89.1611499 150.26655762 89.14334473 149.30411133 89.125 148.3125 C89.11299561 147.3229834 89.10099121 146.3334668 89.08862305 145.31396484 C88.59181832 118.98542831 82.90507826 96.22425889 64.8125 76.3125 C64.26207031 75.68085937 63.71164062 75.04921875 63.14453125 74.3984375 C48.17270091 58.20668024 25.14577609 49.26704715 3.43359375 48.28125 C-20.24988149 48.48563814 -41.60055692 56.33233743 -59.1875 72.3125 Z M-124.14941406 169.44824219 C-129.2866596 174.80380855 -128.58843832 181.84985005 -128.52276611 188.84588623 C-128.41617178 192.3798887 -128.24112148 195.90647587 -128.0625 199.4375 C-127.99220885 201.84877791 -127.92834199 204.26025218 -127.87109375 206.671875 C-127.72933628 212.56088521 -127.45580724 218.42251722 -127.1875 224.3125 C-116.6275 224.3125 -106.0675 224.3125 -95.1875 224.3125 C-94.93425258 217.19087548 -94.71565029 210.08495167 -94.58325195 202.96240234 C-94.52806505 200.54291786 -94.45309238 198.12379811 -94.35766602 195.70556641 C-92.98562128 182.07614447 -92.98562128 182.07614447 -97.57958984 169.97265625 C-100.40232517 167.91502219 -102.94030865 166.56431494 -106.1875 165.3125 C-107.1775 164.6525 -108.1675 163.9925 -109.1875 163.3125 C-115.20539385 163.3125 -119.56790138 165.72128773 -124.14941406 169.44824219 Z M99.85058594 169.44824219 C94.7133404 174.80380855 95.41156168 181.84985005 95.47723389 188.84588623 C95.58382822 192.3798887 95.75887852 195.90647587 95.9375 199.4375 C96.00779115 201.84877791 96.07165801 204.26025218 96.12890625 206.671875 C96.27066372 212.56088521 96.54419276 218.42251722 96.8125 224.3125 C107.3725 224.3125 117.9325 224.3125 128.8125 224.3125 C129.06574742 217.19087548 129.28434971 210.08495167 129.41674805 202.96240234 C129.47193495 200.54291786 129.54690762 198.12379811 129.64233398 195.70556641 C131.01437872 182.07614447 131.01437872 182.07614447 126.42041016 169.97265625 C123.59767483 167.91502219 121.05969135 166.56431494 117.8125 165.3125 C116.8225 164.6525 115.8325 163.9925 114.8125 163.3125 C108.79460615 163.3125 104.43209862 165.72128773 99.85058594 169.44824219 Z M-174.1875 176.3125 C-173.16531321 186.30061608 -172.14025163 196.28842557 -171.11010075 206.27572346 C-170.631896 210.9130432 -170.15496127 215.55048629 -169.6809082 220.18823242 C-169.22352697 224.66241636 -168.76283688 229.13624825 -168.2998333 233.60985374 C-168.12361767 235.31818669 -167.94860241 237.02664388 -167.77479744 238.73522377 C-167.53149149 241.12500897 -167.28395315 243.51432007 -167.03540039 245.90356445 C-166.96418976 246.61278549 -166.89297913 247.32200653 -166.8196106 248.05271912 C-166.51222063 250.97059153 -166.11936479 253.51690562 -165.1875 256.3125 C-164.4915784 256.31396656 -163.7956568 256.31543312 -163.07864666 256.31694412 C-146.10886143 256.35407104 -129.13930718 256.41316337 -112.16968822 256.49640274 C-103.96313863 256.53613335 -95.7566841 256.56855609 -87.55004883 256.58349609 C-80.39325271 256.59654374 -73.23666629 256.6235873 -66.0799883 256.66711307 C-62.29405459 256.68965835 -58.50837884 256.70541488 -54.72237206 256.70438385 C-51.15090344 256.70363309 -47.58000354 256.72174817 -44.00868225 256.75366783 C-42.08926844 256.76610386 -40.16975877 256.75913528 -38.25032043 256.75135803 C-25.85418892 256.8990341 -16.54537356 260.3730837 -7.5390625 268.8671875 C6.86386008 284.14744547 4.53295388 310.24900304 6.0345788 329.82593703 C6.25204441 332.65636375 6.47155927 335.48663023 6.69100654 338.31690389 C7.20912711 345.00033357 7.72362417 351.68403531 8.23583984 358.36791992 C8.76106538 365.22065187 9.29277712 372.07285918 9.82760537 378.92484778 C10.29013054 384.85372509 10.74844576 390.78291808 11.20351112 396.7123726 C11.47382643 400.2339137 11.74567174 403.75531812 12.0216713 407.27641869 C12.32929831 411.20359574 12.62813465 415.13141662 12.92626953 419.05932617 C13.01663483 420.19788055 13.10700012 421.33643494 13.20010376 422.50949097 C14.88229749 445.04573701 14.88229749 445.04573701 11.9375 453.375 C11.58945312 454.39722656 11.24140625 455.41945313 10.8828125 456.47265625 C9.89301743 459.09886434 8.85482255 461.70669362 7.8125 464.3125 C21.3425 464.3125 34.8725 464.3125 48.8125 464.3125 C48.81660889 459.61298096 48.82071777 454.91346191 48.82495117 450.0715332 C48.84212883 434.56491239 48.88634466 419.05845645 48.94459057 403.55193806 C48.97925087 394.14796159 49.00459745 384.74413186 49.00805664 375.34008789 C49.01109509 367.14396569 49.03156946 358.94810475 49.07302457 350.75208348 C49.09436721 346.41185421 49.10694879 342.07199648 49.09865379 337.73171425 C49.09112149 333.64640022 49.10690212 329.56183952 49.14056015 325.47666359 C49.14880346 323.97749552 49.14853145 322.47825269 49.13909721 320.97909164 C49.12748715 318.93144096 49.14954073 316.88368204 49.17326355 314.83613586 C49.17602893 313.69034719 49.17879431 312.54455851 49.18164349 311.36404896 C50.00509801 307.38087411 51.76330126 305.90906312 54.8125 303.3125 C55.41118896 302.78897949 56.00987793 302.26545898 56.62670898 301.72607422 C57.18173096 301.2776416 57.73675293 300.82920898 58.30859375 300.3671875 C58.9428125 299.85293213 59.57703125 299.33867676 60.23046875 298.80883789 C60.89691406 298.27379639 61.56335938 297.73875488 62.25 297.1875 C62.94867188 296.62345459 63.64734375 296.05940918 64.3671875 295.47827148 C77.69406227 284.74357026 77.69406227 284.74357026 83.05729675 280.69595337 C84.83282464 279.3367601 84.83282464 279.3367601 86.44210815 277.78662109 C92.3630231 272.59269806 97.68589286 272.3636527 105.3515625 272.33984375 C106.55001801 272.32224503 107.74847351 272.3046463 108.98324585 272.28651428 C111.5129701 272.26059923 114.04290185 272.25062189 116.57275391 272.25561523 C120.40755542 272.25004351 124.23309309 272.15405217 128.06640625 272.05273438 C149.97209977 271.8034283 149.97209977 271.8034283 159.28018188 280.45335388 C160.50372335 281.69596746 161.66660935 282.99793663 162.8125 284.3125 C164.79321355 281.34142967 165.12287553 280.34989163 165.47061157 276.9655304 C165.61356911 275.63411514 165.61356911 275.63411514 165.75941467 274.27580261 C165.85508224 273.30476089 165.95074982 272.33371918 166.04931641 271.33325195 C166.15689774 270.30868896 166.26447906 269.28412598 166.37532043 268.22851562 C166.7294771 264.83670587 167.07180042 261.44381019 167.4140625 258.05078125 C167.65710046 255.70086777 167.90087408 253.35103026 168.14535522 251.00126648 C168.78727041 244.81241679 169.41916465 238.62258311 170.04901123 232.43249512 C170.69331763 226.11778626 171.34704937 219.8040542 172 213.49023438 C173.28008551 201.09859193 174.54871933 188.70581595 175.8125 176.3125 C165.5825 176.3125 155.3525 176.3125 144.8125 176.3125 C144.77511719 180.60894531 144.73773438 184.90539062 144.69921875 189.33203125 C144.66111653 192.75633586 144.62004373 196.18057613 144.5769577 199.60482025 C144.53228142 203.22033076 144.49284962 206.83572493 144.46606445 210.45141602 C144.44006759 213.93349585 144.39969205 217.41513839 144.34931374 220.89694786 C144.32449236 222.87275199 144.31459061 224.8487252 144.30485535 226.82466125 C144.27516411 228.62618904 144.27516411 228.62618904 144.24487305 230.46411133 C144.23376999 231.52334305 144.22266693 232.58257477 144.21122742 233.67390442 C143.8125 236.3125 143.8125 236.3125 142.62507629 238.15376282 C140.12560624 239.75161495 138.3378213 239.69347074 135.37890625 239.70068359 C134.26765381 239.71014008 133.15640137 239.71959656 132.01147461 239.7293396 C130.81143799 239.72326691 129.61140137 239.71719421 128.375 239.7109375 C126.52757202 239.71524277 126.52757202 239.71524277 124.64282227 239.71963501 C121.36902043 239.72220158 118.09564463 239.7101161 114.82189941 239.69335938 C112.81439615 239.68750553 110.80728631 239.69333795 108.79980469 239.70361328 C104.94968305 239.7221098 101.10014566 239.71990992 97.25 239.7109375 C95.44994507 239.72004654 95.44994507 239.72004654 93.61352539 239.7293396 C92.50227295 239.71988312 91.39102051 239.71042664 90.24609375 239.70068359 C89.26697021 239.69829681 88.28784668 239.69591003 87.27905273 239.69345093 C84.8125 239.3125 84.8125 239.3125 81.8125 236.3125 C81.4825 216.5125 81.1525 196.7125 80.8125 176.3125 C28.0125 176.3125 -24.7875 176.3125 -79.1875 176.3125 C-79.5175 196.1125 -79.8475 215.9125 -80.1875 236.3125 C-83.61213327 239.73713327 -84.0465566 239.68953238 -88.62109375 239.70068359 C-89.73234619 239.71014008 -90.84359863 239.71959656 -91.98852539 239.7293396 C-93.18856201 239.72326691 -94.38859863 239.71719421 -95.625 239.7109375 C-96.85661865 239.71380768 -98.0882373 239.71667786 -99.35717773 239.71963501 C-102.63097957 239.72220158 -105.90435537 239.7101161 -109.17810059 239.69335938 C-111.18560385 239.68750553 -113.19271369 239.69333795 -115.20019531 239.70361328 C-119.05031695 239.7221098 -122.89985434 239.71990992 -126.75 239.7109375 C-128.55005493 239.72004654 -128.55005493 239.72004654 -130.38647461 239.7293396 C-132.05335327 239.71515488 -132.05335327 239.71515488 -133.75390625 239.70068359 C-134.73302979 239.69829681 -135.71215332 239.69591003 -136.72094727 239.69345093 C-139.1875 239.3125 -139.1875 239.3125 -141.00007629 238.15376282 C-142.68430125 235.54214173 -142.58741068 233.56102088 -142.61987305 230.46411133 C-142.63966721 229.2630928 -142.65946136 228.06207428 -142.67985535 226.82466125 C-142.68624527 225.52771835 -142.69263519 224.23077545 -142.69921875 222.89453125 C-142.71606459 221.55358734 -142.73421471 220.21265924 -142.75361633 218.87174988 C-142.80113358 215.34547869 -142.83093133 211.81927156 -142.85705566 208.29278564 C-142.8868528 204.69310949 -142.9332243 201.09364968 -142.97851562 197.49414062 C-143.06613591 190.43357585 -143.12606284 183.37353589 -143.1875 176.3125 C-153.4175 176.3125 -163.6475 176.3125 -174.1875 176.3125 Z M-271.1875 240.3125 C-271.1875 245.5925 -271.1875 250.8725 -271.1875 256.3125 C-252.7075 256.3125 -234.2275 256.3125 -215.1875 256.3125 C-215.89348812 253.06223562 -215.89348812 253.06223562 -218.98120117 251.77856445 C-220.22507962 251.23075883 -221.47543214 250.69751653 -222.73046875 250.17578125 C-223.40286591 249.89088837 -224.07526306 249.60599548 -224.76803589 249.31246948 C-226.9628704 248.39697179 -229.1666916 247.50747079 -231.375 246.625 C-232.11837616 246.32469879 -232.86175232 246.02439758 -233.62765503 245.71499634 C-246.34746731 240.65075234 -257.44928941 238.59338702 -271.1875 240.3125 Z M-251.73046875 280.984375 C-256.69068187 287.55920295 -257.56857446 294.35532423 -258.14892578 302.36938477 C-258.26640671 303.86557846 -258.26640671 303.86557846 -258.38626099 305.39199829 C-258.64245386 308.67878045 -258.88776077 311.9662762 -259.1328125 315.25390625 C-259.3087052 317.54268516 -259.48521763 319.83141653 -259.662323 322.12010193 C-260.03160388 326.91200478 -260.39595753 331.70424657 -260.75634766 336.49682617 C-261.21831043 342.6397706 -261.68852223 348.78204568 -262.16191292 354.924119 C-262.6132568 360.78384141 -263.06078603 366.64385312 -263.5078125 372.50390625 C-263.59336521 373.62199739 -263.67891792 374.74008854 -263.76706314 375.89206123 C-264.00841648 379.05622383 -264.24709308 382.22057614 -264.48486328 385.38500977 C-264.5565271 386.32073318 -264.62819092 387.2564566 -264.70202637 388.22053528 C-264.76644928 389.08539551 -264.83087219 389.95025574 -264.89724731 390.84132385 C-264.95364443 391.58847939 -265.01004154 392.33563494 -265.06814766 393.10543156 C-265.19788888 395.50461164 -265.1875 397.90981445 -265.1875 400.3125 C-179.3875 400.3125 -93.5875 400.3125 -5.1875 400.3125 C-6.54709803 379.2387306 -7.91230179 358.17140716 -9.49142265 337.11407661 C-9.8144364 332.80550906 -10.13059685 328.49665224 -10.43212891 324.18652344 C-10.731086 319.91562045 -11.04625307 315.64619653 -11.37277603 311.37731552 C-11.49244012 309.77750748 -11.60651786 308.17727008 -11.71453476 306.57663345 C-12.47814627 295.3399752 -13.79363681 285.51559357 -22.1875 277.3125 C-28.81833805 273.02922573 -35.18936985 272.18420164 -43.01904297 272.19897461 C-43.67340836 272.19882858 -44.32777374 272.19868256 -45.00196838 272.1985321 C-47.14457626 272.19922353 -49.28709499 272.20697948 -51.4296875 272.21484375 C-52.92326815 272.21671067 -54.41684942 272.21813328 -55.91043091 272.21913147 C-59.82635207 272.22293506 -63.74223568 272.23274676 -67.65814209 272.24383545 C-71.66011039 272.25409612 -75.66208481 272.25863904 -79.6640625 272.26367188 C-87.5052255 272.2743711 -95.34635807 272.2914214 -103.1875 272.3125 C-103.20208252 273.14499268 -103.21666504 273.97748535 -103.23168945 274.83520508 C-103.2927863 277.92739653 -103.36694556 281.01892082 -103.44995117 284.1105957 C-103.49951319 286.1054063 -103.53401133 288.10057257 -103.56835938 290.09570312 C-103.60380859 291.34931641 -103.63925781 292.60292969 -103.67578125 293.89453125 C-103.70196533 295.05186768 -103.72814941 296.2092041 -103.75512695 297.40161133 C-104.1875 300.3125 -104.1875 300.3125 -105.37988281 302.18936157 C-107.87776409 303.74138623 -109.68684937 303.69353088 -112.62109375 303.70068359 C-113.73234619 303.71014008 -114.84359863 303.71959656 -115.98852539 303.7293396 C-117.18856201 303.72326691 -118.38859863 303.71719421 -119.625 303.7109375 C-120.85661865 303.71380768 -122.0882373 303.71667786 -123.35717773 303.71963501 C-126.63097957 303.72220158 -129.90435537 303.7101161 -133.17810059 303.69335938 C-135.18560385 303.68750553 -137.19271369 303.69333795 -139.20019531 303.70361328 C-143.05031695 303.7221098 -146.89985434 303.71990992 -150.75 303.7109375 C-152.55005493 303.72004654 -152.55005493 303.72004654 -154.38647461 303.7293396 C-156.05335327 303.71515488 -156.05335327 303.71515488 -157.75390625 303.70068359 C-158.73302979 303.69829681 -159.71215332 303.69591003 -160.72094727 303.69345093 C-163.1875 303.3125 -163.1875 303.3125 -164.99511719 302.18936157 C-166.7472116 299.43148999 -166.62573795 297.1423825 -166.69921875 293.89453125 C-166.73466797 292.64091797 -166.77011719 291.38730469 -166.80664062 290.09570312 C-166.82919922 288.78537109 -166.85175781 287.47503906 -166.875 286.125 C-166.90817666 284.78967987 -166.94266666 283.45439168 -166.97851562 282.11914062 C-167.06112057 278.85034496 -167.13023229 275.58182188 -167.1875 272.3125 C-175.78503552 272.26602627 -184.38251797 272.23055472 -192.98014832 272.20887566 C-196.97297626 272.19846739 -200.96571784 272.18436263 -204.95849609 272.16162109 C-208.81643515 272.1397867 -212.67429148 272.12790916 -216.5322876 272.12274551 C-217.99938254 272.11906869 -219.46647328 272.11188905 -220.93353271 272.10103989 C-232.29877829 272.02038412 -243.46230521 272.0254535 -251.73046875 280.984375 Z M-151.1875 272.3125 C-151.1875 277.5925 -151.1875 282.8725 -151.1875 288.3125 C-140.6275 288.3125 -130.0675 288.3125 -119.1875 288.3125 C-119.1875 283.0325 -119.1875 277.7525 -119.1875 272.3125 C-129.7475 272.3125 -140.3075 272.3125 -151.1875 272.3125 Z M84.44970703 300.43066406 C81.68922345 303.60361477 78.35797551 305.99534431 75 308.5 C73.88762541 309.36631432 72.77681491 310.23464274 71.66796875 311.10546875 C68.8125 313.3125 68.8125 313.3125 66.66409683 314.57672596 C64.5575126 316.20711064 64.5575126 316.20711064 64.32030869 318.99301434 C64.32399586 320.08165185 64.32768303 321.17028936 64.33148193 322.29191589 C64.32598328 323.54133469 64.32048462 324.79075348 64.31481934 326.07803345 C64.32897594 327.46503068 64.34351517 328.85202405 64.35839844 330.23901367 C64.35952656 331.6975654 64.35889374 333.1561194 64.35662842 334.6146698 C64.35547896 338.577374 64.3790253 342.53959562 64.40692425 346.50218749 C64.43189953 350.64216537 64.43427683 354.78215385 64.43902588 358.92219543 C64.45146709 366.76329759 64.48430408 374.60417714 64.52442384 382.44518119 C64.57745795 393.03974403 64.59907777 403.63436759 64.62243271 414.22902966 C64.66006478 430.92368657 64.73974772 447.61787368 64.8125 464.3125 C101.7725 464.3125 138.7325 464.3125 176.8125 464.3125 C177.27898503 438.325583 177.27898503 438.325583 177.59375 412.33789062 C177.68853981 401.73253996 177.79969923 391.12922931 178.01953125 380.52563477 C178.17959488 372.80124961 178.28236396 365.07852533 178.31791592 357.3525278 C178.33868564 353.26492091 178.3870458 349.18206258 178.50418091 345.09598732 C179.81585583 327.25012941 179.81585583 327.25012941 173.41430664 311.55770874 C170.19741011 308.63151603 166.76026661 306.47185221 162.90870667 304.47925377 C159.33020004 302.48744821 156.2746898 299.84830841 153.125 297.25 C152.01957736 296.38073368 150.91161661 295.5146824 149.80078125 294.65234375 C146.8125 292.3125 146.8125 292.3125 144.69311523 290.22143555 C140.71832976 287.58741168 137.41684057 287.56303143 132.734375 287.4296875 C131.85442871 287.39656967 130.97448242 287.36345184 130.06787109 287.32933044 C127.2320547 287.24530707 124.39946451 287.20752796 121.5625 287.1875 C120.60331665 287.17858734 119.6441333 287.16967468 118.65588379 287.16049194 C103.87616576 287.142612 94.16357879 288.45810023 84.44970703 300.43066406 Z M-266.1875 416.3125 C-269.82279884 437.42127712 -269.82279884 437.42127712 -262.5 456.0625 C-257.26536213 461.75175902 -250.85091841 464.04733427 -243.20261228 464.40543401 C-240.85937438 464.44408997 -238.51804079 464.45057277 -236.17448425 464.44621277 C-235.27732628 464.44847833 -234.3801683 464.45074388 -233.45582372 464.45307809 C-230.45515513 464.45939882 -227.45453193 464.45858996 -224.45385742 464.45776367 C-222.30011436 464.46075636 -220.14637183 464.46415915 -217.99263 464.46794128 C-212.14545718 464.47677429 -206.29829899 464.47911911 -200.45112014 464.47975707 C-196.79695912 464.48046797 -193.14280183 464.48260306 -189.48864174 464.48525429 C-176.73746123 464.4945054 -163.98629118 464.49858947 -151.23510742 464.49780273 C-139.3540756 464.49720201 -127.47308918 464.50775349 -115.59206885 464.5235464 C-105.38721859 464.53662727 -95.18238316 464.5419864 -84.97752458 464.54134732 C-78.88459414 464.5410925 -72.79170405 464.54393531 -66.69878197 464.55452538 C-60.96717143 464.56421551 -55.23563975 464.5642792 -49.50402641 464.55700874 C-47.40341324 464.55596404 -45.30279512 464.55831897 -43.2021904 464.5643692 C-40.32852358 464.57210831 -37.45512783 464.56743157 -34.58146667 464.55973816 C-33.75576634 464.56488172 -32.93006601 464.57002529 -32.07934445 464.57532471 C-22.71963013 464.52018088 -14.9917039 463.07223198 -8.1875 456.3125 C1.37785784 443.97010279 -2.49631627 431.53315359 -4.1875 416.3125 C-90.6475 416.3125 -177.1075 416.3125 -266.1875 416.3125 Z " fill="#ffffff" transform="translate(303.1875,15.6875)"/>
<path d="M0 0 C0.66 -0.0103125 1.32 -0.020625 2 -0.03125 C5.00101226 0.76589388 6.16507889 2.0155493 8 4.5 C8.390625 7.734375 8.390625 7.734375 8.25 11.25 C8.21390625 12.42046875 8.1778125 13.5909375 8.140625 14.796875 C8.09421875 15.68890625 8.0478125 16.5809375 8 17.5 C8.91394531 17.76425781 9.82789063 18.02851563 10.76953125 18.30078125 C16.52175787 20.43613019 19.84683003 24.56565038 22.9375 29.75 C24.58417145 35.5617816 25.53950963 41.74171192 22.5 47.1875 C18.93296838 49.0601916 15.94163207 49.27207226 12 48.5 C7.81675787 45.89960624 6.97020449 41.95173496 5.7109375 37.42578125 C5.17694938 35.30339309 5.17694938 35.30339309 3 34.5 C-1.13064626 34.12384874 -1.13064626 34.12384874 -4.875 35.625 C-6.52854531 38.38090884 -6.39365568 40.35075452 -6 43.5 C-3.57890052 46.92640031 -0.6628957 47.19927773 3.3125 47.9375 C11.76352785 49.76449604 17.09990698 53.40076885 22 60.5 C25.22307561 66.94615122 25.12671819 75.035914 23.3828125 81.9453125 C21.02324135 87.27000846 16.78686321 91.27447694 12 94.5 C9.75 95.19140625 9.75 95.19140625 8 95.5 C8.04640625 96.39203125 8.0928125 97.2840625 8.140625 98.203125 C8.19476563 99.95882812 8.19476563 99.95882812 8.25 101.75 C8.29640625 102.91015625 8.3428125 104.0703125 8.390625 105.265625 C8 108.5 8 108.5 6.234375 110.890625 C3.87988376 112.58651729 2.85547686 113.04461683 0 113 C-0.66 113.0103125 -1.32 113.020625 -2 113.03125 C-5.00101226 112.23410612 -6.16507889 110.9844507 -8 108.5 C-8.390625 105.265625 -8.390625 105.265625 -8.25 101.75 C-8.21390625 100.57953125 -8.1778125 99.4090625 -8.140625 98.203125 C-8.09421875 97.31109375 -8.0478125 96.4190625 -8 95.5 C-8.91394531 95.23574219 -9.82789063 94.97148437 -10.76953125 94.69921875 C-16.52175787 92.56386981 -19.84683003 88.43434962 -22.9375 83.25 C-24.58417145 77.4382184 -25.53950963 71.25828808 -22.5 65.8125 C-18.93296838 63.9398084 -15.94163207 63.72792774 -12 64.5 C-7.81675787 67.10039376 -6.97020449 71.04826504 -5.7109375 75.57421875 C-5.17694938 77.69660691 -5.17694938 77.69660691 -3 78.5 C1.13064626 78.87615126 1.13064626 78.87615126 4.875 77.375 C6.52854531 74.61909116 6.39365568 72.64924548 6 69.5 C3.57890052 66.07359969 0.6628957 65.80072227 -3.3125 65.0625 C-11.76352785 63.23550396 -17.09990698 59.59923115 -22 52.5 C-25.22307561 46.05384878 -25.12671819 37.964086 -23.3828125 31.0546875 C-21.02324135 25.72999154 -16.78686321 21.72552306 -12 18.5 C-9.75 17.80859375 -9.75 17.80859375 -8 17.5 C-8.04640625 16.60796875 -8.0928125 15.7159375 -8.140625 14.796875 C-8.17671875 13.62640625 -8.2128125 12.4559375 -8.25 11.25 C-8.29640625 10.08984375 -8.3428125 8.9296875 -8.390625 7.734375 C-8 4.5 -8 4.5 -6.234375 2.109375 C-3.87988376 0.41348271 -2.85547686 -0.04461683 0 0 Z " fill="#ffffff" transform="translate(424,351.5)"/>
<path d="M0 0 C1.10794922 -0.01260864 2.21589844 -0.02521729 3.35742188 -0.03820801 C4.54916016 -0.03011108 5.74089844 -0.02201416 6.96875 -0.01367188 C8.19658203 -0.01749878 9.42441406 -0.02132568 10.68945312 -0.02526855 C13.28516459 -0.02799029 15.88090336 -0.02061099 18.4765625 -0.00390625 C22.45374599 0.01749738 26.42912282 -0.0037015 30.40625 -0.02929688 C32.92708733 -0.02665365 35.44792353 -0.02152878 37.96875 -0.01367188 C39.16048828 -0.0217688 40.35222656 -0.02986572 41.58007812 -0.03820801 C43.24200195 -0.01929504 43.24200195 -0.01929504 44.9375 0 C45.91138672 0.00318237 46.88527344 0.00636475 47.88867188 0.00964355 C51.23812406 0.66904318 52.42312814 1.82319641 54.46875 4.51757812 C54.97668457 6.49023438 54.97668457 6.49023438 54.98632812 8.58007812 C54.99893677 9.36769531 55.01154541 10.1553125 55.02453613 10.96679688 C55.01643921 11.80855469 55.00834229 12.6503125 55 13.51757812 C55.00574036 14.82662109 55.00574036 14.82662109 55.01159668 16.16210938 C55.0143149 18.00456905 55.00695994 19.84706737 54.99023438 21.68945312 C54.96882248 24.50803746 54.99003801 27.32407297 55.015625 30.14257812 C55.01298171 31.93425041 55.00785669 33.72592111 55 35.51757812 C55.00809692 36.35933594 55.01619385 37.20109375 55.02453613 38.06835938 C55.01192749 38.85597656 54.99931885 39.64359375 54.98632812 40.45507812 C54.98314575 41.14472656 54.97996338 41.834375 54.97668457 42.54492188 C54.21863449 45.48894719 52.85473442 46.68329988 50.46875 48.51757812 C47.88867188 49.0255127 47.88867188 49.0255127 44.9375 49.03515625 C43.82955078 49.04776489 42.72160156 49.06037354 41.58007812 49.07336426 C40.38833984 49.06526733 39.19660156 49.05717041 37.96875 49.04882812 C36.12700195 49.05456848 36.12700195 49.05456848 34.24804688 49.0604248 C31.65233541 49.06314654 29.05659664 49.05576724 26.4609375 49.0390625 C22.48375401 49.01765887 18.50837718 49.03885775 14.53125 49.06445312 C12.01041267 49.0618099 9.48957647 49.05668503 6.96875 49.04882812 C5.77701172 49.05692505 4.58527344 49.06502197 3.35742188 49.07336426 C1.69549805 49.05445129 1.69549805 49.05445129 0 49.03515625 C-0.97388672 49.03197388 -1.94777344 49.0287915 -2.95117188 49.0255127 C-6.30062406 48.36611307 -7.48562814 47.21195984 -9.53125 44.51757812 C-10.03918457 42.54492188 -10.03918457 42.54492188 -10.04882812 40.45507812 C-10.06143677 39.66746094 -10.07404541 38.87984375 -10.08703613 38.06835938 C-10.07893921 37.22660156 -10.07084229 36.38484375 -10.0625 35.51757812 C-10.0663269 34.64488281 -10.07015381 33.7721875 -10.07409668 32.87304688 C-10.0768149 31.0305872 -10.06945994 29.18808888 -10.05273438 27.34570312 C-10.03132248 24.52711879 -10.05253801 21.71108328 -10.078125 18.89257812 C-10.07548171 17.10090584 -10.07035669 15.30923514 -10.0625 13.51757812 C-10.07059692 12.67582031 -10.07869385 11.8340625 -10.08703613 10.96679688 C-10.07442749 10.17917969 -10.06181885 9.3915625 -10.04882812 8.58007812 C-10.04564575 7.89042969 -10.04246338 7.20078125 -10.03918457 6.49023438 C-8.68000445 1.21161128 -4.98361036 0.01628496 0 0 Z M6.46875 16.51757812 C6.46875 21.79757813 6.46875 27.07757813 6.46875 32.51757812 C17.02875 32.51757812 27.58875 32.51757812 38.46875 32.51757812 C38.46875 27.23757812 38.46875 21.95757812 38.46875 16.51757812 C27.90875 16.51757812 17.34875 16.51757812 6.46875 16.51757812 Z " fill="#ffffff" transform="translate(281.53125,207.482421875)"/>
<path d="M0 0 C2.5 1.5 2.5 1.5 4 4 C4.791013 8.02098277 4.62153384 10.96411027 2.5 14.5 C-1.03588973 16.62153384 -3.97901723 16.791013 -8 16 C-10.5 14.5 -10.5 14.5 -12 12 C-12.791013 7.97901723 -12.62153384 5.03588973 -10.5 1.5 C-6.96411027 -0.62153384 -4.02098277 -0.791013 0 0 Z " fill="#ffffff" transform="translate(428,320)"/>
</svg>
