<?xml version="1.0" encoding="UTF-8"?>
<svg version="1.1" xmlns="http://www.w3.org/2000/svg" width="512" height="512">
<path d="M0 0 C0.98870087 0.00081573 0.98870087 0.00081573 1.99737549 0.00164795 C12.97851814 0.04318906 22.9941372 0.99005212 33.4375 4.375 C34.1190918 4.58930664 34.80068359 4.80361328 35.50292969 5.02441406 C49.73101879 9.60701941 62.12362402 16.56213576 73.4375 26.375 C74.24574219 27.03886719 75.05398437 27.70273437 75.88671875 28.38671875 C96.07609101 45.53342267 109.25124274 71.13485723 112.4375 97.375 C112.74917795 102.2327685 112.81899508 107.07052155 112.8125 111.9375 C112.81228851 112.59596924 112.81207703 113.25443848 112.81185913 113.93286133 C112.75955164 130.29643064 109.37296252 144.24443571 103.4375 159.375 C104.36030762 159.38901855 104.36030762 159.38901855 105.30175781 159.40332031 C108.09781086 159.45711085 110.8922062 159.54073819 113.6875 159.625 C114.65558594 159.63917969 115.62367188 159.65335938 116.62109375 159.66796875 C123.59416175 159.90841937 123.59416175 159.90841937 127.078125 161.8359375 C129.17320714 165.74916563 129.03153274 169.3760527 128.9375 173.75 C128.92468994 174.64468994 128.91187988 175.53937988 128.89868164 176.46118164 C128.36727343 194.04495886 120.69114126 209.81549562 108.4375 222.375 C93.79766085 235.37222045 77.499621 240.84669316 58.19213867 240.77905273 C56.79452473 240.78476893 55.39691544 240.79173797 53.99931335 240.79985046 C50.23461358 240.81766202 46.47014841 240.81663602 42.7054193 240.81090808 C39.54731805 240.80779785 36.38926068 240.81392911 33.23116571 240.81994683 C25.77182984 240.83395188 18.3126086 240.83246521 10.85327148 240.82104492 C3.19320619 240.80957546 -4.4665085 240.82362871 -12.12652761 240.8504414 C-18.73500631 240.87269547 -25.34337575 240.87921382 -31.95188922 240.87336498 C-35.88477303 240.87001634 -39.81743239 240.87226904 -43.75028419 240.88961601 C-47.45317095 240.90523839 -51.15554421 240.90096329 -54.85841179 240.88231087 C-56.84041045 240.87694854 -58.82243304 240.89102302 -60.80438232 240.90600586 C-79.54772937 240.75429668 -96.16192565 233.44922855 -109.5625 220.375 C-116.25095381 212.84124397 -120.91104252 204.73771149 -124.5625 195.375 C-124.9028125 194.529375 -125.243125 193.68375 -125.59375 192.8125 C-127.68594368 186.61340762 -127.89460731 180.42378317 -128 173.9375 C-128.02239746 173.0602124 -128.04479492 172.1829248 -128.06787109 171.27905273 C-128.05445683 167.62790185 -127.93556513 165.07705051 -126.20703125 161.82421875 C-121.94017794 159.48595792 -117.60245162 159.69515908 -112.8125 159.625 C-111.82894531 159.59535156 -110.84539062 159.56570313 -109.83203125 159.53515625 C-107.40877224 159.46457589 -104.98646846 159.41182299 -102.5625 159.375 C-102.76407715 158.79645264 -102.9656543 158.21790527 -103.17333984 157.62182617 C-110.6641504 135.99915619 -110.6641504 135.99915619 -111.5625 127.375 C-111.69398437 126.3025 -111.82546875 125.23 -111.9609375 124.125 C-114.83786201 94.46071168 -106.13060135 63.8750557 -87.15942383 40.80200195 C-64.86140423 14.61557671 -34.53738517 -0.04827948 0 0 Z M-63.5625 41.375 C-64.43519531 42.179375 -65.30789062 42.98375 -66.20703125 43.8125 C-82.56838657 59.51155158 -94.31094433 82.04796153 -94.80078125 105.05078125 C-95.14873253 125.90581592 -91.93078666 141.63842668 -82.5625 160.375 C-76.6225 160.375 -70.6825 160.375 -64.5625 160.375 C-66.3878125 157.1265625 -66.3878125 157.1265625 -68.25 153.8125 C-78.59650081 134.83900432 -82.23245778 112.47643457 -77.0625 91.25 C-73.27957604 79.54031311 -67.6246722 68.68488933 -59.5625 59.375 C-58.65177734 58.17037109 -58.65177734 58.17037109 -57.72265625 56.94140625 C-49.84086516 47.57732534 -38.80895473 41.70283194 -27.5625 37.375 C-25.89380859 36.72337891 -25.89380859 36.72337891 -24.19140625 36.05859375 C-4.18292817 29.54050838 18.16472185 32.13019278 36.8125 41.1875 C42.90052518 44.29584575 48.26179648 47.89294746 53.4375 52.375 C54.24058594 52.98214844 55.04367188 53.58929688 55.87109375 54.21484375 C65.23517466 62.09663484 71.10966806 73.12854527 75.4375 84.375 C76.08912109 86.04369141 76.08912109 86.04369141 76.75390625 87.74609375 C83.33572142 107.95020234 80.65802369 130.35032802 71.3125 149.0625 C70.0421757 151.51215956 68.7423032 153.94332131 67.4375 156.375 C66.7775 157.695 66.1175 159.015 65.4375 160.375 C71.3775 160.375 77.3175 160.375 83.4375 160.375 C95.53489637 135.71492277 100.25237847 109.07889653 91.4375 82.375 C82.62298786 56.87370452 64.3854533 37.28360292 40.4765625 25.234375 C6.37162616 8.968689 -36.01900715 15.7772798 -63.5625 41.375 Z M-45.3125 67.5625 C-56.98367784 79.86913217 -62.78714711 94.46140171 -62.625 111.1875 C-62.62048828 112.07115234 -62.61597656 112.95480469 -62.61132812 113.86523438 C-62.59959866 116.03518559 -62.58166495 118.20510172 -62.5625 120.375 C-58.52551677 116.68096438 -55.5029766 112.34955548 -52.3125 107.9375 C-47.14377488 100.85240434 -41.89672351 93.83631719 -36.5625 86.875 C-30.64570217 79.14765629 -24.82092821 71.35950481 -19.078125 63.50195312 C-18.541875 62.76912109 -18.005625 62.03628906 -17.453125 61.28125 C-16.95619141 60.60191406 -16.45925781 59.92257812 -15.94726562 59.22265625 C-14.73367672 57.60339658 -13.45738381 56.03152541 -12.171875 54.46875 C-10.35935841 52.55085369 -10.35935841 52.55085369 -10.5625 50.375 C-23.64737789 50.375 -36.10838027 58.98772179 -45.3125 67.5625 Z M9.92041016 51.72583008 C9.44394043 52.35900146 8.9674707 52.99217285 8.4765625 53.64453125 C7.93016113 54.35843018 7.38375977 55.0723291 6.82080078 55.80786133 C5.95044189 56.98578247 5.95044189 56.98578247 5.0625 58.1875 C4.44745605 58.99920654 3.83241211 59.81091309 3.19873047 60.6472168 C1.26279659 63.21194712 -0.6527345 65.79073827 -2.5625 68.375 C-3.14386719 69.16003906 -3.72523438 69.94507813 -4.32421875 70.75390625 C-6.61277474 73.84895565 -8.89607861 76.94772025 -11.16943359 80.05395508 C-15.56184147 86.05041427 -20.04381762 91.9732579 -24.5625 97.875 C-30.34847936 105.43317964 -36.03819234 113.05410421 -41.66455078 120.73168945 C-46.52919267 127.35956952 -51.50935798 133.8897463 -56.5625 140.375 C-55.60508894 141.97971728 -54.64653595 143.58375329 -53.6875 145.1875 C-53.15382813 146.08082031 -52.62015625 146.97414063 -52.0703125 147.89453125 C-50.94366908 149.74794724 -49.76563389 151.57029917 -48.5625 153.375 C-44.29675247 151.83101713 -42.12891788 148.62266948 -39.5 145.125 C-38.519733 143.84880334 -37.5392585 142.57276605 -36.55859375 141.296875 C-35.81198486 140.31750977 -35.81198486 140.31750977 -35.05029297 139.31835938 C-32.75031426 136.31412069 -30.40570496 133.34555611 -28.0625 130.375 C-27.14558859 129.20852568 -26.22892262 128.04185838 -25.3125 126.875 C-16.14583333 115.20833333 -6.97916667 103.54166667 2.1875 91.875 C2.6414917 91.29717773 3.0954834 90.71935547 3.56323242 90.12402344 C4.47740015 88.96056677 5.39162516 87.79715511 6.3059082 86.63378906 C8.636287 83.66838101 10.96558115 80.70213143 13.29296875 77.734375 C13.76307373 77.1352832 14.23317871 76.53619141 14.7175293 75.91894531 C15.64530285 74.73641624 16.57256126 73.5534828 17.49926758 72.37011719 C20.96461256 67.95269904 24.49818983 63.59412493 28.07421875 59.265625 C29.6324595 57.49310626 29.6324595 57.49310626 29.4375 55.375 C27.19017898 54.53375684 24.94011215 53.70185168 22.6875 52.875 C22.05328125 52.63652344 21.4190625 52.39804687 20.765625 52.15234375 C15.15786977 49.81063501 15.15786977 49.81063501 9.92041016 51.72583008 Z M43.4375 66.375 C37.02016716 73.49165757 31.25683542 81.17190616 25.47436523 88.8034668 C21.65889402 93.82288404 17.74520416 98.74767647 13.75 103.625 C9.02354213 109.39561815 4.42001107 115.23878598 -0.10546875 121.16796875 C-4.06156107 126.34769332 -8.11079047 131.4548333 -12.14501953 136.57373047 C-13.60865208 138.43364796 -15.06847609 140.29649946 -16.52734375 142.16015625 C-17.25836304 143.09323608 -17.25836304 143.09323608 -18.00415039 144.04516602 C-18.92717983 145.2235182 -19.84959212 146.40235421 -20.77124023 147.58178711 C-22.92209608 150.32507956 -25.10755826 153.01484452 -27.3828125 155.65625 C-29.77100498 158.05429923 -29.77100498 158.05429923 -29.5625 160.375 C-25.41847333 160.57406641 -21.27703512 160.7185041 -17.12963867 160.81445312 C-15.72191869 160.85447543 -14.31452695 160.90891768 -12.90795898 160.97851562 C-4.71513765 161.57754867 -4.71513765 161.57754867 2.74902344 158.83984375 C4.56992333 156.78693731 5.99665958 154.70776525 7.4375 152.375 C8.44921568 151.05344336 9.4725962 149.74072975 10.5078125 148.4375 C11.52818139 147.08494489 12.54634702 145.73072531 13.5625 144.375 C17.98008034 138.53640234 22.48459921 132.78811843 27.125 127.125 C31.76853693 121.45376688 36.30183126 115.72317214 40.7421875 109.890625 C42.84703993 107.130749 44.98551297 104.39884715 47.1328125 101.671875 C47.77226807 100.8576709 48.41172363 100.0434668 49.07055664 99.20458984 C50.33735372 97.59300212 51.60727784 95.98386654 52.88061523 94.37744141 C53.45755127 93.64187012 54.0344873 92.90629883 54.62890625 92.1484375 C55.14654541 91.49278809 55.66418457 90.83713867 56.19750977 90.16162109 C57.62338741 88.28587851 57.62338741 88.28587851 58.4375 85.375 C55.00361422 78.382976 49.981296 71.8404938 44.4375 66.375 C44.1075 66.375 43.7775 66.375 43.4375 66.375 Z M62.4375 108.375 C61.57494469 109.39904526 60.75520035 110.45917468 59.953125 111.53125 C59.17835815 112.55847168 59.17835815 112.55847168 58.38793945 113.60644531 C57.82679443 114.35506836 57.26564941 115.10369141 56.6875 115.875 C52.14527297 121.88081248 47.52466682 127.80223559 42.75 133.625 C35.65060964 142.29693891 28.57924697 150.98829375 22.4375 160.375 C25.62403222 160.58021899 28.80885052 160.70322933 32 160.8125 C32.89525391 160.87115234 33.79050781 160.92980469 34.71289062 160.99023438 C38.46994121 161.08656901 41.29511103 161.13391928 44.48925781 159.01196289 C46.3206484 157.23067639 47.88808555 155.40488866 49.4375 153.375 C49.86651611 152.83689697 50.29553223 152.29879395 50.73754883 151.74438477 C60.72366201 138.56288115 64.49549731 124.73869174 63.4375 108.375 C63.1075 108.375 62.7775 108.375 62.4375 108.375 Z M-110.5625 176.375 C-108.97693226 192.23067735 -103.12429042 203.5216719 -90.83203125 213.77734375 C-77.38383683 223.24431711 -63.54443567 224.52703954 -47.63378906 224.52026367 C-46.48438843 224.52362228 -45.33498779 224.5269809 -44.15075684 224.53044128 C-40.37653502 224.53988739 -36.60235788 224.5418912 -32.828125 224.54296875 C-30.18552635 224.54618573 -27.54292787 224.54955013 -24.90032959 224.55305481 C-19.36942253 224.55942945 -13.83852742 224.56093941 -8.30761719 224.56030273 C-1.9490428 224.55970284 4.40944652 224.57024453 10.76799941 224.5860464 C16.25967353 224.5991989 21.7513201 224.60448342 27.24300981 224.60384732 C30.50851495 224.60359457 33.77392823 224.60726775 37.03942108 224.61702538 C60.72907474 224.68118736 80.31614415 224.72714603 98.40234375 207.50390625 C106.46208531 199.02089599 111.4375 188.03365127 111.4375 176.375 C90.3175 176.375 69.1975 176.375 47.4375 176.375 C47.4375 181.325 47.4375 186.275 47.4375 191.375 C45.2770371 197.68355166 42.04146283 201.71669578 36.4375 205.375 C32.60096146 207.19266491 29.53636733 207.63527475 25.30541992 207.66552734 C24.09033249 207.67828705 22.87524506 207.69104675 21.62333679 207.70419312 C20.31806534 207.70641876 19.01279388 207.70864441 17.66796875 207.7109375 C16.30422325 207.71737165 14.94047911 207.72410046 13.57673645 207.73110962 C10.72129113 207.74306362 7.86596661 207.74679248 5.01049805 207.74560547 C1.3689689 207.74540257 -2.27177728 207.77268171 -5.91312122 207.80714989 C-8.72974637 207.82949725 -11.54618556 207.83344061 -14.36289024 207.83238602 C-16.3524848 207.835864 -18.34202131 207.85747958 -20.33149719 207.87948608 C-28.5118869 207.83838012 -34.21272626 207.12856923 -40.5859375 201.62890625 C-41.25496094 200.79166016 -41.25496094 200.79166016 -41.9375 199.9375 C-42.62972656 199.10412109 -42.62972656 199.10412109 -43.3359375 198.25390625 C-48.2311437 190.75519866 -46.5625 186.41133115 -46.5625 176.375 C-67.6825 176.375 -88.8025 176.375 -110.5625 176.375 Z M-29.5625 179.375 C-30.98291821 182.21583641 -30.87702272 184.22977278 -30.5625 187.375 C-28.33043569 190.22280619 -27.01257001 191.22497666 -23.5625 192.375 C-22.01435493 192.47647433 -20.46230303 192.52333858 -18.91088867 192.53613281 C-17.96948532 192.54574036 -17.02808197 192.5553479 -16.05815125 192.56524658 C-15.04251602 192.56949646 -14.0268808 192.57374634 -12.98046875 192.578125 C-11.41006584 192.58667511 -11.41006584 192.58667511 -9.80793762 192.59539795 C-7.59128836 192.60484766 -5.37462504 192.61138182 -3.15795898 192.61523438 C0.2263249 192.62493216 3.60999949 192.65595313 6.99414062 192.6875 C9.1484339 192.69403098 11.30273151 192.69928108 13.45703125 192.703125 C14.97137505 192.7216452 14.97137505 192.7216452 16.51631165 192.74053955 C21.8917413 192.72357365 25.82936364 192.48654548 30.4375 189.375 C31.85791821 186.53416359 31.75202272 184.52022722 31.4375 181.375 C29.20543569 178.52719381 27.88757001 177.52502334 24.4375 176.375 C22.88935493 176.27352567 21.33730303 176.22666142 19.78588867 176.21386719 C18.37378365 176.19945587 18.37378365 176.19945587 16.93315125 176.18475342 C15.91751602 176.18050354 14.9018808 176.17625366 13.85546875 176.171875 C12.28506584 176.16332489 12.28506584 176.16332489 10.68293762 176.15460205 C8.46628836 176.14515234 6.24962504 176.13861818 4.03295898 176.13476562 C0.6486751 176.12506784 -2.73499949 176.09404687 -6.11914062 176.0625 C-8.2734339 176.05596902 -10.42773151 176.05071892 -12.58203125 176.046875 C-13.59159378 176.0345282 -14.60115631 176.0221814 -15.64131165 176.00946045 C-21.0167413 176.02642635 -24.95436364 176.26345452 -29.5625 179.375 Z " fill="#ffffff" transform="translate(143.5625,255.625)"/>
<path d="M0 0 C6.8406474 5.8950285 11.24395624 11.62057099 12.15234375 20.7734375 C12.3995453 27.75500862 12.01857852 33.11766605 9.4296875 39.63671875 C9.1684761 40.30427689 8.90726471 40.97183502 8.63813782 41.65962219 C7.71868526 43.99936466 6.78101578 46.33140181 5.84375 48.6640625 C5.08996146 50.56619668 4.33716697 52.46872499 3.58520508 54.37158203 C0.64167772 61.80666753 -2.32013956 69.23444445 -5.29272461 76.65795898 C-6.57002513 79.84990571 -7.84203433 83.04391967 -9.11328125 86.23828125 C-9.50489944 87.21222336 -9.89651764 88.18616547 -10.30000305 89.18962097 C-10.66095566 90.09859634 -11.02190826 91.00757172 -11.39379883 91.9440918 C-11.71101395 92.73744431 -12.02822906 93.53079681 -12.35505676 94.34819031 C-13.92487255 98.88578819 -14.29027955 103.14158715 -14.3671875 107.921875 C-14.39329102 109.16864014 -14.41939453 110.41540527 -14.44628906 111.69995117 C-14.45954224 112.3640097 -14.47279541 113.02806824 -14.4864502 113.71224976 C-15.01934759 138.41610952 -17.25141837 162.92204355 -20.46875 187.4140625 C-20.60186584 188.45426041 -20.60186584 188.45426041 -20.7376709 189.51547241 C-21.71785408 197.08234671 -22.8636552 204.55153052 -24.59666443 211.98791504 C-29.3357202 232.88435716 -30.0101806 253.01637776 -29.90067959 274.37876034 C-29.88350377 279.11007926 -29.90257393 283.84126486 -29.91778564 288.5725708 C-29.94155885 297.49043129 -29.93725217 306.40801309 -29.92066312 315.32588124 C-29.89184161 331.33298717 -29.9124594 347.34007817 -29.94306207 363.34716821 C-29.95264515 368.9464923 -29.94989508 374.54563097 -29.93638659 380.14494562 C-29.92954334 383.62314695 -29.93061649 387.10131751 -29.93339348 390.57952309 C-29.93288538 392.18104106 -29.92895951 393.78256249 -29.92121315 395.38406181 C-29.86159349 408.17329834 -29.82707725 420.239277 -38.15625 430.6640625 C-46.3361297 438.69274294 -53.92610342 441.15838676 -65.22070312 441.08837891 C-71.01804959 440.88598794 -75.28398722 439.73702492 -80.15625 436.6640625 C-80.77757812 436.3134375 -81.39890625 435.9628125 -82.0390625 435.6015625 C-88.96592899 431.28351586 -92.9642593 424.38389291 -95.15625 416.6640625 C-95.39561653 413.31284809 -95.39561653 413.31284809 -95.38088989 409.58821106 C-95.38103777 408.89880218 -95.38118564 408.2093933 -95.381338 407.49909323 C-95.37961715 405.1995487 -95.36378198 402.90031877 -95.34814453 400.60083008 C-95.34434294 398.94559927 -95.3415359 397.29036593 -95.33964539 395.63513184 C-95.33420249 392.06828805 -95.32321033 388.50151876 -95.30838394 384.93470192 C-95.28631006 379.24734623 -95.28601803 373.56011603 -95.29025269 367.87272644 C-95.29144629 365.9152384 -95.29261528 363.95775033 -95.2937603 362.00026226 C-95.29463068 360.52891844 -95.29463068 360.52891844 -95.29551864 359.02785051 C-95.30150184 345.80060316 -95.2899201 332.57357744 -95.23535156 319.34643555 C-95.19867292 310.41302449 -95.19184788 301.48007206 -95.21584976 292.54661292 C-95.22731099 287.84280765 -95.22546894 283.14002852 -95.18634415 278.43634987 C-94.99004707 253.59025011 -97.5375823 230.48455151 -102.67869055 206.17366987 C-106.83798907 186.06109846 -108.88379911 165.19491705 -110.40625 144.7265625 C-110.47497314 143.8083522 -110.54369629 142.89014191 -110.61450195 141.94410706 C-111.00939216 136.05210201 -111.16713556 130.24718733 -111.00878906 124.34301758 C-110.63171221 103.14517004 -115.31705503 86.67776767 -123.75567627 67.36859131 C-125.28698841 63.83261462 -126.75573901 60.27079173 -128.23046875 56.7109375 C-130.80371278 50.5175714 -133.42736618 44.34848739 -136.09362793 38.19448853 C-139.09984229 31.03577869 -139.31952982 22.52040535 -137.5078125 14.95703125 C-131.93422859 1.35653376 -118.8670092 -5.70149046 -105.9453125 -11.25 C-71.42308017 -24.69142939 -30.41319569 -22.50877602 0 0 Z M-119.515625 17.3515625 C-122.11080003 22.59134447 -121.90269932 27.16259829 -120.2638855 32.6545105 C-118.97385448 36.12001883 -117.58830181 39.53049313 -116.16015625 42.94140625 C-115.64553921 44.20115652 -115.13229201 45.46146716 -114.62034607 46.7223053 C-113.27828351 50.01685881 -111.91750247 53.30335155 -110.5526123 56.58850098 C-109.16316919 59.94281314 -107.79257942 63.30480862 -106.41992188 66.66601562 C-102.06001432 77.78884036 -102.06001432 77.78884036 -97.15625 88.6640625 C-91.87625 88.6640625 -86.59625 88.6640625 -81.15625 88.6640625 C-81.5171875 86.90320313 -81.878125 85.14234375 -82.25 83.328125 C-82.71925081 80.98187094 -83.18797278 78.63551107 -83.65625 76.2890625 C-83.89472656 75.13277344 -84.13320313 73.97648437 -84.37890625 72.78515625 C-87.23581942 58.33733821 -87.23581942 58.33733821 -86.15625 52.6640625 C-84.42562558 50.49585844 -83.42802879 49.75703945 -80.78125 48.8515625 C-77.35589836 48.60689453 -75.99676299 48.64580327 -73.15625 50.6640625 C-69.89915194 58.37802642 -68.66931925 67.13472798 -66.96875 75.2890625 C-66.69611328 76.57941406 -66.42347656 77.86976563 -66.14257812 79.19921875 C-65.47669683 82.35339331 -64.81468021 85.50832567 -64.15625 88.6640625 C-63.49625 88.6640625 -62.83625 88.6640625 -62.15625 88.6640625 C-61.90717896 87.47031006 -61.90717896 87.47031006 -61.65307617 86.25244141 C-60.88775016 82.59703413 -60.11579753 78.94305579 -59.34375 75.2890625 C-59.08271484 74.03738281 -58.82167969 72.78570312 -58.55273438 71.49609375 C-57.37082095 65.92213167 -56.16046124 60.35948622 -54.66796875 54.859375 C-54.45744873 54.08352051 -54.24692871 53.30766602 -54.0300293 52.50830078 C-53.15625 50.6640625 -53.15625 50.6640625 -49.78125 48.9140625 C-44.14996069 48.52569772 -44.14996069 48.52569772 -41.15625 50.6640625 C-39.11376365 55.96452536 -39.12902097 59.61281859 -40.2734375 65.12890625 C-40.40944366 65.80707901 -40.54544983 66.48525177 -40.68557739 67.18397522 C-41.11890336 69.32662758 -41.57461538 71.46376992 -42.03125 73.6015625 C-42.33092541 75.06284457 -42.62911719 76.52443173 -42.92578125 77.98632812 C-43.64947388 81.55021111 -44.4033248 85.1057465 -45.15625 88.6640625 C-39.87625 88.6640625 -34.59625 88.6640625 -29.15625 88.6640625 C-24.32407524 78.17539768 -19.94997357 67.54108564 -15.66137695 56.82080078 C-14.78047433 54.62678687 -13.89306045 52.4353764 -12.99926758 50.24658203 C-11.69670201 47.05564225 -10.41466878 43.85711472 -9.13671875 40.65625 C-8.73680222 39.68726776 -8.33688568 38.71828552 -7.92485046 37.71994019 C-5.6748454 32.00738637 -4.18435984 26.83493016 -5.15625 20.6640625 C-10.27515264 10.32875432 -23.63546041 5.45514147 -34.05859375 1.91796875 C-60.07495924 -6.32209007 -100.02803527 -4.84622183 -119.515625 17.3515625 Z M-94.15625 104.6640625 C-94.24693843 126.23397466 -94.24693843 126.23397466 -93.03125 147.6640625 C-92.93671539 148.7556366 -92.93671539 148.7556366 -92.840271 149.8692627 C-90.40595945 177.69866266 -86.33154884 205.42009701 -80.15625 232.6640625 C-68.93625 232.6640625 -57.71625 232.6640625 -46.15625 232.6640625 C-43.11634292 218.85419891 -40.46968928 205.07531966 -38.34375 191.1015625 C-38.23302155 190.38469269 -38.12229309 189.66782288 -38.00820923 188.92922974 C-37.69046594 186.86127645 -37.38079735 184.79229127 -37.07421875 182.72265625 C-36.80774536 180.93299438 -36.80774536 180.93299438 -36.53588867 179.10717773 C-36.1488627 175.59706369 -36.0900701 172.19243657 -36.15625 168.6640625 C-36.83727783 168.64947998 -37.51830566 168.63489746 -38.2199707 168.61987305 C-41.30347215 168.54543554 -44.38588567 168.44876167 -47.46875 168.3515625 C-49.0765332 168.31772461 -49.0765332 168.31772461 -50.71679688 168.28320312 C-51.74482422 168.24775391 -52.77285156 168.21230469 -53.83203125 168.17578125 C-54.77989502 168.14959717 -55.72775879 168.12341309 -56.7043457 168.09643555 C-59.53526871 167.59722569 -60.4510574 166.93707062 -62.15625 164.6640625 C-62.5546875 162.7265625 -62.5546875 162.7265625 -62.53125 160.6640625 C-62.53898437 159.9834375 -62.54671875 159.3028125 -62.5546875 158.6015625 C-62.02372229 156.01961403 -61.24312501 155.26843268 -59.15625 153.6640625 C-56.52075195 153.23168945 -56.52075195 153.23168945 -53.39453125 153.15234375 C-52.27626953 153.11689453 -51.15800781 153.08144531 -50.00585938 153.04492188 C-48.83861328 153.02236328 -47.67136719 152.99980469 -46.46875 152.9765625 C-45.28990234 152.94240234 -44.11105469 152.90824219 -42.89648438 152.87304688 C-39.98316775 152.79048325 -37.07015534 152.72135928 -34.15625 152.6640625 C-32.06881855 136.48646874 -32.15625 121.16947219 -32.15625 104.6640625 C-52.61625 104.6640625 -73.07625 104.6640625 -94.15625 104.6640625 Z M-78.15625 248.6640625 C-78.24654236 270.07377075 -78.32022738 291.48332485 -78.36349869 312.89317513 C-78.38412428 322.83412619 -78.41224486 332.77495056 -78.45800781 342.71582031 C-78.49787562 351.38024571 -78.52368284 360.04457936 -78.53260398 368.70909393 C-78.53781882 373.29696312 -78.55007553 377.88456982 -78.57917023 382.47235489 C-78.60633845 386.7913937 -78.61469217 391.1100621 -78.60868073 395.42917824 C-78.60978034 397.01343486 -78.61772602 398.59770399 -78.6330719 400.18188667 C-78.65302292 402.34787642 -78.648172 404.51247426 -78.63726807 406.67849731 C-78.64095524 407.8897333 -78.64464241 409.10096928 -78.64844131 410.34890938 C-77.87969586 415.52679209 -75.34300904 418.59032813 -71.53125 422.0390625 C-66.95354761 424.24314143 -63.15072589 424.4612264 -58.15625 423.6640625 C-53.27146204 421.31212755 -50.79563057 418.35629463 -48.15625 413.6640625 C-46.96968496 410.14094659 -47.03311592 406.76821705 -47.03599548 403.07086182 C-47.03514106 402.40999219 -47.03428663 401.74912256 -47.03340632 401.06822658 C-47.03176033 398.85567809 -47.03725846 396.64320556 -47.04272461 394.43066406 C-47.0430067 392.84388735 -47.04284832 391.2571105 -47.0422821 389.67033386 C-47.04199497 385.36284544 -47.04787815 381.05538482 -47.05485606 376.74790287 C-47.06110357 372.24622297 -47.06169451 367.74454245 -47.06288147 363.24285889 C-47.06599066 354.71836262 -47.0741985 346.19387916 -47.08423096 337.66938853 C-47.09540488 327.96452449 -47.10090578 318.25965984 -47.10592639 308.55479097 C-47.11638145 288.59120608 -47.13472182 268.62763874 -47.15625 248.6640625 C-57.38625 248.6640625 -67.61625 248.6640625 -78.15625 248.6640625 Z " fill="#ffffff" transform="translate(484.15625,55.3359375)"/>
<path d="M0 0 C0.84626953 0.27908203 1.69253906 0.55816406 2.56445312 0.84570312 C12.46501222 4.30364705 20.81145771 10.67968799 26.1161499 19.85006714 C29.6450351 27.69664082 29.44986617 35.45959196 29.328125 43.8828125 C29.32064919 45.4155096 29.31496261 46.94821637 29.31097412 48.48092651 C29.29582288 52.48253546 29.25663463 56.48354823 29.2121582 60.48492432 C29.17097611 64.58101338 29.15291453 68.67720034 29.1328125 72.7734375 C29.09012774 80.78672957 29.02200731 88.79954028 28.9375 96.8125 C29.88625 96.915625 30.835 97.01875 31.8125 97.125 C34.9375 97.8125 34.9375 97.8125 36.9375 100.8125 C37.19476891 103.29443264 37.19476891 103.29443264 37.20492554 106.30943298 C37.21345551 107.45210129 37.22198547 108.59476959 37.23077393 109.77206421 C37.22986755 111.02669464 37.22896118 112.28132507 37.22802734 113.57397461 C37.23401127 114.90781532 37.24081651 116.24165256 37.24838257 117.57548523 C37.26606258 121.19944601 37.27073875 124.82331238 37.27201414 128.44731212 C37.27391261 131.47174026 37.28126945 134.49614638 37.28835833 137.52056605 C37.3046471 144.65524222 37.3095268 151.78986792 37.30810547 158.92456055 C37.30690353 166.28699647 37.32801443 173.64913948 37.3595928 181.01150125 C37.3857329 187.33090659 37.39647374 193.65021612 37.39519465 199.96967512 C37.39468439 203.74476481 37.40040256 207.51959417 37.42155075 211.29463005 C37.44089561 214.84470168 37.44108398 218.39426364 37.42651749 221.9443531 C37.42342486 223.86872952 37.44013166 225.79310578 37.45739746 227.71740723 C37.44900848 228.86289536 37.44061951 230.00838348 37.43197632 231.18858337 C37.43306585 232.18391051 37.43415539 233.17923765 37.43527794 234.20472622 C36.79516529 237.55816729 35.60668422 238.74411884 32.9375 240.8125 C29.75 241.32043457 29.75 241.32043457 25.9375 241.33007812 C24.89287598 241.34059204 24.89287598 241.34059204 23.82714844 241.35131836 C21.53019068 241.36889196 19.23446979 241.35727919 16.9375 241.34375 C15.33853927 241.34644513 13.73958013 241.35032773 12.140625 241.35534668 C8.79150774 241.36124082 5.44281757 241.35268192 2.09375 241.33398438 C-2.19728591 241.31119435 -6.48732111 241.32431796 -10.77832031 241.34827423 C-14.07950366 241.3627348 -17.38045011 241.35812515 -20.68164062 241.34776306 C-22.26367308 241.34509646 -23.84572711 241.34836322 -25.42773438 241.35768127 C-27.63990163 241.36785179 -29.850453 241.3523419 -32.0625 241.33007812 C-33.320625 241.32689575 -34.57875 241.32371338 -35.875 241.32043457 C-39.73382159 240.70552355 -40.6713802 239.83880813 -43.0625 236.8125 C-43.56586456 234.20751953 -43.56586456 234.20751953 -43.57043457 231.1953125 C-43.58171387 230.05126953 -43.59299316 228.90722656 -43.60461426 227.72851562 C-43.59651733 226.47748047 -43.58842041 225.22644531 -43.58007812 223.9375 C-43.58549968 222.60350785 -43.59262254 221.2695217 -43.60131836 219.93554688 C-43.61955113 216.31564652 -43.61248474 212.69620226 -43.59980202 209.07629395 C-43.58967395 205.2878293 -43.59906715 201.49940368 -43.60534668 197.7109375 C-43.61262368 191.34888702 -43.60303413 184.98702228 -43.58398438 178.625 C-43.56221536 171.26989863 -43.56926671 163.91524077 -43.59129 156.56015015 C-43.60944262 150.24494633 -43.61200305 143.92987602 -43.60153532 137.61465454 C-43.59529956 133.84296397 -43.59446682 130.07148186 -43.60768127 126.29980469 C-43.61923735 122.75377647 -43.61121944 119.20831997 -43.58810425 115.66235352 C-43.58029314 113.74040513 -43.59217522 111.81840838 -43.60461426 109.89648438 C-43.59333496 108.75244141 -43.58205566 107.60839844 -43.57043457 106.4296875 C-43.56892647 105.43565918 -43.56741837 104.44163086 -43.56586456 103.41748047 C-42.91502409 100.04929201 -41.79244568 98.84178864 -39.0625 96.8125 C-37.7425 96.8125 -36.4225 96.8125 -35.0625 96.8125 C-35.07138245 95.72557358 -35.08026489 94.63864716 -35.0894165 93.51878357 C-35.1705853 83.26386997 -35.23050528 73.00902175 -35.26974869 62.75385952 C-35.29060259 57.48184737 -35.31888032 52.21009505 -35.36425781 46.93823242 C-35.40779359 41.84834815 -35.43165364 36.75871343 -35.44200897 31.6686573 C-35.44938644 29.72901546 -35.46379298 27.78938691 -35.48542023 25.84985161 C-35.51455699 23.12803762 -35.51845172 20.40724817 -35.51660156 17.68530273 C-35.53817322 16.48875565 -35.53817322 16.48875565 -35.56018066 15.26803589 C-35.5112938 8.59941093 -33.54935856 4.29935856 -28.75 -0.5 C-19.24558076 -6.46789115 -9.84740204 -3.48840638 0 0 Z M-18.0625 13.8125 C-19.80542177 15.55542177 -19.18230303 17.81873495 -19.18692017 20.14074707 C-19.18332489 20.90391235 -19.17972961 21.66707764 -19.17602539 22.45336914 C-19.17617142 23.25330795 -19.17631744 24.05324677 -19.1764679 24.87742615 C-19.17576855 27.53419665 -19.16797518 30.19089793 -19.16015625 32.84765625 C-19.15829215 34.68468691 -19.15686821 36.52171806 -19.15586853 38.35874939 C-19.15204275 43.20359662 -19.14221196 48.04841408 -19.13116455 52.89324951 C-19.12095172 57.83312578 -19.11637119 62.77300685 -19.11132812 67.71289062 C-19.10058974 77.41277563 -19.08299246 87.11263069 -19.0625 96.8125 C-8.5025 96.8125 2.0575 96.8125 12.9375 96.8125 C12.9795328 89.13450831 13.01959308 81.45693756 13.04100037 73.77893066 C13.05152633 70.20283036 13.06557407 66.62682612 13.08837891 63.05078125 C13.11023682 59.60132404 13.12209569 56.15195952 13.12725449 52.70243835 C13.13270476 50.75720154 13.14829671 48.8120016 13.16409302 46.86682129 C13.1651784 38.24023651 12.97202693 30.37946052 7.46484375 23.33984375 C2.05048225 17.92548225 -6.87423422 15.74306281 -14.0625 13.8125 C-15.3825 13.8125 -16.7025 13.8125 -18.0625 13.8125 Z M-27.0625 112.8125 C-27.0625 118.0925 -27.0625 123.3725 -27.0625 128.8125 C-11.2225 128.8125 4.6175 128.8125 20.9375 128.8125 C20.9375 123.5325 20.9375 118.2525 20.9375 112.8125 C5.0975 112.8125 -10.7425 112.8125 -27.0625 112.8125 Z M-27.0625 144.8125 C-27.0625 171.2125 -27.0625 197.6125 -27.0625 224.8125 C-11.2225 224.8125 4.6175 224.8125 20.9375 224.8125 C20.9375 198.4125 20.9375 172.0125 20.9375 144.8125 C5.0975 144.8125 -10.7425 144.8125 -27.0625 144.8125 Z " fill="#ffffff" transform="translate(331.0625,255.1875)"/>
<path d="M0 0 C3.46921195 2.76493584 5.05995189 5.8183687 6.875 9.8125 C12.45952581 21.23098454 20.25238296 26.78982626 31.625 32.3125 C35 34 35 34 36 36 C36.55910987 41.68428373 36.55910987 41.68428373 36 44 C32.81936418 47.7097832 29.29915364 50.27759888 25.1875 52.875 C15.19603402 59.48304779 9.70822284 65.48891427 3.8828125 75.8671875 C2 79 2 79 0 80 C-7.27272727 80.58651026 -7.27272727 80.58651026 -10.05859375 78.33984375 C-12.1873749 75.77416989 -13.63956451 73.20063258 -15.1875 70.25 C-20.74712749 60.58210041 -28.82470735 55.21284907 -38.03515625 49.32373047 C-42.90125733 46.19748535 -42.90125733 46.19748535 -44 44 C-44.58587813 36.73511123 -44.58587813 36.73511123 -42.34375 33.921875 C-39.74506755 31.79095539 -37.24428576 30.51409135 -34.1875 29.125 C-22.76901546 23.54047419 -17.21017374 15.74761704 -11.6875 4.375 C-9.16664754 -0.66670491 -5.37227614 -1.10486434 0 0 Z M-5 27 C-6.60059293 28.62092592 -6.60059293 28.62092592 -8.25 30.6875 C-11.25954469 34.23964603 -14.33524535 37.13970369 -18 40 C-16.87050952 43.38847145 -15.87716782 44.19694184 -13.1875 46.4375 C-10.33240495 48.85689832 -7.5947338 51.2971523 -5 54 C-1.60534645 52.54189378 0.52251713 50.66233272 3.0625 48 C5.33653856 45.62557202 7.24521929 43.83652048 10 42 C8.86819855 38.60459566 7.89642801 37.84642148 5.1875 35.625 C2.03968063 32.97272286 -0.44916576 30.2375973 -3 27 C-3.66 27 -4.32 27 -5 27 Z " fill="#ffffff" transform="translate(196,136)"/>
<path d="M0 0 C3.46921195 2.76493584 5.05995189 5.8183687 6.875 9.8125 C12.45952581 21.23098454 20.25238296 26.78982626 31.625 32.3125 C35 34 35 34 36 36 C36.55910987 41.68428373 36.55910987 41.68428373 36 44 C32.81936418 47.7097832 29.29915364 50.27759888 25.1875 52.875 C15.19603402 59.48304779 9.70822284 65.48891427 3.8828125 75.8671875 C2 79 2 79 0 80 C-7.27272727 80.58651026 -7.27272727 80.58651026 -10.05859375 78.33984375 C-12.1873749 75.77416989 -13.63956451 73.20063258 -15.1875 70.25 C-20.74712749 60.58210041 -28.82470735 55.21284907 -38.03515625 49.32373047 C-42.90125733 46.19748535 -42.90125733 46.19748535 -44 44 C-44.58587813 36.73511123 -44.58587813 36.73511123 -42.34375 33.921875 C-39.74506755 31.79095539 -37.24428576 30.51409135 -34.1875 29.125 C-22.76901546 23.54047419 -17.21017374 15.74761704 -11.6875 4.375 C-9.16664754 -0.66670491 -5.37227614 -1.10486434 0 0 Z M-5 27 C-6.60059293 28.62092592 -6.60059293 28.62092592 -8.25 30.6875 C-11.25954469 34.23964603 -14.33524535 37.13970369 -18 40 C-16.87050952 43.38847145 -15.87716782 44.19694184 -13.1875 46.4375 C-10.33240495 48.85689832 -7.5947338 51.2971523 -5 54 C-1.60534645 52.54189378 0.52251713 50.66233272 3.0625 48 C5.33653856 45.62557202 7.24521929 43.83652048 10 42 C8.86819855 38.60459566 7.89642801 37.84642148 5.1875 35.625 C2.03968063 32.97272286 -0.44916576 30.2375973 -3 27 C-3.66 27 -4.32 27 -5 27 Z " fill="#ffffff" transform="translate(284,88)"/>
<path d="M0 0 C3.46921195 2.76493584 5.05995189 5.8183687 6.875 9.8125 C12.45952581 21.23098454 20.25238296 26.78982626 31.625 32.3125 C35 34 35 34 36 36 C36.55910987 41.68428373 36.55910987 41.68428373 36 44 C32.81936418 47.7097832 29.29915364 50.27759888 25.1875 52.875 C15.19603402 59.48304779 9.70822284 65.48891427 3.8828125 75.8671875 C2 79 2 79 0 80 C-7.27272727 80.58651026 -7.27272727 80.58651026 -10.05859375 78.33984375 C-12.1873749 75.77416989 -13.63956451 73.20063258 -15.1875 70.25 C-20.74712749 60.58210041 -28.82470735 55.21284907 -38.03515625 49.32373047 C-42.90125733 46.19748535 -42.90125733 46.19748535 -44 44 C-44.58587813 36.73511123 -44.58587813 36.73511123 -42.34375 33.921875 C-39.74506755 31.79095539 -37.24428576 30.51409135 -34.1875 29.125 C-22.76901546 23.54047419 -17.21017374 15.74761704 -11.6875 4.375 C-9.16664754 -0.66670491 -5.37227614 -1.10486434 0 0 Z M-5 27 C-6.60059293 28.62092592 -6.60059293 28.62092592 -8.25 30.6875 C-11.25954469 34.23964603 -14.33524535 37.13970369 -18 40 C-16.87050952 43.38847145 -15.87716782 44.19694184 -13.1875 46.4375 C-10.33240495 48.85689832 -7.5947338 51.2971523 -5 54 C-1.60534645 52.54189378 0.52251713 50.66233272 3.0625 48 C5.33653856 45.62557202 7.24521929 43.83652048 10 42 C8.86819855 38.60459566 7.89642801 37.84642148 5.1875 35.625 C2.03968063 32.97272286 -0.44916576 30.2375973 -3 27 C-3.66 27 -4.32 27 -5 27 Z " fill="#ffffff" transform="translate(228,16)"/>
</svg>
