<?xml version="1.0" encoding="UTF-8"?>
<svg version="1.1" xmlns="http://www.w3.org/2000/svg" width="512" height="512">
<path d="M0 0 C1.49459244 0.00273422 1.49459244 0.00273422 3.01937866 0.00552368 C19.78054227 0.05718037 35.87952037 0.80880916 52.2109375 4.8359375 C64.75579697 8.49399764 64.75579697 8.49399764 76.9375 5.75 C77.741875 5.17121094 78.54625 4.59242187 79.375 3.99609375 C88.59149242 -2.05925417 103.37402263 -0.86264956 113.77734375 1 C128.45254625 5.18792937 140.23532419 14.16244374 147.9375 27.3125 C150.87925491 33.13375045 152.94526749 38.35524106 153.4375 44.875 C154.52043331 52.23257634 160.74793945 55.92622491 166.33251953 60.09619141 C168.47458136 61.71951846 170.4894749 63.46751177 172.5 65.25 C173.12390625 65.78625 173.7478125 66.3225 174.390625 66.875 C175.9375 68.3125 175.9375 68.3125 177.75 70.75 C181.05784681 73.11274772 184.23141281 72.40742187 188.1953125 72.28125 C199.93224261 72.41500419 209.40729875 85.60783625 217.11328125 93.28515625 C217.63176321 93.80081083 218.15024517 94.31646542 218.68443871 94.8477459 C221.4203168 97.56875277 224.15340117 100.29252768 226.8840332 103.01879883 C229.69261425 105.82186624 232.51038049 108.61550941 235.33033466 111.40712833 C237.51187297 113.57001275 239.68664503 115.73960558 241.85964012 117.91106987 C242.89571844 118.944135 243.93428136 119.97471484 244.97542763 121.0026722 C246.43004358 122.44014524 247.87480304 123.88688574 249.31762695 125.33618164 C250.13955032 126.15445938 250.96147369 126.97273712 251.80830383 127.81581116 C256.55833766 133.38568614 257.55965748 138.2247114 257.33984375 145.35546875 C256.25447817 153.33237886 250.50245091 157.94938259 244.6328125 162.94140625 C242.63317841 165.24460803 242.63317841 165.24460803 242.97265625 168.39453125 C244.06468221 173.48906382 245.71622869 178.46302026 247.25 183.4375 C249.61643739 191.33892264 251.72243119 199.20457617 253.25 207.3125 C253.39671143 208.08609863 253.54342285 208.85969727 253.69458008 209.65673828 C254.14967593 212.2036829 254.55023615 214.75433934 254.9375 217.3125 C255.11482666 218.43132568 255.29215332 219.55015137 255.47485352 220.70288086 C257.1563192 232.42524842 257.29271736 244.04721079 257.25 255.875 C257.24850952 256.89274506 257.24701904 257.91049011 257.2454834 258.95907593 C257.20685827 273.6096748 256.86420985 287.90879708 253.9375 302.3125 C253.7823291 303.12396484 253.6271582 303.93542969 253.46728516 304.77148438 C253.00545165 307.14609008 252.51399756 309.51117326 252 311.875 C251.8546582 312.54893799 251.70931641 313.22287598 251.55957031 313.91723633 C250.47320751 318.38384111 248.80038147 321.72203539 245.9375 325.3125 C239.81368175 329.02240972 233.15771893 327.50525091 226.5703125 325.88916016 C224.06389956 325.22129459 221.56263487 324.54186636 219.0625 323.8515625 C217.66095938 323.47369135 216.25914039 323.09685141 214.85707092 322.72094727 C211.81965318 321.90428431 208.78427401 321.08055342 205.75027466 320.25128174 C200.84615221 318.91091458 195.93793356 317.58600092 191.02905273 316.26318359 C184.79503396 314.58212786 178.56212885 312.89703911 172.33041668 311.20745277 C159.30128677 307.67536289 146.26328378 304.17687295 133.22265625 300.6875 C131.10728896 300.1213709 128.99192235 299.5552393 126.8765564 298.98910522 C123.70450676 298.14021815 120.53244669 297.29137014 117.3603611 296.44261742 C89.38674946 288.95741617 61.42031327 281.44556607 33.45874023 273.91552734 C31.06136035 273.26998588 28.66397826 272.6244526 26.26659393 271.97892761 C20.49020402 270.42354555 14.71384079 268.86806445 8.9375 267.3125 C8.94026538 268.52325006 8.94303076 269.73400013 8.94587994 270.98143959 C9.01085155 299.72131572 9.06032058 328.46119084 9.09069599 357.20112381 C9.09444811 360.7384121 9.09833108 364.27570023 9.10229492 367.81298828 C9.10308185 368.5171995 9.10386878 369.22141073 9.10467956 369.94696169 C9.11773396 381.34988506 9.14138798 392.75276306 9.16895839 404.15565951 C9.19701166 415.85583405 9.21367609 427.55598482 9.21976548 439.25619161 C9.22368051 445.82813364 9.23289831 452.39997277 9.25469017 458.97188187 C9.27502921 465.15566405 9.28133897 471.33930079 9.27682304 477.52311325 C9.2776494 479.79430684 9.28363029 482.06550522 9.29511642 484.33666992 C9.31001984 487.43512612 9.30646117 490.53303157 9.29826355 493.63150024 C9.30700207 494.53228699 9.3157406 495.43307374 9.32474393 496.36115706 C9.28842526 501.43231707 8.75029552 504.91599685 5.9375 509.3125 C1.54275146 513.25693275 -3.52601667 512.81002484 -9.125 512.75 C-10.12797119 512.74242676 -11.13094238 512.73485352 -12.16430664 512.72705078 C-72.45935567 511.46157063 -131.70017649 484.6564571 -175.0625 443.3125 C-176.06106747 442.25206549 -177.05295712 441.18531414 -178.0390625 440.11328125 C-183.85038675 433.25134729 -183.85038675 433.25134729 -191.9375 430.3125 C-192.65550781 430.32023437 -193.37351563 430.32796875 -194.11328125 430.3359375 C-197.73205423 430.2924252 -199.42333395 428.67090371 -202.0625 426.3125 C-208.83027834 417.75865598 -214.68029151 408.46747001 -220.6875 399.375 C-226.98830889 389.8546783 -233.34728449 380.40471372 -240 371.125 C-248.65424417 358.97089614 -255.45655139 347.04826491 -255.4375 331.75 C-255.44096436 330.86449463 -255.44442871 329.97898926 -255.44799805 329.06665039 C-255.37275987 323.71503202 -254.69176045 319.3345309 -252.875 314.25 C-250.14128948 306.18268645 -251.81705937 298.96402587 -253.61010742 290.85620117 C-254.88071506 283.71186172 -255.23773836 276.60029038 -255.30078125 269.35546875 C-255.3105751 268.42274643 -255.32036896 267.49002411 -255.33045959 266.52903748 C-255.60043147 234.13123671 -253.72525208 201.96938021 -241.53125 171.484375 C-240.88351715 169.32982652 -240.88351715 169.32982652 -241.65625 167.328125 C-243.51829112 164.65919939 -245.70828329 162.55721826 -248.0625 160.3125 C-252.27287907 156.29795252 -254.83109389 153.81168604 -255.375 147.9375 C-254.81388723 141.42859189 -251.65166755 137.52649335 -247.14175415 133.01080322 C-246.64860887 132.51297797 -246.15546359 132.01515272 -245.64737451 131.50224185 C-244.0032414 129.84620145 -242.34866495 128.20102291 -240.69384766 126.55566406 C-239.50879218 125.36654106 -238.32437534 124.17678131 -237.14054871 122.98643494 C-233.93054502 119.76277508 -230.7111486 116.54865257 -227.48955584 113.33657932 C-224.11747717 109.97210421 -220.75273358 106.60030628 -217.3868103 103.22967529 C-211.73461408 97.57202431 -206.07612873 91.92072127 -200.4140625 86.27294922 C-193.86859091 79.74381144 -187.33400753 73.20392574 -180.80495989 66.6583674 C-175.19679952 61.03659365 -169.58281463 55.42068666 -163.96391904 49.80964255 C-160.60888166 46.45928146 -157.25590238 43.10692822 -153.90816116 39.74927521 C-150.7614315 36.59388012 -147.60745454 33.44591333 -144.44773293 30.30352974 C-143.28940127 29.14916482 -142.13361491 27.99223936 -140.98057747 26.83258629 C-139.4062921 25.25010319 -137.82305645 23.67715041 -136.23721313 22.10626221 C-135.35342295 21.2236031 -134.46963276 20.34094398 -133.55906105 19.43153763 C-130.00958784 16.41880646 -127.21877192 15.43863875 -122.625 14.9375 C-116.50791922 15.58140324 -112.71738165 19.58232548 -108.0625 23.3125 C-107.43085938 23.04622803 -106.79921875 22.77995605 -106.1484375 22.50561523 C-84.02577335 13.2473281 -61.82580421 5.90738217 -38.0625 2.3125 C-36.93787354 2.13517334 -35.81324707 1.95784668 -34.65454102 1.77514648 C-23.1005952 0.12374287 -11.65784406 -0.04420483 0 0 Z M-96.0625 36.3125 C-90.96410256 42.47623421 -85.41589242 48.10847701 -79.75 53.75 C-78.83154297 54.67232422 -77.91308594 55.59464844 -76.96679688 56.54492188 C-76.09474609 57.41568359 -75.22269531 58.28644531 -74.32421875 59.18359375 C-73.52975342 59.97693115 -72.73528809 60.77026855 -71.91674805 61.58764648 C-70.36254467 63.42601632 -70.36254467 63.42601632 -69.0625 63.3125 C-69.03671875 62.29929688 -69.0109375 61.28609375 -68.984375 60.2421875 C-68.92805819 58.89058403 -68.87071167 57.53902319 -68.8125 56.1875 C-68.79832031 55.52234375 -68.78414062 54.8571875 -68.76953125 54.171875 C-68.52309336 49.14454195 -67.33849624 46.11943356 -64.0625 42.3125 C-58.2126396 39.3403884 -52.03304156 39.98305647 -45.625 40 C-43.80258789 39.97583008 -43.80258789 39.97583008 -41.94335938 39.95117188 C-40.76708984 39.95052734 -39.59082031 39.94988281 -38.37890625 39.94921875 C-37.31099854 39.94623779 -36.24309082 39.94325684 -35.14282227 39.94018555 C-31.44297973 40.38738059 -29.17191919 41.25015509 -26.0625 43.3125 C-23.4988411 47.52717859 -22.70642884 50.56126176 -22.85229492 55.46289062 C-22.87768845 56.65853638 -22.90308197 57.85418213 -22.929245 59.08605957 C-22.98553825 61.00799133 -22.98553825 61.00799133 -23.04296875 62.96875 C-23.0713367 65.00866291 -23.08950946 67.04852858 -23.10776997 69.08855438 C-23.15333705 74.09288267 -23.22049275 79.09459736 -23.38110352 84.09667969 C-24.61636433 102.53338585 -24.61636433 102.53338585 -17.02009583 118.46765137 C-12.54196541 122.99644832 -12.54196541 122.99644832 -7.0625 125.3125 C-7.0625 89.3425 -7.0625 53.3725 -7.0625 16.3125 C-37.13654726 16.3125 -69.14035889 22.30285917 -96.0625 36.3125 Z M8.9375 16.3125 C8.9375 46.3425 8.9375 76.3725 8.9375 107.3125 C15.52689714 101.85255958 15.52689714 101.85255958 19.3125 95.1875 C19.79460937 94.17429687 20.27671875 93.16109375 20.7734375 92.1171875 C22.33446891 88.3560447 23.04757148 84.94777328 23.3671875 80.8984375 C25.15818575 59.80963575 30.68124507 46.42789466 45.9609375 31.3125 C46.4660083 30.81234375 46.9710791 30.3121875 47.49145508 29.796875 C48.93487832 28.3765783 50.39099032 26.96921168 51.84765625 25.5625 C54.16434956 23.58006935 54.16434956 23.58006935 53.9375 21.3125 C50.48042362 20.65981922 47.02163923 20.01665035 43.5625 19.375 C42.11423828 19.10139648 42.11423828 19.10139648 40.63671875 18.82226562 C29.87156059 16.83540757 20.0212929 16.3125 8.9375 16.3125 Z M61.33422852 37.54516602 C59.75233597 39.12267051 58.15507996 40.6834269 56.55664062 42.24414062 C44.95469894 53.71566628 39.27982608 64.27193585 38.5 80.75 C37.54442974 98.40100531 29.75157682 110.61988471 16.9375 122.3125 C16.25091309 122.72185791 15.56432617 123.13121582 14.85693359 123.55297852 C12.23849581 125.29483408 10.67858154 126.67195047 8.9375 129.3125 C7.93884712 135.15517142 8.18116296 140.84880697 8.4375 146.75 C8.47767103 148.35603122 8.51416549 149.96215886 8.546875 151.56835938 C8.63461406 155.48546991 8.77239476 159.3979183 8.9375 163.3125 C16.1978433 156.08095555 23.15209336 148.62113881 29.5625 140.625 C39.96618007 127.80057021 51.3382752 117.98106633 68.37695312 116.03369141 C71.0834353 115.79479577 73.7908119 115.58084283 76.5 115.375 C90.51691171 114.2407335 99.13188489 110.18072885 109.07958984 100.16748047 C111.26094376 97.98956627 113.48374254 95.85772961 115.70703125 93.72265625 C117.41025795 92.06654667 119.11207736 90.40898855 120.8125 88.75 C121.62146729 87.97124512 122.43043457 87.19249023 123.26391602 86.39013672 C132.62666318 77.11383882 138.18041261 67.95970464 138.3125 54.5 C138.28776575 43.77770268 134.8124467 35.5624426 127.5 27.6875 C117.71481832 18.61830722 109.22416439 15.78794645 96.0546875 16.0390625 C81.15201922 16.72919065 71.2679634 27.60834947 61.33422852 37.54516602 Z M-126.07335854 35.07726288 C-127.32054444 36.32721416 -127.32054444 36.32721416 -128.59292603 37.60241699 C-129.28765143 38.29457912 -129.28765143 38.29457912 -129.99641168 39.00072432 C-131.55660691 40.55760927 -133.10951866 42.12156532 -134.66259766 43.68554688 C-135.77574958 44.79926258 -136.88934137 45.91253879 -138.00334167 47.02540588 C-141.03448158 50.05596999 -144.05939881 53.09267825 -147.08327532 56.13048744 C-150.24143887 59.30112056 -153.40523537 62.46612236 -156.56845093 65.63171387 C-162.56123666 71.6307255 -168.54890429 77.63481892 -174.53477132 83.64073324 C-181.34816735 90.4764538 -188.16721689 97.30652255 -194.98675847 104.13611126 C-209.01832676 118.18860668 -223.04274352 132.24822092 -237.0625 146.3125 C-235.55303489 149.49336518 -233.98308175 151.61119906 -231.4375 154.0625 C-230.80585938 154.67609375 -230.17421875 155.2896875 -229.5234375 155.921875 C-229.04132813 156.38078125 -228.55921875 156.8396875 -228.0625 157.3125 C-225.11844663 155.98626757 -223.05768106 154.55036345 -220.79443359 152.25561523 C-220.18054779 151.63835068 -219.56666199 151.02108612 -218.93417358 150.38511658 C-218.28300568 149.72048904 -217.63183777 149.05586151 -216.9609375 148.37109375 C-216.28326324 147.68821793 -215.60558899 147.0053421 -214.90737915 146.30177307 C-212.74594708 144.12254522 -210.59132592 141.93674361 -208.4375 139.75 C-206.27567054 137.5605717 -204.11240831 135.37260899 -201.94619751 133.18751526 C-200.5990137 131.82805439 -199.25451179 130.4659297 -197.91293335 129.10093689 C-197.30535187 128.48682449 -196.69777039 127.8727121 -196.07177734 127.23999023 C-195.53757172 126.69753159 -195.00336609 126.15507294 -194.45297241 125.59617615 C-192.33595568 123.64175846 -191.08965852 123.31545201 -188.1875 123 C-185.0625 123.3125 -185.0625 123.3125 -182.6875 124.9375 C-181.0625 127.3125 -181.0625 127.3125 -180.375 130.0625 C-181.68932198 136.27565847 -186.6504629 140.23618101 -191.50418091 144.05117798 C-198.00190345 149.40789837 -202.69990142 154.08679251 -203.55167961 162.74800682 C-203.72932484 167.51997353 -203.60896339 172.25341368 -203.4296875 177.0234375 C-203.40352001 179.0884423 -203.38361788 181.15353503 -203.36965942 183.21865845 C-203.31663184 188.60997733 -203.17952443 193.99587124 -203.02380371 199.3850708 C-202.85421284 205.87450032 -202.7909183 212.36576195 -202.7094574 218.85678101 C-202.5744586 228.67910711 -202.30604364 238.4895732 -202.0625 248.3125 C-188.8625 248.3125 -175.6625 248.3125 -162.0625 248.3125 C-161.98902344 239.19560547 -161.98902344 239.19560547 -161.9140625 229.89453125 C-161.87867621 226.04360316 -161.84271623 222.19269756 -161.8046875 218.34179688 C-161.74438422 212.22976912 -161.68620346 206.11777284 -161.640625 200.00561523 C-161.60374498 195.07775594 -161.55737743 190.15006881 -161.50443649 185.2223568 C-161.48590703 183.3425365 -161.47079372 181.46267932 -161.45915604 179.58280373 C-161.44226891 176.94931034 -161.41322781 174.31620999 -161.38134766 171.68286133 C-161.37918747 170.90602493 -161.37702728 170.12918854 -161.37480164 169.32881165 C-161.25711442 161.71656676 -161.25711442 161.71656676 -159.0625 158.3125 C-155.03175636 156.41129971 -151.38438635 156.0545139 -146.96875 156.02197266 C-145.78732422 156.00921295 -144.60589844 155.99645325 -143.38867188 155.98330688 C-142.12603516 155.98108124 -140.86339844 155.97885559 -139.5625 155.9765625 C-138.25345703 155.9699057 -136.94441406 155.9632489 -135.59570312 155.95639038 C-132.83199767 155.94445346 -130.0684169 155.94070605 -127.3046875 155.94189453 C-123.77396114 155.94209801 -120.24403709 155.91475169 -116.71350098 155.88035011 C-113.3298223 155.85269605 -109.94629015 155.85393144 -106.5625 155.8515625 C-104.66854492 155.83000595 -104.66854492 155.83000595 -102.73632812 155.80801392 C-91.50372994 155.86651703 -91.50372994 155.86651703 -87.0625 160.3125 C-84.80246118 164.60259272 -84.75716509 168.75686181 -84.74365234 173.49926758 C-84.72858391 174.71468231 -84.72858391 174.71468231 -84.71321106 175.95465088 C-84.68242007 178.62210406 -84.66535534 181.28945704 -84.6484375 183.95703125 C-84.62972256 185.81077433 -84.6101489 187.66450892 -84.5897522 189.51823425 C-84.53845942 194.3892618 -84.49881839 199.26031695 -84.46160889 204.13146973 C-84.41450433 209.98030492 -84.35291869 215.82900342 -84.29376221 221.67772675 C-84.20558473 230.55592924 -84.13579545 239.43410598 -84.0625 248.3125 C-70.5325 248.3125 -57.0025 248.3125 -43.0625 248.3125 C-40.85526432 234.52581411 -39.03393036 221.12739708 -38.125 207.25 C-38.02356186 205.71237755 -38.02356186 205.71237755 -37.92007446 204.14369202 C-36.34915168 177.13588377 -39.89968725 156.24533201 -58.07043266 135.4587574 C-65.83937976 126.89674541 -74.03979958 118.86987284 -82.5625 111.0625 C-83.50716755 110.19658611 -84.4518351 109.33067223 -85.42512894 108.43851852 C-97.28919894 97.63310851 -109.49357484 87.2869645 -122.0625 77.3125 C-125.02425569 78.73309229 -127.08037027 80.09724543 -129.37475586 82.46118164 C-129.99897934 83.09846695 -130.62320282 83.73575226 -131.26634216 84.39234924 C-131.92997269 85.07885056 -132.59360321 85.76535187 -133.27734375 86.47265625 C-134.69959401 87.92019289 -136.12212878 89.36745003 -137.54492188 90.81445312 C-139.77829425 93.09751613 -142.00836712 95.38361775 -144.2331543 97.67504883 C-146.38494261 99.88720986 -148.54896713 102.08679942 -150.71484375 104.28515625 C-151.37645004 104.97368179 -152.03805634 105.66220734 -152.7197113 106.37159729 C-158.56137359 112.27618053 -158.56137359 112.27618053 -163.0625 112.3125 C-166.00771275 111.55907348 -167.54970511 110.96514804 -169.4375 108.5625 C-170.29667117 105.46948378 -169.83467596 103.41960157 -169.0625 100.3125 C-167.39918518 98.04118347 -167.39918518 98.04118347 -165.21704102 95.88354492 C-164.4027211 95.06637497 -163.58840118 94.24920502 -162.74940491 93.40727234 C-161.86401535 92.54455215 -160.97862579 91.68183197 -160.06640625 90.79296875 C-159.1625267 89.89379227 -158.25864716 88.99461578 -157.32737732 88.06819153 C-154.92852505 85.68706321 -152.51918375 83.31762592 -150.10437012 80.95275879 C-148.13264532 79.01650194 -146.17218005 77.06906006 -144.21215916 75.12096691 C-140.16576525 71.10016453 -136.1107936 67.0878814 -132.03735352 63.09448242 C-131.31645035 62.38643967 -130.59554718 61.67839691 -129.85279846 60.94889832 C-127.65472886 58.93978225 -126.37362345 58.37176161 -123.4375 57.8125 C-115.3041323 59.01744336 -108.30932176 68.92793803 -102.70898438 74.55249023 C-101.81048767 75.45084091 -100.91199097 76.34919159 -99.98626709 77.27476501 C-97.54655905 79.71418865 -95.10992508 82.15666126 -92.67387199 84.59973407 C-90.11857891 87.16132047 -87.56041317 89.72003493 -85.00256348 92.27906799 C-80.17007887 97.1146484 -75.34014687 101.95276998 -70.51114893 106.79183203 C-65.00882873 112.30536801 -59.50363512 117.81603114 -53.99820995 123.32646644 C-42.68312842 134.65197268 -31.37162284 145.98104348 -20.0625 157.3125 C-16.88163482 155.80303489 -14.76380094 154.23308175 -12.3125 151.6875 C-11.39210937 150.74003906 -11.39210937 150.74003906 -10.453125 149.7734375 C-9.99421875 149.29132813 -9.5353125 148.80921875 -9.0625 148.3125 C-10.59290335 144.69732594 -12.74117049 142.38242081 -15.50354004 139.61749268 C-15.95711207 139.16080066 -16.4106841 138.70410865 -16.87800074 138.23357749 C-18.39636698 136.70724516 -19.92176837 135.18814805 -21.44726562 133.66894531 C-22.53831316 132.57518738 -23.62893483 131.4810045 -24.71916199 130.38642883 C-27.67928523 127.41718733 -30.64570063 124.45430758 -33.613554 121.49279499 C-36.71594356 118.39546574 -39.81345416 115.29326353 -42.91174316 112.1918335 C-48.11351215 106.98642605 -53.31948413 101.78525 -58.52783203 96.58642578 C-64.55623291 90.56892063 -70.57737942 84.54422875 -76.59483004 78.51577497 C-81.75721398 73.34432837 -86.92346862 68.17677287 -92.09300566 63.01247668 C-95.18255784 59.92604837 -98.27072894 56.83827083 -101.35542297 53.74698639 C-104.25322462 50.84342635 -107.15583867 47.94476637 -110.06231117 45.0498867 C-111.13073296 43.9841191 -112.19743856 42.91662797 -113.26233482 41.84733772 C-114.71076859 40.39347739 -116.16592184 38.94632049 -117.62145996 37.49957275 C-118.43557091 36.68621586 -119.24968185 35.87285896 -120.08846283 35.03485489 C-122.80217225 32.66713317 -123.36791724 32.70292262 -126.07335854 35.07726288 Z M-53.0625 55.3125 C-55.18993837 70.94951931 -55.18993837 70.94951931 -49.98046875 85.08984375 C-46.65417914 88.61347763 -43.04485562 91.56078579 -39.0625 94.3125 C-38.7325 94.3125 -38.4025 94.3125 -38.0625 94.3125 C-38.0625 81.4425 -38.0625 68.5725 -38.0625 55.3125 C-43.0125 55.3125 -47.9625 55.3125 -53.0625 55.3125 Z M151.9375 69.3125 C151.669375 70.05113281 151.40125 70.78976563 151.125 71.55078125 C150.733125 72.56527344 150.34125 73.57976562 149.9375 74.625 C149.380625 76.10419922 149.380625 76.10419922 148.8125 77.61328125 C144.04099226 87.9096157 135.72154491 96.03478803 127.77490234 103.92114258 C126.05934234 105.62814191 124.36339694 107.35310823 122.66796875 109.08007812 C109.42407341 122.40905048 95.85066908 128.96762503 77.0390625 130.6640625 C61.37801778 132.11780662 51.79008688 137.88939575 41.76953125 149.9140625 C40.27883026 151.74511824 38.79592825 153.58254694 37.3203125 155.42578125 C34.79053475 158.49054478 32.14529095 161.40616587 29.4375 164.3125 C25.13148032 168.94156485 21.06149157 173.70906758 17.10546875 178.64453125 C14.9375 181.3125 14.9375 181.3125 13.43388367 182.60345459 C9.41907282 186.34180965 8.49783922 189.34186504 8.25634766 194.79858398 C8.25729435 197.39049921 8.28957096 199.96872241 8.3515625 202.55859375 C8.36276902 203.93862555 8.37130233 205.31868141 8.37728882 206.69874573 C8.40007411 210.31117987 8.45890244 213.92214024 8.5255127 217.53399658 C8.58716161 221.22753975 8.6143516 224.92132376 8.64453125 228.61523438 C8.70866083 235.84832431 8.81090888 243.08020478 8.9375 250.3125 C11.84975841 251.20535289 14.76566171 252.07708136 17.6875 252.9375 C18.5125 253.19273437 19.3375 253.44796875 20.1875 253.7109375 C21.38632812 254.05898438 21.38632812 254.05898438 22.609375 254.4140625 C23.70910645 254.74398193 23.70910645 254.74398193 24.83105469 255.08056641 C27.51024537 255.37556306 28.68205297 254.73441863 30.9375 253.3125 C32.66210079 251.83387145 34.34568146 250.30686237 36 248.75 C41.46207512 243.69739771 47.12830827 238.96347281 52.9375 234.3125 C53.7934375 233.57644531 54.649375 232.84039062 55.53125 232.08203125 C58.81819499 229.66484606 60.9537991 229.79609433 64.9375 230.3125 C66.875 231.3125 66.875 231.3125 67.9375 233.3125 C68.74415702 240.09124931 68.74415702 240.09124931 66.82739258 242.99316406 C65.25332977 244.59590256 63.61808242 246.02063758 61.875 247.4375 C60.98615112 248.20562012 60.98615112 248.20562012 60.0793457 248.98925781 C58.3814145 250.45067401 56.66188153 251.88249952 54.9375 253.3125 C53.49870182 254.56100552 52.0608382 255.81059149 50.625 257.0625 C49.2946875 258.17625 49.2946875 258.17625 47.9375 259.3125 C48.80691019 261.63249334 48.80691019 261.63249334 51.74145508 262.28979492 C53.58066528 262.78636597 53.58066528 262.78636597 55.45703125 263.29296875 C56.11201096 263.47007889 56.76699066 263.64718903 57.44181824 263.82966614 C58.83033131 264.20257978 60.21996618 264.5713373 61.6105957 264.9362793 C63.73437969 265.49588414 65.85245726 266.0741278 67.97070312 266.65429688 C69.32000805 267.01416428 70.66960885 267.37292453 72.01953125 267.73046875 C73.24905518 268.05813232 74.4785791 268.3857959 75.74536133 268.72338867 C78.73001582 269.27420865 80.20618761 269.53148028 82.9375 268.3125 C85.04212425 266.15163403 86.95958329 264.00579883 88.875 261.6875 C90.04012513 260.3096933 91.20549651 258.93209482 92.37109375 257.5546875 C93.26030518 256.49459473 93.26030518 256.49459473 94.16748047 255.41308594 C96.8895023 252.18270306 99.66388502 248.99856884 102.4375 245.8125 C105.75698404 241.9897134 109.06971016 238.16155467 112.36328125 234.31640625 C115.52869792 230.62530998 118.71943271 226.95777414 121.9375 223.3125 C122.67742187 222.47332031 123.41734375 221.63414062 124.1796875 220.76953125 C130.84574835 213.63497215 139.83885867 208.79148386 149.69458008 208.12646484 C153.99708574 208.00432568 158.29739843 207.94232234 162.6015625 207.921875 C173.04545517 207.69483386 178.79482744 205.49435766 186.48461914 198.359375 C187.00745578 197.87462896 187.53029242 197.38988293 188.06897259 196.89044762 C197.03582356 188.5388632 205.71027237 179.88159287 214.40551758 171.24951172 C216.65050824 169.02254154 218.90379073 166.80446931 221.16430664 164.59326172 C223.92110457 161.89645319 226.66307415 159.18539032 229.39490318 156.4632988 C230.43166029 155.43509773 231.47354243 154.41203731 232.5206089 153.3943367 C233.97268297 151.98094643 235.40449585 150.54682938 236.83520508 149.11181641 C237.65394608 148.30338287 238.47268707 147.49494934 239.3162384 146.66201782 C241.21614263 144.42030667 241.21614263 144.42030667 240.79570007 141.63876343 C239.7754784 138.87331929 238.52769572 137.49613603 236.375 135.5 C235.73433594 134.89542969 235.09367188 134.29085937 234.43359375 133.66796875 C233.69302734 132.99701172 233.69302734 132.99701172 232.9375 132.3125 C229.28654902 133.84909036 226.97532773 136.03825791 224.20068359 138.83813477 C223.74489426 139.29523834 223.28910492 139.75234192 222.81950378 140.22329712 C221.32032229 141.72894788 219.82824472 143.24144464 218.3359375 144.75390625 C217.29320488 145.80291175 216.24995379 146.85140211 215.20620728 147.8993988 C212.46386196 150.65502892 209.7271445 153.4161752 206.99200439 156.17895508 C202.60828479 160.60584756 198.21778259 165.02598843 193.82405472 169.44294548 C192.2894302 170.98780686 190.7582552 172.53602789 189.22738647 174.08460999 C187.8355162 175.48627663 187.8355162 175.48627663 186.41552734 176.91625977 C185.59708344 177.7429567 184.77863953 178.56965363 183.93539429 179.42140198 C181.45096207 181.77303034 180.48882247 182.26455892 177.0625 182.5625 C173.9375 182.3125 173.9375 182.3125 171.5625 181.3125 C169.45963383 178.72435702 169.52316412 176.62547337 169.60037231 173.36424255 C170.16791485 169.91020653 172.07681916 168.21596722 174.52734375 165.81445312 C175.01502228 165.32560638 175.50270081 164.83675964 176.00515747 164.33309937 C177.61020217 162.73359636 179.24161215 161.16425354 180.875 159.59375 C181.99775129 158.48593115 183.11874068 157.37632404 184.23803711 156.26501465 C187.17988604 153.35362021 190.14495947 150.46705423 193.11560059 147.58508301 C196.14621298 144.63650529 199.15412978 141.6649712 202.1640625 138.6953125 C208.06662332 132.87838962 213.99392826 127.08751128 219.9375 121.3125 C218.42803489 118.13163482 216.85808175 116.01380094 214.3125 113.5625 C213.68085938 112.94890625 213.04921875 112.3353125 212.3984375 111.703125 C211.67527344 111.01476562 211.67527344 111.01476562 210.9375 110.3125 C207.28654902 111.84909036 204.97532773 114.03825791 202.20068359 116.83813477 C201.74489426 117.29523834 201.28910492 117.75234192 200.81950378 118.22329712 C199.32032229 119.72894788 197.82824472 121.24144464 196.3359375 122.75390625 C195.29320488 123.80291175 194.24995379 124.85140211 193.20620728 125.8993988 C190.46386196 128.65502892 187.7271445 131.4161752 184.99200439 134.17895508 C180.60828479 138.60584756 176.21778259 143.02598843 171.82405472 147.44294548 C170.2894302 148.98780686 168.7582552 150.53602789 167.22738647 152.08460999 C165.8355162 153.48627663 165.8355162 153.48627663 164.41552734 154.91625977 C163.59708344 155.7429567 162.77863953 156.56965363 161.93539429 157.42140198 C159.46514958 159.75960121 158.46023821 160.25568063 155.0625 160.625 C151.9375 160.3125 151.9375 160.3125 149.5625 158.75 C147.3142211 155.37758165 147.51586019 153.31170125 147.9375 149.3125 C149.83569336 146.57252502 149.83569336 146.57252502 152.52734375 143.92797852 C153.01502228 143.4392778 153.50270081 142.95057709 154.00515747 142.44706726 C155.61240045 140.84467991 157.24294565 139.26848175 158.875 137.69140625 C159.9975338 136.5819358 161.11852634 135.47090395 162.23803711 134.35838318 C165.18202133 131.44106598 168.14641673 128.54538332 171.11560059 125.65374756 C174.14439655 122.69668891 177.15335759 119.71959673 180.1640625 116.74414062 C186.06933938 110.91383142 191.99633547 105.10623387 197.9375 99.3125 C196.34801534 95.91087913 194.70391381 93.98755674 191.8125 91.5625 C190.72582031 90.64210938 190.72582031 90.64210938 189.6171875 89.703125 C189.06289063 89.24421875 188.50859375 88.7853125 187.9375 88.3125 C181.09876916 93.9405435 174.86527557 100.16511518 168.58203125 106.39453125 C167.99768499 106.97355383 167.41333874 107.55257641 166.81128502 108.14914513 C163.72361432 111.21024087 160.6395253 114.27489902 157.55786133 117.34204102 C155.02081428 119.86572361 152.47668849 122.38192672 149.92602539 124.8918457 C146.82687197 127.94152344 143.74032351 131.00344175 140.66226768 134.07440758 C139.49481498 135.23518158 138.32313879 136.39172503 137.14704323 137.54374123 C128.37657945 146.14465749 122.25026075 153.58129777 121.9375 166.3125 C121.9838226 168.22179674 122.03039293 170.13109021 122.08081055 172.0402832 C122.34742637 184.61836362 119.31517396 194.63644115 110.9375 204.3125 C107.42607847 207.84488524 103.75036349 211.1103549 99.9375 214.3125 C99.19886719 214.95960938 98.46023438 215.60671875 97.69921875 216.2734375 C94.33634618 219.05515345 92.54647839 220.23263398 88.125 220.8125 C84.9375 220.3125 84.9375 220.3125 81.9375 218.3125 C80.553508 215.09760192 80.79761243 212.58143376 81.9375 209.3125 C85.99377927 204.15992904 91.44393805 200.04045596 96.58740234 196.02416992 C102.06940983 191.66739864 104.89139584 186.98737826 106.9375 180.3125 C107.42164405 175.76343222 107.19093533 171.21917829 107.03515625 166.65625 C106.57935836 152.7710163 111.16440048 143.09781175 120.37301636 133.03814697 C124.70916614 128.42949464 129.17353164 123.95360866 133.66015625 119.4921875 C134.65642513 118.49779004 135.65246877 117.50316687 136.64830017 116.5083313 C139.23523085 113.92516887 141.82515258 111.34502681 144.41577148 108.76556396 C147.07266194 106.119012 149.7266263 103.46952908 152.38085938 100.8203125 C157.5635931 95.64821533 162.74949932 90.47931458 167.9375 85.3125 C166.55524938 82.42929486 165.30247023 80.45927484 162.93359375 78.296875 C162.07024414 77.50410156 162.07024414 77.50410156 161.18945312 76.6953125 C160.59068359 76.15648438 159.99191406 75.61765625 159.375 75.0625 C158.47104492 74.23105469 158.47104492 74.23105469 157.54882812 73.3828125 C155.08201396 70.60160278 155.08201396 70.60160278 151.9375 69.3125 Z M-13.0625 173.3125 C-17.43720603 175.49985302 -22.46503604 174.23199279 -27.0625 173.3125 C-27.0625 198.0625 -27.0625 222.8125 -27.0625 248.3125 C-20.4625 248.3125 -13.8625 248.3125 -7.0625 248.3125 C-7.0625 222.2425 -7.0625 196.1725 -7.0625 169.3125 C-9.22601987 169.3125 -11.45479151 172.01849073 -13.0625 173.3125 Z M-146.0625 171.3125 C-146.0625 196.7225 -146.0625 222.1325 -146.0625 248.3125 C-130.8825 248.3125 -115.7025 248.3125 -100.0625 248.3125 C-100.0625 222.9025 -100.0625 197.4925 -100.0625 171.3125 C-115.2425 171.3125 -130.4225 171.3125 -146.0625 171.3125 Z M-226.0625 175.3125 C-227.92026538 178.80544137 -228.80104072 182.48688814 -229.75 186.3125 C-230.03834717 187.38959229 -230.32669434 188.46668457 -230.6237793 189.57641602 C-231.4750026 192.8135534 -232.27830214 196.05853538 -233.0625 199.3125 C-233.28067383 200.2082373 -233.49884766 201.10397461 -233.72363281 202.02685547 C-237.38041017 217.35120641 -239.42532951 232.52941632 -239.0625 248.3125 C-232.1325 248.3125 -225.2025 248.3125 -218.0625 248.3125 C-218.0625 223.2325 -218.0625 198.1525 -218.0625 172.3125 C-221.18513627 172.3125 -223.67095198 173.47642975 -226.0625 175.3125 Z M226.63845825 180.51820374 C226.08761566 181.08333176 225.53677307 181.64845978 224.96923828 182.23071289 C224.34413361 182.86880386 223.71902893 183.50689484 223.07498169 184.1643219 C222.39281586 184.86419724 221.71065002 185.56407257 221.0078125 186.28515625 C219.55776482 187.75762756 218.10722726 189.22961657 216.65625 190.70117188 C214.36974769 193.02449819 212.0863408 195.35053086 209.81152344 197.68530273 C186.04187862 222.05205688 186.04187862 222.05205688 167.84375 222.6484375 C164.63304671 222.68783263 161.425686 222.68741408 158.21484375 222.6640625 C149.43770652 222.79329642 143.2202214 224.93977735 136.30859375 230.3828125 C135.35146484 231.39988281 135.35146484 231.39988281 134.375 232.4375 C133.27091797 233.60732422 133.27091797 233.60732422 132.14453125 234.80078125 C129.10186215 238.26350024 126.2008356 241.82763654 123.3203125 245.42578125 C120.79052933 248.49055135 118.14522619 251.40609763 115.4375 254.3125 C109.5554937 260.63856738 103.73646139 267.11405792 98.9375 274.3125 C113.47729465 278.51589453 128.05724414 282.53996194 142.6796875 286.4453125 C144.78854343 287.00993004 146.89735805 287.57470187 149.00613403 288.13961792 C154.49388899 289.60927908 159.98220151 291.07684699 165.47064209 292.54394531 C171.0354689 294.03188322 176.59973609 295.52191085 182.1640625 297.01171875 C188.43840615 298.69137626 194.71282179 300.37076394 200.98751831 302.04910278 C201.93783998 302.30341002 202.88816166 302.55771725 203.86728096 302.81973076 C205.7021665 303.31000838 207.53738553 303.79903996 209.37296867 304.2866993 C213.42105746 305.36323686 217.46281377 306.45424068 221.49176025 307.6005249 C222.18506502 307.79476484 222.87836979 307.98900478 223.59268379 308.18913078 C225.40945787 308.69965403 227.22343644 309.22009761 229.03713989 309.74142456 C231.83838297 310.29298404 233.29965876 310.29785106 235.9375 309.3125 C236.58861597 305.83430095 237.23240749 302.35478298 237.875 298.875 C238.14860352 297.41416992 238.14860352 297.41416992 238.42773438 295.92382812 C238.69360352 294.4784668 238.69360352 294.4784668 238.96484375 293.00390625 C239.12718506 292.12935791 239.28952637 291.25480957 239.45678711 290.35375977 C240.59405761 283.15874775 241.10175081 276.08199628 241.140625 268.80078125 C241.15121445 267.47731186 241.15121445 267.47731186 241.16201782 266.12710571 C241.45668476 239.56764837 241.45668476 239.56764837 237.9375 213.3125 C237.71223633 212.23145996 237.48697266 211.15041992 237.25488281 210.03662109 C233.99626397 194.41274859 233.99626397 194.41274859 228.9375 179.3125 C227.76426603 179.19911922 227.76426603 179.19911922 226.63845825 180.51820374 Z M-239.0625 264.3125 C-239.21589026 275.23621358 -239.21589026 275.23621358 -238.0625 285.6875 C-237.876875 286.76773437 -237.69125 287.84796875 -237.5 288.9609375 C-237.355625 289.73695313 -237.21125 290.51296875 -237.0625 291.3125 C-235.91974609 290.60673828 -235.91974609 290.60673828 -234.75390625 289.88671875 C-220.87586066 281.51830924 -207.15829308 277.84695986 -190.9375 281.4375 C-178.05645181 285.09842949 -169.30868692 293.00312729 -160.0625 302.3125 C-159.41667969 302.02375 -158.77085937 301.735 -158.10546875 301.4375 C-145.7162894 296.55640061 -131.53531827 296.45225141 -118.9921875 300.984375 C-105.03332306 307.31239355 -95.82600258 316.69928934 -89.9921875 330.921875 C-85.43467003 344.81566613 -86.54538854 359.28035725 -92.5859375 372.5625 C-98.32485377 383.25085199 -106.95481663 390.76701389 -117.78515625 395.984375 C-118.6006041 396.38922119 -119.41605194 396.79406738 -120.25621033 397.21118164 C-122.87348347 398.50681926 -125.49886163 399.78494187 -128.125 401.0625 C-129.92689429 401.94990888 -131.72832508 402.8382595 -133.52929688 403.72753906 C-138.69810701 406.27433653 -143.87777873 408.79827517 -149.0625 411.3125 C-149.76767761 411.65458496 -150.47285522 411.99666992 -151.19940186 412.34912109 C-158.13483187 415.71025066 -165.08455232 419.04043326 -172.0625 422.3125 C-159.50069552 437.12496112 -143.72661358 451.72571261 -126.0625 460.3125 C-125.71582275 459.72460693 -125.36914551 459.13671387 -125.01196289 458.53100586 C-122.19273283 453.75150441 -119.37016849 448.9740108 -116.54296875 444.19921875 C-114.45132529 440.66639931 -112.36874257 437.12875821 -110.30078125 433.58203125 C-109.51315485 432.24210872 -108.72540465 430.90225894 -107.9375 429.5625 C-107.58437744 428.95011475 -107.23125488 428.33772949 -106.86743164 427.70678711 C-105.12015099 424.75257353 -103.98082486 423.2580499 -101.0625 421.3125 C-97.01154911 421.38483841 -94.87161436 421.47886702 -92 424.4375 C-90.4454279 429.20485444 -92.28707352 432.78165107 -94.46313477 437.07763672 C-96.22952133 440.30365824 -98.04193598 443.49890864 -99.875 446.6875 C-101.11072033 448.86195459 -102.34639815 451.03643334 -103.58203125 453.2109375 C-104.17193848 454.2431543 -104.7618457 455.27537109 -105.36962891 456.33886719 C-107.63197055 460.31281025 -109.85403642 464.30841771 -112.0625 468.3125 C-106.69985912 471.86705088 -101.32074294 474.73873289 -95.375 477.1875 C-94.55322266 477.52700684 -93.73144531 477.86651367 -92.88476562 478.21630859 C-65.32285333 489.40877827 -36.86244295 496.3125 -7.0625 496.3125 C-7.0625 427.3425 -7.0625 358.3725 -7.0625 287.3125 C-9.74924314 290.67092893 -11.78261968 293.33738795 -13.8046875 296.98828125 C-14.30589111 297.88571045 -14.80709473 298.78313965 -15.32348633 299.70776367 C-15.85611084 300.67045166 -16.38873535 301.63313965 -16.9375 302.625 C-21.50589103 310.79704879 -26.13792157 318.92454423 -30.875 327 C-35.99518039 335.73843165 -41.04855087 344.51288288 -46.0625 353.3125 C-52.83138236 365.18606999 -59.65300666 377.027098 -66.59375 388.80126953 C-67.91682543 391.06342942 -69.21318399 393.33819085 -70.5 395.62109375 C-71.18701763 396.81017467 -71.87446903 397.99900514 -72.5625 399.1875 C-73.1090625 400.15429688 -73.655625 401.12109375 -74.21875 402.1171875 C-76.58280424 404.93201479 -78.50596295 405.55139168 -82.0625 406.3125 C-84.875 405.5625 -84.875 405.5625 -87.0625 404.3125 C-88.58718593 401.26312815 -88.64871261 398.6029762 -88.0625 395.3125 C-86.50065807 391.64806087 -84.48090431 388.28910806 -82.4375 384.875 C-81.55940674 383.36643433 -81.55940674 383.36643433 -80.66357422 381.82739258 C-78.80959909 378.64791648 -76.93610597 375.48043752 -75.0625 372.3125 C-73.90956027 370.33704405 -72.75847615 368.36050377 -71.609375 366.3828125 C-69.29937497 362.40897786 -66.98259354 358.43923472 -64.66015625 354.47265625 C-59.04571325 344.87307762 -53.5044968 335.23114049 -47.95361328 325.59472656 C-45.44832055 321.24652678 -42.94050679 316.89978416 -40.43237305 312.55322266 C-39.1926525 310.40463269 -37.95322856 308.25587155 -36.71411133 306.10693359 C-33.79439098 301.04383028 -30.87240632 295.98207388 -27.94238281 290.92492676 C-26.56331969 288.54437827 -25.18554215 286.16308694 -23.80786133 283.78173828 C-22.83865342 282.1076735 -21.86759435 280.43468088 -20.89648438 278.76171875 C-20.30673828 277.74207031 -19.71699219 276.72242188 -19.109375 275.671875 C-18.59213867 274.77952148 -18.07490234 273.88716797 -17.54199219 272.96777344 C-15.96079755 270.12997264 -14.51531037 267.21812074 -13.0625 264.3125 C-87.6425 264.3125 -162.2225 264.3125 -239.0625 264.3125 Z M-230.0625 306.3125 C-232.39889305 309.16125994 -234.29497857 312.08337431 -236.0625 315.3125 C-236.4028125 315.90289062 -236.743125 316.49328125 -237.09375 317.1015625 C-240.45208861 324.16029272 -240.53127826 334.28767865 -238.35864258 341.72045898 C-236.03083604 347.97708364 -232.72900361 353.20984065 -228.875 358.625 C-227.55049309 360.52493404 -226.22771778 362.42607589 -224.90625 364.328125 C-223.78283203 365.93977539 -223.78283203 365.93977539 -222.63671875 367.58398438 C-219.60258608 371.96082861 -216.62976433 376.37872062 -213.65625 380.796875 C-213.09902756 381.62450851 -212.54180511 382.45214203 -211.96769714 383.30485535 C-209.708681 386.66130459 -207.45055581 390.01834931 -205.19424438 393.37661743 C-203.59633252 395.75372892 -201.99568011 398.12897433 -200.39453125 400.50390625 C-199.91588623 401.21766418 -199.43724121 401.93142212 -198.9440918 402.66680908 C-196.45933085 406.34825197 -193.89955165 409.88784164 -191.0625 413.3125 C-185.13344306 411.48362707 -179.63231624 409.30328 -174.1171875 406.46875 C-173.03019814 405.92012299 -173.03019814 405.92012299 -171.92124939 405.3604126 C-169.59058296 404.18312003 -167.26407034 402.9978633 -164.9375 401.8125 C-161.71132462 400.17893766 -158.48291434 398.54982976 -155.25390625 396.921875 C-154.46124863 396.5217218 -153.668591 396.1215686 -152.85191345 395.70928955 C-145.3698954 391.94223234 -137.81930204 388.32988152 -130.20458984 384.83789062 C-119.3788041 379.7837408 -110.01482858 373.77124456 -104.8828125 362.6015625 C-101.0960225 352.03461518 -101.60315167 342.30380732 -106.1875 332.125 C-111.25673179 322.81416609 -118.88088081 316.97668272 -128.921875 313.70703125 C-138.51287942 311.93934613 -146.59184834 313.05096066 -155.33984375 317.18359375 C-159.32754126 318.8370293 -162.83864869 319.22883138 -167.0625 318.3125 C-170.62755199 316.32270354 -172.57482361 313.67455269 -174.9375 310.4375 C-180.63548453 302.63720566 -187.29883809 298.39362674 -196.5 295.5625 C-209.35505251 294.30834854 -220.70905596 296.88482228 -230.0625 306.3125 Z " fill="#ffffff" transform="translate(255.0625,-0.31250000000000006)"/>
<path d="M0 0 C20.31032457 17.12693541 33.50795557 39.8244889 36.58081055 66.38574219 C36.68386818 67.94706529 36.76764105 69.50979717 36.83081055 71.07324219 C36.88237305 71.85957031 36.93393555 72.64589844 36.98706055 73.45605469 C37.86991093 97.51372751 28.88744459 122.22641739 12.83081055 140.07324219 C12.40171387 140.55148437 11.97261719 141.02972656 11.53051758 141.52246094 C-3.82816361 158.39369844 -25.95724801 170.96454194 -49.10668945 172.234375 C-76.28663915 172.60705926 -76.28663915 172.60705926 -87.16918945 169.07324219 C-87.7926123 168.87988281 -88.41603516 168.68652344 -89.05834961 168.48730469 C-112.39943546 161.1218196 -132.93590412 144.8376988 -144.52294922 123.15136719 C-157.61572685 97.3101116 -159.19630519 71.04810765 -151.10668945 43.44824219 C-145.91332189 28.73370077 -137.17545058 16.9251919 -126.16918945 6.07324219 C-125.43055664 5.32429688 -124.69192383 4.57535156 -123.9309082 3.80371094 C-91.08810008 -27.55467648 -34.90318276 -28.0847687 0 0 Z M-122.16918945 25.07324219 C-135.92056542 43.7668764 -142.55379157 64.65860665 -139.70043945 87.88964844 C-137.06352534 102.94203316 -131.40644486 115.02098376 -122.16918945 127.07324219 C-121.6896582 127.73710937 -121.21012695 128.40097656 -120.71606445 129.08496094 C-110.3322227 142.50263598 -91.05074894 153.01210096 -74.50170898 155.79199219 C-51.43424655 158.57341533 -29.33750405 154.56532905 -10.73168945 140.13574219 C-9.1912319 138.80394193 -7.6696339 137.44996578 -6.16918945 136.07324219 C-5.41379883 135.409375 -4.6584082 134.74550781 -3.88012695 134.06152344 C11.58988344 119.68132478 19.68722854 99.35839676 20.75610352 78.49682617 C21.45433342 56.90707613 13.42489487 37.09297511 -0.91918945 21.19824219 C-15.6234022 5.67283951 -35.67760764 -3.53665881 -57.05151367 -4.32739258 C-81.98154828 -4.70557574 -105.9528313 5.85064295 -122.16918945 25.07324219 Z " fill="#ffffff" transform="translate(436.169189453125,338.9267578125)"/>
<path d="M0 0 C3.1359157 1.77984405 3.84102736 2.52308207 5 6 C5.03954234 8.33299825 5.04401732 10.66708189 5 13 C5.969375 13.04125 6.93875 13.0825 7.9375 13.125 C13.23955025 13.84061414 18.24847971 17.24847971 22 21 C22.57692308 28.03846154 22.57692308 28.03846154 20.5 31.5 C16.98666812 33.60799913 14.00248239 33.70971853 10 33 C7.6875 31.5625 7.6875 31.5625 6 30 C0.78906519 28.26302173 -4.78907535 28.1532629 -9.9375 30.125 C-13.43284519 33.30258654 -14.8585316 36.30237925 -15.25 41 C-13.19257557 45.93781863 -9.69649293 47.66019035 -5 50 C-1.68924149 51.35115324 1.65622821 52.60820198 5 53.875 C14.32632542 57.44142361 21.67774888 61.15357166 26.5 70.3125 C30.23912591 79.50451786 30.1142989 88.2451915 26.3203125 97.46484375 C22.53520762 104.73269307 16.36528809 110.40584833 9 114 C7.68 114 6.36 114 5 114 C5.04640625 114.59167969 5.0928125 115.18335938 5.140625 115.79296875 C5.32374078 119.80189647 5.29158854 122.40467339 3.5 126.0625 C0.45917976 128.41913568 -1.32230416 128.68770118 -5.09375 128.40625 C-7 128 -7 128 -9.5 126.5625 C-11.71352426 122.78106272 -11.32917236 119.2792407 -11 115 C-12.2375 114.95875 -13.475 114.9175 -14.75 114.875 C-21.09728921 114.18880657 -26.63611751 111.36393255 -32 108 C-34.47342266 104.28986601 -34.38503486 102.38939738 -34 98 C-32.57876367 94.99961219 -31.54598907 94.23204535 -28.5 92.9375 C-23.89485512 93.01973473 -20.74885746 94.70909082 -16.68359375 96.7734375 C-10.6362235 99.53744661 -4.21966254 99.9062479 2.125 97.875 C6.39884817 96.13226579 8.40447268 93.77531246 11 90 C12.55777098 85.32668706 12.73398098 81.62214139 10.6796875 77.08203125 C7.41562662 72.45716251 1.89355258 70.98503629 -3.1875 69 C-25.88056601 59.96358322 -25.88056601 59.96358322 -30.84375 49.1640625 C-33.15869344 41.70141587 -32.10164271 33.78380372 -28.9375 26.75 C-25.54996139 20.61923848 -20.86136443 15.57646324 -14 13.5625 C-13.01 13.376875 -12.02 13.19125 -11 13 C-11.103125 11.783125 -11.20625 10.56625 -11.3125 9.3125 C-11.30621859 5.77606592 -11.04353719 5.06146428 -8.875 2 C-5.49736169 -0.34966143 -4.02695637 -0.68543938 0 0 Z " fill="#ffffff" transform="translate(379,351)"/>
</svg>
