<?xml version="1.0" encoding="UTF-8"?>
<svg xmlns="http://www.w3.org/2000/svg" xmlns:xlink="http://www.w3.org/1999/xlink" width="24" height="24" viewBox="0 0 28 28" version="1.1">
<g id="surface1">
<path style=" stroke:none;fill-rule:nonzero;fill:#dc2626;fill-opacity:1;" d="M 20.015625 2.40625 C 20.066406 2.421875 20.121094 2.429688 20.171875 2.441406 C 21.628906 2.808594 23.359375 3.410156 24.21875 4.738281 C 24.398438 5.101562 24.476562 5.414062 24.472656 5.820312 C 24.472656 5.871094 24.472656 5.914062 24.472656 5.964844 C 24.441406 7.09375 23.863281 8.042969 23.1875 8.914062 C 23.148438 8.96875 23.105469 9.023438 23.058594 9.078125 C 22.726562 9.488281 22.359375 9.867188 21.984375 10.242188 C 21.933594 10.289062 21.882812 10.339844 21.835938 10.394531 C 21.5 10.722656 21.148438 11.027344 20.78125 11.320312 C 20.707031 11.378906 20.640625 11.4375 20.566406 11.5 C 20.066406 11.917969 19.546875 12.289062 19.003906 12.652344 C 18.867188 12.742188 18.726562 12.835938 18.589844 12.933594 C 17.5 13.671875 16.367188 14.320312 15.203125 14.929688 C 15.167969 14.953125 15.125 14.96875 15.089844 14.992188 C 14.984375 15.039062 14.984375 15.039062 14.820312 15.039062 C 14.859375 15.121094 14.859375 15.121094 14.902344 15.203125 C 15.046875 15.539062 15.011719 15.84375 14.875 16.1875 C 14.925781 16.222656 14.96875 16.261719 15.019531 16.296875 C 15.363281 16.585938 15.550781 16.960938 15.601562 17.40625 C 15.621094 17.855469 15.5 18.285156 15.21875 18.640625 C 14.867188 19.007812 14.46875 19.1875 13.964844 19.199219 C 13.453125 19.175781 13.070312 19 12.71875 18.628906 C 12.351562 18.175781 12.300781 17.753906 12.359375 17.171875 C 12.449219 16.804688 12.679688 16.496094 12.960938 16.242188 C 12.996094 16.242188 13.035156 16.242188 13.070312 16.242188 C 13.050781 16.203125 13.035156 16.160156 13.015625 16.113281 C 12.914062 15.746094 12.910156 15.390625 13.070312 15.039062 C 12.996094 15.015625 12.996094 15.015625 12.925781 14.992188 C 11.109375 14.359375 9.269531 13 7.765625 11.8125 C 7.730469 11.785156 7.691406 11.753906 7.652344 11.726562 C 7.203125 11.367188 6.765625 10.996094 6.34375 10.609375 C 6.253906 10.527344 6.15625 10.441406 6.0625 10.359375 C 5.625 9.960938 5.234375 9.542969 4.867188 9.078125 C 4.796875 8.996094 4.796875 8.996094 4.730469 8.914062 C 3.921875 7.910156 3.320312 6.710938 3.460938 5.394531 C 3.578125 4.695312 4.097656 4.175781 4.648438 3.773438 C 8.695312 1 15.457031 1.292969 20.015625 2.40625 Z M 4.480469 4.863281 C 4.21875 5.1875 4.125 5.582031 4.140625 5.992188 C 4.28125 7.164062 4.949219 8.144531 5.71875 8.992188 C 5.792969 9.074219 5.859375 9.152344 5.933594 9.234375 C 6.144531 9.476562 6.359375 9.695312 6.601562 9.902344 C 6.726562 10.007812 6.84375 10.117188 6.964844 10.230469 C 7.367188 10.617188 7.800781 10.957031 8.25 11.289062 C 8.363281 11.371094 8.472656 11.457031 8.582031 11.539062 C 9.925781 12.574219 11.40625 13.4375 12.90625 14.21875 C 12.96875 14.25 12.96875 14.25 13.03125 14.28125 C 13.144531 14.34375 13.253906 14.398438 13.363281 14.453125 C 13.425781 14.476562 13.484375 14.511719 13.546875 14.542969 C 13.96875 14.683594 14.234375 14.59375 14.621094 14.40625 C 14.703125 14.363281 14.703125 14.363281 14.789062 14.320312 C 14.847656 14.292969 14.90625 14.265625 14.96875 14.234375 C 17.335938 13.050781 19.574219 11.558594 21.492188 9.734375 C 21.519531 9.707031 21.550781 9.679688 21.578125 9.652344 C 22.582031 8.699219 23.699219 7.402344 23.757812 5.957031 C 23.761719 5.585938 23.742188 5.28125 23.515625 4.976562 C 23.480469 4.921875 23.441406 4.871094 23.40625 4.816406 C 21.964844 3.210938 19.113281 2.839844 17.113281 2.609375 C 17.078125 2.605469 17.035156 2.601562 16.992188 2.597656 C 16.007812 2.484375 15.03125 2.453125 14.035156 2.453125 C 13.980469 2.453125 13.925781 2.453125 13.867188 2.453125 C 10.96875 2.457031 6.667969 2.597656 4.480469 4.863281 Z M 13.671875 15.476562 C 13.691406 15.605469 13.707031 15.726562 13.726562 15.859375 C 13.855469 15.878906 13.976562 15.894531 14.109375 15.914062 C 14.199219 15.824219 14.199219 15.824219 14.273438 15.695312 C 14.273438 15.550781 14.273438 15.550781 14.21875 15.421875 C 13.972656 15.257812 13.886719 15.296875 13.671875 15.476562 Z M 13.214844 17.039062 C 13.046875 17.285156 13.035156 17.535156 13.070312 17.828125 C 13.15625 18.011719 13.15625 18.011719 13.289062 18.15625 C 13.316406 18.195312 13.347656 18.238281 13.378906 18.28125 C 13.613281 18.453125 13.890625 18.507812 14.179688 18.464844 C 14.511719 18.359375 14.664062 18.160156 14.839844 17.863281 C 14.910156 17.570312 14.867188 17.3125 14.730469 17.042969 C 14.550781 16.839844 14.410156 16.699219 14.132812 16.65625 C 13.71875 16.644531 13.5 16.730469 13.214844 17.039062 Z M 13.214844 17.039062 "/>
<path style=" stroke:none;fill-rule:nonzero;fill:#dc2626;fill-opacity:1;" d="M 7.824219 14 C 8.242188 14.324219 8.675781 14.78125 8.914062 15.257812 C 9.003906 15.257812 9.003906 15.257812 9.101562 15.261719 C 10.054688 15.292969 10.054688 15.292969 10.414062 15.671875 C 10.546875 15.878906 10.5625 16.03125 10.5625 16.273438 C 10.5625 16.335938 10.5625 16.398438 10.5625 16.460938 C 10.5625 16.566406 10.5625 16.566406 10.5625 16.664062 C 10.570312 16.734375 10.570312 16.808594 10.570312 16.875 C 10.570312 17.027344 10.570312 17.171875 10.570312 17.316406 C 10.570312 17.503906 10.570312 17.695312 10.574219 17.882812 C 10.574219 18.0625 10.574219 18.242188 10.574219 18.421875 C 10.574219 18.488281 10.574219 18.554688 10.574219 18.625 C 10.574219 18.992188 10.570312 19.273438 10.308594 19.558594 C 9.882812 19.886719 9.375 19.824219 8.859375 19.796875 C 7.882812 19.671875 6.925781 19.253906 6.289062 18.484375 C 6.269531 18.449219 6.253906 18.410156 6.234375 18.375 C 6.09375 18.410156 5.953125 18.449219 5.816406 18.488281 C 5.40625 18.589844 5.050781 18.542969 4.648438 18.429688 C 4.574219 18.410156 4.503906 18.394531 4.429688 18.375 C 4.402344 18.410156 4.375 18.445312 4.34375 18.480469 C 3.738281 19.195312 2.90625 19.648438 1.972656 19.78125 C 1.742188 19.800781 1.503906 19.8125 1.265625 19.816406 C 1.222656 19.816406 1.179688 19.816406 1.132812 19.816406 C 0.820312 19.816406 0.582031 19.769531 0.347656 19.550781 C 0.164062 19.304688 0.105469 19.195312 0.101562 18.894531 C 0.101562 18.832031 0.101562 18.765625 0.09375 18.699219 C 0.09375 18.628906 0.09375 18.5625 0.09375 18.492188 C 0.09375 18.421875 0.09375 18.351562 0.09375 18.28125 C 0.09375 18.128906 0.09375 17.976562 0.0898438 17.828125 C 0.0898438 17.636719 0.0898438 17.445312 0.0859375 17.257812 C 0.0859375 17.070312 0.0859375 16.890625 0.0859375 16.707031 C 0.0859375 16.640625 0.0820312 16.570312 0.0820312 16.5 C 0.0820312 16.128906 0.09375 15.882812 0.328125 15.585938 C 0.609375 15.367188 0.792969 15.3125 1.144531 15.316406 C 1.546875 15.328125 1.546875 15.328125 1.886719 15.140625 C 1.953125 15.039062 2.023438 14.933594 2.085938 14.824219 C 2.578125 14 3.480469 13.558594 4.378906 13.3125 C 5.59375 13.015625 6.800781 13.324219 7.824219 14 Z M 2.660156 15.179688 C 2.628906 15.226562 2.601562 15.265625 2.570312 15.3125 C 2.589844 15.367188 2.605469 15.421875 2.625 15.476562 C 2.753906 15.523438 2.878906 15.5625 3.011719 15.59375 C 3.355469 15.695312 3.667969 15.820312 3.984375 15.976562 C 4.023438 15.996094 4.0625 16.019531 4.097656 16.039062 C 4.246094 16.109375 4.367188 16.179688 4.484375 16.296875 C 4.640625 16.277344 4.773438 16.238281 4.921875 16.1875 C 5.054688 16.183594 5.191406 16.179688 5.324219 16.179688 C 5.394531 16.179688 5.46875 16.171875 5.542969 16.171875 C 5.726562 16.1875 5.84375 16.226562 6.015625 16.296875 C 6.199219 16.277344 6.320312 16.191406 6.472656 16.097656 C 6.96875 15.785156 7.539062 15.601562 8.09375 15.421875 C 7.703125 14.71875 7.035156 14.308594 6.289062 14.054688 C 6.25 14.039062 6.210938 14.027344 6.171875 14.015625 C 4.875 13.648438 3.527344 14.21875 2.660156 15.179688 Z M 0.835938 16.128906 C 0.734375 16.375 0.742188 16.601562 0.742188 16.863281 C 0.742188 16.921875 0.742188 16.976562 0.742188 17.03125 C 0.742188 17.144531 0.742188 17.261719 0.742188 17.375 C 0.742188 17.554688 0.742188 17.734375 0.742188 17.90625 C 0.742188 18.019531 0.742188 18.132812 0.742188 18.246094 C 0.742188 18.296875 0.742188 18.351562 0.742188 18.40625 C 0.746094 18.773438 0.746094 18.773438 0.929688 19.085938 C 1.6875 19.242188 2.59375 18.949219 3.226562 18.539062 C 3.703125 18.175781 3.703125 18.175781 3.992188 17.664062 C 3.90625 17.660156 3.90625 17.660156 3.820312 17.65625 C 3.746094 17.648438 3.667969 17.644531 3.59375 17.644531 C 3.558594 17.640625 3.523438 17.640625 3.480469 17.636719 C 3.28125 17.628906 3.125 17.609375 2.953125 17.5 C 2.945312 17.132812 2.945312 17.132812 3.007812 17.007812 C 3.351562 16.988281 3.691406 16.972656 4.046875 16.953125 C 3.714844 16.398438 3.003906 16.257812 2.402344 16.101562 C 2.074219 16.027344 1.746094 16.007812 1.40625 16.003906 C 1.363281 16 1.320312 16 1.277344 15.996094 C 1.234375 15.996094 1.1875 15.996094 1.148438 15.996094 C 1.109375 15.992188 1.070312 15.992188 1.035156 15.992188 C 0.921875 16.019531 0.921875 16.019531 0.835938 16.128906 Z M 6.617188 16.84375 C 6.617188 16.878906 6.617188 16.917969 6.617188 16.953125 C 6.976562 16.972656 7.335938 16.988281 7.710938 17.007812 C 7.710938 17.445312 7.710938 17.445312 7.65625 17.554688 C 7.460938 17.628906 7.246094 17.628906 7.039062 17.640625 C 6.972656 17.644531 6.90625 17.648438 6.832031 17.65625 C 6.777344 17.660156 6.726562 17.660156 6.671875 17.664062 C 6.84375 18.171875 7.300781 18.480469 7.757812 18.730469 C 8.257812 18.96875 8.777344 19.09375 9.332031 19.09375 C 9.386719 19.09375 9.386719 19.09375 9.445312 19.101562 C 9.542969 19.101562 9.640625 19.089844 9.734375 19.085938 C 9.875 18.945312 9.859375 18.898438 9.859375 18.703125 C 9.859375 18.648438 9.859375 18.59375 9.859375 18.535156 C 9.859375 18.46875 9.859375 18.410156 9.859375 18.347656 C 9.859375 18.285156 9.859375 18.21875 9.859375 18.15625 C 9.859375 18.023438 9.859375 17.890625 9.859375 17.757812 C 9.859375 17.554688 9.859375 17.351562 9.859375 17.148438 C 9.859375 17.015625 9.859375 16.890625 9.859375 16.761719 C 9.859375 16.703125 9.859375 16.640625 9.859375 16.574219 C 9.859375 16.519531 9.859375 16.460938 9.859375 16.40625 C 9.859375 16.355469 9.859375 16.304688 9.859375 16.25 C 9.851562 16.125 9.851562 16.125 9.734375 16.023438 C 9.585938 16.007812 9.4375 16.003906 9.289062 16.003906 C 9.21875 16.003906 9.21875 16.003906 9.152344 16.003906 C 8.359375 16.023438 7.191406 16.21875 6.617188 16.84375 Z M 4.929688 16.90625 C 4.839844 17.054688 4.84375 17.167969 4.84375 17.335938 C 4.84375 17.394531 4.839844 17.449219 4.839844 17.507812 C 4.851562 17.667969 4.851562 17.667969 4.960938 17.765625 C 5.101562 17.832031 5.179688 17.851562 5.332031 17.847656 C 5.375 17.851562 5.414062 17.851562 5.453125 17.851562 C 5.613281 17.824219 5.6875 17.78125 5.796875 17.664062 C 5.828125 17.507812 5.828125 17.507812 5.820312 17.335938 C 5.820312 17.277344 5.820312 17.222656 5.820312 17.164062 C 5.804688 17.007812 5.804688 17.007812 5.734375 16.90625 C 5.597656 16.820312 5.492188 16.820312 5.332031 16.824219 C 5.277344 16.820312 5.226562 16.820312 5.171875 16.820312 C 5.03125 16.835938 5.03125 16.835938 4.929688 16.90625 Z M 4.929688 16.90625 "/>
<path style=" stroke:none;fill-rule:nonzero;fill:#dc2626;fill-opacity:1;" d="M 19.601562 14.246094 C 19.878906 14.410156 20.078125 14.679688 20.179688 14.984375 C 20.230469 15.476562 20.171875 15.824219 19.90625 16.242188 C 20.546875 17.09375 21.386719 17.972656 22.484375 18.179688 C 23.214844 18.28125 23.902344 18.03125 24.492188 17.613281 C 24.972656 17.234375 25.453125 16.792969 25.8125 16.296875 C 25.8125 16.132812 25.738281 16.054688 25.644531 15.917969 C 25.476562 15.632812 25.507812 15.308594 25.539062 14.984375 C 25.652344 14.648438 25.902344 14.414062 26.195312 14.21875 C 26.539062 14.105469 26.980469 14.101562 27.3125 14.246094 C 27.589844 14.410156 27.789062 14.679688 27.890625 14.984375 C 27.925781 15.398438 27.945312 15.796875 27.671875 16.132812 C 27.394531 16.414062 27.125 16.496094 26.742188 16.570312 C 26.722656 16.664062 26.722656 16.664062 26.707031 16.765625 C 26.441406 18.121094 25.980469 19.429688 24.832031 20.285156 C 24.539062 20.476562 24.226562 20.609375 23.898438 20.726562 C 23.839844 20.75 23.773438 20.773438 23.714844 20.796875 C 22.78125 20.984375 21.828125 20.871094 21.019531 20.359375 C 19.886719 19.546875 19.289062 18.304688 19.046875 16.957031 C 19.027344 16.808594 19.023438 16.664062 19.03125 16.515625 C 18.980469 16.519531 18.925781 16.53125 18.875 16.535156 C 18.570312 16.535156 18.335938 16.367188 18.101562 16.1875 C 17.824219 15.882812 17.808594 15.558594 17.8125 15.167969 C 17.835938 14.855469 17.921875 14.65625 18.152344 14.453125 C 18.566406 14.128906 19.105469 14.027344 19.601562 14.246094 Z M 18.539062 15.148438 C 18.492188 15.339844 18.492188 15.339844 18.539062 15.53125 C 18.679688 15.730469 18.757812 15.796875 19.003906 15.839844 C 19.25 15.796875 19.328125 15.730469 19.46875 15.53125 C 19.515625 15.339844 19.515625 15.339844 19.46875 15.148438 C 19.328125 14.949219 19.25 14.882812 19.003906 14.839844 C 18.757812 14.882812 18.679688 14.949219 18.539062 15.148438 Z M 26.25 15.148438 C 26.203125 15.339844 26.203125 15.339844 26.25 15.53125 C 26.390625 15.730469 26.46875 15.796875 26.714844 15.839844 C 26.960938 15.796875 27.039062 15.730469 27.179688 15.53125 C 27.226562 15.339844 27.226562 15.339844 27.179688 15.148438 C 27.039062 14.949219 26.960938 14.882812 26.714844 14.839844 C 26.46875 14.882812 26.390625 14.949219 26.25 15.148438 Z M 19.960938 17.5 C 20.148438 18.378906 20.625 19.160156 21.347656 19.703125 C 21.976562 20.109375 22.667969 20.257812 23.40625 20.125 C 24.273438 19.886719 24.886719 19.363281 25.328125 18.601562 C 25.585938 18.152344 25.585938 18.152344 25.757812 17.664062 C 25.730469 17.582031 25.730469 17.582031 25.703125 17.5 C 25.679688 17.527344 25.65625 17.550781 25.628906 17.578125 C 24.957031 18.292969 24.027344 18.84375 23.03125 18.921875 C 21.902344 18.9375 21.070312 18.425781 20.234375 17.71875 C 20.144531 17.644531 20.050781 17.574219 19.960938 17.5 Z M 19.960938 17.5 "/>
<path style=" stroke:none;fill-rule:nonzero;fill:#dc2626;fill-opacity:1;" d="M 25.484375 23.296875 C 25.652344 23.53125 25.683594 23.703125 25.675781 23.980469 C 25.621094 24.265625 25.445312 24.414062 25.210938 24.578125 C 24.875 24.769531 24.515625 24.835938 24.136719 24.898438 C 23.894531 24.9375 23.894531 24.9375 23.703125 25.078125 C 23.628906 25.183594 23.628906 25.183594 23.570312 25.285156 C 23.46875 25.449219 23.367188 25.484375 23.1875 25.539062 C 22.804688 25.589844 22.507812 25.570312 22.179688 25.351562 C 22.09375 25.265625 22.09375 25.265625 22.03125 25.125 C 21.882812 24.933594 21.710938 24.917969 21.484375 24.878906 C 21.402344 24.859375 21.3125 24.84375 21.234375 24.824219 C 21.191406 24.820312 21.148438 24.808594 21.109375 24.800781 C 20.71875 24.703125 20.402344 24.519531 20.125 24.226562 C 20.019531 24.015625 20.035156 23.796875 20.070312 23.570312 C 20.273438 23.171875 20.648438 22.996094 21.054688 22.859375 C 22.367188 22.507812 24.367188 22.382812 25.484375 23.296875 Z M 20.84375 23.769531 C 20.8125 23.808594 20.8125 23.808594 20.78125 23.84375 C 21.085938 24.082031 21.46875 24.25 21.859375 24.210938 C 22.046875 24.148438 22.097656 24.007812 22.203125 23.84375 C 22.441406 23.644531 22.722656 23.617188 23.023438 23.625 C 23.265625 23.671875 23.421875 23.742188 23.589844 23.925781 C 23.621094 23.972656 23.648438 24.015625 23.679688 24.0625 C 23.714844 24.117188 23.753906 24.171875 23.789062 24.226562 C 24.152344 24.199219 24.496094 24.117188 24.828125 23.953125 C 24.863281 23.898438 24.902344 23.84375 24.9375 23.789062 C 23.976562 23.25 21.742188 22.972656 20.84375 23.769531 Z M 22.675781 24.355469 C 22.648438 24.386719 22.617188 24.414062 22.585938 24.445312 C 22.601562 24.65625 22.601562 24.65625 22.695312 24.828125 C 22.855469 24.847656 22.855469 24.847656 23.023438 24.828125 C 23.148438 24.679688 23.148438 24.679688 23.128906 24.523438 C 23.085938 24.382812 23.085938 24.382812 22.949219 24.308594 C 22.800781 24.261719 22.800781 24.261719 22.675781 24.355469 Z M 22.675781 24.355469 "/>
<path style=" stroke:none;fill-rule:nonzero;fill:#dc2626;fill-opacity:1;" d="M 12.652344 20.042969 C 12.941406 20.214844 13.160156 20.472656 13.3125 20.773438 C 13.390625 21.214844 13.378906 21.574219 13.160156 21.96875 C 12.960938 22.238281 12.738281 22.394531 12.414062 22.476562 C 12.414062 23.074219 12.414062 23.664062 12.414062 24.28125 C 12.503906 24.316406 12.597656 24.355469 12.6875 24.390625 C 12.9375 24.65625 13.070312 24.863281 13.089844 25.230469 C 13.085938 25.5 13.015625 25.707031 12.851562 25.921875 C 12.574219 26.175781 12.320312 26.269531 11.945312 26.265625 C 11.65625 26.230469 11.445312 26.105469 11.246094 25.894531 C 11.03125 25.570312 11.011719 25.320312 11.046875 24.9375 C 11.140625 24.640625 11.339844 24.453125 11.59375 24.28125 C 11.628906 24.28125 11.667969 24.28125 11.703125 24.28125 C 11.703125 23.683594 11.703125 23.09375 11.703125 22.476562 C 11.59375 22.441406 11.484375 22.402344 11.375 22.367188 C 11.082031 22.183594 10.863281 21.9375 10.773438 21.601562 C 10.726562 21.234375 10.722656 20.875 10.914062 20.546875 C 11.339844 20.011719 11.992188 19.75 12.652344 20.042969 Z M 11.59375 20.835938 C 11.453125 21.023438 11.457031 21.210938 11.484375 21.4375 C 11.589844 21.609375 11.667969 21.734375 11.863281 21.800781 C 12.054688 21.839844 12.167969 21.828125 12.351562 21.757812 C 12.539062 21.597656 12.617188 21.464844 12.660156 21.222656 C 12.625 20.984375 12.523438 20.894531 12.359375 20.726562 C 12.089844 20.589844 11.820312 20.652344 11.59375 20.835938 Z M 11.820312 25 C 11.734375 25.136719 11.730469 25.214844 11.757812 25.375 C 11.84375 25.484375 11.84375 25.484375 11.976562 25.539062 C 12.121094 25.539062 12.121094 25.539062 12.25 25.484375 C 12.378906 25.335938 12.378906 25.335938 12.34375 25.179688 C 12.3125 25.039062 12.3125 25.039062 12.195312 24.9375 C 12.039062 24.917969 11.953125 24.914062 11.820312 25 Z M 11.820312 25 "/>
<path style=" stroke:none;fill-rule:nonzero;fill:#dc2626;fill-opacity:1;" d="M 16.484375 20.046875 C 16.8125 20.242188 17.03125 20.527344 17.144531 20.890625 C 17.242188 21.289062 17.164062 21.679688 16.949219 22.023438 C 16.785156 22.242188 16.59375 22.359375 16.351562 22.476562 C 16.316406 22.476562 16.277344 22.476562 16.242188 22.476562 C 16.242188 22.730469 16.242188 22.984375 16.246094 23.238281 C 16.246094 23.320312 16.246094 23.40625 16.246094 23.492188 C 16.246094 23.617188 16.25 23.742188 16.25 23.867188 C 16.25 23.902344 16.25 23.945312 16.25 23.980469 C 16.25 24.101562 16.25 24.101562 16.296875 24.28125 C 16.453125 24.410156 16.453125 24.410156 16.625 24.5 C 16.867188 24.8125 16.925781 25.03125 16.898438 25.429688 C 16.785156 25.78125 16.617188 25.980469 16.3125 26.1875 C 15.996094 26.300781 15.714844 26.300781 15.40625 26.160156 C 15.148438 26.011719 14.96875 25.828125 14.875 25.539062 C 14.847656 25.238281 14.835938 24.96875 14.964844 24.695312 C 15.109375 24.535156 15.25 24.410156 15.421875 24.28125 C 15.457031 24.28125 15.496094 24.28125 15.53125 24.28125 C 15.53125 23.683594 15.53125 23.09375 15.53125 22.476562 C 15.421875 22.441406 15.3125 22.402344 15.203125 22.367188 C 14.960938 22.207031 14.71875 22.003906 14.625 21.71875 C 14.539062 21.273438 14.554688 20.859375 14.785156 20.460938 C 15.175781 19.960938 15.898438 19.78125 16.484375 20.046875 Z M 15.367188 20.945312 C 15.347656 20.964844 15.332031 20.980469 15.3125 21 C 15.28125 21.277344 15.28125 21.277344 15.371094 21.539062 C 15.515625 21.714844 15.613281 21.8125 15.84375 21.839844 C 16.070312 21.816406 16.179688 21.742188 16.351562 21.601562 C 16.464844 21.457031 16.460938 21.382812 16.453125 21.195312 C 16.402344 20.980469 16.335938 20.882812 16.1875 20.726562 C 15.839844 20.554688 15.59375 20.664062 15.367188 20.945312 Z M 15.648438 25 C 15.5625 25.136719 15.5625 25.214844 15.585938 25.375 C 15.640625 25.484375 15.640625 25.484375 15.75 25.539062 C 15.917969 25.539062 15.917969 25.539062 16.078125 25.484375 C 16.207031 25.335938 16.207031 25.335938 16.171875 25.179688 C 16.140625 25.039062 16.140625 25.039062 16.023438 24.9375 C 15.867188 24.917969 15.78125 24.914062 15.648438 25 Z M 15.648438 25 "/>
<path style=" stroke:none;fill-rule:nonzero;fill:#dc2626;fill-opacity:1;" d="M 4.046875 22.859375 C 4.300781 23.082031 4.460938 23.328125 4.503906 23.671875 C 4.507812 24.089844 4.46875 24.394531 4.175781 24.703125 C 3.847656 25.007812 3.558594 25.074219 3.117188 25.066406 C 2.789062 25.027344 2.59375 24.90625 2.359375 24.679688 C 2.136719 24.34375 2.023438 24.027344 2.078125 23.625 C 2.15625 23.269531 2.335938 23.023438 2.625 22.804688 C 3.097656 22.535156 3.585938 22.59375 4.046875 22.859375 Z M 2.898438 23.515625 C 2.785156 23.660156 2.789062 23.738281 2.792969 23.925781 C 2.828125 24.121094 2.828125 24.121094 2.960938 24.25 C 3.164062 24.359375 3.273438 24.371094 3.5 24.335938 C 3.667969 24.230469 3.667969 24.230469 3.773438 24.0625 C 3.808594 23.835938 3.796875 23.726562 3.6875 23.523438 C 3.425781 23.296875 3.164062 23.296875 2.898438 23.515625 Z M 2.898438 23.515625 "/>
<path style=" stroke:none;fill-rule:nonzero;fill:#dc2626;fill-opacity:1;" d="M 8.039062 22.804688 C 8.394531 23.109375 8.558594 23.398438 8.605469 23.867188 C 8.566406 24.257812 8.429688 24.550781 8.148438 24.828125 C 7.816406 25.078125 7.460938 25.101562 7.054688 25.046875 C 6.671875 24.9375 6.429688 24.671875 6.226562 24.34375 C 6.109375 24.054688 6.132812 23.679688 6.214844 23.382812 C 6.367188 23.050781 6.609375 22.84375 6.941406 22.703125 C 7.320312 22.582031 7.691406 22.617188 8.039062 22.804688 Z M 7 23.515625 C 6.863281 23.71875 6.863281 23.820312 6.890625 24.0625 C 7.03125 24.261719 7.109375 24.328125 7.355469 24.371094 C 7.597656 24.328125 7.675781 24.253906 7.820312 24.0625 C 7.882812 23.929688 7.882812 23.929688 7.875 23.789062 C 7.785156 23.589844 7.683594 23.460938 7.492188 23.351562 C 7.253906 23.351562 7.1875 23.382812 7 23.515625 Z M 7 23.515625 "/>
</g>
</svg>
