<?xml version="1.0" encoding="UTF-8"?>
<svg xmlns="http://www.w3.org/2000/svg" xmlns:xlink="http://www.w3.org/1999/xlink" width="24" height="24" viewBox="0 0 28 28" version="1.1">
<g id="surface1">
<path style=" stroke:none;fill-rule:nonzero;fill:#dc2626;fill-opacity:1;" d="M 16.578125 0.855469 C 16.621094 0.855469 16.660156 0.855469 16.703125 0.855469 C 17.289062 0.859375 17.859375 0.875 18.429688 1.039062 C 18.476562 1.054688 18.515625 1.0625 18.5625 1.074219 C 20.511719 1.632812 22.101562 2.84375 23.132812 4.59375 C 23.824219 5.84375 24.070312 7.105469 24.097656 8.523438 C 24.097656 8.617188 24.097656 8.714844 24.101562 8.8125 C 24.109375 9.046875 24.113281 9.28125 24.117188 9.515625 C 24.25 9.585938 24.335938 9.578125 24.480469 9.578125 C 24.558594 9.578125 24.558594 9.578125 24.640625 9.578125 C 24.699219 9.578125 24.753906 9.578125 24.8125 9.578125 C 24.9375 9.578125 25.054688 9.585938 25.179688 9.585938 C 25.371094 9.585938 25.5625 9.589844 25.75 9.589844 C 25.9375 9.589844 26.117188 9.59375 26.304688 9.59375 C 26.359375 9.59375 26.417969 9.59375 26.476562 9.59375 C 26.527344 9.59375 26.582031 9.59375 26.636719 9.597656 C 26.683594 9.597656 26.726562 9.597656 26.777344 9.597656 C 26.957031 9.632812 27.019531 9.703125 27.125 9.84375 C 27.257812 10.527344 27.054688 11.351562 26.980469 12.039062 C 26.964844 12.175781 26.953125 12.3125 26.9375 12.449219 C 26.902344 12.777344 26.871094 13.101562 26.832031 13.425781 C 26.765625 14.039062 26.703125 14.660156 26.632812 15.277344 C 26.613281 15.476562 26.59375 15.679688 26.570312 15.882812 C 26.554688 16.003906 26.542969 16.128906 26.527344 16.25 C 26.523438 16.3125 26.519531 16.367188 26.507812 16.425781 C 26.5 16.5 26.5 16.5 26.492188 16.578125 C 26.488281 16.625 26.484375 16.671875 26.476562 16.714844 C 26.46875 16.851562 26.460938 16.980469 26.46875 17.117188 C 26.597656 17.253906 26.597656 17.253906 26.765625 17.371094 C 27.066406 17.601562 27.066406 17.601562 27.125 17.71875 C 27.128906 17.835938 27.132812 17.960938 27.132812 18.078125 C 27.132812 18.117188 27.132812 18.15625 27.132812 18.191406 C 27.132812 18.320312 27.132812 18.445312 27.132812 18.570312 C 27.132812 18.664062 27.132812 18.753906 27.132812 18.839844 C 27.140625 19.085938 27.140625 19.332031 27.140625 19.578125 C 27.140625 19.734375 27.140625 19.882812 27.140625 20.039062 C 27.140625 20.515625 27.140625 20.996094 27.144531 21.472656 C 27.144531 22.03125 27.144531 22.582031 27.144531 23.136719 C 27.148438 23.5625 27.148438 23.988281 27.148438 24.417969 C 27.148438 24.671875 27.148438 24.929688 27.148438 25.183594 C 27.152344 25.425781 27.152344 25.667969 27.152344 25.90625 C 27.152344 25.996094 27.152344 26.082031 27.152344 26.171875 C 27.152344 26.289062 27.152344 26.410156 27.152344 26.53125 C 27.152344 26.601562 27.152344 26.664062 27.152344 26.738281 C 27.121094 26.945312 27.074219 26.996094 26.90625 27.125 C 26.765625 27.148438 26.648438 27.152344 26.5 27.152344 C 26.460938 27.152344 26.417969 27.152344 26.378906 27.152344 C 26.242188 27.152344 26.105469 27.152344 25.960938 27.152344 C 25.867188 27.152344 25.765625 27.152344 25.667969 27.152344 C 25.394531 27.15625 25.117188 27.15625 24.84375 27.152344 C 24.546875 27.152344 24.25 27.15625 23.953125 27.15625 C 23.375 27.15625 22.796875 27.15625 22.21875 27.15625 C 21.742188 27.15625 21.273438 27.15625 20.800781 27.15625 C 20.734375 27.15625 20.667969 27.15625 20.597656 27.15625 C 20.460938 27.15625 20.324219 27.15625 20.1875 27.15625 C 18.914062 27.15625 17.632812 27.15625 16.355469 27.15625 C 15.1875 27.15625 14.019531 27.15625 12.851562 27.15625 C 11.648438 27.160156 10.449219 27.160156 9.25 27.160156 C 9.113281 27.160156 8.976562 27.160156 8.839844 27.160156 C 8.742188 27.160156 8.742188 27.160156 8.640625 27.160156 C 8.171875 27.160156 7.695312 27.160156 7.226562 27.160156 C 6.652344 27.160156 6.078125 27.160156 5.507812 27.160156 C 5.214844 27.160156 4.921875 27.160156 4.628906 27.160156 C 4.359375 27.160156 4.09375 27.160156 3.824219 27.160156 C 3.726562 27.160156 3.632812 27.160156 3.535156 27.160156 C 2.761719 27.164062 2.171875 27.050781 1.59375 26.492188 C 1.042969 25.886719 0.960938 25.296875 0.984375 24.5 C 1 24.234375 1.015625 23.972656 1.039062 23.707031 C 1.042969 23.632812 1.046875 23.554688 1.054688 23.484375 C 1.070312 23.277344 1.085938 23.074219 1.097656 22.875 C 1.113281 22.746094 1.121094 22.617188 1.128906 22.492188 C 1.164062 22.042969 1.199219 21.601562 1.230469 21.15625 C 1.261719 20.742188 1.292969 20.324219 1.328125 19.914062 C 1.351562 19.554688 1.382812 19.199219 1.40625 18.84375 C 1.425781 18.628906 1.441406 18.421875 1.457031 18.207031 C 1.472656 18.007812 1.484375 17.808594 1.503906 17.609375 C 1.511719 17.5 1.515625 17.394531 1.527344 17.285156 C 1.570312 16.734375 1.671875 16.273438 1.96875 15.804688 C 1.910156 15.804688 1.84375 15.800781 1.785156 15.800781 C 1.703125 15.796875 1.625 15.796875 1.546875 15.789062 C 1.503906 15.789062 1.460938 15.789062 1.421875 15.785156 C 1.25 15.78125 1.121094 15.769531 0.96875 15.667969 C 0.828125 15.460938 0.84375 15.285156 0.847656 15.039062 C 0.847656 14.992188 0.847656 14.945312 0.84375 14.894531 C 0.84375 14.792969 0.847656 14.691406 0.847656 14.59375 C 0.847656 14.4375 0.847656 14.28125 0.84375 14.128906 C 0.84375 14.03125 0.847656 13.929688 0.847656 13.835938 C 0.847656 13.789062 0.84375 13.746094 0.84375 13.695312 C 0.847656 13.5 0.851562 13.375 0.960938 13.207031 C 1.140625 13.097656 1.308594 13.078125 1.515625 13.074219 C 1.582031 13.070312 1.582031 13.070312 1.644531 13.066406 C 1.785156 13.0625 1.921875 13.054688 2.0625 13.054688 C 2.109375 13.054688 2.160156 13.054688 2.210938 13.050781 C 3.039062 13.046875 3.738281 13.230469 4.5 13.546875 C 4.542969 13.566406 4.59375 13.589844 4.644531 13.609375 C 5.492188 13.972656 5.492188 13.972656 5.6875 14.21875 C 5.714844 14.441406 5.695312 14.652344 5.6875 14.875 C 5.992188 14.875 6.304688 14.875 6.617188 14.875 C 6.597656 14.839844 6.582031 14.800781 6.5625 14.765625 C 6.542969 14.636719 6.53125 14.511719 6.515625 14.382812 C 6.507812 14.324219 6.507812 14.324219 6.503906 14.265625 C 6.488281 14.132812 6.476562 14.003906 6.460938 13.871094 C 6.453125 13.78125 6.445312 13.691406 6.429688 13.597656 C 6.414062 13.40625 6.390625 13.214844 6.371094 13.023438 C 6.34375 12.777344 6.320312 12.539062 6.292969 12.289062 C 6.269531 12.105469 6.253906 11.914062 6.234375 11.726562 C 6.226562 11.632812 6.214844 11.546875 6.203125 11.457031 C 6.042969 9.957031 6.042969 9.957031 6.21875 9.714844 C 6.367188 9.609375 6.433594 9.597656 6.613281 9.597656 C 6.667969 9.59375 6.71875 9.59375 6.773438 9.59375 C 6.832031 9.59375 6.890625 9.59375 6.945312 9.59375 C 7.003906 9.59375 7.0625 9.59375 7.128906 9.59375 C 7.3125 9.589844 7.5 9.589844 7.691406 9.589844 C 7.878906 9.585938 8.066406 9.585938 8.257812 9.585938 C 8.371094 9.578125 8.492188 9.578125 8.609375 9.578125 C 8.660156 9.578125 8.714844 9.578125 8.769531 9.578125 C 8.8125 9.578125 8.863281 9.578125 8.910156 9.578125 C 9.027344 9.578125 9.027344 9.578125 9.132812 9.515625 C 9.132812 9.429688 9.132812 9.429688 9.132812 9.335938 C 9.15625 7.113281 9.15625 7.113281 9.40625 6.289062 C 9.425781 6.230469 9.425781 6.230469 9.441406 6.171875 C 9.972656 4.421875 11.101562 2.953125 12.632812 1.96875 C 12.6875 1.933594 12.738281 1.898438 12.796875 1.863281 C 13.359375 1.523438 13.953125 1.296875 14.582031 1.109375 C 14.621094 1.097656 14.65625 1.085938 14.691406 1.074219 C 15.316406 0.894531 15.9375 0.851562 16.578125 0.855469 Z M 11.976562 3.71875 C 11.941406 3.75 11.902344 3.78125 11.867188 3.820312 C 10.703125 4.890625 10.148438 6.582031 10.066406 8.117188 C 10.058594 8.386719 10.058594 8.648438 10.0625 8.914062 C 10.09375 8.894531 10.125 8.878906 10.15625 8.859375 C 10.285156 8.804688 10.363281 8.789062 10.5 8.789062 C 10.535156 8.789062 10.574219 8.789062 10.609375 8.789062 C 10.738281 8.808594 10.824219 8.855469 10.9375 8.914062 C 10.9375 8.878906 10.9375 8.835938 10.9375 8.800781 C 10.96875 6.949219 11.402344 5.46875 12.746094 4.128906 C 13.925781 2.992188 15.441406 2.644531 17.035156 2.664062 C 17.507812 2.675781 17.929688 2.742188 18.375 2.898438 C 18.410156 2.914062 18.445312 2.921875 18.480469 2.933594 C 19.878906 3.421875 21.058594 4.410156 21.710938 5.742188 C 22.019531 6.402344 22.25 7.105469 22.277344 7.835938 C 22.28125 7.929688 22.28125 7.929688 22.28125 8.023438 C 22.285156 8.09375 22.285156 8.15625 22.289062 8.222656 C 22.289062 8.289062 22.292969 8.359375 22.292969 8.425781 C 22.304688 8.585938 22.308594 8.75 22.3125 8.914062 C 22.363281 8.886719 22.363281 8.886719 22.414062 8.859375 C 22.539062 8.800781 22.613281 8.789062 22.75 8.789062 C 22.785156 8.789062 22.824219 8.789062 22.859375 8.789062 C 22.988281 8.808594 23.078125 8.851562 23.1875 8.914062 C 23.261719 7.1875 22.796875 5.386719 21.625 4.078125 C 21.492188 3.9375 21.355469 3.800781 21.21875 3.664062 C 21.1875 3.628906 21.15625 3.589844 21.117188 3.554688 C 20.070312 2.421875 18.421875 1.839844 16.914062 1.753906 C 15.035156 1.691406 13.296875 2.410156 11.976562 3.71875 Z M 13.34375 4.8125 C 13.308594 4.84375 13.273438 4.871094 13.238281 4.902344 C 12.375 5.707031 11.875 6.941406 11.816406 8.109375 C 11.816406 8.175781 11.8125 8.242188 11.8125 8.3125 C 11.8125 8.363281 11.808594 8.40625 11.808594 8.457031 C 11.804688 8.621094 11.796875 8.785156 11.796875 8.949219 C 11.796875 9.003906 11.792969 9.058594 11.792969 9.113281 C 11.792969 9.164062 11.792969 9.214844 11.792969 9.265625 C 11.792969 9.3125 11.792969 9.355469 11.792969 9.40625 C 11.804688 9.460938 11.804688 9.460938 11.8125 9.515625 C 12.011719 9.648438 12.109375 9.640625 12.351562 9.640625 C 12.386719 9.640625 12.421875 9.640625 12.464844 9.640625 C 12.59375 9.640625 12.71875 9.640625 12.847656 9.640625 C 12.9375 9.640625 13.03125 9.640625 13.121094 9.640625 C 13.367188 9.640625 13.617188 9.640625 13.863281 9.640625 C 14.125 9.640625 14.382812 9.640625 14.640625 9.640625 C 15.078125 9.640625 15.515625 9.640625 15.949219 9.640625 C 16.457031 9.640625 16.960938 9.640625 17.464844 9.640625 C 17.898438 9.640625 18.328125 9.640625 18.761719 9.640625 C 19.023438 9.640625 19.28125 9.640625 19.539062 9.640625 C 19.78125 9.640625 20.023438 9.640625 20.269531 9.640625 C 20.359375 9.640625 20.449219 9.640625 20.535156 9.640625 C 20.65625 9.640625 20.78125 9.640625 20.898438 9.640625 C 20.96875 9.640625 21.035156 9.640625 21.109375 9.640625 C 21.28125 9.640625 21.28125 9.640625 21.4375 9.515625 C 21.460938 9.40625 21.460938 9.40625 21.457031 9.277344 C 21.457031 9.226562 21.457031 9.179688 21.457031 9.128906 C 21.457031 9.074219 21.457031 9.023438 21.457031 8.96875 C 21.457031 8.914062 21.453125 8.859375 21.453125 8.804688 C 21.421875 7.363281 21.113281 6.121094 20.125 5.03125 C 20.09375 4.996094 20.066406 4.960938 20.035156 4.925781 C 19.214844 4.042969 17.957031 3.550781 16.765625 3.5 C 15.472656 3.507812 14.304688 3.9375 13.34375 4.8125 Z M 9.789062 10.125 C 9.511719 10.417969 9.546875 10.800781 9.550781 11.183594 C 9.554688 11.378906 9.566406 11.570312 9.578125 11.765625 C 9.578125 11.894531 9.585938 12.027344 9.589844 12.160156 C 9.59375 12.484375 9.609375 12.800781 9.625 13.125 C 10.203125 13.125 10.777344 13.125 11.375 13.125 C 11.390625 12.738281 11.402344 12.34375 11.40625 11.957031 C 11.410156 11.828125 11.414062 11.695312 11.421875 11.5625 C 11.492188 10.8125 11.492188 10.8125 11.242188 10.152344 C 11.085938 10.039062 10.953125 9.96875 10.773438 9.898438 C 10.71875 9.863281 10.664062 9.824219 10.609375 9.789062 C 10.28125 9.789062 10.039062 9.921875 9.789062 10.125 Z M 22.039062 10.125 C 21.761719 10.417969 21.796875 10.800781 21.800781 11.183594 C 21.804688 11.378906 21.816406 11.570312 21.828125 11.765625 C 21.828125 11.894531 21.835938 12.027344 21.839844 12.160156 C 21.84375 12.484375 21.859375 12.800781 21.875 13.125 C 22.453125 13.125 23.027344 13.125 23.625 13.125 C 23.640625 12.738281 23.652344 12.34375 23.65625 11.957031 C 23.660156 11.828125 23.664062 11.695312 23.671875 11.5625 C 23.742188 10.8125 23.742188 10.8125 23.492188 10.152344 C 23.335938 10.039062 23.203125 9.96875 23.023438 9.898438 C 22.96875 9.863281 22.914062 9.824219 22.859375 9.789062 C 22.53125 9.789062 22.289062 9.921875 22.039062 10.125 Z M 7.054688 10.5 C 7.109375 11.046875 7.167969 11.59375 7.222656 12.140625 C 7.25 12.390625 7.273438 12.648438 7.300781 12.902344 C 7.328125 13.144531 7.351562 13.390625 7.378906 13.636719 C 7.386719 13.726562 7.398438 13.820312 7.40625 13.914062 C 7.417969 14.046875 7.433594 14.171875 7.445312 14.304688 C 7.453125 14.347656 7.457031 14.382812 7.457031 14.421875 C 7.472656 14.582031 7.496094 14.71875 7.546875 14.875 C 7.582031 14.875 7.625 14.875 7.660156 14.875 C 8.589844 14.875 9.519531 14.878906 10.445312 14.882812 C 10.898438 14.890625 11.34375 14.890625 11.792969 14.890625 C 12.1875 14.890625 12.574219 14.894531 12.964844 14.894531 C 13.175781 14.898438 13.378906 14.898438 13.589844 14.898438 C 13.78125 14.898438 13.976562 14.898438 14.171875 14.898438 C 14.277344 14.898438 14.382812 14.898438 14.488281 14.898438 C 15.167969 14.90625 15.675781 15.097656 16.167969 15.5625 C 16.957031 16.398438 16.828125 17.824219 16.914062 18.894531 C 16.921875 19.050781 16.933594 19.203125 16.949219 19.359375 C 16.976562 19.722656 17.003906 20.089844 17.03125 20.457031 C 17.058594 20.832031 17.089844 21.203125 17.117188 21.578125 C 17.144531 21.902344 17.167969 22.230469 17.195312 22.554688 C 17.207031 22.746094 17.222656 22.9375 17.242188 23.132812 C 17.253906 23.347656 17.273438 23.5625 17.285156 23.773438 C 17.289062 23.839844 17.300781 23.898438 17.304688 23.960938 C 17.394531 25.195312 17.394531 25.195312 17.234375 25.652344 C 17.210938 25.707031 17.195312 25.761719 17.175781 25.820312 C 17.121094 25.960938 17.066406 26.109375 17.007812 26.25 C 17.746094 26.25 18.488281 26.25 19.25 26.25 C 19.25 25.996094 19.25 25.734375 19.25 25.46875 C 19.25 24.625 19.253906 23.773438 19.257812 22.929688 C 19.257812 22.414062 19.257812 21.898438 19.257812 21.382812 C 19.257812 20.9375 19.265625 20.488281 19.265625 20.039062 C 19.265625 19.800781 19.269531 19.5625 19.265625 19.328125 C 19.265625 19.105469 19.269531 18.882812 19.269531 18.65625 C 19.269531 18.574219 19.269531 18.492188 19.269531 18.410156 C 19.269531 18.296875 19.269531 18.1875 19.269531 18.074219 C 19.269531 18.015625 19.269531 17.953125 19.269531 17.886719 C 19.3125 17.667969 19.410156 17.585938 19.578125 17.445312 C 19.609375 17.417969 19.640625 17.386719 19.679688 17.359375 C 19.707031 17.335938 19.738281 17.308594 19.769531 17.285156 C 19.804688 17.253906 19.835938 17.226562 19.875 17.199219 C 19.910156 17.171875 19.945312 17.140625 19.984375 17.109375 C 20.023438 17.082031 20.0625 17.046875 20.101562 17.015625 C 20.832031 16.429688 20.832031 16.429688 21.125 16.210938 C 21.21875 16.132812 21.21875 16.132812 21.308594 16.050781 C 21.632812 15.765625 21.921875 15.753906 22.339844 15.75 C 22.40625 15.75 22.472656 15.75 22.539062 15.75 C 22.675781 15.746094 22.820312 15.746094 22.953125 15.746094 C 23.164062 15.746094 23.375 15.742188 23.585938 15.734375 C 24.78125 15.722656 24.78125 15.722656 25.292969 16.195312 C 25.355469 16.265625 25.421875 16.332031 25.484375 16.40625 C 25.59375 16.242188 25.613281 16.1875 25.628906 16.003906 C 25.640625 15.933594 25.640625 15.933594 25.644531 15.859375 C 25.652344 15.804688 25.65625 15.75 25.664062 15.695312 C 25.667969 15.640625 25.671875 15.585938 25.679688 15.527344 C 25.699219 15.339844 25.71875 15.15625 25.734375 14.96875 C 25.75 14.84375 25.761719 14.710938 25.777344 14.582031 C 25.8125 14.246094 25.84375 13.910156 25.882812 13.566406 C 25.917969 13.226562 25.949219 12.878906 25.984375 12.53125 C 26.058594 11.851562 26.125 11.179688 26.195312 10.5 C 25.632812 10.5 25.074219 10.5 24.5 10.5 C 24.5 10.738281 24.496094 10.96875 24.496094 11.210938 C 24.492188 11.398438 24.492188 11.585938 24.484375 11.777344 C 24.484375 11.972656 24.480469 12.167969 24.480469 12.367188 C 24.480469 12.554688 24.476562 12.746094 24.472656 12.9375 C 24.472656 13.046875 24.472656 13.152344 24.472656 13.261719 C 24.472656 13.363281 24.472656 13.363281 24.46875 13.460938 C 24.46875 13.523438 24.46875 13.578125 24.46875 13.636719 C 24.445312 13.78125 24.445312 13.78125 24.382812 13.882812 C 24.246094 13.96875 24.144531 13.96875 23.984375 13.96875 C 23.921875 13.96875 23.863281 13.96875 23.796875 13.96875 C 23.734375 13.96875 23.671875 13.96875 23.601562 13.96875 C 23.5 13.96875 23.5 13.96875 23.398438 13.96875 C 23.21875 13.96875 23.039062 13.96875 22.859375 13.96875 C 22.75 13.96875 22.640625 13.96875 22.53125 13.96875 C 22.320312 13.96875 22.109375 13.96875 21.898438 13.96875 C 21.800781 13.96875 21.800781 13.96875 21.703125 13.96875 C 21.636719 13.96875 21.578125 13.96875 21.515625 13.96875 C 21.460938 13.96875 21.410156 13.96875 21.355469 13.96875 C 21.21875 13.945312 21.21875 13.945312 21.054688 13.78125 C 21.035156 12.695312 21.019531 11.617188 21 10.5 C 18.109375 10.5 15.226562 10.5 12.25 10.5 C 12.230469 11.585938 12.214844 12.664062 12.195312 13.78125 C 12.007812 13.96875 11.984375 13.96875 11.734375 13.96875 C 11.671875 13.96875 11.613281 13.96875 11.546875 13.96875 C 11.484375 13.96875 11.421875 13.96875 11.351562 13.96875 C 11.285156 13.96875 11.214844 13.96875 11.148438 13.96875 C 10.96875 13.96875 10.789062 13.96875 10.609375 13.96875 C 10.5 13.96875 10.390625 13.96875 10.28125 13.96875 C 10.070312 13.96875 9.859375 13.96875 9.648438 13.96875 C 9.550781 13.96875 9.550781 13.96875 9.453125 13.96875 C 9.359375 13.96875 9.359375 13.96875 9.265625 13.96875 C 9.210938 13.96875 9.160156 13.96875 9.105469 13.96875 C 8.96875 13.945312 8.96875 13.945312 8.867188 13.882812 C 8.777344 13.742188 8.78125 13.632812 8.78125 13.460938 C 8.78125 13.394531 8.777344 13.328125 8.777344 13.261719 C 8.777344 13.195312 8.777344 13.121094 8.777344 13.046875 C 8.777344 12.976562 8.773438 12.902344 8.773438 12.828125 C 8.773438 12.632812 8.769531 12.441406 8.769531 12.25 C 8.769531 12.054688 8.765625 11.851562 8.765625 11.65625 C 8.753906 11.269531 8.753906 10.886719 8.75 10.5 C 8.1875 10.5 7.628906 10.5 7.054688 10.5 Z M 1.75 14 C 1.75 14.289062 1.75 14.578125 1.75 14.875 C 2.761719 14.875 3.773438 14.875 4.8125 14.875 C 4.777344 14.695312 4.777344 14.695312 4.601562 14.628906 C 4.539062 14.597656 4.46875 14.570312 4.398438 14.539062 C 4.359375 14.523438 4.324219 14.511719 4.289062 14.492188 C 4.171875 14.441406 4.046875 14.390625 3.929688 14.347656 C 3.886719 14.328125 3.847656 14.3125 3.804688 14.296875 C 3.109375 14.019531 2.5 13.90625 1.75 14 Z M 2.8125 16.222656 C 2.542969 16.585938 2.492188 16.957031 2.460938 17.394531 C 2.457031 17.476562 2.457031 17.476562 2.453125 17.558594 C 2.4375 17.738281 2.425781 17.917969 2.410156 18.097656 C 2.402344 18.226562 2.386719 18.347656 2.378906 18.476562 C 2.359375 18.734375 2.335938 19 2.320312 19.257812 C 2.296875 19.597656 2.269531 19.933594 2.242188 20.265625 C 2.21875 20.589844 2.195312 20.910156 2.167969 21.226562 C 2.164062 21.292969 2.160156 21.351562 2.15625 21.414062 C 2.140625 21.585938 2.128906 21.761719 2.113281 21.933594 C 2.113281 21.984375 2.109375 22.035156 2.105469 22.089844 C 2.101562 22.132812 2.097656 22.183594 2.09375 22.230469 C 2.09375 22.273438 2.085938 22.3125 2.082031 22.359375 C 2.078125 22.484375 2.078125 22.617188 2.078125 22.75 C 6.773438 22.75 11.460938 22.75 16.296875 22.75 C 16.222656 21.597656 16.148438 20.445312 16.058594 19.296875 C 16.042969 19.058594 16.027344 18.820312 16.007812 18.585938 C 15.992188 18.351562 15.976562 18.121094 15.960938 17.886719 C 15.949219 17.800781 15.945312 17.710938 15.941406 17.625 C 15.898438 17.007812 15.828125 16.46875 15.367188 16.023438 C 15.003906 15.789062 14.65625 15.742188 14.226562 15.746094 C 14.191406 15.746094 14.15625 15.746094 14.117188 15.746094 C 14.003906 15.746094 13.886719 15.746094 13.765625 15.746094 C 13.6875 15.746094 13.601562 15.746094 13.523438 15.746094 C 13.308594 15.746094 13.09375 15.746094 12.878906 15.746094 C 12.660156 15.746094 12.441406 15.746094 12.222656 15.746094 C 11.792969 15.75 11.367188 15.75 10.9375 15.75 C 10.9375 15.796875 10.9375 15.839844 10.933594 15.886719 C 10.933594 16.054688 10.929688 16.222656 10.921875 16.398438 C 10.917969 16.507812 10.917969 16.609375 10.914062 16.71875 C 10.914062 16.789062 10.914062 16.859375 10.910156 16.929688 C 10.910156 16.992188 10.910156 17.058594 10.90625 17.121094 C 10.882812 17.28125 10.882812 17.28125 10.820312 17.386719 C 10.683594 17.46875 10.582031 17.46875 10.421875 17.46875 C 10.359375 17.46875 10.300781 17.46875 10.234375 17.46875 C 10.171875 17.46875 10.109375 17.46875 10.039062 17.46875 C 9.972656 17.46875 9.902344 17.46875 9.835938 17.46875 C 9.65625 17.46875 9.476562 17.46875 9.296875 17.46875 C 9.1875 17.46875 9.078125 17.46875 8.96875 17.46875 C 8.757812 17.46875 8.546875 17.46875 8.335938 17.46875 C 8.238281 17.46875 8.238281 17.46875 8.140625 17.46875 C 8.046875 17.46875 8.046875 17.46875 7.953125 17.46875 C 7.898438 17.46875 7.847656 17.46875 7.792969 17.46875 C 7.65625 17.445312 7.65625 17.445312 7.554688 17.386719 C 7.460938 17.230469 7.46875 17.109375 7.464844 16.929688 C 7.460938 16.863281 7.460938 16.792969 7.460938 16.71875 C 7.457031 16.652344 7.457031 16.578125 7.457031 16.507812 C 7.453125 16.433594 7.453125 16.359375 7.453125 16.289062 C 7.445312 16.105469 7.441406 15.929688 7.4375 15.75 C 6.96875 15.746094 6.5 15.746094 6.023438 15.746094 C 5.8125 15.746094 5.59375 15.742188 5.375 15.742188 C 5.160156 15.742188 4.949219 15.742188 4.738281 15.742188 C 4.65625 15.742188 4.578125 15.742188 4.5 15.734375 C 3.878906 15.730469 3.265625 15.734375 2.8125 16.222656 Z M 8.3125 15.75 C 8.3125 16.039062 8.3125 16.328125 8.3125 16.625 C 8.890625 16.625 9.464844 16.625 10.0625 16.625 C 10.0625 16.335938 10.0625 16.046875 10.0625 15.75 C 9.484375 15.75 8.910156 15.75 8.3125 15.75 Z M 21.199219 17.285156 C 21.050781 17.460938 20.867188 17.589844 20.679688 17.726562 C 20.621094 17.777344 20.5625 17.824219 20.5 17.875 C 20.34375 17.992188 20.34375 17.992188 20.226562 18.0625 C 20.109375 18.152344 20.109375 18.152344 20.097656 18.300781 C 20.097656 18.359375 20.097656 18.421875 20.097656 18.484375 C 20.097656 18.554688 20.097656 18.621094 20.097656 18.6875 C 20.097656 18.765625 20.097656 18.839844 20.101562 18.917969 C 20.101562 19 20.101562 19.078125 20.101562 19.160156 C 20.101562 19.375 20.101562 19.59375 20.101562 19.804688 C 20.101562 20.035156 20.101562 20.261719 20.105469 20.484375 C 20.105469 20.914062 20.105469 21.347656 20.109375 21.773438 C 20.109375 22.351562 20.109375 22.933594 20.117188 23.511719 C 20.117188 24.421875 20.121094 25.339844 20.125 26.25 C 22.148438 26.25 24.167969 26.25 26.25 26.25 C 26.277344 24.828125 26.277344 24.828125 26.289062 23.40625 C 26.300781 22.828125 26.304688 22.25 26.3125 21.671875 C 26.324219 21.246094 26.332031 20.820312 26.332031 20.398438 C 26.332031 20.175781 26.335938 19.953125 26.339844 19.726562 C 26.414062 18.753906 26.414062 18.753906 26.0625 17.898438 C 25.890625 17.738281 25.699219 17.617188 25.488281 17.507812 C 25.292969 17.398438 25.128906 17.253906 24.957031 17.113281 C 24.890625 17.066406 24.832031 17.015625 24.773438 16.972656 C 24.609375 16.84375 24.609375 16.84375 24.496094 16.730469 C 24.277344 16.585938 24.09375 16.585938 23.839844 16.574219 C 23.792969 16.574219 23.742188 16.574219 23.695312 16.570312 C 23.539062 16.566406 23.382812 16.566406 23.226562 16.5625 C 23.171875 16.5625 23.125 16.5625 23.070312 16.5625 C 22.261719 16.5625 21.730469 16.632812 21.199219 17.285156 Z M 2.023438 23.625 C 1.824219 24.777344 1.824219 24.777344 2.222656 25.796875 C 2.511719 26.109375 2.863281 26.234375 3.28125 26.253906 C 3.410156 26.257812 3.535156 26.257812 3.664062 26.257812 C 3.714844 26.257812 3.765625 26.257812 3.8125 26.257812 C 3.976562 26.257812 4.140625 26.257812 4.304688 26.257812 C 4.425781 26.257812 4.539062 26.257812 4.65625 26.257812 C 4.980469 26.257812 5.300781 26.257812 5.617188 26.257812 C 5.820312 26.257812 6.019531 26.257812 6.214844 26.257812 C 6.914062 26.257812 7.609375 26.257812 8.308594 26.257812 C 8.960938 26.257812 9.609375 26.257812 10.257812 26.265625 C 10.820312 26.265625 11.375 26.265625 11.9375 26.265625 C 12.269531 26.265625 12.601562 26.265625 12.933594 26.265625 C 13.25 26.265625 13.558594 26.265625 13.871094 26.265625 C 13.984375 26.265625 14.105469 26.265625 14.21875 26.265625 C 14.375 26.265625 14.53125 26.265625 14.6875 26.265625 C 14.734375 26.265625 14.78125 26.265625 14.824219 26.265625 C 15.339844 26.257812 15.757812 26.179688 16.132812 25.8125 C 16.65625 25.136719 16.441406 24.460938 16.351562 23.625 C 11.621094 23.625 6.894531 23.625 2.023438 23.625 Z M 2.023438 23.625 "/>
<path style=" stroke:none;fill-rule:nonzero;fill:#dc2626;fill-opacity:1;" d="M 23.1875 19.222656 C 23.222656 19.222656 23.261719 19.222656 23.296875 19.222656 C 23.460938 19.265625 23.523438 19.332031 23.625 19.46875 C 23.648438 19.648438 23.648438 19.648438 23.640625 19.835938 C 23.640625 19.902344 23.632812 19.964844 23.632812 20.035156 C 23.628906 20.078125 23.628906 20.128906 23.625 20.179688 C 23.675781 20.195312 23.726562 20.207031 23.773438 20.226562 C 24.089844 20.339844 24.273438 20.566406 24.441406 20.851562 C 24.53125 21.167969 24.582031 21.507812 24.417969 21.800781 C 24.222656 21.90625 24.058594 21.914062 23.84375 21.875 C 23.617188 21.734375 23.570312 21.515625 23.5 21.269531 C 23.46875 21.15625 23.46875 21.15625 23.351562 21.109375 C 23.125 21.085938 23.125 21.085938 22.921875 21.171875 C 22.832031 21.324219 22.835938 21.429688 22.859375 21.601562 C 22.992188 21.789062 23.152344 21.800781 23.371094 21.84375 C 23.828125 21.945312 24.121094 22.144531 24.390625 22.53125 C 24.570312 22.882812 24.5625 23.324219 24.46875 23.703125 C 24.335938 23.992188 24.101562 24.210938 23.84375 24.390625 C 23.71875 24.425781 23.71875 24.425781 23.625 24.445312 C 23.628906 24.496094 23.628906 24.539062 23.632812 24.589844 C 23.632812 24.691406 23.632812 24.691406 23.640625 24.789062 C 23.644531 24.851562 23.644531 24.914062 23.648438 24.976562 C 23.625 25.15625 23.625 25.15625 23.53125 25.289062 C 23.402344 25.378906 23.34375 25.40625 23.1875 25.402344 C 23.152344 25.402344 23.113281 25.402344 23.078125 25.402344 C 22.914062 25.359375 22.851562 25.292969 22.75 25.15625 C 22.726562 24.976562 22.726562 24.976562 22.734375 24.789062 C 22.734375 24.722656 22.742188 24.660156 22.742188 24.589844 C 22.746094 24.546875 22.746094 24.496094 22.75 24.445312 C 22.699219 24.429688 22.648438 24.417969 22.601562 24.398438 C 22.285156 24.285156 22.101562 24.058594 21.933594 23.773438 C 21.84375 23.457031 21.792969 23.117188 21.957031 22.824219 C 22.152344 22.71875 22.316406 22.710938 22.53125 22.75 C 22.757812 22.890625 22.804688 23.109375 22.875 23.355469 C 22.90625 23.46875 22.90625 23.46875 23.023438 23.515625 C 23.25 23.539062 23.25 23.539062 23.453125 23.453125 C 23.542969 23.300781 23.539062 23.195312 23.515625 23.023438 C 23.382812 22.835938 23.222656 22.824219 23.003906 22.78125 C 22.546875 22.679688 22.253906 22.480469 21.984375 22.09375 C 21.804688 21.742188 21.8125 21.300781 21.90625 20.921875 C 22.039062 20.632812 22.273438 20.414062 22.53125 20.234375 C 22.65625 20.199219 22.65625 20.199219 22.75 20.179688 C 22.746094 20.128906 22.746094 20.085938 22.742188 20.035156 C 22.742188 19.96875 22.734375 19.902344 22.734375 19.835938 C 22.730469 19.773438 22.730469 19.710938 22.726562 19.648438 C 22.75 19.46875 22.75 19.46875 22.84375 19.335938 C 22.972656 19.246094 23.03125 19.21875 23.1875 19.222656 Z M 23.1875 19.222656 "/>
<path style=" stroke:none;fill-rule:nonzero;fill:#dc2626;fill-opacity:1;" d="M 15.394531 11.347656 C 15.457031 11.347656 15.515625 11.34375 15.582031 11.34375 C 15.644531 11.34375 15.710938 11.347656 15.777344 11.347656 C 15.84375 11.347656 15.910156 11.347656 15.984375 11.34375 C 16.125 11.34375 16.265625 11.347656 16.40625 11.347656 C 16.625 11.347656 16.84375 11.347656 17.058594 11.34375 C 17.199219 11.34375 17.335938 11.347656 17.472656 11.347656 C 17.535156 11.347656 17.605469 11.34375 17.667969 11.34375 C 17.757812 11.347656 17.757812 11.347656 17.855469 11.347656 C 17.90625 11.347656 17.960938 11.347656 18.015625 11.347656 C 18.195312 11.382812 18.261719 11.449219 18.375 11.59375 C 18.402344 11.703125 18.402344 11.703125 18.402344 11.816406 C 18.402344 11.859375 18.40625 11.902344 18.40625 11.945312 C 18.40625 11.992188 18.402344 12.039062 18.402344 12.085938 C 18.402344 12.160156 18.402344 12.160156 18.40625 12.230469 C 18.40625 12.332031 18.402344 12.433594 18.402344 12.53125 C 18.402344 12.6875 18.402344 12.84375 18.40625 12.992188 C 18.40625 13.09375 18.402344 13.195312 18.402344 13.289062 C 18.402344 13.335938 18.40625 13.378906 18.40625 13.429688 C 18.40625 13.472656 18.402344 13.515625 18.402344 13.558594 C 18.402344 13.597656 18.402344 13.636719 18.402344 13.671875 C 18.359375 13.835938 18.289062 13.898438 18.15625 14 C 18.015625 14.027344 18.015625 14.027344 17.855469 14.027344 C 17.792969 14.027344 17.734375 14.03125 17.667969 14.03125 C 17.605469 14.03125 17.539062 14.027344 17.472656 14.027344 C 17.371094 14.027344 17.371094 14.027344 17.265625 14.03125 C 17.125 14.03125 16.984375 14.027344 16.84375 14.027344 C 16.625 14.027344 16.40625 14.027344 16.191406 14.03125 C 16.050781 14.03125 15.914062 14.027344 15.777344 14.027344 C 15.714844 14.027344 15.644531 14.03125 15.582031 14.03125 C 15.492188 14.027344 15.492188 14.027344 15.394531 14.027344 C 15.34375 14.027344 15.289062 14.027344 15.234375 14.027344 C 15.054688 13.992188 14.988281 13.925781 14.875 13.78125 C 14.847656 13.671875 14.847656 13.671875 14.847656 13.558594 C 14.847656 13.515625 14.84375 13.472656 14.84375 13.429688 C 14.84375 13.382812 14.847656 13.335938 14.847656 13.289062 C 14.847656 13.242188 14.847656 13.195312 14.84375 13.144531 C 14.84375 13.042969 14.847656 12.941406 14.847656 12.84375 C 14.847656 12.6875 14.847656 12.53125 14.84375 12.378906 C 14.84375 12.28125 14.847656 12.179688 14.847656 12.085938 C 14.847656 12.039062 14.84375 11.996094 14.84375 11.945312 C 14.84375 11.902344 14.847656 11.859375 14.847656 11.816406 C 14.847656 11.777344 14.847656 11.738281 14.847656 11.703125 C 14.921875 11.410156 15.125 11.347656 15.394531 11.347656 Z M 15.75 12.25 C 15.75 12.539062 15.75 12.828125 15.75 13.125 C 16.328125 13.125 16.902344 13.125 17.5 13.125 C 17.5 12.835938 17.5 12.546875 17.5 12.25 C 16.921875 12.25 16.347656 12.25 15.75 12.25 Z M 15.75 12.25 "/>
<path style=" stroke:none;fill-rule:nonzero;fill:#dc2626;fill-opacity:1;" d="M 23.40625 17.5 C 23.542969 17.582031 23.542969 17.582031 23.625 17.71875 C 23.664062 17.9375 23.65625 18.101562 23.542969 18.292969 C 23.351562 18.40625 23.1875 18.414062 22.96875 18.375 C 22.832031 18.292969 22.832031 18.292969 22.75 18.15625 C 22.710938 17.9375 22.71875 17.773438 22.832031 17.582031 C 23.023438 17.46875 23.1875 17.460938 23.40625 17.5 Z M 23.40625 17.5 "/>
</g>
</svg>
