<?xml version="1.0" encoding="UTF-8"?>
<svg xmlns="http://www.w3.org/2000/svg" xmlns:xlink="http://www.w3.org/1999/xlink" width="24" height="24" viewBox="0 0 28 28" version="1.1">
<g id="surface1">
<path style=" stroke:none;fill-rule:nonzero;fill:#dc2626;fill-opacity:1;" d="M 7.851562 13.980469 C 7.90625 13.980469 7.90625 13.980469 7.960938 13.980469 C 8.558594 13.980469 9.109375 14.03125 9.679688 14.21875 C 9.714844 14.234375 9.753906 14.242188 9.792969 14.253906 C 10.574219 14.507812 11.246094 14.882812 11.867188 15.421875 C 11.914062 15.457031 11.953125 15.496094 12 15.53125 C 13.105469 16.46875 13.828125 17.867188 14 19.304688 C 14.019531 19.570312 14.023438 19.832031 14.019531 20.101562 C 14.019531 20.140625 14.019531 20.175781 14.019531 20.210938 C 14.019531 21.105469 13.832031 21.867188 13.507812 22.695312 C 13.558594 22.695312 13.558594 22.695312 13.609375 22.695312 C 13.761719 22.699219 13.914062 22.703125 14.070312 22.710938 C 14.125 22.710938 14.171875 22.710938 14.226562 22.714844 C 14.609375 22.722656 14.609375 22.722656 14.800781 22.832031 C 14.914062 23.042969 14.90625 23.242188 14.902344 23.480469 C 14.902344 23.53125 14.902344 23.578125 14.902344 23.628906 C 14.871094 24.589844 14.453125 25.453125 13.78125 26.140625 C 12.980469 26.851562 12.089844 27.152344 11.03125 27.148438 C 10.957031 27.148438 10.882812 27.148438 10.804688 27.148438 C 10.601562 27.148438 10.390625 27.148438 10.1875 27.148438 C 10.011719 27.148438 9.839844 27.148438 9.671875 27.148438 C 9.261719 27.152344 8.855469 27.148438 8.445312 27.148438 C 8.023438 27.148438 7.605469 27.148438 7.1875 27.152344 C 6.828125 27.152344 6.46875 27.152344 6.101562 27.152344 C 5.886719 27.152344 5.671875 27.152344 5.460938 27.152344 C 5.253906 27.152344 5.054688 27.152344 4.847656 27.152344 C 4.742188 27.152344 4.632812 27.152344 4.523438 27.152344 C 3.5 27.148438 2.59375 26.746094 1.859375 26.03125 C 1.496094 25.621094 1.238281 25.175781 1.039062 24.664062 C 1.019531 24.617188 1.003906 24.574219 0.984375 24.523438 C 0.871094 24.1875 0.855469 23.847656 0.851562 23.492188 C 0.847656 23.441406 0.847656 23.398438 0.847656 23.347656 C 0.847656 23.148438 0.855469 23.003906 0.949219 22.828125 C 1.179688 22.699219 1.421875 22.714844 1.679688 22.710938 C 1.734375 22.710938 1.789062 22.703125 1.84375 22.703125 C 1.976562 22.699219 2.109375 22.695312 2.242188 22.695312 C 2.234375 22.664062 2.21875 22.632812 2.210938 22.601562 C 1.800781 21.414062 1.800781 21.414062 1.75 20.945312 C 1.742188 20.886719 1.734375 20.828125 1.726562 20.765625 C 1.570312 19.144531 2.046875 17.472656 3.085938 16.210938 C 4.300781 14.78125 5.960938 13.976562 7.851562 13.980469 Z M 4.375 16.242188 C 4.328125 16.289062 4.28125 16.328125 4.230469 16.375 C 3.335938 17.234375 2.695312 18.464844 2.664062 19.722656 C 2.648438 20.863281 2.824219 21.726562 3.335938 22.75 C 3.660156 22.75 3.988281 22.75 4.320312 22.75 C 4.21875 22.570312 4.21875 22.570312 4.121094 22.390625 C 3.554688 21.355469 3.355469 20.128906 3.636719 18.96875 C 3.84375 18.328125 4.152344 17.738281 4.59375 17.226562 C 4.644531 17.164062 4.644531 17.164062 4.695312 17.09375 C 5.125 16.578125 5.726562 16.261719 6.34375 16.023438 C 6.433594 15.988281 6.433594 15.988281 6.527344 15.949219 C 7.625 15.59375 8.84375 15.734375 9.863281 16.234375 C 10.199219 16.402344 10.492188 16.597656 10.773438 16.84375 C 10.820312 16.875 10.859375 16.914062 10.90625 16.945312 C 11.421875 17.375 11.738281 17.976562 11.976562 18.59375 C 12.011719 18.683594 12.011719 18.683594 12.050781 18.777344 C 12.410156 19.882812 12.265625 21.109375 11.75 22.128906 C 11.679688 22.265625 11.613281 22.398438 11.539062 22.53125 C 11.503906 22.605469 11.464844 22.675781 11.429688 22.75 C 11.753906 22.75 12.082031 22.75 12.414062 22.75 C 13.074219 21.402344 13.335938 19.941406 12.851562 18.484375 C 12.367188 17.089844 11.371094 16.019531 10.0625 15.359375 C 8.199219 14.46875 5.882812 14.84375 4.375 16.242188 Z M 5.375 17.671875 C 4.734375 18.347656 4.414062 19.144531 4.425781 20.0625 C 4.425781 20.105469 4.425781 20.15625 4.425781 20.207031 C 4.429688 20.324219 4.429688 20.445312 4.429688 20.5625 C 4.648438 20.363281 4.816406 20.125 4.992188 19.882812 C 5.273438 19.496094 5.558594 19.113281 5.851562 18.730469 C 6.175781 18.304688 6.492188 17.882812 6.808594 17.453125 C 6.835938 17.414062 6.867188 17.371094 6.894531 17.332031 C 6.921875 17.296875 6.949219 17.257812 6.976562 17.21875 C 7.046875 17.132812 7.113281 17.042969 7.1875 16.957031 C 7.28125 16.851562 7.28125 16.851562 7.273438 16.734375 C 6.558594 16.734375 5.875 17.203125 5.375 17.671875 Z M 8.394531 16.808594 C 8.367188 16.84375 8.339844 16.875 8.3125 16.914062 C 8.285156 16.953125 8.253906 16.988281 8.226562 17.03125 C 8.175781 17.09375 8.175781 17.09375 8.128906 17.164062 C 8.09375 17.203125 8.0625 17.25 8.023438 17.296875 C 7.921875 17.4375 7.816406 17.578125 7.710938 17.71875 C 7.679688 17.757812 7.648438 17.804688 7.617188 17.851562 C 7.488281 18.019531 7.363281 18.1875 7.242188 18.355469 C 7 18.683594 6.753906 19.007812 6.507812 19.332031 C 6.195312 19.746094 5.878906 20.160156 5.574219 20.582031 C 5.304688 20.945312 5.035156 21.300781 4.757812 21.65625 C 4.808594 21.742188 4.863281 21.835938 4.914062 21.921875 C 4.945312 21.964844 4.972656 22.015625 5.003906 22.066406 C 5.0625 22.167969 5.132812 22.265625 5.195312 22.367188 C 5.429688 22.28125 5.546875 22.109375 5.691406 21.914062 C 5.746094 21.847656 5.796875 21.773438 5.851562 21.707031 C 5.890625 21.652344 5.890625 21.652344 5.933594 21.597656 C 6.0625 21.433594 6.1875 21.273438 6.316406 21.109375 C 6.367188 21.046875 6.417969 20.980469 6.46875 20.917969 C 6.96875 20.28125 7.46875 19.640625 7.96875 19.003906 C 7.992188 18.972656 8.019531 18.941406 8.046875 18.90625 C 8.09375 18.84375 8.144531 18.78125 8.195312 18.71875 C 8.320312 18.558594 8.449219 18.394531 8.578125 18.230469 C 8.605469 18.195312 8.632812 18.164062 8.65625 18.132812 C 8.703125 18.066406 8.757812 18 8.808594 17.9375 C 8.996094 17.695312 9.191406 17.460938 9.386719 17.222656 C 9.46875 17.121094 9.46875 17.121094 9.460938 17.007812 C 9.335938 16.960938 9.214844 16.917969 9.09375 16.871094 C 9.054688 16.859375 9.023438 16.84375 8.988281 16.828125 C 8.679688 16.703125 8.679688 16.703125 8.394531 16.808594 Z M 10.226562 17.609375 C 9.875 17.996094 9.5625 18.421875 9.242188 18.835938 C 9.039062 19.109375 8.824219 19.378906 8.605469 19.648438 C 8.34375 19.960938 8.09375 20.28125 7.84375 20.609375 C 7.628906 20.890625 7.40625 21.167969 7.1875 21.445312 C 7.105469 21.550781 7.027344 21.652344 6.945312 21.75 C 6.910156 21.804688 6.910156 21.804688 6.867188 21.855469 C 6.816406 21.921875 6.765625 21.984375 6.710938 22.046875 C 6.597656 22.199219 6.476562 22.347656 6.351562 22.492188 C 6.21875 22.621094 6.21875 22.621094 6.234375 22.75 C 6.460938 22.757812 6.6875 22.769531 6.914062 22.773438 C 6.992188 22.777344 7.070312 22.777344 7.144531 22.78125 C 7.59375 22.8125 7.59375 22.8125 8.003906 22.667969 C 8.101562 22.554688 8.179688 22.441406 8.257812 22.3125 C 8.3125 22.238281 8.367188 22.167969 8.425781 22.097656 C 8.480469 22.023438 8.535156 21.949219 8.59375 21.875 C 8.835938 21.554688 9.082031 21.242188 9.332031 20.929688 C 9.589844 20.621094 9.835938 20.308594 10.082031 19.988281 C 10.195312 19.835938 10.3125 19.6875 10.425781 19.542969 C 10.464844 19.496094 10.5 19.449219 10.535156 19.40625 C 10.605469 19.320312 10.671875 19.226562 10.742188 19.140625 C 10.773438 19.101562 10.804688 19.058594 10.835938 19.015625 C 10.867188 18.980469 10.898438 18.949219 10.921875 18.90625 C 11 18.808594 11 18.808594 11.046875 18.648438 C 10.859375 18.265625 10.585938 17.910156 10.28125 17.609375 C 10.261719 17.609375 10.246094 17.609375 10.226562 17.609375 Z M 11.265625 19.90625 C 11.21875 19.960938 11.175781 20.019531 11.128906 20.078125 C 11.085938 20.132812 11.085938 20.132812 11.042969 20.195312 C 11.015625 20.234375 10.984375 20.273438 10.953125 20.316406 C 10.699219 20.644531 10.449219 20.96875 10.191406 21.289062 C 9.804688 21.761719 9.414062 22.234375 9.078125 22.75 C 9.25 22.757812 9.425781 22.769531 9.601562 22.773438 C 9.648438 22.777344 9.699219 22.78125 9.75 22.78125 C 9.953125 22.789062 10.109375 22.789062 10.285156 22.675781 C 10.386719 22.578125 10.46875 22.476562 10.554688 22.367188 C 10.578125 22.339844 10.601562 22.308594 10.628906 22.277344 C 11.171875 21.554688 11.378906 20.800781 11.320312 19.90625 C 11.300781 19.90625 11.285156 19.90625 11.265625 19.90625 Z M 1.804688 23.625 C 1.890625 24.492188 2.210938 25.109375 2.882812 25.671875 C 3.617188 26.1875 4.375 26.257812 5.246094 26.257812 C 5.308594 26.257812 5.375 26.257812 5.4375 26.257812 C 5.640625 26.257812 5.851562 26.257812 6.054688 26.257812 C 6.203125 26.257812 6.34375 26.257812 6.488281 26.257812 C 6.789062 26.257812 7.09375 26.257812 7.398438 26.257812 C 7.742188 26.257812 8.09375 26.257812 8.441406 26.265625 C 8.742188 26.265625 9.042969 26.265625 9.34375 26.265625 C 9.519531 26.265625 9.699219 26.265625 9.875 26.265625 C 11.171875 26.269531 12.246094 26.269531 13.234375 25.328125 C 13.671875 24.863281 13.945312 24.261719 13.945312 23.625 C 12.792969 23.625 11.632812 23.625 10.445312 23.625 C 10.445312 23.894531 10.445312 24.167969 10.445312 24.445312 C 10.328125 24.792969 10.148438 25.011719 9.84375 25.210938 C 9.632812 25.3125 9.464844 25.335938 9.234375 25.335938 C 9.167969 25.339844 9.101562 25.339844 9.03125 25.339844 C 8.964844 25.339844 8.890625 25.339844 8.820312 25.339844 C 8.742188 25.339844 8.667969 25.339844 8.59375 25.339844 C 8.4375 25.339844 8.28125 25.339844 8.125 25.339844 C 7.925781 25.339844 7.726562 25.34375 7.527344 25.34375 C 7.375 25.34375 7.21875 25.347656 7.0625 25.34375 C 6.960938 25.347656 6.851562 25.347656 6.742188 25.347656 C 6.292969 25.347656 5.980469 25.304688 5.632812 25.007812 C 5.597656 24.960938 5.597656 24.960938 5.558594 24.914062 C 5.519531 24.867188 5.519531 24.867188 5.484375 24.824219 C 5.214844 24.414062 5.304688 24.171875 5.304688 23.625 C 4.152344 23.625 2.992188 23.625 1.804688 23.625 Z M 6.234375 23.789062 C 6.15625 23.945312 6.160156 24.054688 6.179688 24.226562 C 6.304688 24.382812 6.375 24.4375 6.5625 24.5 C 6.648438 24.503906 6.730469 24.507812 6.816406 24.507812 C 6.867188 24.507812 6.917969 24.507812 6.972656 24.507812 C 7.027344 24.507812 7.082031 24.507812 7.140625 24.507812 C 7.226562 24.515625 7.226562 24.515625 7.3125 24.515625 C 7.4375 24.515625 7.554688 24.515625 7.679688 24.515625 C 7.859375 24.515625 8.046875 24.515625 8.234375 24.519531 C 8.351562 24.519531 8.46875 24.519531 8.585938 24.519531 C 8.667969 24.519531 8.667969 24.519531 8.753906 24.519531 C 9.046875 24.519531 9.265625 24.503906 9.515625 24.335938 C 9.59375 24.179688 9.589844 24.070312 9.570312 23.898438 C 9.445312 23.742188 9.375 23.6875 9.1875 23.625 C 9.101562 23.621094 9.019531 23.617188 8.933594 23.617188 C 8.855469 23.617188 8.855469 23.617188 8.777344 23.617188 C 8.722656 23.617188 8.667969 23.617188 8.609375 23.617188 C 8.523438 23.609375 8.523438 23.609375 8.4375 23.609375 C 8.3125 23.609375 8.195312 23.609375 8.070312 23.609375 C 7.890625 23.609375 7.703125 23.609375 7.515625 23.605469 C 7.398438 23.605469 7.28125 23.605469 7.164062 23.605469 C 7.109375 23.605469 7.054688 23.605469 6.996094 23.605469 C 6.703125 23.605469 6.484375 23.621094 6.234375 23.789062 Z M 6.234375 23.789062 "/>
<path style=" stroke:none;fill-rule:nonzero;fill:#dc2626;fill-opacity:1;" d="M 26.476562 3.027344 C 26.851562 3.351562 27.09375 3.660156 27.144531 4.160156 C 27.15625 4.542969 27.132812 4.835938 26.992188 5.195312 C 26.980469 5.230469 26.964844 5.269531 26.953125 5.304688 C 26.898438 5.433594 26.847656 5.558594 26.796875 5.6875 C 26.757812 5.792969 26.714844 5.898438 26.671875 5.996094 C 26.515625 6.40625 26.351562 6.8125 26.1875 7.21875 C 26.117188 7.390625 26.050781 7.570312 25.980469 7.742188 C 25.957031 7.796875 25.9375 7.847656 25.914062 7.902344 C 25.894531 7.953125 25.875 8.003906 25.851562 8.054688 C 25.835938 8.097656 25.820312 8.140625 25.804688 8.183594 C 25.71875 8.4375 25.695312 8.667969 25.6875 8.929688 C 25.6875 8.996094 25.6875 9.0625 25.6875 9.132812 C 25.683594 9.167969 25.683594 9.207031 25.683594 9.246094 C 25.65625 10.59375 25.535156 11.9375 25.355469 13.273438 C 25.351562 13.328125 25.351562 13.328125 25.34375 13.390625 C 25.289062 13.804688 25.230469 14.214844 25.132812 14.621094 C 24.875 15.765625 24.835938 16.863281 24.84375 18.03125 C 24.84375 18.289062 24.84375 18.546875 24.84375 18.808594 C 24.84375 19.296875 24.84375 19.78125 24.84375 20.269531 C 24.84375 21.144531 24.84375 22.019531 24.84375 22.894531 C 24.835938 23.203125 24.835938 23.511719 24.84375 23.816406 C 24.84375 24.007812 24.84375 24.195312 24.84375 24.386719 C 24.84375 24.472656 24.84375 24.558594 24.84375 24.648438 C 24.847656 25.347656 24.847656 26.007812 24.390625 26.578125 C 23.945312 27.015625 23.53125 27.152344 22.910156 27.148438 C 22.59375 27.140625 22.359375 27.074219 22.09375 26.90625 C 22.0625 26.886719 22.023438 26.871094 21.988281 26.847656 C 21.609375 26.609375 21.390625 26.234375 21.273438 25.8125 C 21.257812 25.628906 21.257812 25.628906 21.257812 25.425781 C 21.257812 25.390625 21.257812 25.351562 21.257812 25.3125 C 21.257812 25.183594 21.265625 25.0625 21.265625 24.933594 C 21.265625 24.84375 21.265625 24.753906 21.265625 24.664062 C 21.265625 24.46875 21.265625 24.273438 21.265625 24.078125 C 21.265625 23.765625 21.265625 23.457031 21.265625 23.148438 C 21.265625 23.039062 21.265625 22.933594 21.265625 22.824219 C 21.265625 22.742188 21.265625 22.742188 21.265625 22.660156 C 21.265625 21.9375 21.265625 21.214844 21.269531 20.488281 C 21.269531 20 21.273438 19.515625 21.269531 19.027344 C 21.269531 18.765625 21.269531 18.511719 21.273438 18.25 C 21.28125 16.894531 21.140625 15.632812 20.863281 14.300781 C 20.636719 13.203125 20.523438 12.058594 20.4375 10.941406 C 20.433594 10.890625 20.429688 10.84375 20.429688 10.789062 C 20.40625 10.46875 20.398438 10.148438 20.40625 9.824219 C 20.425781 8.667969 20.171875 7.765625 19.710938 6.707031 C 19.625 6.515625 19.546875 6.320312 19.464844 6.128906 C 19.324219 5.789062 19.179688 5.449219 19.035156 5.113281 C 18.871094 4.722656 18.859375 4.257812 18.957031 3.847656 C 19.265625 3.097656 19.976562 2.714844 20.6875 2.410156 C 22.570312 1.675781 24.8125 1.796875 26.476562 3.027344 Z M 19.941406 3.972656 C 19.800781 4.261719 19.8125 4.511719 19.902344 4.8125 C 19.96875 5 20.046875 5.1875 20.125 5.375 C 20.152344 5.441406 20.179688 5.515625 20.207031 5.582031 C 20.285156 5.761719 20.359375 5.941406 20.429688 6.121094 C 20.507812 6.304688 20.582031 6.488281 20.65625 6.671875 C 20.894531 7.277344 20.894531 7.277344 21.164062 7.875 C 21.453125 7.875 21.742188 7.875 22.039062 7.875 C 22.019531 7.78125 22 7.683594 21.980469 7.582031 C 21.953125 7.457031 21.929688 7.328125 21.902344 7.199219 C 21.890625 7.136719 21.875 7.074219 21.859375 7.003906 C 21.707031 6.214844 21.707031 6.214844 21.765625 5.90625 C 21.859375 5.789062 21.914062 5.746094 22.058594 5.695312 C 22.25 5.683594 22.320312 5.6875 22.476562 5.796875 C 22.65625 6.21875 22.722656 6.699219 22.8125 7.144531 C 22.832031 7.214844 22.84375 7.28125 22.859375 7.355469 C 22.894531 7.527344 22.933594 7.703125 22.96875 7.875 C 23.003906 7.875 23.042969 7.875 23.078125 7.875 C 23.09375 7.8125 23.09375 7.8125 23.105469 7.742188 C 23.148438 7.542969 23.1875 7.34375 23.234375 7.144531 C 23.246094 7.074219 23.261719 7.003906 23.273438 6.9375 C 23.335938 6.632812 23.40625 6.324219 23.488281 6.023438 C 23.496094 5.984375 23.511719 5.941406 23.523438 5.898438 C 23.570312 5.796875 23.570312 5.796875 23.753906 5.703125 C 24.0625 5.679688 24.0625 5.679688 24.226562 5.796875 C 24.339844 6.089844 24.335938 6.285156 24.277344 6.589844 C 24.265625 6.625 24.257812 6.664062 24.253906 6.699219 C 24.226562 6.816406 24.203125 6.9375 24.179688 7.050781 C 24.164062 7.132812 24.144531 7.210938 24.132812 7.292969 C 24.089844 7.488281 24.046875 7.679688 24.007812 7.875 C 24.296875 7.875 24.585938 7.875 24.882812 7.875 C 25.148438 7.300781 25.382812 6.722656 25.621094 6.132812 C 25.671875 6.015625 25.71875 5.890625 25.765625 5.773438 C 25.839844 5.601562 25.90625 5.421875 25.976562 5.25 C 26 5.195312 26.023438 5.144531 26.046875 5.089844 C 26.167969 4.777344 26.25 4.492188 26.195312 4.15625 C 25.917969 3.589844 25.183594 3.320312 24.613281 3.132812 C 23.191406 2.679688 21.007812 2.761719 19.941406 3.972656 Z M 21.328125 8.75 C 21.324219 9.929688 21.324219 9.929688 21.390625 11.101562 C 21.398438 11.160156 21.398438 11.160156 21.402344 11.21875 C 21.53125 12.742188 21.757812 14.257812 22.09375 15.75 C 22.710938 15.75 23.320312 15.75 23.953125 15.75 C 24.117188 14.992188 24.261719 14.242188 24.382812 13.476562 C 24.386719 13.4375 24.390625 13.398438 24.398438 13.359375 C 24.417969 13.242188 24.429688 13.132812 24.449219 13.019531 C 24.464844 12.921875 24.464844 12.921875 24.476562 12.820312 C 24.5 12.628906 24.503906 12.441406 24.5 12.25 C 24.464844 12.25 24.425781 12.25 24.386719 12.246094 C 24.21875 12.246094 24.046875 12.234375 23.878906 12.230469 C 23.792969 12.230469 23.792969 12.230469 23.703125 12.226562 C 23.648438 12.226562 23.59375 12.226562 23.535156 12.222656 C 23.484375 12.222656 23.429688 12.222656 23.375 12.21875 C 23.21875 12.191406 23.167969 12.15625 23.078125 12.03125 C 23.054688 11.925781 23.054688 11.925781 23.058594 11.8125 C 23.054688 11.777344 23.054688 11.738281 23.054688 11.699219 C 23.085938 11.558594 23.128906 11.515625 23.242188 11.429688 C 23.386719 11.40625 23.386719 11.40625 23.554688 11.402344 C 23.621094 11.398438 23.679688 11.398438 23.742188 11.398438 C 23.808594 11.394531 23.871094 11.394531 23.933594 11.394531 C 24 11.390625 24.066406 11.390625 24.132812 11.390625 C 24.289062 11.382812 24.449219 11.378906 24.609375 11.375 C 24.722656 10.492188 24.71875 9.652344 24.71875 8.75 C 23.597656 8.75 22.480469 8.75 21.328125 8.75 Z M 22.203125 16.625 C 22.199219 17.796875 22.195312 18.96875 22.195312 20.140625 C 22.1875 20.679688 22.1875 21.222656 22.183594 21.769531 C 22.183594 22.242188 22.183594 22.71875 22.179688 23.191406 C 22.179688 23.441406 22.179688 23.695312 22.179688 23.945312 C 22.179688 24.179688 22.175781 24.414062 22.179688 24.648438 C 22.179688 24.738281 22.175781 24.824219 22.175781 24.910156 C 22.175781 25.027344 22.175781 25.148438 22.175781 25.265625 C 22.175781 25.335938 22.175781 25.398438 22.175781 25.464844 C 22.21875 25.75 22.359375 25.917969 22.566406 26.105469 C 22.8125 26.226562 23.023438 26.242188 23.296875 26.195312 C 23.566406 26.066406 23.699219 25.902344 23.84375 25.648438 C 23.90625 25.457031 23.902344 25.269531 23.902344 25.070312 C 23.902344 25.03125 23.902344 24.996094 23.902344 24.960938 C 23.902344 24.835938 23.902344 24.71875 23.902344 24.59375 C 23.902344 24.507812 23.902344 24.421875 23.902344 24.335938 C 23.902344 24.097656 23.902344 23.867188 23.902344 23.628906 C 23.902344 23.382812 23.902344 23.136719 23.902344 22.890625 C 23.902344 22.425781 23.902344 21.957031 23.902344 21.492188 C 23.902344 20.964844 23.902344 20.429688 23.902344 19.902344 C 23.898438 18.808594 23.898438 17.71875 23.898438 16.625 C 23.335938 16.625 22.777344 16.625 22.203125 16.625 Z M 22.203125 16.625 "/>
<path style=" stroke:none;fill-rule:nonzero;fill:#dc2626;fill-opacity:1;" d="M 18.105469 13.953125 C 18.152344 13.972656 18.195312 13.984375 18.246094 14 C 18.785156 14.191406 19.242188 14.539062 19.53125 15.039062 C 19.722656 15.472656 19.714844 15.894531 19.710938 16.355469 C 19.710938 16.4375 19.710938 16.523438 19.707031 16.605469 C 19.707031 16.824219 19.707031 17.042969 19.703125 17.261719 C 19.703125 17.484375 19.703125 17.710938 19.695312 17.9375 C 19.695312 18.375 19.691406 18.8125 19.6875 19.25 C 19.738281 19.253906 19.792969 19.257812 19.84375 19.269531 C 20.015625 19.304688 20.015625 19.304688 20.125 19.46875 C 20.140625 19.605469 20.140625 19.605469 20.140625 19.769531 C 20.140625 19.832031 20.140625 19.890625 20.144531 19.960938 C 20.144531 20.03125 20.140625 20.097656 20.140625 20.164062 C 20.144531 20.238281 20.144531 20.3125 20.144531 20.382812 C 20.144531 20.585938 20.144531 20.78125 20.144531 20.980469 C 20.144531 21.144531 20.144531 21.308594 20.144531 21.472656 C 20.144531 21.867188 20.144531 22.257812 20.144531 22.644531 C 20.144531 23.050781 20.148438 23.453125 20.148438 23.851562 C 20.148438 24.199219 20.152344 24.546875 20.148438 24.890625 C 20.148438 25.097656 20.152344 25.300781 20.152344 25.511719 C 20.152344 25.703125 20.152344 25.898438 20.152344 26.09375 C 20.152344 26.199219 20.152344 26.304688 20.152344 26.410156 C 20.152344 26.472656 20.152344 26.53125 20.152344 26.601562 C 20.152344 26.652344 20.152344 26.707031 20.152344 26.765625 C 20.117188 26.945312 20.050781 27.011719 19.90625 27.125 C 19.734375 27.152344 19.734375 27.152344 19.523438 27.152344 C 19.464844 27.152344 19.464844 27.152344 19.410156 27.152344 C 19.28125 27.15625 19.160156 27.15625 19.03125 27.152344 C 18.945312 27.152344 18.859375 27.152344 18.765625 27.15625 C 18.585938 27.15625 18.402344 27.152344 18.21875 27.152344 C 17.984375 27.152344 17.75 27.152344 17.515625 27.152344 C 17.335938 27.15625 17.152344 27.15625 16.976562 27.152344 C 16.890625 27.152344 16.804688 27.152344 16.714844 27.15625 C 16.59375 27.15625 16.476562 27.152344 16.351562 27.152344 C 16.28125 27.152344 16.214844 27.152344 16.140625 27.152344 C 15.933594 27.121094 15.882812 27.070312 15.75 26.90625 C 15.722656 26.765625 15.722656 26.765625 15.722656 26.601562 C 15.722656 26.539062 15.722656 26.472656 15.71875 26.410156 C 15.722656 26.339844 15.722656 26.273438 15.722656 26.203125 C 15.722656 26.125 15.722656 26.054688 15.722656 25.980469 C 15.71875 25.785156 15.71875 25.589844 15.722656 25.390625 C 15.722656 25.183594 15.722656 24.972656 15.71875 24.769531 C 15.71875 24.417969 15.722656 24.070312 15.722656 23.726562 C 15.722656 23.320312 15.722656 22.917969 15.722656 22.515625 C 15.71875 22.171875 15.71875 21.824219 15.722656 21.484375 C 15.722656 21.273438 15.722656 21.070312 15.71875 20.863281 C 15.71875 20.667969 15.71875 20.476562 15.722656 20.28125 C 15.722656 20.175781 15.722656 20.070312 15.71875 19.964844 C 15.722656 19.902344 15.722656 19.84375 15.722656 19.773438 C 15.722656 19.71875 15.722656 19.667969 15.722656 19.609375 C 15.757812 19.429688 15.820312 19.359375 15.96875 19.25 C 16.042969 19.25 16.113281 19.25 16.1875 19.25 C 16.1875 19.191406 16.1875 19.132812 16.1875 19.066406 C 16.183594 18.507812 16.179688 17.945312 16.179688 17.386719 C 16.171875 17.097656 16.171875 16.8125 16.167969 16.523438 C 16.167969 16.242188 16.167969 15.964844 16.164062 15.6875 C 16.164062 15.582031 16.164062 15.476562 16.164062 15.367188 C 16.164062 15.222656 16.164062 15.070312 16.164062 14.921875 C 16.160156 14.855469 16.160156 14.855469 16.160156 14.789062 C 16.164062 14.421875 16.269531 14.191406 16.535156 13.925781 C 17.054688 13.601562 17.570312 13.761719 18.105469 13.953125 Z M 17.117188 14.710938 C 17.023438 14.804688 17.058594 14.929688 17.058594 15.058594 C 17.058594 15.097656 17.058594 15.140625 17.058594 15.183594 C 17.058594 15.226562 17.058594 15.273438 17.058594 15.316406 C 17.058594 15.460938 17.058594 15.609375 17.058594 15.75 C 17.058594 15.851562 17.058594 15.953125 17.058594 16.054688 C 17.058594 16.320312 17.058594 16.585938 17.058594 16.847656 C 17.058594 17.117188 17.058594 17.390625 17.058594 17.660156 C 17.0625 18.1875 17.0625 18.722656 17.0625 19.25 C 17.640625 19.25 18.214844 19.25 18.8125 19.25 C 18.816406 18.832031 18.816406 18.410156 18.816406 17.992188 C 18.816406 17.796875 18.820312 17.601562 18.820312 17.40625 C 18.820312 17.210938 18.820312 17.027344 18.820312 16.839844 C 18.820312 16.730469 18.828125 16.625 18.828125 16.519531 C 18.828125 16.046875 18.8125 15.617188 18.511719 15.230469 C 18.214844 14.933594 17.726562 14.816406 17.335938 14.710938 C 17.261719 14.710938 17.191406 14.710938 17.117188 14.710938 Z M 16.625 20.125 C 16.625 20.414062 16.625 20.703125 16.625 21 C 17.492188 21 18.355469 21 19.25 21 C 19.25 20.710938 19.25 20.421875 19.25 20.125 C 18.382812 20.125 17.519531 20.125 16.625 20.125 Z M 16.625 21.875 C 16.625 23.320312 16.625 24.765625 16.625 26.25 C 17.492188 26.25 18.355469 26.25 19.25 26.25 C 19.25 24.804688 19.25 23.359375 19.25 21.875 C 18.382812 21.875 17.519531 21.875 16.625 21.875 Z M 16.625 21.875 "/>
<path style=" stroke:none;fill-rule:nonzero;fill:#dc2626;fill-opacity:1;" d="M 10.71875 7.4375 C 10.910156 7.585938 10.996094 7.757812 11.09375 7.976562 C 11.402344 8.601562 11.828125 8.898438 12.449219 9.207031 C 12.632812 9.296875 12.632812 9.296875 12.6875 9.40625 C 12.71875 9.714844 12.71875 9.714844 12.6875 9.84375 C 12.515625 10.046875 12.324219 10.1875 12.09375 10.328125 C 11.546875 10.691406 11.246094 11.019531 10.933594 11.585938 C 10.828125 11.757812 10.828125 11.757812 10.71875 11.8125 C 10.320312 11.84375 10.320312 11.84375 10.167969 11.722656 C 10.054688 11.578125 9.972656 11.4375 9.890625 11.28125 C 9.585938 10.75 9.140625 10.460938 8.640625 10.136719 C 8.371094 9.960938 8.371094 9.960938 8.3125 9.84375 C 8.28125 9.445312 8.28125 9.445312 8.402344 9.292969 C 8.546875 9.171875 8.679688 9.105469 8.851562 9.03125 C 9.476562 8.722656 9.773438 8.296875 10.082031 7.675781 C 10.21875 7.402344 10.425781 7.378906 10.71875 7.4375 Z M 10.445312 8.914062 C 10.359375 9 10.359375 9 10.265625 9.113281 C 10.101562 9.3125 9.933594 9.46875 9.734375 9.625 C 9.796875 9.8125 9.847656 9.851562 10 9.976562 C 10.152344 10.109375 10.304688 10.246094 10.445312 10.390625 C 10.632812 10.3125 10.746094 10.207031 10.886719 10.0625 C 11.011719 9.933594 11.117188 9.835938 11.265625 9.734375 C 11.203125 9.546875 11.152344 9.507812 11 9.386719 C 10.828125 9.242188 10.695312 9.09375 10.554688 8.914062 C 10.519531 8.914062 10.480469 8.914062 10.445312 8.914062 Z M 10.445312 8.914062 "/>
<path style=" stroke:none;fill-rule:nonzero;fill:#dc2626;fill-opacity:1;" d="M 15.53125 4.8125 C 15.722656 4.960938 15.808594 5.132812 15.90625 5.351562 C 16.214844 5.976562 16.640625 6.273438 17.261719 6.582031 C 17.445312 6.671875 17.445312 6.671875 17.5 6.78125 C 17.53125 7.089844 17.53125 7.089844 17.5 7.21875 C 17.328125 7.421875 17.136719 7.5625 16.90625 7.703125 C 16.359375 8.066406 16.058594 8.394531 15.746094 8.960938 C 15.640625 9.132812 15.640625 9.132812 15.53125 9.1875 C 15.132812 9.21875 15.132812 9.21875 14.980469 9.097656 C 14.867188 8.953125 14.785156 8.8125 14.703125 8.65625 C 14.398438 8.125 13.953125 7.835938 13.453125 7.511719 C 13.183594 7.335938 13.183594 7.335938 13.125 7.21875 C 13.09375 6.820312 13.09375 6.820312 13.214844 6.667969 C 13.359375 6.546875 13.492188 6.480469 13.664062 6.40625 C 14.289062 6.097656 14.585938 5.671875 14.894531 5.050781 C 15.03125 4.777344 15.238281 4.753906 15.53125 4.8125 Z M 15.257812 6.289062 C 15.171875 6.375 15.171875 6.375 15.078125 6.488281 C 14.914062 6.6875 14.746094 6.84375 14.546875 7 C 14.609375 7.1875 14.660156 7.226562 14.8125 7.351562 C 14.964844 7.484375 15.117188 7.621094 15.257812 7.765625 C 15.445312 7.6875 15.558594 7.582031 15.699219 7.4375 C 15.824219 7.308594 15.929688 7.210938 16.078125 7.109375 C 16.015625 6.921875 15.964844 6.882812 15.8125 6.761719 C 15.640625 6.617188 15.507812 6.46875 15.367188 6.289062 C 15.332031 6.289062 15.292969 6.289062 15.257812 6.289062 Z M 15.257812 6.289062 "/>
<path style=" stroke:none;fill-rule:nonzero;fill:#dc2626;fill-opacity:1;" d="M 12.46875 0.875 C 12.660156 1.023438 12.746094 1.195312 12.84375 1.414062 C 13.152344 2.039062 13.578125 2.335938 14.199219 2.644531 C 14.382812 2.734375 14.382812 2.734375 14.4375 2.84375 C 14.46875 3.152344 14.46875 3.152344 14.4375 3.28125 C 14.265625 3.484375 14.074219 3.625 13.84375 3.765625 C 13.296875 4.128906 12.996094 4.457031 12.683594 5.023438 C 12.578125 5.195312 12.578125 5.195312 12.46875 5.25 C 12.070312 5.28125 12.070312 5.28125 11.917969 5.160156 C 11.804688 5.015625 11.722656 4.875 11.640625 4.71875 C 11.335938 4.1875 10.890625 3.898438 10.390625 3.574219 C 10.121094 3.398438 10.121094 3.398438 10.0625 3.28125 C 10.03125 2.882812 10.03125 2.882812 10.152344 2.730469 C 10.296875 2.609375 10.429688 2.542969 10.601562 2.46875 C 11.226562 2.160156 11.523438 1.734375 11.832031 1.113281 C 11.96875 0.839844 12.175781 0.816406 12.46875 0.875 Z M 12.195312 2.351562 C 12.109375 2.4375 12.109375 2.4375 12.015625 2.550781 C 11.851562 2.75 11.683594 2.90625 11.484375 3.0625 C 11.546875 3.25 11.597656 3.289062 11.75 3.414062 C 11.902344 3.546875 12.054688 3.683594 12.195312 3.828125 C 12.382812 3.75 12.496094 3.644531 12.636719 3.5 C 12.761719 3.371094 12.867188 3.273438 13.015625 3.171875 C 12.953125 2.984375 12.902344 2.945312 12.75 2.824219 C 12.578125 2.679688 12.445312 2.53125 12.304688 2.351562 C 12.269531 2.351562 12.230469 2.351562 12.195312 2.351562 Z M 12.195312 2.351562 "/>
</g>
</svg>
