<?xml version="1.0" encoding="UTF-8"?>
<svg xmlns="http://www.w3.org/2000/svg" xmlns:xlink="http://www.w3.org/1999/xlink" width="24" height="24" viewBox="0 0 28 28" version="1.1">
<g id="surface1">
<path style=" stroke:none;fill-rule:nonzero;fill:#dc2626;fill-opacity:1;" d="M 13.949219 -0.0195312 C 14.03125 -0.0195312 14.03125 -0.0195312 14.113281 -0.0195312 C 15.03125 -0.015625 15.910156 0.0273438 16.804688 0.246094 C 17.492188 0.445312 17.492188 0.445312 18.15625 0.296875 C 18.203125 0.265625 18.242188 0.234375 18.289062 0.199219 C 18.792969 -0.128906 19.601562 -0.0625 20.171875 0.0351562 C 20.972656 0.269531 21.621094 0.757812 22.039062 1.476562 C 22.199219 1.796875 22.3125 2.082031 22.339844 2.4375 C 22.398438 2.839844 22.742188 3.039062 23.046875 3.265625 C 23.160156 3.359375 23.273438 3.453125 23.382812 3.550781 C 23.414062 3.582031 23.453125 3.609375 23.484375 3.640625 C 23.570312 3.71875 23.570312 3.71875 23.671875 3.851562 C 23.847656 3.984375 24.027344 3.941406 24.242188 3.9375 C 24.882812 3.941406 25.402344 4.667969 25.820312 5.085938 C 25.847656 5.113281 25.882812 5.140625 25.90625 5.167969 C 26.058594 5.320312 26.210938 5.46875 26.355469 5.613281 C 26.507812 5.769531 26.664062 5.925781 26.820312 6.074219 C 26.9375 6.195312 27.054688 6.3125 27.175781 6.429688 C 27.230469 6.488281 27.289062 6.542969 27.34375 6.597656 C 27.425781 6.679688 27.503906 6.757812 27.585938 6.835938 C 27.625 6.882812 27.671875 6.925781 27.71875 6.972656 C 27.976562 7.277344 28.03125 7.542969 28.023438 7.933594 C 27.964844 8.367188 27.648438 8.621094 27.324219 8.894531 C 27.214844 9.019531 27.214844 9.019531 27.234375 9.191406 C 27.296875 9.46875 27.382812 9.742188 27.472656 10.015625 C 27.597656 10.445312 27.710938 10.878906 27.800781 11.320312 C 27.808594 11.359375 27.8125 11.40625 27.820312 11.449219 C 27.851562 11.589844 27.867188 11.726562 27.890625 11.867188 C 27.898438 11.925781 27.910156 11.992188 27.917969 12.054688 C 28.015625 12.691406 28.019531 13.328125 28.019531 13.976562 C 28.019531 14.03125 28.019531 14.085938 28.019531 14.144531 C 28.015625 14.949219 27.996094 15.726562 27.835938 16.515625 C 27.828125 16.5625 27.816406 16.601562 27.808594 16.652344 C 27.785156 16.78125 27.757812 16.90625 27.730469 17.039062 C 27.722656 17.078125 27.710938 17.113281 27.703125 17.148438 C 27.644531 17.394531 27.554688 17.578125 27.398438 17.773438 C 27.066406 17.976562 26.703125 17.890625 26.339844 17.804688 C 26.203125 17.769531 26.066406 17.734375 25.929688 17.691406 C 25.851562 17.671875 25.777344 17.648438 25.699219 17.632812 C 25.535156 17.585938 25.367188 17.539062 25.203125 17.496094 C 24.933594 17.421875 24.664062 17.351562 24.394531 17.277344 C 24.054688 17.1875 23.710938 17.09375 23.375 17.003906 C 22.660156 16.808594 21.949219 16.617188 21.234375 16.425781 C 21.117188 16.398438 21.003906 16.367188 20.886719 16.332031 C 20.710938 16.289062 20.539062 16.242188 20.367188 16.195312 C 18.835938 15.785156 17.308594 15.375 15.777344 14.960938 C 15.644531 14.925781 15.515625 14.894531 15.386719 14.855469 C 15.070312 14.769531 14.75 14.6875 14.4375 14.601562 C 14.4375 14.671875 14.4375 14.734375 14.4375 14.800781 C 14.441406 16.375 14.441406 17.945312 14.445312 19.519531 C 14.445312 19.710938 14.445312 19.90625 14.445312 20.097656 C 14.445312 20.132812 14.445312 20.175781 14.445312 20.214844 C 14.445312 20.835938 14.445312 21.460938 14.453125 22.085938 C 14.453125 22.726562 14.453125 23.367188 14.453125 24.003906 C 14.453125 24.363281 14.457031 24.722656 14.457031 25.082031 C 14.457031 25.421875 14.457031 25.757812 14.457031 26.101562 C 14.457031 26.222656 14.457031 26.34375 14.457031 26.46875 C 14.457031 26.636719 14.457031 26.8125 14.457031 26.980469 C 14.457031 27.03125 14.460938 27.074219 14.460938 27.128906 C 14.457031 27.402344 14.429688 27.59375 14.273438 27.835938 C 14.03125 28.050781 13.753906 28.027344 13.449219 28.023438 C 13.394531 28.023438 13.339844 28.023438 13.285156 28.023438 C 9.984375 27.953125 6.746094 26.488281 4.375 24.226562 C 4.320312 24.167969 4.265625 24.109375 4.210938 24.054688 C 3.898438 23.675781 3.898438 23.675781 3.453125 23.515625 C 3.414062 23.515625 3.371094 23.515625 3.332031 23.515625 C 3.136719 23.515625 3.042969 23.425781 2.898438 23.296875 C 2.53125 22.828125 2.210938 22.320312 1.878906 21.824219 C 1.535156 21.304688 1.1875 20.785156 0.824219 20.28125 C 0.351562 19.613281 -0.0234375 18.960938 -0.0195312 18.125 C -0.0234375 18.078125 -0.0234375 18.027344 -0.0234375 17.976562 C -0.0195312 17.6875 0.0195312 17.445312 0.117188 17.167969 C 0.269531 16.726562 0.179688 16.332031 0.078125 15.890625 C 0.0078125 15.5 -0.0078125 15.109375 -0.015625 14.714844 C -0.015625 14.660156 -0.015625 14.609375 -0.015625 14.5625 C -0.0273438 12.789062 0.0742188 11.027344 0.738281 9.359375 C 0.773438 9.242188 0.773438 9.242188 0.734375 9.132812 C 0.632812 8.988281 0.511719 8.875 0.382812 8.75 C 0.148438 8.53125 0.015625 8.394531 -0.0195312 8.074219 C 0.015625 7.714844 0.1875 7.507812 0.433594 7.253906 C 0.460938 7.226562 0.488281 7.199219 0.515625 7.171875 C 0.605469 7.082031 0.695312 6.996094 0.785156 6.90625 C 0.851562 6.839844 0.914062 6.773438 0.980469 6.707031 C 1.15625 6.53125 1.332031 6.359375 1.507812 6.179688 C 1.691406 5.996094 1.878906 5.8125 2.058594 5.628906 C 2.371094 5.320312 2.679688 5.007812 2.988281 4.703125 C 3.34375 4.34375 3.703125 3.988281 4.0625 3.628906 C 4.367188 3.320312 4.675781 3.011719 4.980469 2.707031 C 5.164062 2.523438 5.351562 2.34375 5.53125 2.15625 C 5.707031 1.984375 5.875 1.8125 6.046875 1.640625 C 6.109375 1.578125 6.175781 1.511719 6.238281 1.449219 C 6.324219 1.363281 6.414062 1.277344 6.5 1.195312 C 6.546875 1.144531 6.59375 1.09375 6.644531 1.042969 C 6.839844 0.878906 6.992188 0.828125 7.242188 0.800781 C 7.578125 0.835938 7.785156 1.054688 8.039062 1.257812 C 8.074219 1.242188 8.109375 1.230469 8.144531 1.210938 C 9.351562 0.707031 10.570312 0.304688 11.867188 0.109375 C 11.925781 0.101562 11.992188 0.0898438 12.054688 0.0820312 C 12.6875 -0.0078125 13.3125 -0.0195312 13.949219 -0.0195312 Z M 8.695312 1.96875 C 8.972656 2.304688 9.277344 2.617188 9.589844 2.921875 C 9.640625 2.972656 9.6875 3.023438 9.738281 3.078125 C 9.789062 3.121094 9.835938 3.171875 9.882812 3.21875 C 9.925781 3.261719 9.972656 3.304688 10.015625 3.351562 C 10.097656 3.449219 10.097656 3.449219 10.171875 3.445312 C 10.171875 3.390625 10.175781 3.335938 10.175781 3.277344 C 10.179688 3.203125 10.179688 3.132812 10.1875 3.054688 C 10.1875 3.023438 10.1875 2.984375 10.191406 2.945312 C 10.199219 2.671875 10.265625 2.507812 10.445312 2.296875 C 10.765625 2.132812 11.101562 2.167969 11.453125 2.167969 C 11.554688 2.167969 11.554688 2.167969 11.652344 2.167969 C 11.722656 2.167969 11.785156 2.167969 11.847656 2.167969 C 11.90625 2.167969 11.96875 2.167969 12.027344 2.167969 C 12.226562 2.191406 12.355469 2.238281 12.523438 2.351562 C 12.664062 2.585938 12.707031 2.75 12.703125 3.015625 C 12.695312 3.082031 12.695312 3.148438 12.695312 3.210938 C 12.691406 3.316406 12.691406 3.316406 12.6875 3.425781 C 12.6875 3.535156 12.6875 3.648438 12.683594 3.757812 C 12.683594 4.03125 12.679688 4.304688 12.667969 4.578125 C 12.601562 5.59375 12.601562 5.59375 13.019531 6.460938 C 13.261719 6.707031 13.261719 6.707031 13.5625 6.835938 C 13.5625 4.867188 13.5625 2.902344 13.5625 0.875 C 11.917969 0.875 10.167969 1.203125 8.695312 1.96875 Z M 14.4375 0.875 C 14.4375 2.515625 14.4375 4.160156 14.4375 5.851562 C 14.796875 5.550781 14.796875 5.550781 15.003906 5.1875 C 15.03125 5.132812 15.058594 5.078125 15.085938 5.023438 C 15.171875 4.816406 15.207031 4.628906 15.226562 4.40625 C 15.328125 3.253906 15.625 2.519531 16.460938 1.695312 C 16.488281 1.667969 16.515625 1.640625 16.546875 1.613281 C 16.625 1.535156 16.703125 1.457031 16.785156 1.382812 C 16.914062 1.273438 16.914062 1.273438 16.898438 1.148438 C 16.710938 1.113281 16.519531 1.074219 16.332031 1.042969 C 16.25 1.023438 16.25 1.023438 16.167969 1.011719 C 15.582031 0.902344 15.042969 0.875 14.4375 0.875 Z M 17.304688 2.039062 C 17.21875 2.125 17.132812 2.207031 17.039062 2.292969 C 16.40625 2.921875 16.097656 3.5 16.054688 4.398438 C 16 5.363281 15.578125 6.035156 14.875 6.671875 C 14.839844 6.695312 14.800781 6.71875 14.761719 6.742188 C 14.621094 6.835938 14.53125 6.910156 14.4375 7.054688 C 14.382812 7.375 14.398438 7.683594 14.410156 8.007812 C 14.410156 8.097656 14.414062 8.183594 14.414062 8.273438 C 14.417969 8.484375 14.429688 8.699219 14.4375 8.914062 C 14.835938 8.515625 15.21875 8.113281 15.566406 7.675781 C 16.132812 6.972656 16.757812 6.433594 17.6875 6.328125 C 17.835938 6.316406 17.984375 6.304688 18.132812 6.292969 C 18.898438 6.230469 19.367188 6.007812 19.914062 5.460938 C 20.035156 5.339844 20.15625 5.226562 20.273438 5.109375 C 20.371094 5.015625 20.460938 4.925781 20.554688 4.835938 C 20.597656 4.792969 20.644531 4.753906 20.691406 4.707031 C 21.199219 4.203125 21.507812 3.699219 21.511719 2.960938 C 21.511719 2.378906 21.320312 1.929688 20.921875 1.496094 C 20.382812 1.003906 19.921875 0.847656 19.199219 0.859375 C 18.390625 0.898438 17.847656 1.496094 17.304688 2.039062 Z M 7.054688 1.898438 C 6.984375 1.96875 6.984375 1.96875 6.917969 2.039062 C 6.875 2.078125 6.875 2.078125 6.839844 2.113281 C 6.753906 2.203125 6.667969 2.289062 6.585938 2.371094 C 6.523438 2.433594 6.460938 2.492188 6.402344 2.554688 C 6.234375 2.71875 6.070312 2.882812 5.90625 3.054688 C 5.734375 3.226562 5.558594 3.398438 5.386719 3.574219 C 5.058594 3.902344 4.730469 4.230469 4.402344 4.558594 C 4.03125 4.929688 3.660156 5.304688 3.285156 5.679688 C 2.519531 6.449219 1.75 7.214844 0.984375 7.984375 C 1.066406 8.15625 1.152344 8.277344 1.292969 8.40625 C 1.328125 8.441406 1.363281 8.476562 1.394531 8.507812 C 1.421875 8.535156 1.449219 8.558594 1.476562 8.585938 C 1.636719 8.511719 1.75 8.4375 1.875 8.308594 C 1.910156 8.277344 1.941406 8.242188 1.976562 8.207031 C 2.007812 8.171875 2.046875 8.132812 2.082031 8.097656 C 2.117188 8.0625 2.15625 8.019531 2.195312 7.984375 C 2.316406 7.867188 2.433594 7.742188 2.550781 7.625 C 2.664062 7.507812 2.785156 7.386719 2.902344 7.269531 C 2.980469 7.191406 3.054688 7.117188 3.125 7.039062 C 3.15625 7.007812 3.191406 6.976562 3.226562 6.941406 C 3.253906 6.914062 3.285156 6.882812 3.3125 6.851562 C 3.429688 6.746094 3.5 6.726562 3.65625 6.707031 C 3.828125 6.726562 3.828125 6.726562 3.957031 6.816406 C 4.046875 6.945312 4.046875 6.945312 4.082031 7.09375 C 4.011719 7.4375 3.742188 7.652344 3.476562 7.859375 C 3.121094 8.152344 2.863281 8.40625 2.816406 8.882812 C 2.808594 9.140625 2.8125 9.402344 2.824219 9.664062 C 2.824219 9.773438 2.824219 9.890625 2.824219 10.003906 C 2.828125 10.300781 2.839844 10.589844 2.84375 10.886719 C 2.851562 11.242188 2.859375 11.597656 2.863281 11.953125 C 2.871094 12.488281 2.882812 13.023438 2.898438 13.5625 C 3.617188 13.5625 4.34375 13.5625 5.085938 13.5625 C 5.089844 13.066406 5.089844 13.066406 5.09375 12.554688 C 5.09375 12.34375 5.101562 12.136719 5.101562 11.921875 C 5.105469 11.589844 5.109375 11.257812 5.109375 10.917969 C 5.113281 10.648438 5.113281 10.382812 5.117188 10.113281 C 5.117188 10.007812 5.117188 9.90625 5.117188 9.804688 C 5.117188 9.660156 5.121094 9.515625 5.121094 9.371094 C 5.121094 9.328125 5.121094 9.289062 5.121094 9.242188 C 5.132812 8.828125 5.132812 8.828125 5.25 8.640625 C 5.46875 8.535156 5.667969 8.515625 5.910156 8.515625 C 5.976562 8.511719 6.039062 8.511719 6.105469 8.511719 C 6.175781 8.511719 6.242188 8.511719 6.316406 8.511719 C 6.390625 8.511719 6.457031 8.511719 6.535156 8.511719 C 6.6875 8.511719 6.835938 8.511719 6.984375 8.511719 C 7.179688 8.511719 7.375 8.507812 7.566406 8.507812 C 7.75 8.503906 7.933594 8.503906 8.121094 8.503906 C 8.226562 8.503906 8.226562 8.503906 8.332031 8.503906 C 8.945312 8.507812 8.945312 8.507812 9.1875 8.75 C 9.3125 8.984375 9.316406 9.210938 9.316406 9.46875 C 9.316406 9.539062 9.316406 9.539062 9.316406 9.605469 C 9.320312 9.753906 9.320312 9.898438 9.320312 10.042969 C 9.320312 10.144531 9.320312 10.246094 9.324219 10.34375 C 9.324219 10.613281 9.328125 10.878906 9.328125 11.148438 C 9.332031 11.464844 9.335938 11.785156 9.335938 12.105469 C 9.34375 12.59375 9.347656 13.074219 9.351562 13.5625 C 10.089844 13.5625 10.832031 13.5625 11.59375 13.5625 C 11.710938 12.8125 11.8125 12.078125 11.863281 11.316406 C 11.867188 11.234375 11.867188 11.234375 11.875 11.148438 C 11.960938 9.671875 11.765625 8.527344 10.773438 7.390625 C 10.351562 6.921875 9.898438 6.484375 9.433594 6.054688 C 9.382812 6.011719 9.328125 5.960938 9.277344 5.914062 C 8.625 5.324219 7.960938 4.757812 7.273438 4.210938 C 7.109375 4.289062 7 4.359375 6.871094 4.492188 C 6.839844 4.523438 6.804688 4.5625 6.773438 4.597656 C 6.734375 4.632812 6.699219 4.671875 6.65625 4.710938 C 6.582031 4.789062 6.503906 4.871094 6.425781 4.949219 C 6.304688 5.070312 6.183594 5.199219 6.0625 5.324219 C 5.941406 5.445312 5.824219 5.5625 5.707031 5.6875 C 5.667969 5.722656 5.632812 5.761719 5.597656 5.800781 C 5.277344 6.125 5.277344 6.125 5.03125 6.125 C 4.871094 6.085938 4.785156 6.050781 4.683594 5.921875 C 4.632812 5.75 4.664062 5.636719 4.703125 5.46875 C 4.792969 5.34375 4.792969 5.34375 4.914062 5.226562 C 4.957031 5.179688 5.003906 5.136719 5.050781 5.089844 C 5.09375 5.046875 5.144531 4.996094 5.195312 4.949219 C 5.246094 4.898438 5.296875 4.847656 5.34375 4.796875 C 5.476562 4.667969 5.609375 4.539062 5.738281 4.410156 C 5.847656 4.300781 5.957031 4.195312 6.0625 4.09375 C 6.285156 3.867188 6.503906 3.648438 6.726562 3.429688 C 6.765625 3.394531 6.808594 3.355469 6.851562 3.316406 C 6.96875 3.207031 7.035156 3.175781 7.195312 3.144531 C 7.640625 3.207031 8.023438 3.75 8.332031 4.0625 C 8.382812 4.109375 8.429688 4.15625 8.480469 4.210938 C 8.613281 4.34375 8.746094 4.476562 8.882812 4.609375 C 9.019531 4.75 9.160156 4.890625 9.300781 5.03125 C 9.566406 5.296875 9.828125 5.558594 10.09375 5.824219 C 10.394531 6.125 10.695312 6.425781 10.996094 6.726562 C 11.617188 7.347656 12.230469 7.964844 12.851562 8.585938 C 13.023438 8.503906 13.144531 8.417969 13.273438 8.277344 C 13.324219 8.226562 13.324219 8.226562 13.375 8.175781 C 13.402344 8.148438 13.425781 8.121094 13.453125 8.09375 C 13.371094 7.898438 13.253906 7.769531 13.101562 7.621094 C 13.074219 7.59375 13.050781 7.570312 13.023438 7.542969 C 12.941406 7.460938 12.859375 7.378906 12.773438 7.292969 C 12.714844 7.234375 12.65625 7.171875 12.597656 7.113281 C 12.4375 6.949219 12.273438 6.789062 12.109375 6.625 C 11.941406 6.457031 11.773438 6.289062 11.601562 6.121094 C 11.316406 5.832031 11.03125 5.550781 10.746094 5.265625 C 10.417969 4.9375 10.089844 4.609375 9.761719 4.273438 C 9.480469 3.992188 9.195312 3.710938 8.914062 3.425781 C 8.746094 3.257812 8.578125 3.089844 8.402344 2.921875 C 8.25 2.761719 8.089844 2.605469 7.929688 2.445312 C 7.871094 2.386719 7.8125 2.328125 7.757812 2.269531 C 7.675781 2.191406 7.597656 2.113281 7.515625 2.03125 C 7.472656 1.988281 7.429688 1.945312 7.382812 1.898438 C 7.234375 1.769531 7.199219 1.773438 7.054688 1.898438 Z M 11.046875 3.007812 C 10.929688 3.863281 10.929688 3.863281 11.214844 4.632812 C 11.398438 4.832031 11.59375 4.992188 11.8125 5.140625 C 11.832031 5.140625 11.847656 5.140625 11.867188 5.140625 C 11.867188 4.4375 11.867188 3.734375 11.867188 3.007812 C 11.597656 3.007812 11.324219 3.007812 11.046875 3.007812 Z M 22.257812 3.773438 C 22.242188 3.8125 22.230469 3.855469 22.210938 3.898438 C 22.195312 3.953125 22.171875 4.007812 22.148438 4.066406 C 22.117188 4.148438 22.117188 4.148438 22.085938 4.230469 C 21.824219 4.789062 21.367188 5.234375 20.9375 5.664062 C 20.839844 5.761719 20.75 5.851562 20.65625 5.945312 C 19.933594 6.675781 19.191406 7.035156 18.160156 7.128906 C 17.304688 7.210938 16.78125 7.523438 16.234375 8.179688 C 16.152344 8.28125 16.070312 8.382812 15.992188 8.480469 C 15.851562 8.648438 15.703125 8.808594 15.558594 8.96875 C 15.320312 9.222656 15.097656 9.484375 14.882812 9.753906 C 14.765625 9.898438 14.765625 9.898438 14.683594 9.96875 C 14.464844 10.171875 14.414062 10.335938 14.402344 10.636719 C 14.402344 10.777344 14.402344 10.917969 14.40625 11.0625 C 14.40625 11.136719 14.40625 11.210938 14.40625 11.289062 C 14.410156 11.484375 14.410156 11.679688 14.414062 11.882812 C 14.417969 12.082031 14.417969 12.28125 14.417969 12.488281 C 14.421875 12.878906 14.429688 13.273438 14.4375 13.671875 C 14.597656 13.722656 14.757812 13.765625 14.914062 13.816406 C 14.960938 13.832031 15.007812 13.84375 15.054688 13.859375 C 15.117188 13.875 15.117188 13.875 15.183594 13.894531 C 15.242188 13.914062 15.242188 13.914062 15.308594 13.929688 C 15.453125 13.949219 15.515625 13.914062 15.640625 13.835938 C 15.734375 13.753906 15.828125 13.671875 15.917969 13.585938 C 16.214844 13.3125 16.523438 13.050781 16.84375 12.796875 C 16.890625 12.757812 16.9375 12.714844 16.984375 12.671875 C 17.167969 12.542969 17.28125 12.550781 17.5 12.578125 C 17.605469 12.632812 17.605469 12.632812 17.664062 12.742188 C 17.710938 13.109375 17.710938 13.109375 17.605469 13.269531 C 17.519531 13.359375 17.425781 13.433594 17.332031 13.515625 C 17.285156 13.558594 17.285156 13.558594 17.234375 13.597656 C 17.140625 13.679688 17.046875 13.757812 16.953125 13.835938 C 16.875 13.90625 16.792969 13.972656 16.714844 14.039062 C 16.644531 14.101562 16.644531 14.101562 16.570312 14.164062 C 16.617188 14.292969 16.617188 14.292969 16.78125 14.328125 C 16.878906 14.355469 16.878906 14.355469 16.980469 14.382812 C 17.015625 14.390625 17.054688 14.402344 17.089844 14.410156 C 17.167969 14.433594 17.242188 14.453125 17.316406 14.46875 C 17.4375 14.5 17.550781 14.53125 17.664062 14.566406 C 17.742188 14.582031 17.8125 14.605469 17.886719 14.625 C 17.957031 14.640625 18.019531 14.660156 18.09375 14.679688 C 18.257812 14.710938 18.335938 14.726562 18.484375 14.65625 C 18.597656 14.539062 18.703125 14.417969 18.808594 14.292969 C 18.871094 14.21875 18.9375 14.140625 19 14.070312 C 19.050781 14.007812 19.050781 14.007812 19.101562 13.949219 C 19.246094 13.773438 19.398438 13.597656 19.550781 13.425781 C 19.734375 13.214844 19.914062 13.007812 20.09375 12.796875 C 20.265625 12.597656 20.4375 12.394531 20.617188 12.195312 C 20.65625 12.148438 20.699219 12.105469 20.742188 12.054688 C 21.105469 11.667969 21.597656 11.402344 22.132812 11.367188 C 22.371094 11.355469 22.605469 11.355469 22.839844 11.351562 C 23.410156 11.34375 23.726562 11.21875 24.148438 10.832031 C 24.175781 10.804688 24.203125 10.777344 24.234375 10.75 C 24.722656 10.296875 25.195312 9.820312 25.675781 9.347656 C 25.796875 9.226562 25.921875 9.105469 26.046875 8.984375 C 26.195312 8.835938 26.34375 8.6875 26.492188 8.539062 C 26.550781 8.480469 26.605469 8.425781 26.664062 8.371094 C 26.742188 8.292969 26.824219 8.21875 26.902344 8.140625 C 26.945312 8.09375 26.988281 8.046875 27.039062 8.003906 C 27.140625 7.878906 27.140625 7.878906 27.117188 7.730469 C 27.0625 7.578125 26.992188 7.5 26.875 7.390625 C 26.84375 7.359375 26.804688 7.328125 26.769531 7.292969 C 26.726562 7.253906 26.726562 7.253906 26.6875 7.21875 C 26.488281 7.300781 26.359375 7.421875 26.210938 7.574219 C 26.1875 7.601562 26.160156 7.625 26.136719 7.652344 C 26.054688 7.734375 25.972656 7.816406 25.890625 7.898438 C 25.832031 7.957031 25.777344 8.011719 25.71875 8.070312 C 25.566406 8.222656 25.414062 8.371094 25.269531 8.523438 C 25.027344 8.769531 24.789062 9.007812 24.550781 9.25 C 24.464844 9.332031 24.382812 9.421875 24.296875 9.5 C 24.222656 9.578125 24.222656 9.578125 24.144531 9.65625 C 24.097656 9.703125 24.054688 9.75 24.007812 9.792969 C 23.871094 9.925781 23.820312 9.949219 23.632812 9.96875 C 23.460938 9.953125 23.460938 9.953125 23.332031 9.898438 C 23.214844 9.757812 23.21875 9.644531 23.222656 9.464844 C 23.257812 9.273438 23.359375 9.183594 23.492188 9.050781 C 23.519531 9.023438 23.546875 8.996094 23.574219 8.96875 C 23.660156 8.882812 23.753906 8.796875 23.839844 8.710938 C 23.902344 8.648438 23.960938 8.589844 24.027344 8.527344 C 24.1875 8.367188 24.34375 8.210938 24.507812 8.054688 C 24.679688 7.894531 24.84375 7.730469 25.007812 7.570312 C 25.328125 7.25 25.652344 6.929688 25.976562 6.617188 C 25.894531 6.445312 25.808594 6.324219 25.667969 6.195312 C 25.632812 6.160156 25.597656 6.125 25.566406 6.09375 C 25.523438 6.050781 25.523438 6.050781 25.484375 6.015625 C 25.285156 6.097656 25.15625 6.21875 25.007812 6.371094 C 24.984375 6.398438 24.957031 6.421875 24.933594 6.449219 C 24.851562 6.53125 24.769531 6.613281 24.6875 6.695312 C 24.628906 6.753906 24.574219 6.808594 24.515625 6.867188 C 24.363281 7.019531 24.210938 7.167969 24.066406 7.320312 C 23.824219 7.566406 23.585938 7.804688 23.347656 8.046875 C 23.261719 8.128906 23.179688 8.21875 23.09375 8.296875 C 23.019531 8.375 23.019531 8.375 22.941406 8.453125 C 22.894531 8.5 22.851562 8.546875 22.804688 8.589844 C 22.667969 8.71875 22.613281 8.746094 22.429688 8.769531 C 22.257812 8.75 22.257812 8.75 22.128906 8.664062 C 22.007812 8.480469 22.015625 8.367188 22.039062 8.148438 C 22.144531 8 22.144531 8 22.289062 7.851562 C 22.316406 7.828125 22.34375 7.800781 22.371094 7.773438 C 22.457031 7.683594 22.550781 7.597656 22.636719 7.515625 C 22.699219 7.453125 22.757812 7.390625 22.824219 7.332031 C 22.984375 7.171875 23.148438 7.015625 23.304688 6.855469 C 23.46875 6.695312 23.640625 6.53125 23.804688 6.367188 C 24.125 6.046875 24.449219 5.734375 24.773438 5.414062 C 24.6875 5.226562 24.59375 5.121094 24.4375 4.992188 C 24.375 4.941406 24.375 4.941406 24.316406 4.890625 C 24.289062 4.863281 24.257812 4.839844 24.226562 4.8125 C 23.851562 5.121094 23.511719 5.460938 23.167969 5.800781 C 23.136719 5.832031 23.105469 5.867188 23.070312 5.898438 C 22.898438 6.066406 22.730469 6.234375 22.5625 6.398438 C 22.425781 6.539062 22.285156 6.675781 22.148438 6.8125 C 21.980469 6.980469 21.8125 7.144531 21.640625 7.3125 C 21.578125 7.378906 21.515625 7.441406 21.453125 7.507812 C 20.96875 7.976562 20.636719 8.382812 20.617188 9.078125 C 20.621094 9.183594 20.621094 9.289062 20.625 9.390625 C 20.640625 10.082031 20.476562 10.628906 20.015625 11.15625 C 19.824219 11.347656 19.625 11.53125 19.414062 11.703125 C 19.375 11.738281 19.332031 11.777344 19.289062 11.8125 C 19.109375 11.960938 19.007812 12.027344 18.765625 12.058594 C 18.59375 12.03125 18.59375 12.03125 18.429688 11.921875 C 18.351562 11.742188 18.367188 11.609375 18.429688 11.429688 C 18.652344 11.148438 18.949219 10.921875 19.230469 10.703125 C 19.53125 10.464844 19.683594 10.207031 19.796875 9.84375 C 19.824219 9.59375 19.8125 9.347656 19.800781 9.097656 C 19.777344 8.339844 20.03125 7.804688 20.53125 7.257812 C 20.765625 7.003906 21.015625 6.761719 21.257812 6.515625 C 21.3125 6.460938 21.367188 6.40625 21.421875 6.351562 C 21.566406 6.210938 21.707031 6.070312 21.847656 5.929688 C 21.992188 5.789062 22.132812 5.640625 22.28125 5.496094 C 22.566406 5.214844 22.851562 4.929688 23.132812 4.648438 C 23.054688 4.488281 22.988281 4.382812 22.859375 4.265625 C 22.8125 4.21875 22.8125 4.21875 22.765625 4.179688 C 22.730469 4.148438 22.699219 4.121094 22.664062 4.085938 C 22.613281 4.042969 22.613281 4.042969 22.5625 3.996094 C 22.429688 3.84375 22.429688 3.84375 22.257812 3.773438 Z M 13.234375 9.460938 C 12.996094 9.578125 12.71875 9.511719 12.46875 9.460938 C 12.46875 10.8125 12.46875 12.167969 12.46875 13.5625 C 12.828125 13.5625 13.1875 13.5625 13.5625 13.5625 C 13.5625 12.136719 13.5625 10.710938 13.5625 9.242188 C 13.445312 9.242188 13.320312 9.386719 13.234375 9.460938 Z M 5.960938 9.351562 C 5.960938 10.742188 5.960938 12.132812 5.960938 13.5625 C 6.789062 13.5625 7.621094 13.5625 8.476562 13.5625 C 8.476562 12.171875 8.476562 10.78125 8.476562 9.351562 C 7.648438 9.351562 6.816406 9.351562 5.960938 9.351562 Z M 1.585938 9.570312 C 1.484375 9.761719 1.4375 9.960938 1.386719 10.171875 C 1.367188 10.230469 1.351562 10.289062 1.335938 10.351562 C 1.289062 10.527344 1.242188 10.703125 1.203125 10.882812 C 1.1875 10.933594 1.179688 10.976562 1.167969 11.03125 C 0.964844 11.867188 0.855469 12.703125 0.875 13.5625 C 1.253906 13.5625 1.632812 13.5625 2.023438 13.5625 C 2.023438 12.191406 2.023438 10.820312 2.023438 9.40625 C 1.855469 9.40625 1.71875 9.46875 1.585938 9.570312 Z M 26.339844 9.851562 C 26.3125 9.882812 26.28125 9.917969 26.25 9.949219 C 26.21875 9.984375 26.179688 10.015625 26.148438 10.054688 C 26.109375 10.09375 26.070312 10.132812 26.035156 10.171875 C 25.953125 10.25 25.875 10.332031 25.796875 10.414062 C 25.671875 10.539062 25.546875 10.664062 25.421875 10.792969 C 24.121094 12.125 24.121094 12.125 23.128906 12.160156 C 22.949219 12.164062 22.777344 12.160156 22.601562 12.160156 C 22.121094 12.167969 21.78125 12.285156 21.402344 12.582031 C 21.351562 12.636719 21.351562 12.636719 21.296875 12.695312 C 21.238281 12.761719 21.238281 12.761719 21.171875 12.824219 C 21.007812 13.011719 20.851562 13.207031 20.695312 13.402344 C 20.554688 13.570312 20.40625 13.730469 20.261719 13.890625 C 19.9375 14.238281 19.625 14.59375 19.359375 14.984375 C 20.152344 15.210938 20.949219 15.4375 21.75 15.648438 C 21.867188 15.675781 21.984375 15.710938 22.097656 15.742188 C 22.398438 15.824219 22.699219 15.898438 22.996094 15.984375 C 23.300781 16.0625 23.605469 16.148438 23.914062 16.222656 C 24.253906 16.320312 24.59375 16.410156 24.941406 16.5 C 24.992188 16.515625 25.042969 16.53125 25.097656 16.542969 C 25.195312 16.570312 25.296875 16.597656 25.398438 16.625 C 25.621094 16.683594 25.839844 16.742188 26.0625 16.804688 C 26.101562 16.816406 26.136719 16.824219 26.175781 16.839844 C 26.277344 16.867188 26.375 16.894531 26.472656 16.921875 C 26.628906 16.953125 26.707031 16.953125 26.851562 16.898438 C 26.886719 16.707031 26.925781 16.519531 26.957031 16.328125 C 26.976562 16.246094 26.976562 16.246094 26.988281 16.164062 C 27 16.085938 27 16.085938 27.015625 16.003906 C 27.023438 15.960938 27.035156 15.910156 27.042969 15.859375 C 27.105469 15.46875 27.132812 15.078125 27.132812 14.683594 C 27.140625 14.609375 27.140625 14.609375 27.140625 14.539062 C 27.152344 13.085938 27.152344 13.085938 26.960938 11.648438 C 26.945312 11.589844 26.9375 11.53125 26.925781 11.46875 C 26.746094 10.613281 26.746094 10.613281 26.46875 9.789062 C 26.40625 9.785156 26.40625 9.785156 26.339844 9.851562 Z M 0.875 14.4375 C 0.867188 15.035156 0.867188 15.035156 0.929688 15.605469 C 0.9375 15.664062 0.949219 15.722656 0.960938 15.785156 C 0.964844 15.828125 0.976562 15.867188 0.984375 15.914062 C 1.046875 15.878906 1.046875 15.878906 1.113281 15.835938 C 1.867188 15.375 2.621094 15.175781 3.507812 15.371094 C 4.210938 15.570312 4.6875 16.003906 5.195312 16.515625 C 5.230469 16.5 5.265625 16.484375 5.300781 16.464844 C 5.980469 16.203125 6.753906 16.195312 7.441406 16.441406 C 8.203125 16.789062 8.710938 17.304688 9.027344 18.078125 C 9.277344 18.839844 9.214844 19.632812 8.886719 20.359375 C 8.570312 20.941406 8.097656 21.351562 7.507812 21.636719 C 7.464844 21.660156 7.417969 21.683594 7.375 21.707031 C 7.226562 21.773438 7.085938 21.847656 6.941406 21.914062 C 6.84375 21.964844 6.746094 22.011719 6.644531 22.0625 C 6.363281 22.203125 6.078125 22.339844 5.796875 22.476562 C 5.761719 22.496094 5.71875 22.511719 5.679688 22.53125 C 5.300781 22.71875 4.921875 22.898438 4.539062 23.078125 C 5.226562 23.890625 6.089844 24.6875 7.054688 25.15625 C 7.074219 25.125 7.089844 25.09375 7.113281 25.0625 C 7.265625 24.796875 7.417969 24.535156 7.574219 24.277344 C 7.6875 24.082031 7.800781 23.890625 7.914062 23.695312 C 7.960938 23.621094 8.003906 23.546875 8.042969 23.476562 C 8.066406 23.441406 8.085938 23.40625 8.101562 23.375 C 8.199219 23.210938 8.261719 23.128906 8.421875 23.023438 C 8.644531 23.027344 8.757812 23.03125 8.917969 23.191406 C 9 23.457031 8.898438 23.652344 8.78125 23.882812 C 8.6875 24.0625 8.585938 24.234375 8.484375 24.410156 C 8.417969 24.53125 8.351562 24.648438 8.285156 24.769531 C 8.253906 24.824219 8.222656 24.882812 8.183594 24.9375 C 8.0625 25.15625 7.945312 25.375 7.820312 25.59375 C 8.113281 25.789062 8.40625 25.945312 8.730469 26.078125 C 8.777344 26.101562 8.824219 26.117188 8.867188 26.136719 C 10.375 26.746094 11.929688 27.125 13.5625 27.125 C 13.5625 23.351562 13.5625 19.582031 13.5625 15.695312 C 13.417969 15.878906 13.304688 16.023438 13.195312 16.222656 C 13.164062 16.273438 13.140625 16.324219 13.109375 16.375 C 13.078125 16.425781 13.050781 16.480469 13.023438 16.535156 C 12.773438 16.980469 12.519531 17.421875 12.257812 17.863281 C 11.980469 18.34375 11.703125 18.820312 11.429688 19.304688 C 11.0625 19.953125 10.6875 20.601562 10.308594 21.246094 C 10.234375 21.367188 10.164062 21.492188 10.09375 21.621094 C 10.058594 21.683594 10.015625 21.746094 9.980469 21.8125 C 9.949219 21.867188 9.921875 21.921875 9.890625 21.976562 C 9.761719 22.125 9.65625 22.164062 9.460938 22.203125 C 9.304688 22.164062 9.304688 22.164062 9.1875 22.09375 C 9.105469 21.925781 9.101562 21.78125 9.132812 21.601562 C 9.21875 21.402344 9.328125 21.21875 9.441406 21.03125 C 9.488281 20.949219 9.488281 20.949219 9.539062 20.863281 C 9.640625 20.691406 9.742188 20.515625 9.84375 20.34375 C 9.90625 20.234375 9.972656 20.128906 10.03125 20.019531 C 10.15625 19.800781 10.285156 19.585938 10.414062 19.367188 C 10.71875 18.84375 11.023438 18.316406 11.324219 17.789062 C 11.460938 17.550781 11.597656 17.3125 11.738281 17.078125 C 11.804688 16.957031 11.871094 16.839844 11.941406 16.726562 C 12.101562 16.445312 12.257812 16.167969 12.417969 15.890625 C 12.496094 15.765625 12.574219 15.632812 12.648438 15.503906 C 12.703125 15.414062 12.75 15.316406 12.804688 15.226562 C 12.835938 15.171875 12.871094 15.117188 12.902344 15.058594 C 12.933594 15.011719 12.960938 14.960938 12.988281 14.910156 C 13.074219 14.757812 13.15625 14.597656 13.234375 14.4375 C 9.15625 14.4375 5.078125 14.4375 0.875 14.4375 Z M 1.367188 16.734375 C 1.238281 16.890625 1.132812 17.046875 1.039062 17.226562 C 1.019531 17.257812 1.003906 17.289062 0.984375 17.320312 C 0.796875 17.710938 0.792969 18.265625 0.910156 18.671875 C 1.039062 19.011719 1.222656 19.300781 1.429688 19.597656 C 1.503906 19.703125 1.578125 19.800781 1.648438 19.90625 C 1.710938 19.996094 1.710938 19.996094 1.773438 20.085938 C 1.941406 20.324219 2.101562 20.566406 2.265625 20.808594 C 2.296875 20.855469 2.324219 20.898438 2.355469 20.945312 C 2.480469 21.128906 2.601562 21.308594 2.726562 21.496094 C 2.816406 21.625 2.902344 21.757812 2.988281 21.882812 C 3.015625 21.925781 3.042969 21.960938 3.066406 22.003906 C 3.203125 22.203125 3.34375 22.398438 3.5 22.585938 C 3.824219 22.484375 4.125 22.367188 4.425781 22.210938 C 4.484375 22.179688 4.484375 22.179688 4.546875 22.152344 C 4.675781 22.085938 4.804688 22.019531 4.929688 21.957031 C 5.105469 21.867188 5.28125 21.78125 5.460938 21.6875 C 5.5 21.671875 5.546875 21.648438 5.59375 21.625 C 5.996094 21.417969 6.414062 21.21875 6.828125 21.027344 C 7.417969 20.753906 7.933594 20.425781 8.210938 19.8125 C 8.421875 19.234375 8.394531 18.703125 8.140625 18.148438 C 7.867188 17.636719 7.445312 17.316406 6.898438 17.140625 C 6.375 17.042969 5.933594 17.101562 5.453125 17.328125 C 5.234375 17.417969 5.046875 17.441406 4.8125 17.390625 C 4.617188 17.28125 4.511719 17.136719 4.382812 16.957031 C 4.070312 16.535156 3.703125 16.300781 3.203125 16.148438 C 2.496094 16.078125 1.878906 16.21875 1.367188 16.734375 Z M 1.367188 16.734375 "/>
<path style=" stroke:none;fill-rule:nonzero;fill:#dc2626;fill-opacity:1;" d="M 23.851562 18.535156 C 24.964844 19.472656 25.683594 20.710938 25.851562 22.167969 C 25.859375 22.25 25.863281 22.335938 25.867188 22.421875 C 25.871094 22.460938 25.871094 22.507812 25.875 22.554688 C 25.921875 23.867188 25.433594 25.21875 24.554688 26.195312 C 24.53125 26.222656 24.507812 26.246094 24.480469 26.273438 C 23.644531 27.199219 22.4375 27.886719 21.167969 27.953125 C 19.683594 27.972656 19.683594 27.972656 19.085938 27.78125 C 19.054688 27.773438 19.015625 27.757812 18.980469 27.75 C 17.703125 27.347656 16.585938 26.453125 15.949219 25.269531 C 15.234375 23.859375 15.148438 22.421875 15.589844 20.914062 C 15.875 20.105469 16.351562 19.460938 16.953125 18.867188 C 16.992188 18.828125 17.035156 18.785156 17.078125 18.742188 C 18.871094 17.027344 21.945312 17 23.851562 18.535156 Z M 17.171875 19.90625 C 16.421875 20.925781 16.054688 22.070312 16.214844 23.34375 C 16.355469 24.164062 16.664062 24.824219 17.171875 25.484375 C 17.199219 25.519531 17.226562 25.558594 17.25 25.59375 C 17.820312 26.328125 18.871094 26.902344 19.777344 27.054688 C 21.039062 27.207031 22.25 26.988281 23.265625 26.199219 C 23.351562 26.125 23.433594 26.054688 23.515625 25.976562 C 23.554688 25.941406 23.597656 25.902344 23.640625 25.867188 C 24.484375 25.078125 24.929688 23.96875 24.988281 22.828125 C 25.023438 21.648438 24.585938 20.5625 23.804688 19.695312 C 23 18.84375 21.902344 18.34375 20.730469 18.296875 C 19.367188 18.28125 18.0625 18.851562 17.171875 19.90625 Z M 17.171875 19.90625 "/>
<path style=" stroke:none;fill-rule:nonzero;fill:#dc2626;fill-opacity:1;" d="M 20.726562 19.195312 C 20.898438 19.289062 20.9375 19.332031 21 19.523438 C 21 19.652344 21.003906 19.777344 21 19.90625 C 21.054688 19.90625 21.105469 19.910156 21.160156 19.914062 C 21.453125 19.953125 21.726562 20.140625 21.929688 20.34375 C 21.960938 20.726562 21.960938 20.726562 21.847656 20.917969 C 21.65625 21.03125 21.492188 21.039062 21.273438 21 C 21.144531 20.921875 21.144531 20.921875 21.054688 20.835938 C 20.765625 20.742188 20.46875 20.734375 20.183594 20.84375 C 19.992188 21.019531 19.914062 21.183594 19.890625 21.4375 C 20.007812 21.707031 20.199219 21.800781 20.453125 21.929688 C 20.636719 22.003906 20.816406 22.070312 21 22.140625 C 21.511719 22.335938 21.910156 22.539062 22.175781 23.042969 C 22.382812 23.542969 22.371094 24.023438 22.167969 24.527344 C 21.957031 24.921875 21.621094 25.234375 21.21875 25.429688 C 21.144531 25.429688 21.074219 25.429688 21 25.429688 C 21.003906 25.460938 21.003906 25.492188 21.007812 25.53125 C 21.019531 25.75 21.015625 25.890625 20.917969 26.089844 C 20.753906 26.21875 20.652344 26.230469 20.449219 26.21875 C 20.34375 26.195312 20.34375 26.195312 20.207031 26.117188 C 20.085938 25.90625 20.105469 25.71875 20.125 25.484375 C 20.054688 25.484375 19.988281 25.480469 19.921875 25.476562 C 19.574219 25.4375 19.269531 25.285156 18.976562 25.101562 C 18.839844 24.898438 18.84375 24.796875 18.867188 24.554688 C 18.945312 24.390625 19 24.351562 19.167969 24.277344 C 19.417969 24.28125 19.59375 24.375 19.816406 24.484375 C 20.144531 24.636719 20.492188 24.660156 20.84375 24.546875 C 21.078125 24.453125 21.1875 24.320312 21.328125 24.117188 C 21.414062 23.863281 21.421875 23.65625 21.308594 23.410156 C 21.132812 23.15625 20.832031 23.078125 20.554688 22.96875 C 19.308594 22.476562 19.308594 22.476562 19.039062 21.882812 C 18.914062 21.472656 18.972656 21.039062 19.144531 20.65625 C 19.328125 20.320312 19.585938 20.046875 19.960938 19.9375 C 20.015625 19.929688 20.070312 19.914062 20.125 19.90625 C 20.121094 19.835938 20.117188 19.773438 20.105469 19.707031 C 20.105469 19.507812 20.121094 19.472656 20.242188 19.304688 C 20.425781 19.175781 20.507812 19.160156 20.726562 19.195312 Z M 20.726562 19.195312 "/>
</g>
</svg>
