<?xml version="1.0" encoding="UTF-8"?>
<svg xmlns="http://www.w3.org/2000/svg" xmlns:xlink="http://www.w3.org/1999/xlink" width="24" height="24" viewBox="0 0 28 28" version="1.1">
<g id="surface1">
<path style=" stroke:none;fill-rule:nonzero;fill:#dc2626;fill-opacity:1;" d="M 4.941406 -0.0195312 C 5.050781 -0.0195312 5.164062 -0.0234375 5.273438 -0.0234375 C 5.378906 -0.0234375 5.378906 -0.0234375 5.484375 -0.0273438 C 5.546875 -0.0273438 5.609375 -0.0273438 5.679688 -0.0273438 C 5.886719 0.00390625 5.976562 0.0703125 6.125 0.21875 C 6.253906 0.402344 6.25 0.5625 6.253906 0.78125 C 6.253906 0.847656 6.253906 0.910156 6.257812 0.984375 C 6.257812 1.121094 6.257812 1.261719 6.261719 1.402344 C 6.28125 2.347656 6.480469 3.132812 7.054688 3.882812 C 7.09375 3.9375 7.136719 3.996094 7.179688 4.054688 C 7.804688 4.710938 8.65625 5.078125 9.554688 5.140625 C 10.53125 5.148438 11.433594 4.765625 12.140625 4.101562 C 12.898438 3.226562 13.09375 2.304688 13.09375 1.179688 C 13.09375 1.070312 13.097656 0.964844 13.097656 0.855469 C 13.097656 0.796875 13.097656 0.734375 13.097656 0.671875 C 13.140625 0.40625 13.261719 0.246094 13.445312 0.0625 C 13.703125 -0.078125 14.03125 -0.0273438 14.320312 -0.0273438 C 14.421875 -0.03125 14.421875 -0.03125 14.53125 -0.03125 C 15.097656 -0.03125 15.097656 -0.03125 15.296875 0.125 C 15.515625 0.390625 15.546875 0.609375 15.554688 0.953125 C 15.554688 0.992188 15.554688 1.035156 15.558594 1.074219 C 15.558594 1.207031 15.5625 1.339844 15.5625 1.472656 C 15.566406 1.5625 15.566406 1.65625 15.570312 1.746094 C 15.585938 2.414062 15.589844 3.085938 15.589844 3.753906 C 15.59375 3.800781 15.59375 3.84375 15.59375 3.886719 C 15.59375 4.179688 15.589844 4.464844 15.585938 4.757812 C 15.585938 4.816406 15.585938 4.816406 15.585938 4.875 C 15.5625 6.492188 15.125 8.097656 14.765625 9.664062 C 14.714844 9.871094 14.671875 10.082031 14.625 10.289062 C 14.605469 10.371094 14.585938 10.449219 14.570312 10.527344 C 14.542969 10.636719 14.519531 10.746094 14.496094 10.855469 C 14.484375 10.914062 14.46875 10.972656 14.457031 11.039062 C 14.421875 11.34375 14.5625 11.578125 14.6875 11.847656 C 14.992188 12.515625 15.238281 13.199219 15.476562 13.890625 C 15.496094 13.949219 15.515625 14.003906 15.535156 14.0625 C 15.933594 15.226562 16.238281 16.410156 16.539062 17.601562 C 16.5625 17.683594 16.578125 17.757812 16.601562 17.84375 C 16.652344 18.046875 16.699219 18.234375 16.699219 18.449219 C 16.703125 18.492188 16.703125 18.535156 16.707031 18.585938 C 16.679688 18.703125 16.679688 18.703125 16.578125 18.796875 C 16.40625 18.898438 16.273438 18.890625 16.078125 18.867188 C 15.964844 18.8125 15.964844 18.8125 15.859375 18.703125 C 15.804688 18.546875 15.765625 18.402344 15.726562 18.242188 C 15.71875 18.195312 15.703125 18.148438 15.691406 18.101562 C 15.667969 18 15.644531 17.902344 15.621094 17.796875 C 15.554688 17.53125 15.492188 17.261719 15.421875 16.992188 C 15.40625 16.9375 15.394531 16.882812 15.382812 16.828125 C 15.171875 16.003906 14.921875 15.195312 14.65625 14.382812 C 14.632812 14.3125 14.609375 14.246094 14.585938 14.179688 C 14.328125 13.382812 14.027344 12.625 13.671875 11.867188 C 13.09375 11.847656 12.519531 11.832031 11.921875 11.8125 C 11.976562 12.003906 11.976562 12.003906 12.03125 12.195312 C 12.046875 12.277344 12.0625 12.359375 12.070312 12.445312 C 12.082031 12.492188 12.085938 12.539062 12.089844 12.582031 C 12.101562 12.628906 12.105469 12.679688 12.113281 12.722656 C 12.117188 12.773438 12.125 12.824219 12.132812 12.878906 C 12.148438 12.984375 12.164062 13.089844 12.175781 13.199219 C 12.199219 13.359375 12.222656 13.515625 12.246094 13.675781 C 12.441406 15.089844 12.441406 15.089844 12.335938 15.320312 C 12.203125 15.476562 12.203125 15.476562 11.984375 15.496094 C 11.820312 15.503906 11.773438 15.492188 11.644531 15.382812 C 11.523438 15.238281 11.503906 15.171875 11.480469 14.988281 C 11.476562 14.929688 11.464844 14.871094 11.457031 14.8125 C 11.449219 14.742188 11.4375 14.675781 11.429688 14.601562 C 11.414062 14.515625 11.402344 14.429688 11.394531 14.34375 C 11.355469 14.089844 11.320312 13.84375 11.285156 13.597656 C 11.261719 13.445312 11.238281 13.289062 11.214844 13.132812 C 11.203125 13.035156 11.1875 12.933594 11.175781 12.832031 C 11.171875 12.789062 11.160156 12.742188 11.15625 12.691406 C 11.148438 12.652344 11.140625 12.605469 11.136719 12.558594 C 11.128906 12.523438 11.125 12.488281 11.121094 12.445312 C 11.09375 12.234375 11.070312 12.023438 11.046875 11.8125 C 10.199219 11.8125 9.351562 11.8125 8.476562 11.8125 C 8.441406 12.101562 8.402344 12.390625 8.367188 12.6875 C 8.320312 13.046875 8.273438 13.40625 8.226562 13.765625 C 8.210938 13.875 8.195312 13.984375 8.179688 14.089844 C 8.164062 14.25 8.140625 14.410156 8.117188 14.570312 C 8.113281 14.621094 8.101562 14.671875 8.097656 14.71875 C 8.039062 15.171875 8.039062 15.171875 7.929688 15.367188 C 7.765625 15.476562 7.730469 15.496094 7.546875 15.496094 C 7.511719 15.496094 7.472656 15.496094 7.433594 15.496094 C 7.292969 15.472656 7.25 15.425781 7.164062 15.3125 C 7.078125 14.734375 7.214844 14.105469 7.296875 13.53125 C 7.324219 13.375 7.34375 13.21875 7.363281 13.066406 C 7.378906 12.964844 7.398438 12.871094 7.410156 12.769531 C 7.417969 12.703125 7.417969 12.703125 7.429688 12.628906 C 7.4375 12.5625 7.4375 12.5625 7.453125 12.496094 C 7.457031 12.460938 7.460938 12.421875 7.464844 12.386719 C 7.5 12.191406 7.554688 12.003906 7.601562 11.8125 C 6.984375 11.8125 6.375 11.8125 5.742188 11.8125 C 5.6875 11.976562 5.632812 12.136719 5.578125 12.304688 C 5.53125 12.410156 5.488281 12.515625 5.441406 12.617188 C 3.808594 16.265625 3.113281 20.460938 2.570312 24.390625 C 2.625 24.390625 2.625 24.390625 2.679688 24.386719 C 4.765625 24.332031 6.765625 25.15625 8.679688 25.882812 C 9.683594 26.265625 10.6875 26.632812 11.730469 26.875 C 11.816406 26.890625 11.898438 26.914062 11.984375 26.933594 C 13.066406 27.207031 14.414062 27.207031 15.476562 26.851562 C 15.511719 26.835938 15.550781 26.828125 15.585938 26.816406 C 16.050781 26.65625 16.652344 26.441406 17.007812 26.085938 C 17.003906 25.945312 17 25.808594 16.984375 25.671875 C 16.984375 25.613281 16.984375 25.613281 16.980469 25.558594 C 16.976562 25.476562 16.972656 25.398438 16.960938 25.316406 C 16.949219 25.121094 16.9375 24.921875 16.925781 24.726562 C 16.921875 24.691406 16.921875 24.65625 16.917969 24.613281 C 16.914062 24.523438 16.902344 24.425781 16.898438 24.335938 C 16.792969 24.335938 16.792969 24.335938 16.683594 24.335938 C 16.023438 24.339844 15.359375 24.34375 14.691406 24.34375 C 14.351562 24.351562 14.007812 24.351562 13.671875 24.355469 C 13.339844 24.355469 13.011719 24.355469 12.683594 24.359375 C 12.554688 24.359375 12.433594 24.359375 12.304688 24.359375 C 12.125 24.359375 11.953125 24.359375 11.777344 24.359375 C 11.726562 24.363281 11.671875 24.363281 11.621094 24.363281 C 11.289062 24.363281 11.097656 24.308594 10.828125 24.117188 C 10.601562 23.824219 10.632812 23.484375 10.664062 23.132812 C 10.847656 21.90625 11.429688 20.757812 12.429688 20.007812 C 13.226562 19.46875 14.453125 18.742188 15.453125 18.898438 C 15.804688 19.046875 15.921875 19.320312 16.097656 19.636719 C 16.304688 20 16.476562 20.175781 16.890625 20.292969 C 17.363281 20.320312 17.757812 20.035156 18.105469 19.738281 C 19.171875 18.71875 19.820312 17.226562 20.433594 15.910156 C 20.964844 14.789062 21.640625 13.679688 22.859375 13.234375 C 23.40625 13.054688 24.027344 12.964844 24.554688 13.234375 C 25.207031 13.582031 25.539062 14.253906 25.765625 14.925781 C 26.21875 16.492188 26.03125 17.832031 25.367188 19.289062 C 25.347656 19.335938 25.324219 19.378906 25.304688 19.421875 C 25.269531 19.503906 25.230469 19.585938 25.191406 19.667969 C 24.953125 20.199219 24.921875 20.6875 24.921875 21.257812 C 24.921875 21.367188 24.917969 21.476562 24.917969 21.585938 C 24.917969 21.851562 24.914062 22.121094 24.914062 22.386719 C 24.914062 22.535156 24.914062 22.6875 24.914062 22.835938 C 24.914062 22.976562 24.914062 23.117188 24.914062 23.257812 C 24.910156 23.628906 24.890625 23.875 24.664062 24.171875 C 24.390625 24.367188 24.117188 24.363281 23.792969 24.359375 C 23.742188 24.359375 23.699219 24.363281 23.648438 24.363281 C 23.320312 24.363281 23.125 24.3125 22.859375 24.117188 C 22.695312 23.898438 22.671875 23.738281 22.671875 23.476562 C 22.671875 23.4375 22.671875 23.402344 22.671875 23.359375 C 22.667969 23.242188 22.667969 23.125 22.667969 23.003906 C 22.667969 22.921875 22.667969 22.835938 22.667969 22.753906 C 22.664062 22.53125 22.664062 22.3125 22.664062 22.09375 C 22.660156 21.738281 22.65625 21.386719 22.65625 21.035156 C 22.65625 20.917969 22.648438 20.796875 22.648438 20.671875 C 22.691406 19.914062 22.691406 19.914062 22.53125 19.195312 C 21.976562 19.523438 21.515625 19.890625 21.054688 20.34375 C 21.019531 20.375 20.980469 20.40625 20.945312 20.445312 C 20.054688 21.277344 19.289062 22.484375 18.886719 23.632812 C 18.78125 23.933594 18.652344 24.121094 18.375 24.28125 C 18.226562 24.332031 18.136719 24.339844 17.984375 24.339844 C 17.914062 24.339844 17.847656 24.335938 17.773438 24.335938 C 17.777344 24.371094 17.78125 24.410156 17.789062 24.445312 C 17.808594 24.613281 17.832031 24.78125 17.851562 24.953125 C 17.859375 25.011719 17.863281 25.066406 17.875 25.125 C 17.898438 25.296875 17.917969 25.476562 17.9375 25.648438 C 17.945312 25.707031 17.953125 25.765625 17.960938 25.832031 C 17.964844 25.886719 17.96875 25.945312 17.976562 26.003906 C 17.984375 26.054688 17.988281 26.105469 17.992188 26.160156 C 17.992188 26.417969 17.910156 26.550781 17.734375 26.734375 C 17.140625 27.210938 16.398438 27.542969 15.671875 27.761719 C 15.636719 27.777344 15.601562 27.785156 15.558594 27.800781 C 14.929688 27.976562 14.304688 28.023438 13.648438 28.023438 C 13.613281 28.019531 13.570312 28.019531 13.527344 28.019531 C 12.824219 28.019531 12.167969 27.953125 11.484375 27.78125 C 11.433594 27.765625 11.378906 27.753906 11.328125 27.746094 C 10.125 27.445312 8.96875 27 7.816406 26.570312 C 6.039062 25.902344 4.285156 25.265625 2.359375 25.339844 C 2.304688 25.339844 2.25 25.339844 2.195312 25.339844 C 2.152344 25.34375 2.101562 25.34375 2.050781 25.34375 C 1.859375 25.3125 1.773438 25.238281 1.640625 25.101562 C 1.5 24.519531 1.71875 23.757812 1.804688 23.171875 C 1.8125 23.113281 1.824219 23.058594 1.832031 23 C 1.996094 21.878906 2.203125 20.761719 2.433594 19.65625 C 2.460938 19.523438 2.488281 19.394531 2.515625 19.269531 C 3.035156 16.773438 3.640625 14.132812 4.773438 11.835938 C 4.789062 11.792969 4.8125 11.753906 4.832031 11.710938 C 4.859375 11.664062 4.859375 11.664062 4.886719 11.609375 C 4.972656 11.324219 4.917969 11.042969 4.859375 10.757812 C 4.839844 10.695312 4.828125 10.628906 4.8125 10.5625 C 4.792969 10.492188 4.78125 10.421875 4.761719 10.351562 C 4.75 10.277344 4.730469 10.203125 4.710938 10.125 C 4.671875 9.929688 4.625 9.734375 4.585938 9.539062 C 4.507812 9.191406 4.425781 8.84375 4.351562 8.5 C 4.34375 8.457031 4.335938 8.421875 4.324219 8.386719 C 4.207031 7.851562 4.097656 7.3125 3.996094 6.78125 C 3.988281 6.722656 3.972656 6.664062 3.964844 6.597656 C 3.753906 5.449219 3.753906 5.449219 3.902344 5.148438 C 3.992188 5.03125 3.992188 5.03125 4.101562 4.976562 C 4.445312 4.945312 4.445312 4.945312 4.601562 5.066406 C 4.722656 5.21875 4.738281 5.304688 4.761719 5.492188 C 4.773438 5.554688 4.777344 5.617188 4.785156 5.683594 C 4.792969 5.75 4.804688 5.820312 4.8125 5.890625 C 4.9375 6.785156 5.121094 7.660156 5.308594 8.539062 C 5.328125 8.609375 5.339844 8.675781 5.355469 8.746094 C 5.515625 9.476562 5.515625 9.476562 5.679688 10.199219 C 5.691406 10.261719 5.710938 10.328125 5.722656 10.390625 C 5.738281 10.449219 5.75 10.503906 5.765625 10.5625 C 5.796875 10.71875 5.796875 10.71875 5.796875 10.9375 C 8.359375 10.9375 10.921875 10.9375 13.5625 10.9375 C 13.699219 10.261719 13.699219 10.261719 13.835938 9.570312 C 13.886719 9.332031 13.9375 9.101562 13.984375 8.863281 C 14.015625 8.746094 14.039062 8.625 14.0625 8.507812 C 14.105469 8.332031 14.144531 8.152344 14.183594 7.976562 C 14.308594 7.398438 14.4375 6.820312 14.53125 6.238281 C 14.542969 6.203125 14.546875 6.164062 14.550781 6.128906 C 14.675781 5.363281 14.664062 4.574219 14.660156 3.800781 C 14.660156 3.714844 14.660156 3.628906 14.660156 3.539062 C 14.660156 3.3125 14.660156 3.089844 14.660156 2.867188 C 14.660156 2.632812 14.660156 2.402344 14.660156 2.171875 C 14.65625 1.722656 14.65625 1.273438 14.65625 0.820312 C 14.4375 0.820312 14.222656 0.820312 14 0.820312 C 14.003906 0.910156 14.003906 1.003906 14.007812 1.097656 C 14.035156 2.597656 13.730469 3.773438 12.679688 4.886719 C 11.730469 5.773438 10.625 6.050781 9.367188 6.035156 C 8.292969 5.992188 7.304688 5.523438 6.5625 4.757812 C 5.691406 3.8125 5.34375 2.695312 5.355469 1.421875 C 5.355469 1.363281 5.355469 1.308594 5.355469 1.242188 C 5.359375 1.101562 5.359375 0.960938 5.359375 0.820312 C 5.160156 0.820312 4.960938 0.820312 4.757812 0.820312 C 4.757812 0.910156 4.757812 1.003906 4.753906 1.097656 C 4.75 1.4375 4.742188 1.777344 4.738281 2.113281 C 4.738281 2.265625 4.734375 2.410156 4.734375 2.554688 C 4.730469 2.769531 4.730469 2.980469 4.726562 3.191406 C 4.726562 3.289062 4.726562 3.289062 4.726562 3.390625 C 4.722656 3.453125 4.722656 3.515625 4.722656 3.578125 C 4.722656 3.632812 4.722656 3.6875 4.71875 3.742188 C 4.703125 3.886719 4.671875 3.976562 4.59375 4.101562 C 4.449219 4.214844 4.371094 4.210938 4.179688 4.203125 C 3.992188 4.15625 3.941406 4.140625 3.828125 3.992188 C 3.808594 3.863281 3.808594 3.863281 3.808594 3.71875 C 3.808594 3.664062 3.808594 3.605469 3.808594 3.550781 C 3.808594 3.484375 3.808594 3.425781 3.808594 3.363281 C 3.808594 3.304688 3.808594 3.242188 3.808594 3.175781 C 3.808594 3.042969 3.808594 2.914062 3.8125 2.773438 C 3.8125 2.574219 3.8125 2.375 3.8125 2.171875 C 3.8125 2.046875 3.8125 1.914062 3.820312 1.785156 C 3.820312 1.726562 3.820312 1.667969 3.820312 1.605469 C 3.828125 0.414062 3.828125 0.414062 4.101562 0.109375 C 4.359375 -0.0625 4.632812 -0.0195312 4.941406 -0.0195312 Z M 22.53125 14.4375 C 22.484375 14.46875 22.441406 14.507812 22.394531 14.542969 C 21.625 15.195312 21.199219 16.316406 20.78125 17.203125 C 20.3125 18.195312 19.792969 19.117188 19.085938 19.960938 C 19.058594 19.996094 19.027344 20.035156 18.996094 20.074219 C 18.515625 20.664062 17.902344 21.074219 17.144531 21.160156 C 16.609375 21.1875 16.152344 21.03125 15.75 20.671875 C 15.523438 20.398438 15.332031 20.101562 15.148438 19.796875 C 14.171875 19.929688 13.269531 20.421875 12.578125 21.109375 C 12.542969 21.144531 12.5 21.183594 12.464844 21.21875 C 11.894531 21.800781 11.539062 22.648438 11.539062 23.460938 C 13.667969 23.460938 15.800781 23.460938 17.992188 23.460938 C 18.136719 23.136719 18.28125 22.808594 18.429688 22.476562 C 19.257812 20.804688 20.609375 19.070312 22.367188 18.320312 C 22.582031 18.25 22.800781 18.230469 23.023438 18.265625 C 23.304688 18.4375 23.355469 18.683594 23.429688 18.992188 C 23.519531 19.574219 23.523438 20.164062 23.535156 20.753906 C 23.535156 20.832031 23.535156 20.910156 23.539062 20.992188 C 23.539062 21.195312 23.542969 21.398438 23.542969 21.601562 C 23.546875 21.8125 23.550781 22.019531 23.550781 22.230469 C 23.5625 22.640625 23.566406 23.050781 23.570312 23.460938 C 23.714844 23.460938 23.859375 23.460938 24.007812 23.460938 C 24.007812 23.425781 24.007812 23.386719 24.007812 23.351562 C 24.011719 22.972656 24.015625 22.59375 24.023438 22.21875 C 24.027344 22.074219 24.027344 21.9375 24.027344 21.796875 C 24.035156 20.835938 24.058594 19.996094 24.464844 19.113281 C 24.496094 19.039062 24.496094 19.039062 24.527344 18.960938 C 24.589844 18.820312 24.65625 18.679688 24.71875 18.539062 C 25.261719 17.335938 25.28125 16.191406 24.828125 14.929688 C 24.664062 14.566406 24.460938 14.222656 24.117188 14.007812 C 23.570312 13.800781 22.960938 14.101562 22.53125 14.4375 Z M 22.53125 14.4375 "/>
<path style=" stroke:none;fill-rule:nonzero;fill:#dc2626;fill-opacity:1;" d="M 17.945312 3.21875 C 18 3.21875 18.0625 3.21875 18.121094 3.21875 C 18.183594 3.21875 18.246094 3.21875 18.316406 3.21875 C 18.378906 3.21875 18.449219 3.21875 18.515625 3.21875 C 18.738281 3.210938 18.960938 3.210938 19.1875 3.210938 C 19.265625 3.210938 19.339844 3.210938 19.414062 3.210938 C 19.777344 3.210938 20.140625 3.210938 20.5 3.207031 C 20.914062 3.207031 21.328125 3.207031 21.746094 3.207031 C 22.066406 3.203125 22.390625 3.203125 22.714844 3.203125 C 22.90625 3.203125 23.097656 3.203125 23.289062 3.203125 C 23.5 3.199219 23.714844 3.199219 23.929688 3.199219 C 24.027344 3.199219 24.027344 3.199219 24.121094 3.199219 C 24.476562 3.199219 24.703125 3.226562 24.992188 3.445312 C 25.097656 3.59375 25.097656 3.59375 25.179688 3.773438 C 25.191406 3.808594 25.210938 3.84375 25.226562 3.875 C 25.28125 3.988281 25.324219 4.097656 25.375 4.210938 C 25.394531 4.25 25.410156 4.292969 25.429688 4.335938 C 25.542969 4.597656 25.65625 4.867188 25.765625 5.132812 C 25.828125 5.273438 25.886719 5.410156 25.945312 5.550781 C 25.980469 5.636719 26.015625 5.726562 26.054688 5.820312 C 26.070312 5.859375 26.089844 5.902344 26.109375 5.941406 C 26.441406 6.746094 26.441406 6.746094 26.410156 6.976562 C 26.40625 7.019531 26.398438 7.054688 26.398438 7.09375 C 26.296875 7.429688 26.03125 7.675781 25.792969 7.921875 C 25.730469 7.988281 25.667969 8.058594 25.601562 8.125 C 25.574219 8.15625 25.542969 8.1875 25.511719 8.226562 C 25.382812 8.363281 25.261719 8.503906 25.136719 8.644531 C 24.90625 8.914062 24.664062 9.171875 24.425781 9.4375 C 24.207031 9.679688 23.992188 9.921875 23.78125 10.167969 C 23.625 10.34375 23.464844 10.519531 23.304688 10.695312 C 23.203125 10.808594 23.101562 10.929688 22.996094 11.046875 C 22.851562 11.210938 22.703125 11.375 22.558594 11.539062 C 22.40625 11.707031 22.257812 11.875 22.109375 12.046875 C 22.074219 12.082031 22.046875 12.113281 22.015625 12.148438 C 21.960938 12.214844 21.90625 12.277344 21.855469 12.34375 C 21.6875 12.5625 21.542969 12.664062 21.273438 12.742188 C 21.046875 12.765625 20.863281 12.742188 20.671875 12.617188 C 20.367188 12.363281 20.109375 12.054688 19.851562 11.757812 C 19.769531 11.664062 19.683594 11.570312 19.601562 11.476562 C 19.421875 11.285156 19.25 11.082031 19.078125 10.886719 C 18.960938 10.753906 18.84375 10.628906 18.730469 10.5 C 18.554688 10.304688 18.375 10.101562 18.203125 9.902344 C 18.046875 9.726562 17.886719 9.550781 17.726562 9.375 C 17.625 9.261719 17.523438 9.140625 17.421875 9.027344 C 17.265625 8.851562 17.113281 8.675781 16.953125 8.503906 C 15.839844 7.28125 15.839844 7.28125 15.84375 6.765625 C 15.867188 6.515625 15.960938 6.308594 16.058594 6.074219 C 16.078125 6.035156 16.097656 5.988281 16.117188 5.9375 C 16.226562 5.6875 16.324219 5.503906 16.570312 5.359375 C 16.761719 5.363281 16.894531 5.378906 17.058594 5.476562 C 17.148438 5.628906 17.167969 5.734375 17.171875 5.90625 C 17.117188 6.050781 17.0625 6.195312 17.007812 6.34375 C 17.691406 6.324219 18.378906 6.308594 19.085938 6.289062 C 19.195312 5.570312 19.304688 4.84375 19.414062 4.101562 C 19.175781 4.101562 18.941406 4.101562 18.695312 4.101562 C 18.617188 4.101562 18.542969 4.101562 18.464844 4.097656 C 18.121094 4.09375 18.121094 4.09375 17.832031 4.25 C 17.757812 4.371094 17.757812 4.371094 17.714844 4.488281 C 17.664062 4.59375 17.664062 4.59375 17.503906 4.683594 C 17.289062 4.707031 17.1875 4.65625 17.007812 4.539062 C 16.925781 4.375 16.925781 4.226562 16.953125 4.046875 C 17.070312 3.734375 17.203125 3.460938 17.5 3.28125 C 17.664062 3.226562 17.773438 3.21875 17.945312 3.21875 Z M 20.289062 4.101562 C 20.25 4.367188 20.210938 4.632812 20.171875 4.898438 C 20.15625 4.992188 20.148438 5.082031 20.132812 5.171875 C 20.109375 5.304688 20.09375 5.433594 20.074219 5.5625 C 20.070312 5.605469 20.066406 5.648438 20.054688 5.6875 C 20.023438 5.910156 20.015625 6.117188 20.015625 6.34375 C 20.753906 6.34375 21.496094 6.34375 22.257812 6.34375 C 22.167969 5.59375 22.070312 4.847656 21.929688 4.101562 C 21.386719 4.101562 20.84375 4.101562 20.289062 4.101562 Z M 22.804688 4.101562 C 22.914062 4.839844 23.023438 5.582031 23.132812 6.34375 C 23.835938 6.34375 24.539062 6.34375 25.265625 6.34375 C 25.160156 6.035156 25.0625 5.746094 24.933594 5.449219 C 24.914062 5.414062 24.902344 5.378906 24.886719 5.339844 C 24.835938 5.230469 24.789062 5.117188 24.742188 5.007812 C 24.703125 4.929688 24.671875 4.851562 24.640625 4.78125 C 24.496094 4.4375 24.496094 4.4375 24.335938 4.101562 C 23.828125 4.101562 23.324219 4.101562 22.804688 4.101562 Z M 17.0625 7.21875 C 17.265625 7.492188 17.4375 7.710938 17.679688 7.945312 C 17.808594 8.074219 17.933594 8.21875 18.050781 8.359375 C 18.171875 8.492188 18.285156 8.621094 18.402344 8.75 C 18.546875 8.914062 18.695312 9.078125 18.839844 9.242188 C 19.0625 9.5 19.296875 9.753906 19.523438 10.007812 C 19.613281 10.109375 19.710938 10.210938 19.800781 10.3125 C 19.84375 10.363281 19.882812 10.410156 19.925781 10.453125 C 19.96875 10.503906 19.96875 10.503906 20.015625 10.554688 C 20.085938 10.355469 20.050781 10.289062 19.992188 10.09375 C 19.976562 10.03125 19.957031 9.972656 19.9375 9.90625 C 19.914062 9.84375 19.898438 9.773438 19.875 9.707031 C 19.851562 9.644531 19.832031 9.574219 19.8125 9.5 C 19.769531 9.359375 19.722656 9.21875 19.679688 9.074219 C 19.625 8.890625 19.570312 8.710938 19.507812 8.527344 C 19.417969 8.226562 19.328125 7.921875 19.230469 7.621094 C 19.21875 7.566406 19.199219 7.511719 19.179688 7.457031 C 19.144531 7.328125 19.144531 7.328125 19.085938 7.21875 C 18.414062 7.21875 17.75 7.21875 17.0625 7.21875 Z M 20.015625 7.21875 C 20.105469 7.636719 20.105469 7.636719 20.21875 8.046875 C 20.238281 8.109375 20.257812 8.167969 20.273438 8.230469 C 20.308594 8.328125 20.308594 8.328125 20.335938 8.425781 C 20.359375 8.492188 20.375 8.558594 20.398438 8.625 C 20.4375 8.769531 20.480469 8.910156 20.527344 9.050781 C 20.582031 9.234375 20.636719 9.410156 20.6875 9.59375 C 20.742188 9.765625 20.789062 9.9375 20.84375 10.109375 C 20.863281 10.175781 20.882812 10.242188 20.90625 10.308594 C 20.921875 10.367188 20.941406 10.425781 20.960938 10.484375 C 20.972656 10.539062 20.992188 10.589844 21.007812 10.644531 C 21.050781 10.78125 21.050781 10.78125 21.164062 10.882812 C 21.179688 10.828125 21.195312 10.777344 21.210938 10.71875 C 21.269531 10.523438 21.328125 10.320312 21.386719 10.121094 C 21.414062 10.039062 21.4375 9.953125 21.464844 9.867188 C 21.5 9.742188 21.539062 9.617188 21.574219 9.492188 C 21.585938 9.457031 21.597656 9.414062 21.609375 9.378906 C 21.671875 9.179688 21.730469 9.015625 21.875 8.859375 C 22.0625 8.808594 22.25 8.828125 22.421875 8.914062 C 22.550781 9.167969 22.484375 9.464844 22.402344 9.726562 C 22.371094 9.816406 22.339844 9.914062 22.308594 10 C 22.277344 10.09375 22.242188 10.1875 22.21875 10.277344 C 22.199219 10.316406 22.183594 10.359375 22.171875 10.398438 C 22.132812 10.503906 22.132812 10.503906 22.203125 10.609375 C 22.714844 10.066406 22.714844 10.066406 23.207031 9.511719 C 23.316406 9.382812 23.429688 9.261719 23.542969 9.132812 C 23.6875 8.96875 23.835938 8.804688 23.980469 8.640625 C 24.125 8.476562 24.273438 8.3125 24.417969 8.148438 C 24.460938 8.101562 24.5 8.058594 24.539062 8.011719 C 24.617188 7.925781 24.699219 7.839844 24.777344 7.75 C 24.808594 7.710938 24.847656 7.675781 24.878906 7.632812 C 24.910156 7.601562 24.9375 7.570312 24.96875 7.53125 C 25.0625 7.421875 25.0625 7.421875 25.15625 7.21875 C 24.503906 7.21875 23.859375 7.21875 23.1875 7.21875 C 23.132812 7.363281 23.078125 7.507812 23.023438 7.65625 C 22.886719 7.914062 22.886719 7.914062 22.75 7.984375 C 22.5625 8.003906 22.453125 8.003906 22.289062 7.90625 C 22.203125 7.765625 22.203125 7.765625 22.257812 7.21875 C 21.519531 7.21875 20.777344 7.21875 20.015625 7.21875 Z M 20.015625 7.21875 "/>
</g>
</svg>
