<?xml version="1.0" encoding="UTF-8"?>
<svg xmlns="http://www.w3.org/2000/svg" xmlns:xlink="http://www.w3.org/1999/xlink" width="24" height="24" viewBox="0 0 28 28" version="1.1">
<g id="surface1">
<path style=" stroke:none;fill-rule:nonzero;fill:#dc2626;fill-opacity:1;" d="M 7.726562 -0.015625 C 7.804688 -0.015625 7.804688 -0.015625 7.894531 -0.015625 C 8.078125 -0.0195312 8.265625 -0.0195312 8.453125 -0.015625 C 8.585938 -0.0195312 8.722656 -0.0195312 8.855469 -0.0195312 C 9.179688 -0.0195312 9.507812 -0.0195312 9.828125 -0.0195312 C 10.09375 -0.0195312 10.359375 -0.0195312 10.625 -0.0195312 C 11.375 -0.0195312 12.125 -0.0195312 12.878906 -0.0195312 C 12.921875 -0.0195312 12.960938 -0.0195312 13 -0.0195312 C 13.0625 -0.0195312 13.0625 -0.0195312 13.125 -0.0195312 C 13.78125 -0.0195312 14.4375 -0.0234375 15.09375 -0.0234375 C 15.769531 -0.0234375 16.441406 -0.0273438 17.117188 -0.0234375 C 17.496094 -0.0234375 17.875 -0.0273438 18.25 -0.0273438 C 18.609375 -0.0273438 18.960938 -0.0273438 19.320312 -0.0273438 C 19.449219 -0.0273438 19.582031 -0.0273438 19.710938 -0.0273438 C 19.886719 -0.0273438 20.070312 -0.0273438 20.25 -0.0273438 C 20.296875 -0.0273438 20.347656 -0.0273438 20.402344 -0.0273438 C 20.996094 -0.0234375 21.507812 0.1875 21.929688 0.601562 C 22.339844 1.089844 22.511719 1.648438 22.503906 2.277344 C 22.503906 2.332031 22.503906 2.386719 22.503906 2.445312 C 22.503906 2.628906 22.503906 2.816406 22.5 3 C 22.5 3.132812 22.5 3.261719 22.5 3.394531 C 22.5 3.683594 22.5 3.964844 22.5 4.25 C 22.5 4.664062 22.5 5.070312 22.496094 5.488281 C 22.496094 6.152344 22.496094 6.820312 22.496094 7.488281 C 22.492188 8.132812 22.492188 8.785156 22.492188 9.433594 C 22.492188 9.476562 22.492188 9.515625 22.492188 9.554688 C 22.492188 9.757812 22.484375 9.957031 22.484375 10.15625 C 22.484375 11.820312 22.480469 13.484375 22.476562 15.148438 C 22.546875 15.148438 22.617188 15.144531 22.691406 15.144531 C 22.953125 15.140625 23.21875 15.140625 23.480469 15.132812 C 23.59375 15.132812 23.707031 15.132812 23.820312 15.128906 C 23.984375 15.128906 24.148438 15.128906 24.3125 15.125 C 24.363281 15.125 24.414062 15.125 24.46875 15.125 C 24.796875 15.125 25.042969 15.179688 25.320312 15.367188 C 25.507812 15.554688 25.585938 15.71875 25.648438 15.96875 C 25.648438 16.058594 25.644531 16.15625 25.640625 16.246094 C 25.597656 16.902344 25.597656 16.902344 25.882812 17.472656 C 26.0625 17.65625 26.265625 17.8125 26.46875 17.964844 C 26.609375 18.070312 26.738281 18.1875 26.871094 18.3125 C 27.007812 18.433594 27.144531 18.554688 27.28125 18.671875 C 27.335938 18.71875 27.390625 18.761719 27.445312 18.808594 C 27.488281 18.847656 27.539062 18.890625 27.585938 18.929688 C 28.03125 19.429688 28.039062 19.941406 28.035156 20.578125 C 28.035156 20.667969 28.035156 20.757812 28.035156 20.851562 C 28.035156 21.039062 28.035156 21.226562 28.035156 21.417969 C 28.03125 21.660156 28.035156 21.902344 28.035156 22.148438 C 28.035156 22.335938 28.035156 22.523438 28.035156 22.710938 C 28.035156 22.800781 28.035156 22.886719 28.035156 22.976562 C 28.039062 23.53125 28.019531 24.003906 27.636719 24.4375 C 27.308594 24.757812 26.910156 24.890625 26.460938 24.890625 C 26.417969 24.890625 26.382812 24.886719 26.339844 24.886719 C 26.300781 24.886719 26.257812 24.886719 26.21875 24.886719 C 26.117188 24.886719 26.023438 24.882812 25.921875 24.882812 C 25.941406 24.941406 25.960938 24.996094 25.980469 25.054688 C 26.054688 25.269531 26.132812 25.484375 26.203125 25.699219 C 26.230469 25.789062 26.265625 25.882812 26.296875 25.972656 C 26.34375 26.105469 26.390625 26.242188 26.433594 26.375 C 26.449219 26.414062 26.464844 26.453125 26.476562 26.496094 C 26.59375 26.84375 26.636719 27.171875 26.515625 27.523438 C 26.375 27.730469 26.203125 27.886719 25.976562 28 C 25.898438 28.003906 25.816406 28.007812 25.738281 28.007812 C 25.6875 28.007812 25.640625 28.007812 25.589844 28.007812 C 25.535156 28.007812 25.476562 28.007812 25.421875 28.007812 C 25.359375 28.007812 25.300781 28.007812 25.242188 28.007812 C 25.046875 28.007812 24.847656 28.007812 24.648438 28.007812 C 24.507812 28.007812 24.367188 28.007812 24.226562 28.007812 C 23.804688 28.015625 23.378906 28.015625 22.953125 28.015625 C 22.753906 28.015625 22.554688 28.015625 22.351562 28.015625 C 21.6875 28.015625 21.027344 28.015625 20.363281 28.015625 C 20.1875 28.015625 20.015625 28.019531 19.84375 28.019531 C 19.800781 28.019531 19.761719 28.019531 19.714844 28.019531 C 19.023438 28.019531 18.324219 28.019531 17.632812 28.019531 C 16.921875 28.023438 16.207031 28.023438 15.496094 28.023438 C 15.09375 28.023438 14.691406 28.023438 14.296875 28.023438 C 13.917969 28.027344 13.539062 28.027344 13.164062 28.027344 C 13.03125 28.027344 12.886719 28.027344 12.75 28.027344 C 12.5625 28.027344 12.375 28.027344 12.1875 28.027344 C 12.105469 28.027344 12.105469 28.027344 12.015625 28.027344 C 11.683594 28.027344 11.484375 27.980469 11.210938 27.78125 C 11.007812 27.523438 10.957031 27.3125 10.960938 26.988281 C 11 26.75 11.082031 26.554688 11.183594 26.335938 C 11.960938 24.53125 11.953125 22.820312 11.929688 20.882812 C 11.929688 20.828125 11.929688 20.773438 11.929688 20.71875 C 11.925781 20.460938 11.921875 20.207031 11.917969 19.953125 C 11.917969 19.859375 11.914062 19.769531 11.914062 19.679688 C 11.914062 19.636719 11.90625 19.597656 11.90625 19.554688 C 11.902344 19.277344 11.902344 19.277344 11.996094 19.140625 C 12.136719 19.054688 12.25 19.0625 12.414062 19.085938 C 12.46875 19.140625 12.523438 19.195312 12.578125 19.25 C 12.578125 20.765625 12.578125 22.28125 12.578125 23.84375 C 15.917969 23.84375 19.253906 23.84375 22.695312 23.84375 C 22.695312 22.492188 22.695312 21.136719 22.695312 19.742188 C 22.941406 19.191406 22.941406 19.191406 23.125 19.027344 C 23.1875 18.972656 23.1875 18.972656 23.246094 18.917969 C 23.292969 18.882812 23.332031 18.839844 23.378906 18.804688 C 23.46875 18.71875 23.5625 18.628906 23.652344 18.546875 C 23.792969 18.414062 23.9375 18.285156 24.085938 18.15625 C 24.710938 17.628906 24.710938 17.628906 25.007812 16.898438 C 25.042969 16.386719 25.042969 16.386719 24.863281 15.9375 C 24.703125 15.804688 24.503906 15.835938 24.304688 15.835938 C 24.257812 15.835938 24.207031 15.835938 24.164062 15.835938 C 24.058594 15.835938 23.953125 15.835938 23.847656 15.835938 C 23.683594 15.835938 23.519531 15.835938 23.355469 15.835938 C 23.007812 15.832031 22.660156 15.832031 22.3125 15.832031 C 21.90625 15.832031 21.507812 15.832031 21.101562 15.828125 C 20.941406 15.828125 20.777344 15.828125 20.617188 15.828125 C 20.515625 15.828125 20.417969 15.828125 20.320312 15.828125 C 20.273438 15.828125 20.230469 15.828125 20.183594 15.828125 C 19.875 15.824219 19.875 15.824219 19.761719 15.730469 C 19.6875 15.640625 19.6875 15.640625 19.664062 15.476562 C 19.6875 15.3125 19.6875 15.3125 19.769531 15.222656 C 19.960938 15.121094 20.140625 15.128906 20.347656 15.128906 C 20.390625 15.132812 20.429688 15.132812 20.476562 15.132812 C 20.609375 15.132812 20.746094 15.132812 20.875 15.140625 C 20.96875 15.140625 21.058594 15.140625 21.148438 15.140625 C 21.375 15.144531 21.597656 15.144531 21.820312 15.148438 C 21.820312 13.453125 21.816406 11.753906 21.8125 10.058594 C 21.8125 9.859375 21.8125 9.652344 21.8125 9.453125 C 21.8125 9.414062 21.8125 9.375 21.8125 9.332031 C 21.8125 8.6875 21.8125 8.039062 21.8125 7.398438 C 21.8125 6.730469 21.804688 6.070312 21.804688 5.40625 C 21.804688 5 21.800781 4.589844 21.804688 4.179688 C 21.804688 3.863281 21.800781 3.550781 21.800781 3.234375 C 21.800781 3.109375 21.800781 2.980469 21.800781 2.851562 C 21.800781 2.675781 21.800781 2.5 21.800781 2.324219 C 21.800781 2.273438 21.800781 2.222656 21.800781 2.167969 C 21.796875 1.839844 21.71875 1.609375 21.554688 1.316406 C 21.492188 1.203125 21.492188 1.203125 21.4375 1.039062 C 21.335938 0.980469 21.335938 0.980469 21.21875 0.929688 C 21.183594 0.910156 21.144531 0.894531 21.109375 0.875 C 21.078125 0.855469 21.039062 0.835938 21.003906 0.816406 C 20.96875 0.796875 20.929688 0.78125 20.894531 0.761719 C 20.640625 0.652344 20.375 0.648438 20.101562 0.648438 C 20.0625 0.640625 20.019531 0.640625 19.980469 0.640625 C 19.847656 0.640625 19.714844 0.640625 19.582031 0.636719 C 19.492188 0.636719 19.398438 0.636719 19.308594 0.632812 C 19.066406 0.632812 18.828125 0.628906 18.589844 0.628906 C 18.34375 0.625 18.097656 0.621094 17.851562 0.621094 C 17.367188 0.609375 16.890625 0.605469 16.40625 0.601562 C 16.40625 1 16.40625 1.394531 16.40625 1.804688 C 16.539062 1.804688 16.664062 1.804688 16.796875 1.800781 C 17.230469 1.800781 17.660156 1.796875 18.085938 1.796875 C 18.347656 1.796875 18.609375 1.796875 18.867188 1.789062 C 19.117188 1.789062 19.367188 1.789062 19.625 1.789062 C 19.71875 1.789062 19.816406 1.785156 19.910156 1.785156 C 20.042969 1.785156 20.175781 1.785156 20.3125 1.785156 C 20.351562 1.785156 20.390625 1.785156 20.429688 1.785156 C 20.695312 1.785156 20.695312 1.785156 20.816406 1.863281 C 20.925781 2.023438 20.914062 2.183594 20.914062 2.371094 C 20.914062 2.410156 20.914062 2.457031 20.914062 2.496094 C 20.914062 2.632812 20.914062 2.773438 20.914062 2.914062 C 20.914062 3.011719 20.914062 3.113281 20.914062 3.210938 C 20.914062 3.480469 20.914062 3.75 20.914062 4.023438 C 20.914062 4.304688 20.914062 4.589844 20.914062 4.871094 C 20.914062 5.34375 20.914062 5.820312 20.914062 6.292969 C 20.910156 6.84375 20.914062 7.390625 20.914062 7.945312 C 20.914062 8.414062 20.914062 8.882812 20.914062 9.355469 C 20.914062 9.640625 20.914062 9.917969 20.914062 10.199219 C 20.914062 10.464844 20.914062 10.726562 20.914062 10.992188 C 20.914062 11.09375 20.914062 11.1875 20.914062 11.285156 C 20.914062 11.414062 20.914062 11.554688 20.914062 11.683594 C 20.914062 11.722656 20.914062 11.761719 20.914062 11.796875 C 20.910156 11.957031 20.910156 12.0625 20.816406 12.191406 C 20.671875 12.285156 20.566406 12.273438 20.398438 12.25 C 20.261719 12.121094 20.234375 12.039062 20.214844 11.851562 C 20.214844 11.785156 20.214844 11.710938 20.214844 11.644531 C 20.214844 11.601562 20.214844 11.5625 20.214844 11.519531 C 20.214844 11.394531 20.214844 11.261719 20.214844 11.128906 C 20.214844 11.03125 20.214844 10.9375 20.214844 10.847656 C 20.214844 10.585938 20.214844 10.332031 20.214844 10.078125 C 20.21875 9.808594 20.21875 9.542969 20.21875 9.273438 C 20.21875 8.769531 20.21875 8.257812 20.21875 7.75 C 20.226562 7.179688 20.226562 6.597656 20.226562 6.019531 C 20.230469 4.835938 20.230469 3.644531 20.234375 2.460938 C 19.738281 2.460938 19.246094 2.460938 18.75 2.460938 C 18.515625 2.464844 18.289062 2.464844 18.0625 2.464844 C 17.835938 2.460938 17.613281 2.464844 17.390625 2.464844 C 17.308594 2.464844 17.222656 2.464844 17.140625 2.464844 C 16.695312 2.4375 16.695312 2.4375 16.3125 2.597656 C 16.242188 2.710938 16.242188 2.710938 16.1875 2.898438 C 15.929688 3.140625 15.742188 3.175781 15.390625 3.179688 C 15.351562 3.179688 15.316406 3.179688 15.28125 3.179688 C 15.164062 3.179688 15.039062 3.179688 14.921875 3.179688 C 14.839844 3.1875 14.75 3.1875 14.671875 3.1875 C 14.492188 3.1875 14.320312 3.1875 14.140625 3.1875 C 13.917969 3.1875 13.695312 3.1875 13.472656 3.191406 C 13.296875 3.191406 13.125 3.191406 12.953125 3.191406 C 12.871094 3.191406 12.789062 3.191406 12.707031 3.191406 C 12.585938 3.191406 12.472656 3.191406 12.359375 3.191406 C 12.289062 3.191406 12.226562 3.191406 12.160156 3.191406 C 11.863281 3.15625 11.652344 3.042969 11.460938 2.816406 C 11.433594 2.785156 11.40625 2.753906 11.378906 2.71875 C 11.320312 2.625 11.320312 2.625 11.320312 2.460938 C 10.148438 2.460938 8.972656 2.460938 7.765625 2.460938 C 7.765625 2.917969 7.769531 3.371094 7.769531 3.84375 C 7.769531 4.171875 7.769531 4.492188 7.769531 4.816406 C 7.769531 5.242188 7.773438 5.660156 7.773438 6.085938 C 7.773438 6.453125 7.773438 6.820312 7.773438 7.191406 C 7.773438 7.328125 7.773438 7.46875 7.78125 7.609375 C 7.78125 7.8125 7.78125 8.007812 7.78125 8.203125 C 7.78125 8.261719 7.78125 8.320312 7.78125 8.382812 C 7.78125 8.4375 7.78125 8.492188 7.78125 8.546875 C 7.78125 8.589844 7.78125 8.636719 7.78125 8.6875 C 7.765625 8.804688 7.765625 8.804688 7.65625 8.96875 C 7.496094 9.019531 7.496094 9.019531 7.328125 9.023438 C 7.1875 8.914062 7.117188 8.84375 7.082031 8.671875 C 7.082031 8.59375 7.082031 8.59375 7.082031 8.523438 C 7.082031 8.460938 7.082031 8.402344 7.082031 8.34375 C 7.082031 8.28125 7.082031 8.222656 7.082031 8.152344 C 7.082031 8.089844 7.082031 8.019531 7.082031 7.953125 C 7.082031 7.769531 7.082031 7.585938 7.082031 7.40625 C 7.082031 7.21875 7.082031 7.027344 7.082031 6.835938 C 7.082031 6.515625 7.082031 6.199219 7.082031 5.875 C 7.085938 5.503906 7.085938 5.136719 7.085938 4.765625 C 7.082031 4.410156 7.085938 4.054688 7.085938 3.699219 C 7.085938 3.550781 7.085938 3.394531 7.085938 3.246094 C 7.085938 3.035156 7.085938 2.820312 7.085938 2.609375 C 7.085938 2.546875 7.085938 2.484375 7.085938 2.421875 C 7.085938 2.367188 7.085938 2.304688 7.085938 2.246094 C 7.085938 2.195312 7.085938 2.148438 7.085938 2.097656 C 7.113281 1.941406 7.148438 1.894531 7.273438 1.804688 C 7.445312 1.785156 7.445312 1.785156 7.660156 1.785156 C 7.695312 1.785156 7.738281 1.785156 7.773438 1.785156 C 7.90625 1.785156 8.035156 1.785156 8.164062 1.785156 C 8.253906 1.789062 8.339844 1.789062 8.429688 1.789062 C 8.664062 1.789062 8.898438 1.789062 9.136719 1.796875 C 9.375 1.796875 9.617188 1.796875 9.851562 1.796875 C 10.328125 1.800781 10.796875 1.800781 11.265625 1.804688 C 11.265625 1.40625 11.265625 1.011719 11.265625 0.601562 C 10.78125 0.605469 10.300781 0.609375 9.816406 0.617188 C 9.59375 0.617188 9.371094 0.621094 9.148438 0.621094 C 8.929688 0.621094 8.714844 0.625 8.496094 0.628906 C 8.414062 0.628906 8.332031 0.628906 8.25 0.628906 C 7.398438 0.628906 7.398438 0.628906 6.671875 1.039062 C 6.636719 1.039062 6.597656 1.039062 6.5625 1.039062 C 6.527344 1.113281 6.488281 1.183594 6.453125 1.257812 C 6.433594 1.292969 6.417969 1.332031 6.394531 1.371094 C 6.253906 1.667969 6.203125 1.910156 6.207031 2.238281 C 6.207031 2.28125 6.207031 2.332031 6.207031 2.378906 C 6.207031 2.480469 6.207031 2.578125 6.207031 2.675781 C 6.207031 2.835938 6.207031 2.988281 6.207031 3.148438 C 6.203125 3.421875 6.203125 3.699219 6.203125 3.976562 C 6.203125 4.421875 6.203125 4.863281 6.203125 5.304688 C 6.199219 5.460938 6.203125 5.613281 6.203125 5.769531 C 6.203125 5.867188 6.203125 5.960938 6.199219 6.050781 C 6.203125 6.097656 6.203125 6.140625 6.203125 6.183594 C 6.199219 6.359375 6.1875 6.488281 6.105469 6.644531 C 6.015625 6.726562 6.015625 6.726562 5.820312 6.75 C 5.761719 6.746094 5.695312 6.734375 5.632812 6.726562 C 5.492188 6.515625 5.503906 6.347656 5.507812 6.105469 C 5.503906 6.0625 5.503906 6.015625 5.503906 5.964844 C 5.503906 5.8125 5.503906 5.660156 5.503906 5.503906 C 5.503906 5.394531 5.503906 5.289062 5.503906 5.179688 C 5.503906 4.957031 5.503906 4.730469 5.503906 4.507812 C 5.503906 4.21875 5.5 3.933594 5.5 3.644531 C 5.5 3.421875 5.496094 3.199219 5.5 2.980469 C 5.496094 2.871094 5.496094 2.765625 5.496094 2.660156 C 5.492188 1.890625 5.523438 1.226562 6.050781 0.617188 C 6.546875 0.132812 7.050781 -0.0195312 7.726562 -0.015625 Z M 11.921875 0.601562 C 11.921875 1.179688 11.921875 1.753906 11.921875 2.351562 C 12.066406 2.53125 12.066406 2.53125 12.234375 2.535156 C 12.300781 2.535156 12.359375 2.535156 12.421875 2.535156 C 12.492188 2.539062 12.5625 2.539062 12.632812 2.539062 C 12.710938 2.539062 12.789062 2.535156 12.859375 2.535156 C 12.9375 2.535156 13.015625 2.535156 13.09375 2.535156 C 13.257812 2.535156 13.421875 2.535156 13.585938 2.535156 C 13.796875 2.535156 14.003906 2.535156 14.214844 2.535156 C 14.375 2.535156 14.53125 2.535156 14.691406 2.535156 C 14.769531 2.535156 14.847656 2.535156 14.925781 2.535156 C 15.035156 2.535156 15.140625 2.53125 15.25 2.53125 C 15.308594 2.53125 15.371094 2.53125 15.4375 2.53125 C 15.601562 2.523438 15.601562 2.523438 15.75 2.40625 C 15.941406 1.835938 15.804688 1.203125 15.804688 0.601562 C 14.523438 0.601562 13.242188 0.601562 11.921875 0.601562 Z M 24.3125 18.761719 C 24.242188 18.832031 24.171875 18.898438 24.097656 18.96875 C 24 19.066406 23.898438 19.167969 23.796875 19.269531 C 23.765625 19.296875 23.734375 19.328125 23.703125 19.359375 C 23.320312 19.742188 23.277344 20.109375 23.273438 20.636719 C 23.273438 20.707031 23.273438 20.78125 23.273438 20.855469 C 23.273438 20.925781 23.273438 21.003906 23.273438 21.082031 C 23.273438 21.238281 23.273438 21.398438 23.273438 21.554688 C 23.277344 21.757812 23.273438 21.957031 23.273438 22.15625 C 23.273438 22.316406 23.273438 22.472656 23.273438 22.625 C 23.273438 22.734375 23.273438 22.84375 23.273438 22.960938 C 23.277344 23.40625 23.296875 23.703125 23.589844 24.054688 C 23.824219 24.25 24.023438 24.296875 24.328125 24.296875 C 24.421875 24.296875 24.421875 24.296875 24.515625 24.296875 C 24.582031 24.296875 24.644531 24.289062 24.714844 24.289062 C 24.78125 24.289062 24.851562 24.289062 24.917969 24.289062 C 25.128906 24.285156 25.335938 24.285156 25.539062 24.28125 C 25.597656 24.28125 25.65625 24.28125 25.722656 24.28125 C 25.886719 24.277344 26.046875 24.277344 26.210938 24.273438 C 26.253906 24.273438 26.304688 24.273438 26.355469 24.273438 C 26.6875 24.257812 26.921875 24.167969 27.179688 23.953125 C 27.378906 23.683594 27.402344 23.445312 27.40625 23.117188 C 27.40625 23.050781 27.40625 22.984375 27.40625 22.914062 C 27.40625 22.835938 27.40625 22.765625 27.40625 22.6875 C 27.414062 22.609375 27.414062 22.53125 27.414062 22.453125 C 27.414062 22.292969 27.414062 22.128906 27.414062 21.96875 C 27.414062 21.765625 27.414062 21.554688 27.417969 21.351562 C 27.417969 21.191406 27.417969 21.03125 27.417969 20.871094 C 27.417969 20.796875 27.417969 20.71875 27.417969 20.644531 C 27.429688 19.984375 27.429688 19.984375 27.101562 19.433594 C 27.054688 19.390625 27.011719 19.351562 26.960938 19.304688 C 26.921875 19.257812 26.875 19.21875 26.828125 19.171875 C 26.582031 18.921875 26.335938 18.683594 26.066406 18.457031 C 25.992188 18.390625 25.917969 18.316406 25.84375 18.242188 C 25.765625 18.140625 25.765625 18.140625 25.648438 18.15625 C 25.585938 18.648438 25.585938 18.648438 25.738281 19.089844 C 25.847656 19.167969 25.96875 19.234375 26.085938 19.304688 C 26.320312 19.570312 26.378906 19.832031 26.359375 20.179688 C 26.296875 20.476562 26.195312 20.707031 25.945312 20.894531 C 25.625 21.074219 25.351562 21.085938 24.992188 21.054688 C 24.800781 20.976562 24.800781 20.976562 24.664062 20.890625 C 24.582031 20.863281 24.582031 20.863281 24.5 20.835938 C 24.441406 20.742188 24.441406 20.742188 24.390625 20.617188 C 24.371094 20.578125 24.355469 20.535156 24.335938 20.492188 C 24.230469 20.203125 24.226562 19.859375 24.320312 19.570312 C 24.476562 19.273438 24.699219 19.121094 24.992188 18.976562 C 24.992188 18.707031 24.992188 18.433594 24.992188 18.15625 C 24.800781 18.15625 24.449219 18.625 24.3125 18.761719 Z M 24.996094 19.65625 C 24.859375 19.824219 24.847656 19.921875 24.859375 20.128906 C 24.878906 20.242188 24.878906 20.242188 24.96875 20.371094 C 25.152344 20.484375 25.269531 20.484375 25.484375 20.453125 C 25.648438 20.339844 25.695312 20.261719 25.757812 20.074219 C 25.773438 19.902344 25.773438 19.902344 25.675781 19.75 C 25.453125 19.558594 25.261719 19.527344 24.996094 19.65625 Z M 12.46875 24.445312 C 12.351562 24.792969 12.234375 25.132812 12.117188 25.480469 C 12.078125 25.59375 12.039062 25.710938 12 25.832031 C 11.941406 26 11.886719 26.167969 11.828125 26.335938 C 11.796875 26.414062 11.796875 26.414062 11.773438 26.496094 C 11.648438 26.855469 11.648438 26.855469 11.648438 27.234375 C 11.796875 27.375 11.902344 27.421875 12.109375 27.421875 C 12.160156 27.421875 12.203125 27.421875 12.253906 27.421875 C 12.308594 27.421875 12.363281 27.421875 12.417969 27.421875 C 12.5 27.421875 12.5 27.421875 12.585938 27.421875 C 12.777344 27.421875 12.96875 27.421875 13.15625 27.421875 C 13.292969 27.421875 13.429688 27.421875 13.566406 27.421875 C 13.898438 27.421875 14.226562 27.421875 14.5625 27.421875 C 14.828125 27.421875 15.097656 27.421875 15.367188 27.421875 C 15.40625 27.421875 15.445312 27.421875 15.484375 27.421875 C 15.5625 27.421875 15.640625 27.421875 15.71875 27.421875 C 16.445312 27.421875 17.175781 27.421875 17.90625 27.421875 C 18.535156 27.417969 19.160156 27.421875 19.789062 27.421875 C 20.511719 27.421875 21.242188 27.421875 21.96875 27.421875 C 22.046875 27.421875 22.125 27.421875 22.203125 27.421875 C 22.238281 27.421875 22.277344 27.421875 22.316406 27.421875 C 22.585938 27.421875 22.855469 27.421875 23.125 27.421875 C 23.488281 27.421875 23.847656 27.421875 24.207031 27.421875 C 24.34375 27.421875 24.476562 27.421875 24.609375 27.421875 C 24.792969 27.421875 24.972656 27.421875 25.152344 27.421875 C 25.207031 27.421875 25.261719 27.421875 25.316406 27.421875 C 25.359375 27.421875 25.410156 27.421875 25.460938 27.421875 C 25.503906 27.421875 25.542969 27.421875 25.589844 27.421875 C 25.734375 27.394531 25.8125 27.328125 25.921875 27.234375 C 25.890625 26.914062 25.828125 26.636719 25.71875 26.335938 C 25.699219 26.273438 25.699219 26.273438 25.675781 26.210938 C 25.628906 26.078125 25.578125 25.945312 25.535156 25.8125 C 25.503906 25.722656 25.46875 25.628906 25.445312 25.542969 C 25.367188 25.320312 25.289062 25.101562 25.210938 24.882812 C 25.175781 24.882812 25.136719 24.882812 25.101562 24.886719 C 24.941406 24.886719 24.777344 24.890625 24.613281 24.890625 C 24.527344 24.898438 24.527344 24.898438 24.445312 24.898438 C 24.078125 24.902344 23.679688 24.898438 23.378906 24.65625 C 23.136719 24.460938 22.941406 24.40625 22.632812 24.414062 C 22.585938 24.414062 22.539062 24.414062 22.496094 24.414062 C 22.351562 24.414062 22.207031 24.414062 22.0625 24.414062 C 21.957031 24.414062 21.851562 24.414062 21.746094 24.414062 C 21.464844 24.414062 21.183594 24.414062 20.894531 24.417969 C 20.597656 24.417969 20.304688 24.417969 20.007812 24.417969 C 19.445312 24.421875 18.886719 24.421875 18.324219 24.425781 C 17.6875 24.425781 17.046875 24.429688 16.410156 24.429688 C 15.09375 24.4375 13.78125 24.441406 12.46875 24.445312 Z M 12.46875 24.445312 "/>
<path style=" stroke:none;fill-rule:nonzero;fill:#dc2626;fill-opacity:1;" d="M 3.5 9.441406 C 3.574219 9.441406 3.644531 9.441406 3.71875 9.441406 C 3.867188 9.441406 4.023438 9.441406 4.175781 9.441406 C 4.371094 9.441406 4.566406 9.441406 4.757812 9.441406 C 4.90625 9.441406 5.0625 9.441406 5.214844 9.441406 C 5.320312 9.441406 5.421875 9.441406 5.53125 9.441406 C 6.390625 9.453125 6.390625 9.453125 6.726562 9.789062 C 6.867188 10.035156 6.941406 10.28125 7.003906 10.558594 C 7.015625 10.601562 7.023438 10.640625 7.03125 10.683594 C 7.054688 10.769531 7.074219 10.855469 7.089844 10.945312 C 7.125 11.078125 7.15625 11.210938 7.1875 11.34375 C 7.203125 11.429688 7.222656 11.511719 7.242188 11.597656 C 7.25 11.632812 7.265625 11.675781 7.273438 11.71875 C 7.320312 11.929688 7.34375 12.09375 7.273438 12.304688 C 7.164062 12.414062 7.164062 12.414062 7.003906 12.433594 C 6.835938 12.414062 6.835938 12.414062 6.75 12.355469 C 6.640625 12.210938 6.617188 12.066406 6.578125 11.890625 C 6.566406 11.851562 6.558594 11.820312 6.554688 11.785156 C 6.527344 11.671875 6.503906 11.558594 6.476562 11.449219 C 6.460938 11.371094 6.445312 11.296875 6.425781 11.226562 C 6.394531 11.082031 6.367188 10.945312 6.335938 10.804688 C 6.285156 10.59375 6.234375 10.382812 6.179688 10.171875 C 5.734375 10.167969 5.285156 10.167969 4.839844 10.167969 C 4.632812 10.167969 4.425781 10.164062 4.21875 10.164062 C 4.019531 10.164062 3.820312 10.164062 3.617188 10.164062 C 3.539062 10.164062 3.46875 10.164062 3.390625 10.15625 C 3.28125 10.15625 3.175781 10.15625 3.066406 10.15625 C 3.007812 10.15625 2.949219 10.15625 2.882812 10.15625 C 2.71875 10.164062 2.71875 10.164062 2.570312 10.28125 C 2.515625 10.425781 2.515625 10.425781 2.480469 10.605469 C 2.464844 10.671875 2.453125 10.742188 2.433594 10.808594 C 2.421875 10.882812 2.402344 10.960938 2.386719 11.03125 C 2.371094 11.109375 2.351562 11.183594 2.335938 11.261719 C 2.292969 11.460938 2.246094 11.664062 2.207031 11.863281 C 2.160156 12.0625 2.113281 12.269531 2.070312 12.472656 C 1.976562 12.871094 1.890625 13.269531 1.804688 13.671875 C 1.875 13.671875 1.945312 13.671875 2.019531 13.671875 C 2.679688 13.667969 3.339844 13.664062 4 13.664062 C 4.34375 13.664062 4.679688 13.664062 5.023438 13.65625 C 5.351562 13.65625 5.679688 13.65625 6.007812 13.65625 C 6.128906 13.65625 6.257812 13.652344 6.378906 13.652344 C 6.558594 13.652344 6.730469 13.652344 6.910156 13.652344 C 6.960938 13.652344 7.007812 13.652344 7.0625 13.652344 C 7.53125 13.652344 7.976562 13.730469 8.332031 14.058594 C 8.375 14.09375 8.417969 14.132812 8.460938 14.171875 C 8.785156 14.582031 8.835938 15.015625 8.828125 15.527344 C 8.828125 15.585938 8.828125 15.644531 8.824219 15.710938 C 8.824219 15.894531 8.824219 16.085938 8.820312 16.277344 C 8.820312 16.40625 8.820312 16.535156 8.8125 16.664062 C 8.8125 16.980469 8.808594 17.296875 8.804688 17.609375 C 8.835938 17.609375 8.867188 17.609375 8.898438 17.609375 C 9.039062 17.605469 9.179688 17.605469 9.316406 17.601562 C 9.367188 17.601562 9.414062 17.601562 9.464844 17.601562 C 9.511719 17.601562 9.554688 17.601562 9.605469 17.601562 C 9.648438 17.601562 9.695312 17.59375 9.734375 17.59375 C 9.84375 17.609375 9.84375 17.609375 9.953125 17.71875 C 9.960938 17.875 9.96875 18.023438 9.96875 18.179688 C 9.96875 18.226562 9.96875 18.269531 9.96875 18.320312 C 9.96875 18.414062 9.96875 18.511719 9.96875 18.609375 C 9.96875 18.757812 9.96875 18.902344 9.96875 19.054688 C 9.96875 19.148438 9.96875 19.242188 9.96875 19.335938 C 9.96875 19.382812 9.96875 19.421875 9.96875 19.46875 C 9.96875 19.78125 9.96875 19.78125 9.84375 19.90625 C 9.734375 19.921875 9.734375 19.921875 9.605469 19.914062 C 9.5625 19.914062 9.511719 19.914062 9.464844 19.914062 C 9.414062 19.914062 9.367188 19.914062 9.316406 19.914062 C 9.269531 19.910156 9.21875 19.910156 9.167969 19.910156 C 9.046875 19.910156 8.929688 19.90625 8.804688 19.90625 C 8.804688 19.9375 8.804688 19.976562 8.804688 20.007812 C 8.808594 20.351562 8.8125 20.699219 8.820312 21.046875 C 8.820312 21.179688 8.820312 21.304688 8.824219 21.4375 C 8.824219 21.621094 8.824219 21.804688 8.828125 21.992188 C 8.828125 22.054688 8.828125 22.109375 8.828125 22.167969 C 8.828125 22.699219 8.667969 23.085938 8.308594 23.476562 C 8.128906 23.632812 7.902344 23.789062 7.65625 23.789062 C 7.652344 23.859375 7.640625 23.921875 7.636719 23.988281 C 7.601562 24.332031 7.523438 24.664062 7.445312 24.996094 C 7.433594 25.066406 7.417969 25.132812 7.402344 25.203125 C 7.367188 25.34375 7.335938 25.488281 7.304688 25.628906 C 7.265625 25.8125 7.222656 25.992188 7.183594 26.171875 C 7.144531 26.34375 7.105469 26.523438 7.0625 26.695312 C 7.050781 26.761719 7.035156 26.824219 7.023438 26.890625 C 6.851562 27.640625 6.851562 27.640625 6.527344 27.898438 C 6.316406 28.015625 6.195312 28.027344 5.957031 28.027344 C 5.898438 28.027344 5.898438 28.027344 5.84375 28.027344 C 5.71875 28.03125 5.597656 28.03125 5.472656 28.027344 C 5.386719 28.027344 5.300781 28.027344 5.21875 28.03125 C 5.035156 28.03125 4.859375 28.027344 4.679688 28.027344 C 4.449219 28.027344 4.21875 28.027344 3.988281 28.027344 C 3.8125 28.03125 3.636719 28.03125 3.460938 28.027344 C 3.371094 28.027344 3.289062 28.027344 3.203125 28.03125 C 3.085938 28.03125 2.96875 28.027344 2.847656 28.027344 C 2.75 28.027344 2.75 28.027344 2.648438 28.027344 C 2.355469 27.984375 2.1875 27.851562 2.007812 27.625 C 1.910156 27.445312 1.855469 27.289062 1.808594 27.089844 C 1.789062 27.019531 1.777344 26.953125 1.757812 26.882812 C 1.75 26.847656 1.742188 26.8125 1.730469 26.773438 C 1.710938 26.667969 1.679688 26.558594 1.660156 26.453125 C 1.5 25.785156 1.5 25.785156 1.53125 25.429688 C 1.621094 25.316406 1.621094 25.316406 1.75 25.265625 C 1.917969 25.257812 1.917969 25.257812 2.078125 25.320312 C 2.273438 25.75 2.351562 26.222656 2.445312 26.683594 C 2.460938 26.742188 2.476562 26.804688 2.488281 26.871094 C 2.5 26.925781 2.511719 26.980469 2.523438 27.039062 C 2.574219 27.195312 2.605469 27.25 2.734375 27.34375 C 2.878906 27.371094 2.878906 27.371094 3.046875 27.367188 C 3.117188 27.367188 3.179688 27.367188 3.25 27.367188 C 3.316406 27.367188 3.386719 27.367188 3.460938 27.367188 C 3.53125 27.367188 3.605469 27.367188 3.679688 27.367188 C 3.832031 27.371094 3.984375 27.367188 4.136719 27.367188 C 4.335938 27.367188 4.523438 27.367188 4.722656 27.371094 C 4.90625 27.371094 5.09375 27.371094 5.28125 27.371094 C 5.351562 27.371094 5.421875 27.371094 5.496094 27.371094 C 5.59375 27.371094 5.59375 27.371094 5.691406 27.371094 C 5.777344 27.371094 5.777344 27.371094 5.867188 27.371094 C 6.054688 27.335938 6.121094 27.28125 6.234375 27.125 C 6.292969 26.980469 6.292969 26.980469 6.324219 26.8125 C 6.339844 26.746094 6.351562 26.683594 6.367188 26.617188 C 6.378906 26.550781 6.394531 26.484375 6.40625 26.414062 C 6.433594 26.304688 6.457031 26.199219 6.480469 26.09375 C 6.511719 25.945312 6.542969 25.792969 6.578125 25.644531 C 6.621094 25.421875 6.671875 25.191406 6.722656 24.96875 C 6.761719 24.796875 6.800781 24.617188 6.835938 24.445312 C 6.851562 24.382812 6.863281 24.316406 6.875 24.253906 C 6.894531 24.171875 6.894531 24.171875 6.914062 24.085938 C 6.945312 23.953125 6.945312 23.953125 7 23.84375 C 6.929688 23.84375 6.859375 23.84375 6.785156 23.84375 C 6.125 23.847656 5.464844 23.851562 4.804688 23.851562 C 4.460938 23.851562 4.125 23.851562 3.78125 23.859375 C 3.453125 23.859375 3.125 23.859375 2.796875 23.859375 C 2.675781 23.859375 2.546875 23.863281 2.425781 23.863281 C 2.246094 23.863281 2.074219 23.863281 1.894531 23.863281 C 1.820312 23.863281 1.820312 23.863281 1.742188 23.863281 C 1.203125 23.863281 0.71875 23.738281 0.328125 23.351562 C 0.101562 23.054688 -0.00390625 22.808594 -0.0078125 22.429688 C -0.0078125 22.363281 -0.0078125 22.296875 -0.0078125 22.230469 C -0.0078125 22.152344 -0.0078125 22.078125 -0.0078125 22.007812 C -0.0078125 21.929688 -0.015625 21.851562 -0.015625 21.773438 C -0.015625 21.519531 -0.015625 21.265625 -0.015625 21.003906 C -0.015625 20.917969 -0.015625 20.832031 -0.015625 20.742188 C -0.0195312 20.375 -0.0195312 20.007812 -0.0195312 19.640625 C -0.0195312 19.117188 -0.0234375 18.59375 -0.0234375 18.066406 C -0.0273438 17.695312 -0.0273438 17.328125 -0.0273438 16.957031 C -0.0273438 16.738281 -0.0273438 16.515625 -0.03125 16.296875 C -0.03125 16.085938 -0.03125 15.882812 -0.03125 15.671875 C -0.03125 15.601562 -0.03125 15.523438 -0.03125 15.445312 C -0.0390625 14.933594 0.0078125 14.507812 0.367188 14.113281 C 0.523438 13.96875 0.640625 13.894531 0.847656 13.828125 C 1.046875 13.746094 1.046875 13.746094 1.113281 13.570312 C 1.128906 13.472656 1.128906 13.472656 1.152344 13.371094 C 1.164062 13.328125 1.167969 13.292969 1.175781 13.257812 C 1.195312 13.171875 1.210938 13.085938 1.230469 12.996094 C 1.285156 12.714844 1.347656 12.4375 1.414062 12.160156 C 1.441406 12.03125 1.46875 11.90625 1.496094 11.78125 C 1.507812 11.722656 1.523438 11.65625 1.535156 11.59375 C 1.5625 11.460938 1.59375 11.335938 1.621094 11.203125 C 1.664062 11.015625 1.703125 10.824219 1.746094 10.636719 C 1.757812 10.578125 1.769531 10.523438 1.78125 10.464844 C 1.859375 10.117188 1.953125 9.84375 2.242188 9.625 C 2.625 9.40625 3.070312 9.4375 3.5 9.441406 Z M 0.742188 14.710938 C 0.621094 14.949219 0.59375 15.128906 0.59375 15.394531 C 0.59375 15.457031 0.59375 15.515625 0.59375 15.582031 C 0.59375 15.648438 0.59375 15.71875 0.59375 15.785156 C 0.59375 15.855469 0.59375 15.929688 0.59375 16 C 0.59375 16.195312 0.59375 16.386719 0.59375 16.585938 C 0.59375 16.703125 0.59375 16.824219 0.585938 16.949219 C 0.585938 17.328125 0.585938 17.710938 0.585938 18.085938 C 0.585938 18.523438 0.585938 18.96875 0.585938 19.40625 C 0.582031 19.742188 0.582031 20.085938 0.582031 20.421875 C 0.582031 20.625 0.582031 20.828125 0.582031 21.03125 C 0.582031 21.253906 0.582031 21.484375 0.582031 21.710938 C 0.582031 21.773438 0.582031 21.84375 0.578125 21.910156 C 0.582031 22.296875 0.59375 22.609375 0.859375 22.914062 C 0.894531 22.9375 0.925781 22.964844 0.957031 22.988281 C 0.988281 23.015625 1.019531 23.042969 1.054688 23.070312 C 1.222656 23.183594 1.367188 23.195312 1.5625 23.195312 C 1.613281 23.195312 1.664062 23.195312 1.71875 23.195312 C 1.800781 23.195312 1.800781 23.195312 1.886719 23.195312 C 1.972656 23.195312 1.972656 23.195312 2.0625 23.195312 C 2.261719 23.203125 2.457031 23.203125 2.652344 23.203125 C 2.71875 23.203125 2.785156 23.203125 2.859375 23.203125 C 3.207031 23.203125 3.5625 23.203125 3.917969 23.207031 C 4.210938 23.207031 4.503906 23.207031 4.796875 23.207031 C 5.148438 23.210938 5.503906 23.210938 5.855469 23.210938 C 5.992188 23.210938 6.125 23.210938 6.261719 23.210938 C 6.449219 23.214844 6.640625 23.214844 6.828125 23.214844 C 6.882812 23.214844 6.941406 23.214844 6.996094 23.214844 C 7.332031 23.214844 7.59375 23.164062 7.875 22.96875 C 8.101562 22.730469 8.152344 22.550781 8.15625 22.226562 C 8.15625 22.164062 8.15625 22.101562 8.15625 22.035156 C 8.15625 21.964844 8.15625 21.898438 8.15625 21.824219 C 8.15625 21.75 8.15625 21.679688 8.15625 21.601562 C 8.15625 21.402344 8.15625 21.199219 8.15625 21 C 8.15625 20.875 8.15625 20.75 8.164062 20.625 C 8.164062 20.234375 8.164062 19.84375 8.164062 19.445312 C 8.164062 18.996094 8.164062 18.542969 8.164062 18.085938 C 8.167969 17.738281 8.167969 17.390625 8.167969 17.039062 C 8.167969 16.828125 8.167969 16.621094 8.167969 16.410156 C 8.167969 16.214844 8.167969 16.019531 8.167969 15.824219 C 8.167969 15.714844 8.167969 15.609375 8.171875 15.503906 C 8.167969 15.132812 8.164062 14.851562 7.902344 14.566406 C 7.675781 14.390625 7.523438 14.324219 7.242188 14.320312 C 7.191406 14.320312 7.136719 14.320312 7.085938 14.320312 C 7.027344 14.320312 6.972656 14.320312 6.914062 14.320312 C 6.855469 14.320312 6.796875 14.320312 6.730469 14.320312 C 6.535156 14.3125 6.339844 14.3125 6.140625 14.3125 C 6.039062 14.3125 6.039062 14.3125 5.933594 14.3125 C 5.613281 14.3125 5.296875 14.3125 4.972656 14.308594 C 4.601562 14.308594 4.234375 14.308594 3.863281 14.308594 C 3.546875 14.304688 3.226562 14.304688 2.90625 14.304688 C 2.769531 14.304688 2.632812 14.304688 2.496094 14.304688 C 2.304688 14.300781 2.117188 14.300781 1.929688 14.300781 C 1.875 14.300781 1.8125 14.300781 1.757812 14.300781 C 1.335938 14.304688 1.015625 14.375 0.742188 14.710938 Z M 8.804688 18.210938 C 8.804688 18.570312 8.804688 18.929688 8.804688 19.304688 C 8.96875 19.304688 9.128906 19.304688 9.296875 19.304688 C 9.296875 18.945312 9.296875 18.585938 9.296875 18.210938 C 9.132812 18.210938 8.972656 18.210938 8.804688 18.210938 Z M 8.804688 18.210938 "/>
<path style=" stroke:none;fill-rule:nonzero;fill:#dc2626;fill-opacity:1;" d="M 17.167969 6.992188 C 18.140625 7.792969 18.867188 8.960938 19.03125 10.226562 C 19.035156 10.273438 19.046875 10.316406 19.050781 10.363281 C 19.132812 11.0625 19.101562 11.765625 18.886719 12.441406 C 18.621094 13.292969 18.546875 14.054688 18.558594 14.945312 C 18.558594 14.988281 18.558594 15.035156 18.558594 15.074219 C 18.558594 15.15625 18.5625 15.238281 18.5625 15.320312 C 18.5625 15.601562 18.492188 15.753906 18.320312 15.96875 C 18.09375 16.15625 17.875 16.152344 17.589844 16.140625 C 17.550781 16.140625 17.507812 16.140625 17.46875 16.140625 C 17.371094 16.136719 17.273438 16.136719 17.171875 16.132812 C 17.164062 16.195312 17.164062 16.195312 17.152344 16.261719 C 17.117188 16.40625 17.117188 16.40625 17.007812 16.515625 C 16.757812 16.539062 16.511719 16.535156 16.261719 16.535156 C 16.136719 16.535156 16.015625 16.535156 15.886719 16.535156 C 15.808594 16.535156 15.730469 16.535156 15.65625 16.535156 C 15.582031 16.535156 15.507812 16.535156 15.4375 16.535156 C 15.257812 16.515625 15.257812 16.515625 15.167969 16.453125 C 15.0625 16.304688 15.070312 16.191406 15.070312 16.007812 C 15.070312 15.9375 15.070312 15.867188 15.070312 15.796875 C 15.070312 15.71875 15.070312 15.640625 15.070312 15.5625 C 15.070312 15.484375 15.070312 15.402344 15.070312 15.328125 C 15.070312 15.164062 15.070312 14.992188 15.070312 14.828125 C 15.074219 14.617188 15.070312 14.40625 15.070312 14.191406 C 15.070312 14.027344 15.070312 13.867188 15.070312 13.703125 C 15.070312 13.625 15.070312 13.542969 15.070312 13.46875 C 15.070312 13.359375 15.070312 13.25 15.070312 13.140625 C 15.070312 13.074219 15.070312 13.015625 15.070312 12.953125 C 15.09375 12.796875 15.09375 12.796875 15.167969 12.695312 C 15.316406 12.59375 15.46875 12.609375 15.648438 12.609375 C 15.691406 12.609375 15.726562 12.609375 15.769531 12.609375 C 15.84375 12.609375 15.929688 12.609375 16.007812 12.609375 C 16.132812 12.609375 16.257812 12.605469 16.378906 12.605469 C 16.457031 12.605469 16.539062 12.605469 16.617188 12.605469 C 16.683594 12.605469 16.757812 12.605469 16.828125 12.605469 C 17.007812 12.632812 17.007812 12.632812 17.113281 12.738281 C 17.171875 12.851562 17.171875 12.851562 17.171875 12.960938 C 17.21875 12.960938 17.261719 12.960938 17.308594 12.960938 C 17.367188 12.957031 17.425781 12.957031 17.484375 12.957031 C 17.574219 12.957031 17.574219 12.957031 17.664062 12.957031 C 17.800781 12.960938 17.914062 12.976562 18.046875 13.015625 C 18.050781 12.984375 18.0625 12.953125 18.066406 12.921875 C 18.105469 12.714844 18.148438 12.507812 18.195312 12.304688 C 18.503906 11.105469 18.394531 9.875 17.757812 8.789062 C 17.058594 7.703125 16.113281 6.976562 14.84375 6.652344 C 13.578125 6.445312 12.429688 6.761719 11.382812 7.484375 C 10.480469 8.175781 9.871094 9.21875 9.679688 10.335938 C 9.574219 11.152344 9.683594 11.894531 9.90625 12.683594 C 9.953125 12.851562 9.953125 12.851562 9.953125 13.015625 C 9.980469 13.007812 10.011719 12.996094 10.039062 12.988281 C 10.199219 12.957031 10.351562 12.957031 10.515625 12.957031 C 10.574219 12.957031 10.632812 12.957031 10.691406 12.960938 C 10.757812 12.960938 10.757812 12.960938 10.828125 12.960938 C 10.847656 12.914062 10.859375 12.875 10.878906 12.828125 C 10.9375 12.6875 10.9375 12.6875 10.992188 12.632812 C 11.238281 12.617188 11.488281 12.617188 11.734375 12.617188 C 11.859375 12.617188 11.984375 12.617188 12.109375 12.613281 C 12.1875 12.613281 12.269531 12.613281 12.34375 12.613281 C 12.417969 12.613281 12.492188 12.613281 12.5625 12.613281 C 12.742188 12.632812 12.742188 12.632812 12.832031 12.695312 C 12.9375 12.84375 12.929688 12.957031 12.929688 13.140625 C 12.929688 13.210938 12.929688 13.28125 12.929688 13.351562 C 12.929688 13.429688 12.929688 13.507812 12.929688 13.585938 C 12.929688 13.664062 12.929688 13.746094 12.929688 13.820312 C 12.929688 13.984375 12.929688 14.15625 12.929688 14.320312 C 12.925781 14.53125 12.929688 14.742188 12.929688 14.957031 C 12.929688 15.121094 12.929688 15.28125 12.929688 15.445312 C 12.929688 15.523438 12.929688 15.605469 12.929688 15.679688 C 12.929688 15.789062 12.929688 15.898438 12.929688 16.007812 C 12.929688 16.074219 12.929688 16.132812 12.929688 16.195312 C 12.90625 16.351562 12.90625 16.351562 12.832031 16.453125 C 12.683594 16.554688 12.53125 16.539062 12.351562 16.539062 C 12.289062 16.539062 12.289062 16.539062 12.230469 16.539062 C 12.15625 16.539062 12.070312 16.539062 11.992188 16.539062 C 11.867188 16.539062 11.742188 16.542969 11.621094 16.542969 C 11.542969 16.542969 11.460938 16.542969 11.382812 16.542969 C 11.316406 16.542969 11.242188 16.542969 11.171875 16.542969 C 10.992188 16.515625 10.992188 16.515625 10.886719 16.414062 C 10.828125 16.296875 10.828125 16.296875 10.828125 16.132812 C 10.769531 16.136719 10.710938 16.136719 10.648438 16.140625 C 10.570312 16.140625 10.492188 16.148438 10.414062 16.148438 C 10.371094 16.148438 10.332031 16.152344 10.296875 16.152344 C 10.007812 16.15625 9.847656 16.105469 9.625 15.914062 C 9.453125 15.6875 9.4375 15.484375 9.445312 15.207031 C 9.445312 15.121094 9.445312 15.035156 9.445312 14.949219 C 9.445312 14.902344 9.445312 14.859375 9.445312 14.8125 C 9.445312 13.914062 9.359375 13.128906 9.0625 12.277344 C 8.695312 11.050781 8.988281 9.640625 9.570312 8.53125 C 10.273438 7.296875 11.394531 6.425781 12.75 6.039062 C 14.277344 5.628906 15.941406 6.011719 17.167969 6.992188 Z M 11.484375 13.289062 C 11.484375 14.136719 11.484375 14.984375 11.484375 15.859375 C 11.734375 15.859375 11.992188 15.859375 12.25 15.859375 C 12.25 15.011719 12.25 14.164062 12.25 13.289062 C 12 13.289062 11.742188 13.289062 11.484375 13.289062 Z M 15.75 13.289062 C 15.75 14.136719 15.75 14.984375 15.75 15.859375 C 16 15.859375 16.257812 15.859375 16.515625 15.859375 C 16.515625 15.011719 16.515625 14.164062 16.515625 13.289062 C 16.265625 13.289062 16.007812 13.289062 15.75 13.289062 Z M 10.171875 13.617188 C 10 13.875 10.042969 14.15625 10.042969 14.460938 C 10.042969 14.574219 10.042969 14.683594 10.042969 14.796875 C 10.042969 14.867188 10.042969 14.9375 10.042969 15.011719 C 10.042969 15.074219 10.042969 15.140625 10.042969 15.207031 C 10.046875 15.386719 10.046875 15.386719 10.226562 15.53125 C 10.425781 15.53125 10.625 15.53125 10.828125 15.53125 C 10.828125 14.898438 10.828125 14.269531 10.828125 13.617188 C 10.609375 13.617188 10.394531 13.617188 10.171875 13.617188 Z M 17.171875 13.617188 C 17.171875 14.25 17.171875 14.878906 17.171875 15.53125 C 17.371094 15.53125 17.570312 15.53125 17.773438 15.53125 C 17.953125 15.386719 17.953125 15.386719 17.957031 15.207031 C 17.957031 15.140625 17.957031 15.074219 17.957031 15.011719 C 17.957031 14.9375 17.957031 14.871094 17.957031 14.796875 C 17.957031 14.761719 17.957031 14.726562 17.957031 14.6875 C 17.957031 14.574219 17.957031 14.464844 17.957031 14.351562 C 17.96875 13.964844 17.96875 13.964844 17.828125 13.617188 C 17.609375 13.617188 17.394531 13.617188 17.171875 13.617188 Z M 17.171875 13.617188 "/>
<path style=" stroke:none;fill-rule:nonzero;fill:#dc2626;fill-opacity:1;" d="M 6.234375 16.351562 C 6.859375 16.878906 7.273438 17.554688 7.382812 18.375 C 7.4375 19.257812 7.246094 20.0625 6.652344 20.746094 C 6.078125 21.34375 5.433594 21.707031 4.59375 21.765625 C 3.6875 21.773438 2.90625 21.507812 2.238281 20.890625 C 1.578125 20.199219 1.394531 19.414062 1.40625 18.488281 C 1.4375 17.699219 1.832031 16.992188 2.40625 16.460938 C 3.546875 15.59375 5.058594 15.480469 6.234375 16.351562 Z M 2.953125 16.898438 C 2.898438 16.933594 2.84375 16.976562 2.785156 17.015625 C 2.34375 17.398438 2.109375 17.976562 2.03125 18.546875 C 1.992188 19.160156 2.164062 19.6875 2.515625 20.179688 C 2.5625 20.253906 2.5625 20.253906 2.609375 20.324219 C 3.066406 20.796875 3.691406 21.109375 4.351562 21.125 C 5.085938 21.109375 5.664062 20.828125 6.171875 20.308594 C 6.652344 19.742188 6.78125 19.09375 6.726562 18.375 C 6.585938 17.703125 6.234375 17.195312 5.6875 16.789062 C 4.804688 16.25 3.796875 16.269531 2.953125 16.898438 Z M 2.953125 16.898438 "/>
<path style=" stroke:none;fill-rule:nonzero;fill:#dc2626;fill-opacity:1;" d="M 14.679688 25.585938 C 14.714844 25.585938 14.75 25.585938 14.789062 25.585938 C 14.910156 25.585938 15.035156 25.585938 15.15625 25.585938 C 15.242188 25.585938 15.332031 25.585938 15.417969 25.585938 C 15.660156 25.585938 15.894531 25.585938 16.132812 25.585938 C 16.28125 25.585938 16.433594 25.585938 16.578125 25.578125 C 17.042969 25.578125 17.507812 25.578125 17.972656 25.578125 C 18.511719 25.578125 19.050781 25.578125 19.585938 25.578125 C 20 25.574219 20.417969 25.574219 20.832031 25.574219 C 21.082031 25.574219 21.328125 25.574219 21.578125 25.574219 C 21.8125 25.574219 22.042969 25.574219 22.277344 25.574219 C 22.363281 25.574219 22.449219 25.574219 22.535156 25.574219 C 22.648438 25.570312 22.769531 25.570312 22.886719 25.574219 C 22.984375 25.574219 22.984375 25.574219 23.082031 25.574219 C 23.242188 25.59375 23.242188 25.59375 23.347656 25.667969 C 23.441406 25.808594 23.429688 25.917969 23.40625 26.085938 C 23.347656 26.175781 23.347656 26.175781 23.242188 26.25 C 23.082031 26.269531 23.082031 26.269531 22.886719 26.269531 C 22.832031 26.273438 22.832031 26.273438 22.773438 26.273438 C 22.65625 26.273438 22.53125 26.273438 22.40625 26.269531 C 22.320312 26.269531 22.230469 26.273438 22.144531 26.273438 C 21.90625 26.273438 21.671875 26.273438 21.433594 26.269531 C 21.183594 26.269531 20.929688 26.269531 20.6875 26.269531 C 20.265625 26.269531 19.847656 26.269531 19.433594 26.269531 C 18.945312 26.269531 18.460938 26.269531 17.976562 26.269531 C 17.515625 26.269531 17.046875 26.269531 16.585938 26.269531 C 16.386719 26.269531 16.1875 26.269531 15.992188 26.269531 C 15.757812 26.269531 15.527344 26.269531 15.292969 26.265625 C 15.207031 26.265625 15.121094 26.265625 15.035156 26.265625 C 14.921875 26.265625 14.800781 26.265625 14.683594 26.265625 C 14.621094 26.265625 14.554688 26.265625 14.488281 26.265625 C 14.328125 26.25 14.328125 26.25 14.164062 26.140625 C 14.109375 25.984375 14.09375 25.898438 14.15625 25.742188 C 14.289062 25.546875 14.460938 25.585938 14.679688 25.585938 Z M 14.679688 25.585938 "/>
<path style=" stroke:none;fill-rule:nonzero;fill:#dc2626;fill-opacity:1;" d="M 3.5 16.953125 C 3.691406 16.917969 3.824219 16.921875 3.996094 17.011719 C 4.121094 17.097656 4.242188 17.195312 4.359375 17.289062 C 4.453125 17.359375 4.542969 17.425781 4.632812 17.5 C 4.679688 17.535156 4.730469 17.574219 4.777344 17.609375 C 4.921875 17.71875 5.066406 17.828125 5.21875 17.933594 C 5.265625 17.96875 5.3125 18 5.359375 18.039062 C 5.449219 18.105469 5.542969 18.171875 5.632812 18.238281 C 5.671875 18.265625 5.714844 18.296875 5.761719 18.328125 C 5.796875 18.351562 5.832031 18.378906 5.871094 18.40625 C 5.960938 18.484375 5.960938 18.484375 6.070312 18.648438 C 6.074219 18.820312 6.0625 18.929688 5.9375 19.058594 C 5.832031 19.144531 5.722656 19.226562 5.609375 19.308594 C 5.570312 19.335938 5.527344 19.367188 5.484375 19.398438 C 5.351562 19.496094 5.21875 19.59375 5.085938 19.6875 C 4.996094 19.757812 4.902344 19.820312 4.8125 19.886719 C 4.613281 20.035156 4.40625 20.179688 4.203125 20.324219 C 4.128906 20.378906 4.0625 20.429688 3.988281 20.488281 C 3.835938 20.59375 3.734375 20.585938 3.554688 20.5625 C 3.464844 20.5 3.464844 20.5 3.390625 20.398438 C 3.371094 20.257812 3.371094 20.257812 3.371094 20.078125 C 3.367188 20.015625 3.367188 19.953125 3.367188 19.882812 C 3.367188 19.816406 3.371094 19.742188 3.371094 19.667969 C 3.371094 19.597656 3.371094 19.523438 3.371094 19.449219 C 3.371094 19.300781 3.371094 19.144531 3.371094 18.996094 C 3.371094 18.796875 3.371094 18.601562 3.371094 18.40625 C 3.371094 18.257812 3.371094 18.105469 3.371094 17.957031 C 3.371094 17.847656 3.371094 17.738281 3.371094 17.632812 C 3.371094 17.570312 3.375 17.5 3.375 17.4375 C 3.375 17.375 3.375 17.316406 3.375 17.257812 C 3.390625 17.117188 3.390625 17.117188 3.5 16.953125 Z M 4.046875 17.9375 C 4.046875 18.480469 4.046875 19.023438 4.046875 19.578125 C 4.324219 19.390625 4.601562 19.210938 4.871094 19.011719 C 4.921875 18.972656 4.972656 18.9375 5.027344 18.894531 C 5.0625 18.867188 5.101562 18.839844 5.140625 18.8125 C 5.078125 18.621094 5.027344 18.589844 4.867188 18.476562 C 4.804688 18.429688 4.804688 18.429688 4.734375 18.378906 C 4.6875 18.347656 4.640625 18.316406 4.59375 18.285156 C 4.546875 18.246094 4.503906 18.214844 4.453125 18.183594 C 4.265625 18.019531 4.265625 18.019531 4.046875 17.9375 Z M 4.046875 17.9375 "/>
<path style=" stroke:none;fill-rule:nonzero;fill:#dc2626;fill-opacity:1;" d="M 26.066406 9.496094 C 26.195312 9.570312 26.195312 9.570312 26.304688 9.734375 C 26.324219 9.863281 26.324219 9.863281 26.324219 10.003906 C 26.324219 10.078125 26.324219 10.078125 26.324219 10.144531 C 26.300781 10.308594 26.253906 10.382812 26.140625 10.5 C 25.945312 10.519531 25.945312 10.519531 25.757812 10.5 C 25.601562 10.34375 25.628906 10.226562 25.625 10.011719 C 25.621094 9.945312 25.621094 9.875 25.617188 9.804688 C 25.648438 9.625 25.648438 9.625 25.777344 9.515625 C 25.921875 9.460938 25.921875 9.460938 26.066406 9.496094 Z M 26.066406 9.496094 "/>
<path style=" stroke:none;fill-rule:nonzero;fill:#dc2626;fill-opacity:1;" d="M 1.96875 1.75 C 2.289062 1.851562 2.289062 1.851562 2.351562 1.914062 C 2.359375 2.027344 2.359375 2.148438 2.359375 2.261719 C 2.359375 2.324219 2.367188 2.386719 2.367188 2.457031 C 2.351562 2.625 2.351562 2.625 2.242188 2.789062 C 2.054688 2.8125 2.054688 2.8125 1.859375 2.789062 C 1.710938 2.632812 1.671875 2.515625 1.667969 2.300781 C 1.671875 2.101562 1.691406 1.992188 1.832031 1.851562 C 1.878906 1.820312 1.921875 1.785156 1.96875 1.75 Z M 1.96875 1.75 "/>
<path style=" stroke:none;fill-rule:nonzero;fill:#dc2626;fill-opacity:1;" d="M 26.195312 11.484375 C 26.3125 11.65625 26.324219 11.71875 26.324219 11.917969 C 26.324219 11.992188 26.324219 11.992188 26.324219 12.058594 C 26.300781 12.222656 26.253906 12.296875 26.140625 12.414062 C 25.972656 12.4375 25.867188 12.449219 25.722656 12.351562 C 25.617188 12.210938 25.625 12.101562 25.625 11.921875 C 25.625 11.863281 25.621094 11.808594 25.621094 11.75 C 25.648438 11.59375 25.648438 11.59375 25.75 11.488281 C 25.917969 11.402344 26.015625 11.429688 26.195312 11.484375 Z M 26.195312 11.484375 "/>
<path style=" stroke:none;fill-rule:nonzero;fill:#dc2626;fill-opacity:1;" d="M 2.085938 3.726562 C 2.242188 3.773438 2.242188 3.773438 2.351562 3.882812 C 2.371094 4.03125 2.371094 4.03125 2.371094 4.207031 C 2.371094 4.265625 2.371094 4.324219 2.371094 4.382812 C 2.351562 4.539062 2.351562 4.539062 2.277344 4.640625 C 2.132812 4.738281 2.027344 4.726562 1.859375 4.703125 C 1.703125 4.542969 1.671875 4.429688 1.671875 4.210938 C 1.675781 4.027344 1.6875 3.953125 1.785156 3.792969 C 1.914062 3.71875 1.914062 3.71875 2.085938 3.726562 Z M 2.085938 3.726562 "/>
<path style=" stroke:none;fill-rule:nonzero;fill:#dc2626;fill-opacity:1;" d="M 3.421875 2.960938 C 3.5 3.0625 3.5 3.0625 3.523438 3.226562 C 3.5 3.390625 3.5 3.390625 3.4375 3.480469 C 3.296875 3.585938 3.1875 3.578125 3.007812 3.574219 C 2.949219 3.578125 2.894531 3.578125 2.835938 3.578125 C 2.679688 3.554688 2.679688 3.554688 2.574219 3.480469 C 2.515625 3.390625 2.515625 3.390625 2.519531 3.195312 C 2.570312 3.007812 2.570312 3.007812 2.664062 2.945312 C 2.917969 2.851562 3.179688 2.851562 3.421875 2.960938 Z M 3.421875 2.960938 "/>
<path style=" stroke:none;fill-rule:nonzero;fill:#dc2626;fill-opacity:1;" d="M 25.34375 10.640625 C 25.429688 10.71875 25.429688 10.71875 25.480469 10.90625 C 25.484375 11.101562 25.484375 11.101562 25.425781 11.191406 C 25.28125 11.292969 25.171875 11.289062 24.992188 11.285156 C 24.933594 11.289062 24.878906 11.289062 24.820312 11.289062 C 24.664062 11.265625 24.664062 11.265625 24.5625 11.191406 C 24.464844 11.046875 24.472656 10.945312 24.5 10.773438 C 24.742188 10.550781 25.039062 10.570312 25.34375 10.640625 Z M 25.34375 10.640625 "/>
<path style=" stroke:none;fill-rule:nonzero;fill:#dc2626;fill-opacity:1;" d="M 27.179688 10.609375 C 27.351562 10.726562 27.351562 10.726562 27.453125 10.882812 C 27.449219 11.070312 27.421875 11.132812 27.289062 11.265625 C 27.140625 11.28125 27.140625 11.28125 26.964844 11.28125 C 26.878906 11.28125 26.878906 11.28125 26.789062 11.28125 C 26.632812 11.265625 26.632812 11.265625 26.46875 11.15625 C 26.429688 10.828125 26.429688 10.828125 26.546875 10.667969 C 26.761719 10.578125 26.953125 10.570312 27.179688 10.609375 Z M 27.179688 10.609375 "/>
<path style=" stroke:none;fill-rule:nonzero;fill:#dc2626;fill-opacity:1;" d="M 1.3125 2.898438 C 1.453125 2.957031 1.453125 2.957031 1.53125 3.0625 C 1.554688 3.257812 1.554688 3.257812 1.53125 3.445312 C 1.34375 3.570312 1.261719 3.574219 1.039062 3.574219 C 0.980469 3.578125 0.925781 3.578125 0.867188 3.582031 C 0.710938 3.554688 0.710938 3.554688 0.605469 3.453125 C 0.546875 3.335938 0.546875 3.335938 0.550781 3.195312 C 0.683594 2.847656 0.984375 2.859375 1.3125 2.898438 Z M 1.3125 2.898438 "/>
<path style=" stroke:none;fill-rule:nonzero;fill:#dc2626;fill-opacity:1;" d="M 6.070312 7.65625 C 6.171875 7.71875 6.171875 7.71875 6.234375 7.820312 C 6.261719 8.035156 6.265625 8.152344 6.148438 8.335938 C 5.960938 8.453125 5.851562 8.457031 5.632812 8.421875 C 5.496094 8.304688 5.496094 8.304688 5.414062 8.148438 C 5.421875 7.933594 5.460938 7.835938 5.578125 7.65625 C 5.773438 7.59375 5.875 7.605469 6.070312 7.65625 Z M 6.070312 7.65625 "/>
<path style=" stroke:none;fill-rule:nonzero;fill:#dc2626;fill-opacity:1;" d="M 12.414062 17.5 C 12.570312 17.578125 12.617188 17.632812 12.683594 17.792969 C 12.6875 17.996094 12.648438 18.101562 12.523438 18.265625 C 12.328125 18.320312 12.203125 18.34375 12.011719 18.273438 C 11.921875 18.210938 11.921875 18.210938 11.867188 18.101562 C 11.835938 17.703125 11.835938 17.703125 11.957031 17.554688 C 12.121094 17.484375 12.234375 17.476562 12.414062 17.5 Z M 12.414062 17.5 "/>
<path style=" stroke:none;fill-rule:nonzero;fill:#dc2626;fill-opacity:1;" d="M 20.726562 13.015625 C 20.882812 13.09375 20.929688 13.148438 20.996094 13.308594 C 21 13.511719 20.960938 13.617188 20.835938 13.78125 C 20.640625 13.835938 20.515625 13.859375 20.324219 13.789062 C 20.234375 13.726562 20.234375 13.726562 20.179688 13.617188 C 20.148438 13.21875 20.148438 13.21875 20.269531 13.070312 C 20.433594 13 20.546875 12.992188 20.726562 13.015625 Z M 20.726562 13.015625 "/>
</g>
</svg>
