<?xml version="1.0" encoding="UTF-8"?>
<svg xmlns="http://www.w3.org/2000/svg" xmlns:xlink="http://www.w3.org/1999/xlink" width="24" height="24" viewBox="0 0 28 28" version="1.1">
<g id="surface1">
<path style=" stroke:none;fill-rule:nonzero;fill:#dc2626;fill-opacity:1;" d="M 3.539062 15.414062 C 3.605469 15.414062 3.667969 15.414062 3.734375 15.414062 C 3.832031 15.414062 3.832031 15.414062 3.9375 15.414062 C 4.011719 15.414062 4.082031 15.414062 4.160156 15.414062 C 4.398438 15.40625 4.640625 15.40625 4.882812 15.40625 C 4.960938 15.40625 5.046875 15.40625 5.125 15.40625 C 5.519531 15.40625 5.90625 15.40625 6.296875 15.402344 C 6.746094 15.402344 7.195312 15.402344 7.640625 15.402344 C 7.992188 15.398438 8.339844 15.398438 8.6875 15.398438 C 8.894531 15.398438 9.101562 15.398438 9.3125 15.398438 C 9.507812 15.394531 9.699219 15.394531 9.894531 15.394531 C 10 15.394531 10.101562 15.394531 10.207031 15.394531 C 10.929688 15.398438 11.503906 15.566406 12.027344 16.070312 C 12.417969 16.480469 12.582031 16.976562 12.585938 17.539062 C 12.585938 17.636719 12.585938 17.636719 12.585938 17.734375 C 12.585938 17.800781 12.585938 17.867188 12.585938 17.9375 C 12.585938 18.011719 12.585938 18.082031 12.585938 18.160156 C 12.59375 18.398438 12.59375 18.640625 12.59375 18.882812 C 12.59375 18.960938 12.59375 19.046875 12.59375 19.125 C 12.59375 19.519531 12.59375 19.90625 12.597656 20.296875 C 12.597656 20.746094 12.597656 21.195312 12.597656 21.640625 C 12.601562 21.992188 12.601562 22.339844 12.601562 22.6875 C 12.601562 22.894531 12.601562 23.101562 12.601562 23.3125 C 12.605469 23.507812 12.605469 23.699219 12.605469 23.894531 C 12.605469 24 12.605469 24.101562 12.605469 24.207031 C 12.601562 24.929688 12.433594 25.503906 11.929688 26.027344 C 11.519531 26.417969 11.023438 26.582031 10.460938 26.585938 C 10.363281 26.585938 10.363281 26.585938 10.265625 26.585938 C 10.199219 26.585938 10.132812 26.585938 10.0625 26.585938 C 9.988281 26.585938 9.917969 26.585938 9.839844 26.585938 C 9.601562 26.59375 9.359375 26.59375 9.117188 26.59375 C 9.039062 26.59375 8.953125 26.59375 8.875 26.59375 C 8.480469 26.59375 8.09375 26.59375 7.703125 26.597656 C 7.253906 26.597656 6.804688 26.597656 6.359375 26.597656 C 6.007812 26.601562 5.660156 26.601562 5.3125 26.601562 C 5.105469 26.601562 4.898438 26.601562 4.6875 26.601562 C 4.492188 26.605469 4.300781 26.605469 4.105469 26.605469 C 4 26.605469 3.898438 26.605469 3.792969 26.605469 C 3.070312 26.601562 2.496094 26.433594 1.972656 25.929688 C 1.582031 25.519531 1.417969 25.023438 1.414062 24.460938 C 1.414062 24.394531 1.414062 24.332031 1.414062 24.265625 C 1.414062 24.199219 1.414062 24.132812 1.414062 24.0625 C 1.414062 23.988281 1.414062 23.917969 1.414062 23.839844 C 1.40625 23.601562 1.40625 23.359375 1.40625 23.117188 C 1.40625 23.039062 1.40625 22.953125 1.40625 22.875 C 1.40625 22.480469 1.40625 22.09375 1.402344 21.703125 C 1.402344 21.253906 1.402344 20.804688 1.402344 20.359375 C 1.398438 20.007812 1.398438 19.660156 1.398438 19.3125 C 1.398438 19.105469 1.398438 18.898438 1.398438 18.6875 C 1.394531 18.492188 1.394531 18.300781 1.394531 18.105469 C 1.394531 18 1.394531 17.898438 1.394531 17.792969 C 1.398438 17.070312 1.566406 16.496094 2.070312 15.972656 C 2.480469 15.582031 2.976562 15.417969 3.539062 15.414062 Z M 3.226562 17.445312 C 3.195312 17.585938 3.195312 17.585938 3.199219 17.742188 C 3.199219 17.800781 3.199219 17.859375 3.195312 17.917969 C 3.199219 17.988281 3.199219 18.050781 3.199219 18.121094 C 3.199219 18.1875 3.199219 18.257812 3.199219 18.328125 C 3.195312 18.515625 3.195312 18.707031 3.199219 18.894531 C 3.199219 19.09375 3.199219 19.289062 3.195312 19.492188 C 3.195312 19.824219 3.199219 20.15625 3.199219 20.484375 C 3.199219 20.871094 3.199219 21.253906 3.199219 21.636719 C 3.195312 21.96875 3.195312 22.296875 3.199219 22.632812 C 3.199219 22.828125 3.199219 23.023438 3.195312 23.21875 C 3.195312 23.441406 3.199219 23.660156 3.199219 23.878906 C 3.199219 23.945312 3.199219 24.011719 3.195312 24.082031 C 3.199219 24.140625 3.199219 24.199219 3.199219 24.257812 C 3.199219 24.3125 3.199219 24.363281 3.199219 24.417969 C 3.234375 24.601562 3.296875 24.664062 3.445312 24.773438 C 3.585938 24.804688 3.585938 24.804688 3.742188 24.800781 C 3.800781 24.800781 3.859375 24.800781 3.917969 24.804688 C 3.988281 24.800781 4.050781 24.800781 4.121094 24.800781 C 4.1875 24.800781 4.257812 24.800781 4.328125 24.800781 C 4.515625 24.804688 4.707031 24.804688 4.894531 24.800781 C 5.09375 24.800781 5.289062 24.800781 5.492188 24.804688 C 5.824219 24.804688 6.15625 24.800781 6.484375 24.800781 C 6.871094 24.800781 7.253906 24.800781 7.636719 24.800781 C 7.96875 24.804688 8.296875 24.804688 8.632812 24.800781 C 8.828125 24.800781 9.023438 24.800781 9.21875 24.804688 C 9.441406 24.804688 9.660156 24.800781 9.878906 24.800781 C 9.945312 24.800781 10.011719 24.800781 10.082031 24.804688 C 10.140625 24.800781 10.199219 24.800781 10.257812 24.800781 C 10.3125 24.800781 10.363281 24.800781 10.417969 24.800781 C 10.601562 24.765625 10.664062 24.703125 10.773438 24.554688 C 10.804688 24.414062 10.804688 24.414062 10.800781 24.257812 C 10.800781 24.199219 10.800781 24.140625 10.804688 24.082031 C 10.800781 24.011719 10.800781 23.949219 10.800781 23.878906 C 10.800781 23.8125 10.800781 23.742188 10.800781 23.671875 C 10.804688 23.484375 10.804688 23.292969 10.800781 23.105469 C 10.800781 22.90625 10.800781 22.710938 10.804688 22.507812 C 10.804688 22.175781 10.800781 21.84375 10.800781 21.515625 C 10.800781 21.128906 10.800781 20.746094 10.800781 20.363281 C 10.804688 20.03125 10.804688 19.703125 10.800781 19.367188 C 10.800781 19.171875 10.800781 18.976562 10.804688 18.78125 C 10.804688 18.558594 10.800781 18.339844 10.800781 18.121094 C 10.800781 18.054688 10.800781 17.988281 10.804688 17.917969 C 10.800781 17.859375 10.800781 17.800781 10.800781 17.742188 C 10.800781 17.6875 10.800781 17.636719 10.800781 17.582031 C 10.765625 17.398438 10.703125 17.335938 10.554688 17.226562 C 10.414062 17.195312 10.414062 17.195312 10.257812 17.199219 C 10.171875 17.199219 10.171875 17.199219 10.082031 17.195312 C 9.980469 17.199219 9.980469 17.199219 9.878906 17.199219 C 9.8125 17.199219 9.742188 17.199219 9.671875 17.199219 C 9.484375 17.195312 9.292969 17.195312 9.105469 17.199219 C 8.90625 17.199219 8.710938 17.199219 8.507812 17.195312 C 8.175781 17.195312 7.84375 17.199219 7.515625 17.199219 C 7.128906 17.199219 6.746094 17.199219 6.363281 17.199219 C 6.03125 17.195312 5.703125 17.195312 5.367188 17.199219 C 5.171875 17.199219 4.976562 17.199219 4.78125 17.195312 C 4.558594 17.195312 4.339844 17.199219 4.121094 17.199219 C 4.019531 17.199219 4.019531 17.199219 3.917969 17.195312 C 3.859375 17.199219 3.800781 17.199219 3.742188 17.199219 C 3.6875 17.199219 3.636719 17.199219 3.582031 17.199219 C 3.398438 17.234375 3.335938 17.296875 3.226562 17.445312 Z M 3.226562 17.445312 "/>
<path style=" stroke:none;fill-rule:nonzero;fill:#dc2626;fill-opacity:1;" d="M 17.539062 1.414062 C 17.605469 1.414062 17.667969 1.414062 17.734375 1.414062 C 17.832031 1.414062 17.832031 1.414062 17.9375 1.414062 C 18.011719 1.414062 18.082031 1.414062 18.160156 1.414062 C 18.398438 1.40625 18.640625 1.40625 18.882812 1.40625 C 18.960938 1.40625 19.046875 1.40625 19.125 1.40625 C 19.519531 1.40625 19.90625 1.40625 20.296875 1.402344 C 20.746094 1.402344 21.195312 1.402344 21.640625 1.402344 C 21.992188 1.398438 22.339844 1.398438 22.6875 1.398438 C 22.894531 1.398438 23.101562 1.398438 23.3125 1.398438 C 23.507812 1.394531 23.699219 1.394531 23.894531 1.394531 C 24 1.394531 24.101562 1.394531 24.207031 1.394531 C 24.929688 1.398438 25.503906 1.566406 26.027344 2.070312 C 26.417969 2.480469 26.582031 2.976562 26.585938 3.539062 C 26.585938 3.636719 26.585938 3.636719 26.585938 3.734375 C 26.585938 3.800781 26.585938 3.867188 26.585938 3.9375 C 26.585938 4.011719 26.585938 4.082031 26.585938 4.160156 C 26.59375 4.398438 26.59375 4.640625 26.59375 4.882812 C 26.59375 4.960938 26.59375 5.046875 26.59375 5.125 C 26.59375 5.519531 26.59375 5.90625 26.597656 6.296875 C 26.597656 6.746094 26.597656 7.195312 26.597656 7.640625 C 26.601562 7.992188 26.601562 8.339844 26.601562 8.6875 C 26.601562 8.894531 26.601562 9.101562 26.601562 9.3125 C 26.605469 9.507812 26.605469 9.699219 26.605469 9.894531 C 26.605469 10 26.605469 10.101562 26.605469 10.207031 C 26.601562 10.929688 26.433594 11.503906 25.929688 12.027344 C 25.519531 12.417969 25.023438 12.582031 24.460938 12.585938 C 24.363281 12.585938 24.363281 12.585938 24.265625 12.585938 C 24.199219 12.585938 24.132812 12.585938 24.0625 12.585938 C 23.988281 12.585938 23.917969 12.585938 23.839844 12.585938 C 23.601562 12.59375 23.359375 12.59375 23.117188 12.59375 C 23.039062 12.59375 22.953125 12.59375 22.875 12.59375 C 22.480469 12.59375 22.09375 12.59375 21.703125 12.597656 C 21.253906 12.597656 20.804688 12.597656 20.359375 12.597656 C 20.007812 12.601562 19.660156 12.601562 19.3125 12.601562 C 19.105469 12.601562 18.898438 12.601562 18.6875 12.601562 C 18.492188 12.605469 18.300781 12.605469 18.105469 12.605469 C 18 12.605469 17.898438 12.605469 17.792969 12.605469 C 17.070312 12.601562 16.496094 12.433594 15.972656 11.929688 C 15.582031 11.519531 15.417969 11.023438 15.414062 10.460938 C 15.414062 10.394531 15.414062 10.332031 15.414062 10.265625 C 15.414062 10.199219 15.414062 10.132812 15.414062 10.0625 C 15.414062 9.988281 15.414062 9.917969 15.414062 9.839844 C 15.40625 9.601562 15.40625 9.359375 15.40625 9.117188 C 15.40625 9.039062 15.40625 8.953125 15.40625 8.875 C 15.40625 8.480469 15.40625 8.09375 15.402344 7.703125 C 15.402344 7.253906 15.402344 6.804688 15.402344 6.359375 C 15.398438 6.007812 15.398438 5.660156 15.398438 5.3125 C 15.398438 5.105469 15.398438 4.898438 15.398438 4.6875 C 15.394531 4.492188 15.394531 4.300781 15.394531 4.105469 C 15.394531 4 15.394531 3.898438 15.394531 3.792969 C 15.398438 3.070312 15.566406 2.496094 16.070312 1.972656 C 16.480469 1.582031 16.976562 1.417969 17.539062 1.414062 Z M 17.226562 3.445312 C 17.195312 3.585938 17.195312 3.585938 17.199219 3.742188 C 17.199219 3.800781 17.199219 3.859375 17.195312 3.917969 C 17.199219 3.988281 17.199219 4.050781 17.199219 4.121094 C 17.199219 4.1875 17.199219 4.257812 17.199219 4.328125 C 17.195312 4.515625 17.195312 4.707031 17.199219 4.894531 C 17.199219 5.09375 17.199219 5.289062 17.195312 5.492188 C 17.195312 5.824219 17.199219 6.15625 17.199219 6.484375 C 17.199219 6.871094 17.199219 7.253906 17.199219 7.636719 C 17.195312 7.96875 17.195312 8.296875 17.199219 8.632812 C 17.199219 8.828125 17.199219 9.023438 17.195312 9.21875 C 17.195312 9.441406 17.199219 9.660156 17.199219 9.878906 C 17.199219 9.945312 17.199219 10.011719 17.195312 10.082031 C 17.199219 10.140625 17.199219 10.199219 17.199219 10.257812 C 17.199219 10.3125 17.199219 10.363281 17.199219 10.417969 C 17.234375 10.601562 17.296875 10.664062 17.445312 10.773438 C 17.585938 10.804688 17.585938 10.804688 17.742188 10.800781 C 17.800781 10.800781 17.859375 10.800781 17.917969 10.804688 C 17.988281 10.800781 18.050781 10.800781 18.121094 10.800781 C 18.1875 10.800781 18.257812 10.800781 18.328125 10.800781 C 18.515625 10.804688 18.707031 10.804688 18.894531 10.800781 C 19.09375 10.800781 19.289062 10.800781 19.492188 10.804688 C 19.824219 10.804688 20.15625 10.800781 20.484375 10.800781 C 20.871094 10.800781 21.253906 10.800781 21.636719 10.800781 C 21.96875 10.804688 22.296875 10.804688 22.632812 10.800781 C 22.828125 10.800781 23.023438 10.800781 23.21875 10.804688 C 23.441406 10.804688 23.660156 10.800781 23.878906 10.800781 C 23.945312 10.800781 24.011719 10.800781 24.082031 10.804688 C 24.140625 10.800781 24.199219 10.800781 24.257812 10.800781 C 24.3125 10.800781 24.363281 10.800781 24.417969 10.800781 C 24.601562 10.765625 24.664062 10.703125 24.773438 10.554688 C 24.804688 10.414062 24.804688 10.414062 24.800781 10.257812 C 24.800781 10.199219 24.800781 10.140625 24.804688 10.082031 C 24.800781 10.011719 24.800781 9.949219 24.800781 9.878906 C 24.800781 9.8125 24.800781 9.742188 24.800781 9.671875 C 24.804688 9.484375 24.804688 9.292969 24.800781 9.105469 C 24.800781 8.90625 24.800781 8.710938 24.804688 8.507812 C 24.804688 8.175781 24.800781 7.84375 24.800781 7.515625 C 24.800781 7.128906 24.800781 6.746094 24.800781 6.363281 C 24.804688 6.03125 24.804688 5.703125 24.800781 5.367188 C 24.800781 5.171875 24.800781 4.976562 24.804688 4.78125 C 24.804688 4.558594 24.800781 4.339844 24.800781 4.121094 C 24.800781 4.054688 24.800781 3.988281 24.804688 3.917969 C 24.800781 3.859375 24.800781 3.800781 24.800781 3.742188 C 24.800781 3.6875 24.800781 3.636719 24.800781 3.582031 C 24.765625 3.398438 24.703125 3.335938 24.554688 3.226562 C 24.414062 3.195312 24.414062 3.195312 24.257812 3.199219 C 24.171875 3.199219 24.171875 3.199219 24.082031 3.195312 C 23.980469 3.199219 23.980469 3.199219 23.878906 3.199219 C 23.8125 3.199219 23.742188 3.199219 23.671875 3.199219 C 23.484375 3.195312 23.292969 3.195312 23.105469 3.199219 C 22.90625 3.199219 22.710938 3.199219 22.507812 3.195312 C 22.175781 3.195312 21.84375 3.199219 21.515625 3.199219 C 21.128906 3.199219 20.746094 3.199219 20.363281 3.199219 C 20.03125 3.195312 19.703125 3.195312 19.367188 3.199219 C 19.171875 3.199219 18.976562 3.199219 18.78125 3.195312 C 18.558594 3.195312 18.339844 3.199219 18.121094 3.199219 C 18.019531 3.199219 18.019531 3.199219 17.917969 3.195312 C 17.859375 3.199219 17.800781 3.199219 17.742188 3.199219 C 17.6875 3.199219 17.636719 3.199219 17.582031 3.199219 C 17.398438 3.234375 17.335938 3.296875 17.226562 3.445312 Z M 17.226562 3.445312 "/>
<path style=" stroke:none;fill-rule:nonzero;fill:#dc2626;fill-opacity:1;" d="M 3.539062 1.414062 C 3.605469 1.414062 3.667969 1.414062 3.734375 1.414062 C 3.832031 1.414062 3.832031 1.414062 3.9375 1.414062 C 4.011719 1.414062 4.082031 1.414062 4.160156 1.414062 C 4.398438 1.40625 4.640625 1.40625 4.882812 1.40625 C 4.960938 1.40625 5.046875 1.40625 5.125 1.40625 C 5.519531 1.40625 5.90625 1.40625 6.296875 1.402344 C 6.746094 1.402344 7.195312 1.402344 7.640625 1.402344 C 7.992188 1.398438 8.339844 1.398438 8.6875 1.398438 C 8.894531 1.398438 9.101562 1.398438 9.3125 1.398438 C 9.507812 1.394531 9.699219 1.394531 9.894531 1.394531 C 10 1.394531 10.101562 1.394531 10.207031 1.394531 C 10.929688 1.398438 11.503906 1.566406 12.027344 2.070312 C 12.417969 2.480469 12.582031 2.976562 12.585938 3.539062 C 12.585938 3.636719 12.585938 3.636719 12.585938 3.734375 C 12.585938 3.800781 12.585938 3.867188 12.585938 3.9375 C 12.585938 4.011719 12.585938 4.082031 12.585938 4.160156 C 12.59375 4.398438 12.59375 4.640625 12.59375 4.882812 C 12.59375 4.960938 12.59375 5.046875 12.59375 5.125 C 12.59375 5.519531 12.59375 5.90625 12.597656 6.296875 C 12.597656 6.746094 12.597656 7.195312 12.597656 7.640625 C 12.601562 7.992188 12.601562 8.339844 12.601562 8.6875 C 12.601562 8.894531 12.601562 9.101562 12.601562 9.3125 C 12.605469 9.507812 12.605469 9.699219 12.605469 9.894531 C 12.605469 10 12.605469 10.101562 12.605469 10.207031 C 12.601562 10.929688 12.433594 11.503906 11.929688 12.027344 C 11.519531 12.417969 11.023438 12.582031 10.460938 12.585938 C 10.363281 12.585938 10.363281 12.585938 10.265625 12.585938 C 10.199219 12.585938 10.132812 12.585938 10.0625 12.585938 C 9.988281 12.585938 9.917969 12.585938 9.839844 12.585938 C 9.601562 12.59375 9.359375 12.59375 9.117188 12.59375 C 9.039062 12.59375 8.953125 12.59375 8.875 12.59375 C 8.480469 12.59375 8.09375 12.59375 7.703125 12.597656 C 7.253906 12.597656 6.804688 12.597656 6.359375 12.597656 C 6.007812 12.601562 5.660156 12.601562 5.3125 12.601562 C 5.105469 12.601562 4.898438 12.601562 4.6875 12.601562 C 4.492188 12.605469 4.300781 12.605469 4.105469 12.605469 C 4 12.605469 3.898438 12.605469 3.792969 12.605469 C 3.070312 12.601562 2.496094 12.433594 1.972656 11.929688 C 1.582031 11.519531 1.417969 11.023438 1.414062 10.460938 C 1.414062 10.394531 1.414062 10.332031 1.414062 10.265625 C 1.414062 10.199219 1.414062 10.132812 1.414062 10.0625 C 1.414062 9.988281 1.414062 9.917969 1.414062 9.839844 C 1.40625 9.601562 1.40625 9.359375 1.40625 9.117188 C 1.40625 9.039062 1.40625 8.953125 1.40625 8.875 C 1.40625 8.480469 1.40625 8.09375 1.402344 7.703125 C 1.402344 7.253906 1.402344 6.804688 1.402344 6.359375 C 1.398438 6.007812 1.398438 5.660156 1.398438 5.3125 C 1.398438 5.105469 1.398438 4.898438 1.398438 4.6875 C 1.394531 4.492188 1.394531 4.300781 1.394531 4.105469 C 1.394531 4 1.394531 3.898438 1.394531 3.792969 C 1.398438 3.070312 1.566406 2.496094 2.070312 1.972656 C 2.480469 1.582031 2.976562 1.417969 3.539062 1.414062 Z M 3.226562 3.445312 C 3.195312 3.585938 3.195312 3.585938 3.199219 3.742188 C 3.199219 3.800781 3.199219 3.859375 3.195312 3.917969 C 3.199219 3.988281 3.199219 4.050781 3.199219 4.121094 C 3.199219 4.1875 3.199219 4.257812 3.199219 4.328125 C 3.195312 4.515625 3.195312 4.707031 3.199219 4.894531 C 3.199219 5.09375 3.199219 5.289062 3.195312 5.492188 C 3.195312 5.824219 3.199219 6.15625 3.199219 6.484375 C 3.199219 6.871094 3.199219 7.253906 3.199219 7.636719 C 3.195312 7.96875 3.195312 8.296875 3.199219 8.632812 C 3.199219 8.828125 3.199219 9.023438 3.195312 9.21875 C 3.195312 9.441406 3.199219 9.660156 3.199219 9.878906 C 3.199219 9.945312 3.199219 10.011719 3.195312 10.082031 C 3.199219 10.140625 3.199219 10.199219 3.199219 10.257812 C 3.199219 10.3125 3.199219 10.363281 3.199219 10.417969 C 3.234375 10.601562 3.296875 10.664062 3.445312 10.773438 C 3.585938 10.804688 3.585938 10.804688 3.742188 10.800781 C 3.800781 10.800781 3.859375 10.800781 3.917969 10.804688 C 3.988281 10.800781 4.050781 10.800781 4.121094 10.800781 C 4.1875 10.800781 4.257812 10.800781 4.328125 10.800781 C 4.515625 10.804688 4.707031 10.804688 4.894531 10.800781 C 5.09375 10.800781 5.289062 10.800781 5.492188 10.804688 C 5.824219 10.804688 6.15625 10.800781 6.484375 10.800781 C 6.871094 10.800781 7.253906 10.800781 7.636719 10.800781 C 7.96875 10.804688 8.296875 10.804688 8.632812 10.800781 C 8.828125 10.800781 9.023438 10.800781 9.21875 10.804688 C 9.441406 10.804688 9.660156 10.800781 9.878906 10.800781 C 9.945312 10.800781 10.011719 10.800781 10.082031 10.804688 C 10.140625 10.800781 10.199219 10.800781 10.257812 10.800781 C 10.3125 10.800781 10.363281 10.800781 10.417969 10.800781 C 10.601562 10.765625 10.664062 10.703125 10.773438 10.554688 C 10.804688 10.414062 10.804688 10.414062 10.800781 10.257812 C 10.800781 10.199219 10.800781 10.140625 10.804688 10.082031 C 10.800781 10.011719 10.800781 9.949219 10.800781 9.878906 C 10.800781 9.8125 10.800781 9.742188 10.800781 9.671875 C 10.804688 9.484375 10.804688 9.292969 10.800781 9.105469 C 10.800781 8.90625 10.800781 8.710938 10.804688 8.507812 C 10.804688 8.175781 10.800781 7.84375 10.800781 7.515625 C 10.800781 7.128906 10.800781 6.746094 10.800781 6.363281 C 10.804688 6.03125 10.804688 5.703125 10.800781 5.367188 C 10.800781 5.171875 10.800781 4.976562 10.804688 4.78125 C 10.804688 4.558594 10.800781 4.339844 10.800781 4.121094 C 10.800781 4.054688 10.800781 3.988281 10.804688 3.917969 C 10.800781 3.859375 10.800781 3.800781 10.800781 3.742188 C 10.800781 3.6875 10.800781 3.636719 10.800781 3.582031 C 10.765625 3.398438 10.703125 3.335938 10.554688 3.226562 C 10.414062 3.195312 10.414062 3.195312 10.257812 3.199219 C 10.171875 3.199219 10.171875 3.199219 10.082031 3.195312 C 9.980469 3.199219 9.980469 3.199219 9.878906 3.199219 C 9.8125 3.199219 9.742188 3.199219 9.671875 3.199219 C 9.484375 3.195312 9.292969 3.195312 9.105469 3.199219 C 8.90625 3.199219 8.710938 3.199219 8.507812 3.195312 C 8.175781 3.195312 7.84375 3.199219 7.515625 3.199219 C 7.128906 3.199219 6.746094 3.199219 6.363281 3.199219 C 6.03125 3.195312 5.703125 3.195312 5.367188 3.199219 C 5.171875 3.199219 4.976562 3.199219 4.78125 3.195312 C 4.558594 3.195312 4.339844 3.199219 4.121094 3.199219 C 4.019531 3.199219 4.019531 3.199219 3.917969 3.195312 C 3.859375 3.199219 3.800781 3.199219 3.742188 3.199219 C 3.6875 3.199219 3.636719 3.199219 3.582031 3.199219 C 3.398438 3.234375 3.335938 3.296875 3.226562 3.445312 Z M 3.226562 3.445312 "/>
<path style=" stroke:none;fill-rule:nonzero;fill:#dc2626;fill-opacity:1;" d="M 22.039062 15.09375 C 22.375 15.328125 22.671875 15.605469 22.964844 15.890625 C 23.003906 15.933594 23.042969 15.972656 23.082031 16.015625 C 23.214844 16.140625 23.347656 16.273438 23.480469 16.402344 C 23.570312 16.496094 23.660156 16.589844 23.753906 16.679688 C 23.945312 16.867188 24.136719 17.058594 24.328125 17.25 C 24.570312 17.496094 24.8125 17.738281 25.0625 17.984375 C 25.25 18.171875 25.4375 18.355469 25.625 18.546875 C 25.71875 18.640625 25.808594 18.726562 25.898438 18.816406 C 26.027344 18.945312 26.148438 19.066406 26.277344 19.195312 C 26.3125 19.230469 26.351562 19.269531 26.386719 19.304688 C 26.90625 19.828125 27.148438 20.363281 27.144531 21.101562 C 27.125 21.90625 26.652344 22.421875 26.109375 22.964844 C 26.066406 23.003906 26.027344 23.042969 25.984375 23.082031 C 25.859375 23.214844 25.726562 23.347656 25.597656 23.480469 C 25.503906 23.570312 25.410156 23.660156 25.320312 23.753906 C 25.132812 23.945312 24.941406 24.136719 24.75 24.328125 C 24.503906 24.570312 24.261719 24.8125 24.015625 25.0625 C 23.828125 25.25 23.644531 25.4375 23.453125 25.625 C 23.359375 25.71875 23.273438 25.808594 23.183594 25.898438 C 23.054688 26.027344 22.933594 26.148438 22.804688 26.277344 C 22.769531 26.3125 22.730469 26.351562 22.695312 26.386719 C 22.171875 26.90625 21.636719 27.148438 20.898438 27.144531 C 20.09375 27.125 19.578125 26.652344 19.035156 26.109375 C 18.996094 26.066406 18.957031 26.027344 18.917969 25.984375 C 18.785156 25.859375 18.652344 25.726562 18.519531 25.597656 C 18.429688 25.503906 18.339844 25.410156 18.246094 25.320312 C 18.054688 25.132812 17.863281 24.941406 17.671875 24.75 C 17.429688 24.503906 17.1875 24.261719 16.9375 24.015625 C 16.75 23.828125 16.5625 23.644531 16.375 23.453125 C 16.28125 23.359375 16.191406 23.273438 16.101562 23.183594 C 15.972656 23.054688 15.851562 22.933594 15.722656 22.804688 C 15.6875 22.769531 15.648438 22.730469 15.613281 22.695312 C 15.09375 22.171875 14.851562 21.636719 14.855469 20.898438 C 14.875 20.09375 15.347656 19.578125 15.890625 19.035156 C 15.933594 18.996094 15.972656 18.957031 16.015625 18.917969 C 16.140625 18.785156 16.273438 18.652344 16.402344 18.519531 C 16.496094 18.429688 16.589844 18.339844 16.679688 18.246094 C 16.867188 18.054688 17.058594 17.863281 17.25 17.671875 C 17.496094 17.429688 17.738281 17.1875 17.984375 16.9375 C 18.171875 16.75 18.355469 16.5625 18.546875 16.375 C 18.640625 16.28125 18.726562 16.191406 18.816406 16.101562 C 18.945312 15.972656 19.066406 15.851562 19.195312 15.722656 C 19.230469 15.6875 19.269531 15.648438 19.304688 15.613281 C 20.046875 14.878906 21.085938 14.601562 22.039062 15.09375 Z M 20.417969 17.058594 C 20.375 17.09375 20.335938 17.136719 20.292969 17.175781 C 20.160156 17.308594 20.03125 17.445312 19.890625 17.578125 C 19.800781 17.667969 19.710938 17.765625 19.613281 17.855469 C 19.421875 18.046875 19.226562 18.242188 19.035156 18.4375 C 18.789062 18.683594 18.539062 18.9375 18.289062 19.179688 C 18.097656 19.375 17.90625 19.5625 17.714844 19.757812 C 17.625 19.847656 17.53125 19.9375 17.441406 20.03125 C 17.308594 20.160156 17.1875 20.289062 17.058594 20.417969 C 17 20.476562 17 20.476562 16.9375 20.53125 C 16.789062 20.6875 16.695312 20.789062 16.632812 21 C 16.707031 21.253906 16.871094 21.402344 17.058594 21.582031 C 17.09375 21.625 17.136719 21.664062 17.175781 21.707031 C 17.308594 21.839844 17.445312 21.96875 17.578125 22.109375 C 17.667969 22.199219 17.765625 22.289062 17.855469 22.386719 C 18.046875 22.578125 18.242188 22.773438 18.4375 22.964844 C 18.683594 23.210938 18.9375 23.460938 19.179688 23.710938 C 19.375 23.902344 19.5625 24.09375 19.757812 24.285156 C 19.847656 24.375 19.9375 24.46875 20.03125 24.558594 C 20.160156 24.691406 20.289062 24.8125 20.417969 24.941406 C 20.453125 24.984375 20.492188 25.019531 20.53125 25.0625 C 20.6875 25.210938 20.789062 25.304688 21 25.367188 C 21.253906 25.292969 21.402344 25.128906 21.582031 24.941406 C 21.640625 24.882812 21.640625 24.882812 21.707031 24.824219 C 21.839844 24.691406 21.96875 24.554688 22.109375 24.421875 C 22.199219 24.332031 22.289062 24.234375 22.386719 24.144531 C 22.578125 23.953125 22.773438 23.757812 22.964844 23.5625 C 23.210938 23.316406 23.460938 23.0625 23.710938 22.820312 C 23.902344 22.625 24.09375 22.4375 24.285156 22.242188 C 24.375 22.152344 24.46875 22.0625 24.558594 21.96875 C 24.691406 21.839844 24.8125 21.710938 24.941406 21.582031 C 24.984375 21.546875 25.019531 21.507812 25.0625 21.46875 C 25.210938 21.3125 25.304688 21.210938 25.367188 21 C 25.292969 20.746094 25.128906 20.597656 24.941406 20.417969 C 24.882812 20.359375 24.882812 20.359375 24.824219 20.292969 C 24.691406 20.160156 24.554688 20.03125 24.421875 19.890625 C 24.332031 19.800781 24.234375 19.710938 24.144531 19.613281 C 23.953125 19.421875 23.757812 19.226562 23.5625 19.035156 C 23.316406 18.789062 23.0625 18.539062 22.820312 18.289062 C 22.625 18.097656 22.4375 17.90625 22.242188 17.714844 C 22.152344 17.625 22.0625 17.53125 21.96875 17.441406 C 21.839844 17.308594 21.710938 17.1875 21.582031 17.058594 C 21.523438 17 21.523438 17 21.46875 16.9375 C 21.3125 16.789062 21.210938 16.695312 21 16.632812 C 20.746094 16.707031 20.597656 16.871094 20.417969 17.058594 Z M 20.417969 17.058594 "/>
</g>
</svg>
