<?xml version="1.0" encoding="UTF-8"?>
<svg xmlns="http://www.w3.org/2000/svg" xmlns:xlink="http://www.w3.org/1999/xlink" width="24" height="24" viewBox="0 0 28 28" version="1.1">
<g id="surface1">
<path style=" stroke:none;fill-rule:nonzero;fill:#dc2626;fill-opacity:1;" d="M 0.546875 -0.0351562 C 0.59375 -0.0351562 0.636719 -0.0351562 0.683594 -0.0351562 C 0.894531 0.0195312 0.960938 0.101562 1.09375 0.273438 C 1.132812 0.472656 1.128906 0.671875 1.125 0.871094 C 1.125 0.933594 1.125 0.992188 1.125 1.054688 C 1.125 1.253906 1.121094 1.453125 1.121094 1.648438 C 1.121094 1.789062 1.121094 1.929688 1.121094 2.0625 C 1.117188 2.390625 1.117188 2.71875 1.113281 3.042969 C 1.113281 3.417969 1.109375 3.789062 1.109375 4.160156 C 1.101562 4.925781 1.097656 5.6875 1.09375 6.453125 C 1.417969 6.453125 1.746094 6.453125 2.078125 6.453125 C 2.078125 6.339844 2.078125 6.339844 2.078125 6.21875 C 2.070312 5.496094 2.0625 4.773438 2.0625 4.050781 C 2.0625 3.679688 2.058594 3.304688 2.054688 2.933594 C 2.054688 2.574219 2.050781 2.214844 2.050781 1.859375 C 2.050781 1.722656 2.050781 1.585938 2.050781 1.445312 C 2.046875 1.253906 2.046875 1.0625 2.046875 0.871094 C 2.046875 0.816406 2.046875 0.757812 2.046875 0.703125 C 2.046875 0.3125 2.046875 0.3125 2.210938 0.101562 C 2.367188 -0.0078125 2.4375 -0.0351562 2.625 -0.0351562 C 2.671875 -0.0351562 2.714844 -0.0351562 2.761719 -0.0351562 C 2.972656 0.0195312 3.039062 0.101562 3.171875 0.273438 C 3.210938 0.472656 3.207031 0.671875 3.203125 0.871094 C 3.203125 0.933594 3.203125 0.992188 3.203125 1.054688 C 3.203125 1.253906 3.199219 1.453125 3.199219 1.648438 C 3.199219 1.789062 3.199219 1.929688 3.199219 2.0625 C 3.195312 2.390625 3.195312 2.71875 3.191406 3.042969 C 3.191406 3.417969 3.1875 3.789062 3.1875 4.160156 C 3.179688 4.925781 3.175781 5.6875 3.171875 6.453125 C 3.496094 6.453125 3.824219 6.453125 4.15625 6.453125 C 4.15625 6.375 4.15625 6.296875 4.15625 6.21875 C 4.148438 5.496094 4.140625 4.773438 4.140625 4.050781 C 4.140625 3.679688 4.136719 3.304688 4.132812 2.933594 C 4.132812 2.574219 4.128906 2.214844 4.128906 1.859375 C 4.128906 1.722656 4.128906 1.585938 4.128906 1.445312 C 4.125 1.253906 4.125 1.0625 4.125 0.871094 C 4.125 0.816406 4.125 0.757812 4.125 0.703125 C 4.125 0.3125 4.125 0.3125 4.289062 0.101562 C 4.445312 -0.0078125 4.515625 -0.0351562 4.703125 -0.0351562 C 4.75 -0.0351562 4.792969 -0.0351562 4.839844 -0.0351562 C 5.050781 0.0195312 5.117188 0.101562 5.25 0.273438 C 5.289062 0.472656 5.285156 0.671875 5.28125 0.871094 C 5.28125 0.933594 5.28125 0.992188 5.28125 1.054688 C 5.28125 1.253906 5.277344 1.453125 5.277344 1.648438 C 5.277344 1.789062 5.277344 1.929688 5.277344 2.0625 C 5.273438 2.390625 5.273438 2.71875 5.269531 3.042969 C 5.269531 3.417969 5.265625 3.789062 5.265625 4.160156 C 5.257812 4.925781 5.253906 5.6875 5.25 6.453125 C 5.574219 6.453125 5.902344 6.453125 6.234375 6.453125 C 6.234375 6.375 6.234375 6.296875 6.234375 6.21875 C 6.226562 5.496094 6.21875 4.773438 6.21875 4.050781 C 6.21875 3.679688 6.214844 3.304688 6.210938 2.933594 C 6.210938 2.574219 6.207031 2.214844 6.207031 1.859375 C 6.207031 1.722656 6.207031 1.585938 6.207031 1.445312 C 6.203125 1.253906 6.203125 1.0625 6.203125 0.871094 C 6.203125 0.816406 6.203125 0.757812 6.203125 0.703125 C 6.203125 0.3125 6.203125 0.3125 6.367188 0.101562 C 6.523438 -0.0078125 6.59375 -0.0351562 6.78125 -0.0351562 C 6.828125 -0.0351562 6.871094 -0.0351562 6.917969 -0.0351562 C 7.070312 0.00390625 7.164062 0.0585938 7.269531 0.167969 C 7.40625 0.410156 7.363281 0.714844 7.363281 0.984375 C 7.363281 1.058594 7.363281 1.128906 7.363281 1.207031 C 7.363281 1.402344 7.363281 1.605469 7.363281 1.800781 C 7.359375 2.007812 7.363281 2.21875 7.363281 2.429688 C 7.363281 2.78125 7.359375 3.132812 7.359375 3.476562 C 7.359375 3.882812 7.359375 4.289062 7.359375 4.6875 C 7.359375 5.082031 7.359375 5.46875 7.359375 5.859375 C 7.359375 6.023438 7.359375 6.1875 7.359375 6.359375 C 7.359375 6.554688 7.359375 6.746094 7.359375 6.941406 C 7.355469 7.046875 7.359375 7.148438 7.359375 7.253906 C 7.347656 8.1875 6.992188 9.007812 6.34375 9.679688 C 6.035156 9.945312 5.722656 10.15625 5.359375 10.335938 C 5.359375 10.371094 5.359375 10.40625 5.359375 10.441406 C 5.359375 12.492188 5.359375 14.542969 5.355469 16.59375 C 5.355469 16.839844 5.355469 17.085938 5.355469 17.332031 C 5.355469 17.40625 5.355469 17.40625 5.355469 17.480469 C 5.355469 18.273438 5.351562 19.066406 5.355469 19.859375 C 5.355469 20.675781 5.351562 21.492188 5.351562 22.308594 C 5.351562 22.808594 5.351562 23.3125 5.351562 23.8125 C 5.351562 24.15625 5.351562 24.503906 5.351562 24.851562 C 5.34375 25.046875 5.34375 25.246094 5.351562 25.445312 C 5.351562 25.664062 5.34375 25.875 5.34375 26.09375 C 5.34375 26.15625 5.34375 26.21875 5.351562 26.28125 C 5.339844 26.765625 5.203125 27.195312 4.882812 27.5625 C 4.789062 27.648438 4.699219 27.710938 4.59375 27.78125 C 4.542969 27.8125 4.542969 27.8125 4.488281 27.851562 C 4.109375 28.058594 3.648438 28.070312 3.226562 28 C 2.757812 27.851562 2.429688 27.609375 2.183594 27.183594 C 2.003906 26.828125 1.996094 26.507812 2 26.113281 C 2 26.050781 2 25.980469 2 25.914062 C 2 25.726562 2 25.539062 2.003906 25.351562 C 2.003906 25.152344 2.003906 24.953125 2.003906 24.75 C 2.003906 24.40625 2.007812 24.058594 2.007812 23.707031 C 2.015625 23.160156 2.015625 22.609375 2.015625 22.058594 C 2.015625 21.871094 2.015625 21.683594 2.015625 21.492188 C 2.015625 21.421875 2.015625 21.421875 2.015625 21.351562 C 2.019531 20.816406 2.019531 20.285156 2.019531 19.746094 C 2.019531 19.703125 2.019531 19.652344 2.019531 19.601562 C 2.023438 18.808594 2.027344 18.015625 2.03125 17.222656 C 2.03125 16.410156 2.039062 15.59375 2.039062 14.78125 C 2.039062 14.277344 2.039062 13.777344 2.042969 13.273438 C 2.046875 12.929688 2.046875 12.585938 2.046875 12.246094 C 2.046875 12.046875 2.046875 11.847656 2.046875 11.648438 C 2.050781 11.433594 2.050781 11.21875 2.046875 11.007812 C 2.050781 10.941406 2.050781 10.878906 2.054688 10.8125 C 2.050781 10.632812 2.042969 10.503906 1.96875 10.335938 C 1.8125 10.203125 1.664062 10.121094 1.476562 10.03125 C 0.78125 9.699219 0.355469 8.949219 0.101562 8.25 C 0.0273438 8 -0.0078125 7.765625 -0.0078125 7.5 C -0.0078125 7.4375 -0.0078125 7.375 -0.0078125 7.308594 C -0.0078125 7.242188 -0.0078125 7.171875 -0.0078125 7.101562 C -0.0078125 7.027344 -0.015625 6.953125 -0.015625 6.875 C -0.015625 6.636719 -0.015625 6.394531 -0.015625 6.152344 C -0.015625 6.070312 -0.015625 5.984375 -0.015625 5.902344 C -0.0195312 5.554688 -0.0195312 5.210938 -0.0195312 4.859375 C -0.0195312 4.359375 -0.0234375 3.863281 -0.0234375 3.367188 C -0.0273438 3.015625 -0.0273438 2.671875 -0.0273438 2.320312 C -0.0273438 2.109375 -0.0273438 1.898438 -0.03125 1.691406 C -0.03125 1.496094 -0.03125 1.296875 -0.03125 1.101562 C -0.03125 1 -0.03125 0.890625 -0.0351562 0.785156 C -0.03125 0.265625 -0.03125 0.265625 0.132812 0.09375 C 0.28125 -0.0078125 0.363281 -0.0351562 0.546875 -0.0351562 Z M 1.148438 7.546875 C 1.25 7.992188 1.339844 8.222656 1.585938 8.585938 C 1.617188 8.636719 1.648438 8.679688 1.679688 8.730469 C 1.996094 9.054688 2.355469 9.265625 2.78125 9.40625 C 2.929688 9.476562 2.976562 9.542969 3.0625 9.679688 C 3.085938 9.8125 3.085938 9.8125 3.085938 9.96875 C 3.085938 10.027344 3.085938 10.082031 3.085938 10.144531 C 3.085938 10.207031 3.085938 10.273438 3.085938 10.335938 C 3.085938 10.40625 3.085938 10.472656 3.085938 10.539062 C 3.085938 10.734375 3.085938 10.917969 3.085938 11.109375 C 3.085938 11.3125 3.085938 11.515625 3.085938 11.722656 C 3.085938 12.070312 3.085938 12.429688 3.085938 12.777344 C 3.085938 13.289062 3.085938 13.804688 3.085938 14.3125 C 3.089844 15.144531 3.089844 15.972656 3.089844 16.804688 C 3.089844 16.851562 3.089844 16.902344 3.089844 16.953125 C 3.089844 17.304688 3.089844 17.65625 3.089844 18.011719 C 3.089844 18.410156 3.089844 18.8125 3.089844 19.21875 C 3.089844 19.265625 3.089844 19.3125 3.089844 19.367188 C 3.089844 20.195312 3.09375 21.019531 3.09375 21.84375 C 3.09375 22.351562 3.09375 22.863281 3.09375 23.375 C 3.09375 23.726562 3.09375 24.070312 3.09375 24.421875 C 3.09375 24.625 3.09375 24.824219 3.09375 25.023438 C 3.09375 25.242188 3.09375 25.460938 3.09375 25.679688 C 3.09375 25.742188 3.09375 25.808594 3.09375 25.875 C 3.097656 26.203125 3.113281 26.453125 3.28125 26.742188 C 3.480469 26.875 3.648438 26.898438 3.882812 26.851562 C 4.074219 26.707031 4.171875 26.597656 4.210938 26.359375 C 4.214844 26.265625 4.214844 26.167969 4.214844 26.070312 C 4.21875 25.984375 4.21875 25.984375 4.21875 25.894531 C 4.21875 25.832031 4.21875 25.765625 4.214844 25.703125 C 4.21875 25.597656 4.21875 25.597656 4.21875 25.492188 C 4.21875 25.347656 4.21875 25.195312 4.21875 25.046875 C 4.21875 24.800781 4.21875 24.558594 4.21875 24.316406 C 4.21875 24.007812 4.21875 23.703125 4.21875 23.390625 C 4.21875 22.785156 4.21875 22.183594 4.21875 21.578125 C 4.21875 21.484375 4.21875 21.390625 4.21875 21.296875 C 4.21875 21.148438 4.21875 21.003906 4.21875 20.863281 C 4.21875 20.316406 4.226562 19.773438 4.226562 19.230469 C 4.226562 19.179688 4.226562 19.132812 4.226562 19.082031 C 4.226562 18.273438 4.226562 17.46875 4.226562 16.664062 C 4.226562 15.835938 4.226562 15.011719 4.230469 14.183594 C 4.230469 13.671875 4.230469 13.160156 4.230469 12.65625 C 4.230469 12.304688 4.230469 11.953125 4.230469 11.601562 C 4.230469 11.402344 4.230469 11.203125 4.230469 11 C 4.230469 10.78125 4.230469 10.5625 4.230469 10.34375 C 4.230469 10.25 4.230469 10.25 4.230469 10.148438 C 4.234375 9.71875 4.234375 9.71875 4.394531 9.507812 C 4.59375 9.371094 4.804688 9.265625 5.023438 9.164062 C 5.609375 8.886719 5.914062 8.421875 6.144531 7.828125 C 6.1875 7.707031 6.1875 7.707031 6.179688 7.546875 C 4.519531 7.546875 2.859375 7.546875 1.148438 7.546875 Z M 1.148438 7.546875 "/>
<path style=" stroke:none;fill-rule:nonzero;fill:#dc2626;fill-opacity:1;" d="M 27.460938 -0.0351562 C 27.503906 -0.0351562 27.546875 -0.0351562 27.59375 -0.0351562 C 27.796875 0.0195312 27.871094 0.113281 28 0.273438 C 28.027344 0.433594 28.035156 0.5625 28.035156 0.71875 C 28.035156 0.765625 28.035156 0.8125 28.035156 0.855469 C 28.035156 1.007812 28.035156 1.15625 28.035156 1.308594 C 28.035156 1.417969 28.035156 1.527344 28.035156 1.636719 C 28.035156 1.9375 28.035156 2.238281 28.035156 2.539062 C 28.035156 2.863281 28.035156 3.1875 28.035156 3.507812 C 28.039062 4.105469 28.039062 4.707031 28.039062 5.304688 C 28.035156 5.855469 28.035156 6.40625 28.035156 6.964844 C 28.039062 7.035156 28.039062 7.109375 28.039062 7.1875 C 28.039062 7.296875 28.039062 7.410156 28.039062 7.519531 C 28.039062 8.558594 28.039062 9.597656 28.039062 10.636719 C 28.039062 10.679688 28.039062 10.714844 28.039062 10.753906 C 28.039062 11.074219 28.039062 11.394531 28.035156 11.707031 C 28.035156 12.953125 28.035156 14.191406 28.039062 15.429688 C 28.039062 16.824219 28.039062 18.214844 28.039062 19.609375 C 28.039062 19.761719 28.039062 19.90625 28.039062 20.054688 C 28.039062 20.09375 28.039062 20.128906 28.039062 20.164062 C 28.039062 20.71875 28.039062 21.273438 28.039062 21.824219 C 28.046875 22.453125 28.046875 23.078125 28.039062 23.707031 C 28.039062 24.03125 28.039062 24.351562 28.039062 24.667969 C 28.046875 24.964844 28.046875 25.257812 28.039062 25.554688 C 28.039062 25.65625 28.039062 25.761719 28.039062 25.867188 C 28.046875 26.507812 28.023438 27.050781 27.578125 27.5625 C 27.484375 27.648438 27.394531 27.710938 27.289062 27.78125 C 27.238281 27.8125 27.238281 27.8125 27.183594 27.851562 C 26.804688 28.058594 26.34375 28.070312 25.921875 28 C 25.449219 27.851562 25.132812 27.609375 24.878906 27.1875 C 24.671875 26.796875 24.695312 26.414062 24.710938 25.980469 C 24.710938 25.898438 24.710938 25.816406 24.714844 25.734375 C 24.714844 25.5625 24.71875 25.390625 24.722656 25.210938 C 24.726562 24.933594 24.734375 24.65625 24.734375 24.375 C 24.734375 24.332031 24.734375 24.28125 24.738281 24.234375 C 24.738281 24.140625 24.738281 24.039062 24.738281 23.945312 C 24.742188 23.296875 24.75 22.65625 24.765625 22.007812 C 24.777344 21.570312 24.78125 21.132812 24.78125 20.695312 C 24.78125 20.460938 24.789062 20.234375 24.796875 20 C 24.851562 18.847656 24.851562 18.847656 24.328125 17.875 C 24.148438 17.695312 23.957031 17.535156 23.761719 17.382812 C 23.296875 17.003906 22.949219 16.457031 22.859375 15.859375 C 22.835938 15.578125 22.835938 15.292969 22.835938 15.011719 C 22.835938 14.925781 22.835938 14.84375 22.835938 14.757812 C 22.835938 14.527344 22.835938 14.300781 22.835938 14.074219 C 22.835938 13.832031 22.835938 13.589844 22.835938 13.347656 C 22.835938 12.945312 22.835938 12.542969 22.835938 12.136719 C 22.839844 11.671875 22.835938 11.207031 22.835938 10.742188 C 22.835938 10.339844 22.835938 9.9375 22.835938 9.539062 C 22.835938 9.300781 22.835938 9.058594 22.835938 8.824219 C 22.832031 6.917969 22.832031 6.917969 23.023438 6.070312 C 23.039062 6.011719 23.050781 5.957031 23.0625 5.890625 C 23.097656 5.761719 23.132812 5.628906 23.167969 5.496094 C 23.183594 5.449219 23.195312 5.398438 23.210938 5.355469 C 23.675781 3.835938 24.472656 2.53125 25.539062 1.367188 C 25.601562 1.296875 25.601562 1.296875 25.667969 1.226562 C 26.007812 0.871094 26.398438 0.570312 26.796875 0.273438 C 26.828125 0.246094 26.859375 0.222656 26.898438 0.195312 C 27.085938 0.0546875 27.214844 -0.0351562 27.460938 -0.0351562 Z M 26.304688 2.242188 C 25.632812 2.949219 25.121094 3.765625 24.71875 4.648438 C 24.703125 4.679688 24.6875 4.71875 24.671875 4.75 C 23.972656 6.324219 23.945312 7.964844 23.945312 9.65625 C 23.945312 9.773438 23.945312 9.890625 23.945312 10.007812 C 23.945312 10.414062 23.945312 10.820312 23.945312 11.226562 C 23.945312 11.597656 23.945312 11.976562 23.9375 12.351562 C 23.9375 12.679688 23.9375 13 23.9375 13.324219 C 23.9375 13.523438 23.9375 13.710938 23.9375 13.90625 C 23.9375 14.125 23.9375 14.335938 23.9375 14.550781 C 23.9375 14.617188 23.9375 14.679688 23.9375 14.742188 C 23.945312 15.582031 24.113281 16.140625 24.710938 16.742188 C 24.824219 16.859375 24.945312 16.976562 25.066406 17.089844 C 25.15625 17.175781 25.246094 17.265625 25.339844 17.355469 C 25.394531 17.414062 25.449219 17.46875 25.507812 17.519531 C 25.753906 17.765625 25.753906 17.765625 25.765625 17.972656 C 25.765625 18.039062 25.765625 18.097656 25.765625 18.160156 C 25.765625 18.234375 25.765625 18.304688 25.765625 18.378906 C 25.765625 18.457031 25.765625 18.539062 25.765625 18.617188 C 25.765625 18.703125 25.765625 18.785156 25.765625 18.867188 C 25.765625 19.050781 25.765625 19.226562 25.765625 19.410156 C 25.773438 19.691406 25.773438 19.980469 25.773438 20.261719 C 25.777344 21.074219 25.777344 21.878906 25.78125 22.691406 C 25.78125 23.136719 25.78125 23.585938 25.785156 24.03125 C 25.785156 24.265625 25.785156 24.503906 25.785156 24.742188 C 25.785156 24.964844 25.789062 25.1875 25.789062 25.410156 C 25.789062 25.492188 25.789062 25.574219 25.789062 25.652344 C 25.777344 26.222656 25.777344 26.222656 25.976562 26.742188 C 26.175781 26.875 26.34375 26.898438 26.578125 26.851562 C 26.769531 26.707031 26.867188 26.597656 26.90625 26.359375 C 26.910156 26.222656 26.914062 26.085938 26.910156 25.949219 C 26.910156 25.90625 26.914062 25.863281 26.914062 25.820312 C 26.914062 25.679688 26.910156 25.539062 26.910156 25.398438 C 26.910156 25.296875 26.910156 25.195312 26.910156 25.09375 C 26.914062 24.8125 26.910156 24.53125 26.910156 24.253906 C 26.910156 23.953125 26.910156 23.648438 26.910156 23.347656 C 26.910156 22.824219 26.910156 22.304688 26.910156 21.78125 C 26.910156 21.023438 26.910156 20.265625 26.910156 19.507812 C 26.910156 18.285156 26.910156 17.054688 26.910156 15.828125 C 26.910156 14.636719 26.910156 13.445312 26.910156 12.25 C 26.910156 12.214844 26.910156 12.175781 26.910156 12.140625 C 26.910156 11.773438 26.910156 11.402344 26.910156 11.03125 C 26.90625 7.9375 26.90625 4.84375 26.90625 1.75 C 26.707031 1.75 26.445312 2.101562 26.304688 2.242188 Z M 26.304688 2.242188 "/>
<path style=" stroke:none;fill-rule:nonzero;fill:#dc2626;fill-opacity:1;" d="M 19.015625 8.007812 C 20.308594 9.125 21.167969 10.496094 21.601562 12.140625 C 21.628906 12.234375 21.628906 12.234375 21.65625 12.335938 C 22.109375 14.378906 21.648438 16.523438 20.542969 18.273438 C 19.460938 19.945312 17.78125 21.109375 15.859375 21.601562 C 15.769531 21.625 15.769531 21.625 15.671875 21.652344 C 13.625 22.109375 11.480469 21.652344 9.726562 20.542969 C 8.054688 19.460938 6.890625 17.78125 6.398438 15.859375 C 6.378906 15.800781 6.367188 15.734375 6.347656 15.671875 C 5.890625 13.625 6.347656 11.480469 7.457031 9.726562 C 8.550781 8.042969 10.21875 6.910156 12.140625 6.398438 C 12.203125 6.378906 12.269531 6.363281 12.335938 6.34375 C 14.664062 5.828125 17.203125 6.480469 19.015625 8.007812 Z M 9.117188 9.476562 C 7.964844 10.695312 7.359375 12.3125 7.363281 13.980469 C 7.363281 14.019531 7.363281 14.054688 7.363281 14.089844 C 7.375 15.976562 8.152344 17.554688 9.476562 18.882812 C 10.695312 20.035156 12.378906 20.679688 14.054688 20.671875 C 15.996094 20.597656 17.671875 19.804688 19.003906 18.394531 C 20.074219 17.171875 20.640625 15.636719 20.636719 14.019531 C 20.636719 13.980469 20.636719 13.945312 20.636719 13.910156 C 20.625 12.023438 19.847656 10.445312 18.523438 9.117188 C 15.804688 6.554688 11.679688 6.921875 9.117188 9.476562 Z M 9.117188 9.476562 "/>
<path style=" stroke:none;fill-rule:nonzero;fill:#dc2626;fill-opacity:1;" d="M 21.984375 19.578125 C 22.140625 19.652344 22.195312 19.71875 22.3125 19.851562 C 22.382812 20.070312 22.390625 20.183594 22.296875 20.394531 C 22.203125 20.5625 22.101562 20.691406 21.96875 20.828125 C 21.820312 20.992188 21.671875 21.15625 21.527344 21.328125 C 19.855469 23.226562 17.21875 24.300781 14.734375 24.476562 C 12.554688 24.605469 9.851562 24.171875 8.148438 22.695312 C 8.054688 22.507812 8.066406 22.296875 8.09375 22.09375 C 8.195312 21.9375 8.257812 21.847656 8.421875 21.765625 C 8.796875 21.730469 9 21.816406 9.316406 22.011719 C 9.40625 22.0625 9.492188 22.113281 9.578125 22.164062 C 9.644531 22.203125 9.644531 22.203125 9.710938 22.238281 C 10.71875 22.800781 11.828125 23.097656 12.960938 23.242188 C 13.015625 23.25 13.074219 23.257812 13.132812 23.265625 C 14.800781 23.445312 16.542969 23.09375 18.046875 22.367188 C 18.082031 22.347656 18.125 22.332031 18.160156 22.3125 C 18.953125 21.929688 19.652344 21.429688 20.289062 20.820312 C 20.398438 20.726562 20.398438 20.726562 20.515625 20.671875 C 20.644531 20.601562 20.667969 20.53125 20.726562 20.398438 C 20.808594 20.308594 20.808594 20.308594 20.90625 20.214844 C 21.074219 20.054688 21.222656 19.886719 21.367188 19.710938 C 21.53125 19.527344 21.761719 19.542969 21.984375 19.578125 Z M 21.984375 19.578125 "/>
<path style=" stroke:none;fill-rule:nonzero;fill:#dc2626;fill-opacity:1;" d="M 20.972656 6.160156 C 21.09375 6.273438 21.222656 6.382812 21.351562 6.492188 C 21.757812 6.851562 21.757812 6.851562 21.773438 7.125 C 21.761719 7.320312 21.730469 7.460938 21.628906 7.628906 C 21.421875 7.75 21.242188 7.792969 21 7.765625 C 20.722656 7.636719 20.527344 7.402344 20.316406 7.183594 C 19.722656 6.582031 19.015625 6.128906 18.265625 5.742188 C 18.230469 5.722656 18.191406 5.707031 18.15625 5.683594 C 17.539062 5.363281 16.914062 5.15625 16.242188 4.976562 C 16.179688 4.957031 16.113281 4.941406 16.046875 4.921875 C 14.0625 4.445312 11.898438 4.722656 10.0625 5.582031 C 9.796875 5.707031 9.597656 5.777344 9.296875 5.742188 C 9.132812 5.640625 9.046875 5.558594 8.945312 5.394531 C 8.90625 5.214844 8.917969 5.101562 8.96875 4.921875 C 9.140625 4.648438 9.34375 4.554688 9.628906 4.433594 C 9.675781 4.414062 9.71875 4.398438 9.765625 4.375 C 13.46875 2.820312 17.992188 3.359375 20.972656 6.160156 Z M 20.972656 6.160156 "/>
<path style=" stroke:none;fill-rule:nonzero;fill:#dc2626;fill-opacity:1;" d="M 12.414062 9.296875 C 12.71875 9.46875 12.71875 9.46875 12.796875 9.625 C 12.8125 9.734375 12.8125 9.734375 12.816406 9.863281 C 12.816406 9.921875 12.816406 9.921875 12.820312 9.984375 C 12.789062 10.171875 12.710938 10.253906 12.578125 10.390625 C 12.449219 10.464844 12.328125 10.527344 12.195312 10.589844 C 11.296875 11.042969 10.695312 11.808594 10.335938 12.742188 C 10.242188 13.035156 10.175781 13.320312 10.148438 13.625 C 10.144531 13.664062 10.140625 13.703125 10.136719 13.746094 C 10.125 13.816406 10.121094 13.894531 10.117188 13.972656 C 10.097656 14.171875 10.0625 14.273438 9.9375 14.433594 C 9.78125 14.554688 9.710938 14.582031 9.515625 14.582031 C 9.445312 14.582031 9.445312 14.582031 9.378906 14.582031 C 9.171875 14.527344 9.097656 14.441406 8.96875 14.273438 C 8.941406 14.109375 8.933594 13.984375 8.9375 13.820312 C 8.9375 13.78125 8.941406 13.734375 8.941406 13.691406 C 8.996094 12.320312 9.644531 11.121094 10.628906 10.1875 C 11.054688 9.792969 11.804688 9.1875 12.414062 9.296875 Z M 12.414062 9.296875 "/>
<path style=" stroke:none;fill-rule:nonzero;fill:#dc2626;fill-opacity:1;" d="M 7.273438 20.453125 C 7.441406 20.5625 7.519531 20.640625 7.578125 20.832031 C 7.617188 21.019531 7.609375 21.144531 7.539062 21.320312 C 7.375 21.515625 7.292969 21.59375 7.03125 21.621094 C 6.828125 21.601562 6.726562 21.566406 6.5625 21.4375 C 6.40625 21.203125 6.414062 21 6.453125 20.726562 C 6.648438 20.402344 6.925781 20.382812 7.273438 20.453125 Z M 7.273438 20.453125 "/>
<path style=" stroke:none;fill-rule:nonzero;fill:#dc2626;fill-opacity:1;" d="M 14.273438 8.96875 C 14.445312 9.070312 14.445312 9.070312 14.546875 9.242188 C 14.582031 9.433594 14.582031 9.597656 14.546875 9.789062 C 14.417969 9.976562 14.328125 10.042969 14.117188 10.117188 C 13.890625 10.117188 13.757812 10.0625 13.5625 9.953125 C 13.4375 9.804688 13.402344 9.710938 13.375 9.519531 C 13.402344 9.304688 13.484375 9.191406 13.617188 9.023438 C 13.820312 8.921875 14.050781 8.941406 14.273438 8.96875 Z M 14.273438 8.96875 "/>
</g>
</svg>
