<?xml version="1.0" encoding="UTF-8"?>
<svg xmlns="http://www.w3.org/2000/svg" xmlns:xlink="http://www.w3.org/1999/xlink" width="24" height="24" viewBox="0 0 28 28" version="1.1">
<g id="surface1">
<path style=" stroke:none;fill-rule:nonzero;fill:#dc2626;fill-opacity:1;" d="M 9.59375 8.742188 C 9.664062 8.742188 9.664062 8.742188 9.742188 8.742188 C 9.902344 8.734375 10.066406 8.734375 10.230469 8.734375 C 10.285156 8.734375 10.34375 8.734375 10.398438 8.734375 C 10.699219 8.734375 10.996094 8.734375 11.292969 8.730469 C 11.597656 8.730469 11.902344 8.730469 12.210938 8.726562 C 12.445312 8.726562 12.683594 8.726562 12.914062 8.726562 C 13.03125 8.726562 13.144531 8.726562 13.253906 8.726562 C 15.113281 8.710938 16.453125 9.304688 17.972656 10.308594 C 18.324219 10.539062 18.675781 10.765625 19.03125 10.988281 C 19.078125 11.015625 19.121094 11.046875 19.167969 11.074219 C 19.21875 11.105469 19.265625 11.132812 19.3125 11.164062 C 19.46875 11.265625 19.46875 11.265625 19.636719 11.394531 C 20.125 11.757812 20.542969 11.832031 21.144531 11.847656 C 21.398438 11.859375 21.640625 11.871094 21.890625 11.886719 C 21.9375 11.890625 21.988281 11.890625 22.039062 11.894531 C 23.679688 11.984375 26.28125 12.214844 27.476562 13.46875 C 27.777344 13.832031 28.003906 14.25 28.007812 14.730469 C 28.007812 14.78125 28.007812 14.824219 28.007812 14.871094 C 28.007812 14.921875 28.007812 14.96875 28.007812 15.023438 C 28.015625 15.074219 28.015625 15.128906 28.015625 15.179688 C 28.015625 15.292969 28.015625 15.402344 28.015625 15.511719 C 28.015625 15.679688 28.015625 15.84375 28.019531 16.015625 C 28.019531 16.125 28.019531 16.226562 28.019531 16.335938 C 28.019531 16.386719 28.019531 16.4375 28.019531 16.488281 C 28.019531 16.933594 27.914062 17.300781 27.609375 17.632812 C 27.324219 17.878906 26.996094 17.976562 26.628906 17.960938 C 26.464844 17.921875 26.394531 17.855469 26.304688 17.71875 C 26.242188 17.574219 26.246094 17.515625 26.285156 17.359375 C 26.367188 17.207031 26.429688 17.148438 26.578125 17.0625 C 26.640625 17.042969 26.710938 17.03125 26.777344 17.011719 C 26.960938 16.972656 26.960938 16.972656 27.039062 16.859375 C 27.109375 16.585938 27.128906 16.320312 27.128906 16.039062 C 27.128906 15.9375 27.128906 15.9375 27.128906 15.832031 C 27.128906 15.765625 27.128906 15.691406 27.128906 15.617188 C 27.128906 15.511719 27.128906 15.511719 27.128906 15.402344 C 27.125 15.226562 27.125 15.054688 27.125 14.875 C 27.078125 14.875 27.078125 14.875 27.035156 14.878906 C 26.898438 14.882812 26.757812 14.882812 26.617188 14.890625 C 26.574219 14.890625 26.523438 14.894531 26.472656 14.894531 C 26.117188 14.898438 26.117188 14.898438 25.945312 14.773438 C 25.851562 14.632812 25.820312 14.546875 25.8125 14.382812 C 25.871094 14.171875 25.902344 14.125 26.085938 14 C 26.210938 13.976562 26.210938 13.976562 26.339844 13.964844 C 26.410156 13.960938 26.410156 13.960938 26.476562 13.953125 C 26.507812 13.949219 26.542969 13.949219 26.578125 13.945312 C 24.703125 12.824219 22.066406 12.734375 19.933594 12.734375 C 19.828125 12.734375 19.722656 12.734375 19.617188 12.734375 C 19.394531 12.734375 19.171875 12.734375 18.945312 12.734375 C 18.59375 12.734375 18.238281 12.734375 17.882812 12.734375 C 17.824219 12.734375 17.765625 12.734375 17.703125 12.734375 C 17.582031 12.734375 17.460938 12.734375 17.335938 12.734375 C 16.511719 12.726562 15.691406 12.726562 14.867188 12.726562 C 14.308594 12.726562 13.753906 12.726562 13.199219 12.722656 C 12.902344 12.722656 12.609375 12.722656 12.3125 12.722656 C 12.039062 12.722656 11.761719 12.722656 11.484375 12.722656 C 11.382812 12.722656 11.285156 12.722656 11.183594 12.722656 C 11.042969 12.722656 10.90625 12.722656 10.769531 12.722656 C 10.726562 12.722656 10.6875 12.722656 10.644531 12.722656 C 10.4375 12.71875 10.339844 12.691406 10.175781 12.558594 C 10.0625 12.414062 10.0625 12.414062 10.03125 12.25 C 10.0625 12.082031 10.101562 11.984375 10.230469 11.867188 C 10.484375 11.734375 10.808594 11.785156 11.09375 11.792969 C 11.328125 11.796875 11.566406 11.808594 11.8125 11.8125 C 11.8125 11.09375 11.8125 10.367188 11.8125 9.625 C 11.449219 9.628906 11.082031 9.632812 10.722656 9.640625 C 10.601562 9.644531 10.476562 9.644531 10.355469 9.644531 C 9.601562 9.652344 8.882812 9.6875 8.148438 9.84375 C 8.144531 9.878906 8.140625 9.921875 8.128906 9.957031 C 8.070312 10.355469 7.988281 10.746094 7.898438 11.132812 C 7.878906 11.214844 7.878906 11.214844 7.859375 11.296875 C 7.851562 11.347656 7.839844 11.402344 7.824219 11.453125 C 7.816406 11.5 7.804688 11.542969 7.792969 11.589844 C 7.765625 11.703125 7.765625 11.703125 7.710938 11.8125 C 7.746094 11.8125 7.78125 11.8125 7.816406 11.808594 C 7.980469 11.808594 8.140625 11.804688 8.296875 11.804688 C 8.351562 11.796875 8.40625 11.796875 8.46875 11.796875 C 8.523438 11.796875 8.570312 11.796875 8.632812 11.792969 C 8.675781 11.792969 8.726562 11.792969 8.777344 11.792969 C 8.941406 11.816406 9.015625 11.863281 9.132812 11.976562 C 9.191406 12.195312 9.210938 12.308594 9.113281 12.515625 C 9.023438 12.632812 9.023438 12.632812 8.914062 12.6875 C 8.699219 12.703125 8.480469 12.703125 8.265625 12.703125 C 8.207031 12.703125 8.148438 12.703125 8.085938 12.707031 C 7.140625 12.710938 6.515625 12.40625 5.851562 11.757812 C 5.78125 11.683594 5.78125 11.683594 5.71875 11.617188 C 5.671875 11.570312 5.632812 11.523438 5.585938 11.476562 C 5.53125 11.414062 5.53125 11.414062 5.472656 11.351562 C 5.363281 11.25 5.363281 11.25 5.230469 11.285156 C 5.09375 11.316406 4.972656 11.359375 4.84375 11.410156 C 4.039062 11.742188 3.273438 11.925781 2.40625 12.03125 C 2.371094 12.035156 2.328125 12.039062 2.289062 12.046875 C 2.097656 12.066406 1.90625 12.089844 1.714844 12.109375 C 1.644531 12.117188 1.570312 12.125 1.503906 12.132812 C 1.441406 12.140625 1.375 12.144531 1.3125 12.15625 C 1.121094 12.203125 1.046875 12.257812 0.929688 12.414062 C 0.878906 12.59375 0.878906 12.59375 0.859375 12.78125 C 0.851562 12.847656 0.84375 12.910156 0.839844 12.980469 C 0.828125 13.023438 0.824219 13.074219 0.820312 13.125 C 0.867188 13.121094 0.910156 13.121094 0.957031 13.117188 C 1.015625 13.117188 1.074219 13.109375 1.132812 13.109375 C 1.195312 13.105469 1.253906 13.105469 1.3125 13.101562 C 1.511719 13.128906 1.570312 13.183594 1.695312 13.34375 C 1.753906 13.507812 1.753906 13.59375 1.714844 13.761719 C 1.625 13.914062 1.582031 13.941406 1.421875 14 C 1.265625 14.007812 1.265625 14.007812 1.109375 14.003906 C 1.054688 14.003906 1 14.003906 0.945312 14.003906 C 0.902344 14.003906 0.859375 14 0.820312 14 C 0.824219 14.191406 0.828125 14.382812 0.839844 14.570312 C 0.839844 14.625 0.839844 14.679688 0.84375 14.734375 C 0.855469 15.148438 0.875 15.535156 1.183594 15.835938 C 1.367188 15.984375 1.550781 16.042969 1.769531 16.101562 C 1.808594 16.113281 1.84375 16.125 1.882812 16.132812 C 2 16.167969 2.117188 16.203125 2.238281 16.234375 C 2.316406 16.257812 2.398438 16.277344 2.476562 16.300781 C 2.671875 16.355469 2.867188 16.40625 3.0625 16.460938 C 3.066406 16.425781 3.066406 16.386719 3.070312 16.351562 C 3.132812 15.660156 3.410156 15.097656 3.917969 14.617188 C 4.539062 14.105469 5.230469 13.941406 6.015625 14 C 6.726562 14.105469 7.308594 14.421875 7.765625 14.984375 C 8.175781 15.550781 8.382812 16.195312 8.3125 16.898438 C 8.292969 16.953125 8.277344 17.007812 8.257812 17.0625 C 12.191406 17.0625 16.128906 17.0625 20.179688 17.0625 C 20.160156 17.007812 20.144531 16.953125 20.125 16.898438 C 20.054688 16.222656 20.261719 15.539062 20.671875 15.003906 C 21.136719 14.460938 21.707031 14.09375 22.421875 14 C 23.234375 13.945312 23.945312 14.136719 24.570312 14.664062 C 25.09375 15.164062 25.375 15.800781 25.402344 16.519531 C 25.40625 16.972656 25.371094 17.363281 25.15625 17.773438 C 25.132812 17.820312 25.105469 17.867188 25.082031 17.917969 C 24.734375 18.542969 24.242188 18.921875 23.566406 19.160156 C 22.855469 19.359375 22.097656 19.308594 21.453125 18.945312 C 21.050781 18.679688 20.691406 18.390625 20.507812 17.9375 C 16.355469 17.9375 12.203125 17.9375 7.929688 17.9375 C 7.894531 18.027344 7.855469 18.121094 7.820312 18.210938 C 7.335938 18.785156 6.773438 19.175781 6.011719 19.265625 C 5.214844 19.320312 4.515625 19.125 3.882812 18.617188 C 3.589844 18.34375 3.359375 17.992188 3.222656 17.609375 C 3.070312 17.375 2.921875 17.355469 2.660156 17.289062 C 2.617188 17.28125 2.570312 17.265625 2.523438 17.253906 C 2.382812 17.21875 2.238281 17.175781 2.097656 17.140625 C 1.949219 17.101562 1.808594 17.066406 1.667969 17.027344 C 1.578125 17.003906 1.492188 16.980469 1.398438 16.957031 C 0.992188 16.847656 0.648438 16.65625 0.363281 16.332031 C 0.332031 16.296875 0.296875 16.261719 0.257812 16.21875 C -0.0351562 15.785156 -0.0234375 15.367188 -0.0234375 14.859375 C -0.0234375 14.785156 -0.0234375 14.707031 -0.0234375 14.632812 C -0.0273438 14.472656 -0.0234375 14.320312 -0.0234375 14.160156 C -0.0234375 13.960938 -0.0234375 13.757812 -0.0273438 13.558594 C -0.0273438 13.398438 -0.0273438 13.242188 -0.0273438 13.089844 C -0.0273438 12.980469 -0.0273438 12.871094 -0.0273438 12.761719 C -0.0273438 12.308594 0.015625 12.003906 0.308594 11.648438 C 0.335938 11.625 0.363281 11.601562 0.398438 11.574219 C 0.421875 11.554688 0.453125 11.523438 0.484375 11.503906 C 0.796875 11.3125 1.125 11.238281 1.484375 11.195312 C 1.570312 11.1875 1.660156 11.179688 1.746094 11.171875 C 1.785156 11.160156 1.832031 11.15625 1.878906 11.152344 C 3.296875 10.984375 4.375 10.617188 5.652344 9.96875 C 6.921875 9.320312 8.140625 8.746094 9.59375 8.742188 Z M 12.6875 9.625 C 12.6875 10.34375 12.6875 11.070312 12.6875 11.8125 C 14.636719 11.8125 16.585938 11.8125 18.59375 11.8125 C 18.402344 11.664062 18.226562 11.53125 18.023438 11.398438 C 17.964844 11.359375 17.910156 11.324219 17.851562 11.289062 C 17.792969 11.25 17.734375 11.210938 17.671875 11.175781 C 17.625 11.140625 17.625 11.140625 17.578125 11.117188 C 15.867188 10.003906 15.867188 10.003906 13.894531 9.621094 C 13.832031 9.621094 13.765625 9.621094 13.703125 9.621094 C 13.621094 9.621094 13.542969 9.621094 13.460938 9.621094 C 13.207031 9.621094 12.953125 9.625 12.6875 9.625 Z M 6.855469 10.375 C 6.796875 10.40625 6.796875 10.40625 6.734375 10.4375 C 6.671875 10.46875 6.671875 10.46875 6.613281 10.5 C 6.566406 10.523438 6.527344 10.539062 6.484375 10.5625 C 6.382812 10.613281 6.28125 10.667969 6.179688 10.71875 C 6.265625 10.933594 6.40625 11.066406 6.570312 11.226562 C 6.617188 11.273438 6.667969 11.320312 6.722656 11.371094 C 6.757812 11.410156 6.796875 11.449219 6.835938 11.484375 C 6.941406 11.328125 6.96875 11.25 7.003906 11.078125 C 7.015625 11.027344 7.023438 10.984375 7.03125 10.9375 C 7.039062 10.886719 7.050781 10.84375 7.0625 10.792969 C 7.074219 10.742188 7.082031 10.691406 7.089844 10.640625 C 7.113281 10.523438 7.140625 10.398438 7.164062 10.28125 C 7.03125 10.28125 6.96875 10.316406 6.855469 10.375 Z M 4.375 15.421875 C 3.972656 15.914062 3.882812 16.378906 3.9375 17.007812 C 4.027344 17.429688 4.265625 17.765625 4.59375 18.046875 C 5.089844 18.355469 5.585938 18.476562 6.171875 18.339844 C 6.695312 18.148438 7.070312 17.773438 7.328125 17.28125 C 7.511719 16.8125 7.464844 16.378906 7.296875 15.914062 C 7.0625 15.425781 6.679688 15.117188 6.179688 14.929688 C 5.515625 14.730469 4.851562 14.945312 4.375 15.421875 Z M 21.328125 15.585938 C 21.234375 15.726562 21.164062 15.863281 21.109375 16.023438 C 21.085938 16.085938 21.0625 16.152344 21.039062 16.214844 C 20.941406 16.671875 20.996094 17.101562 21.234375 17.507812 C 21.539062 17.9375 21.902344 18.246094 22.421875 18.375 C 22.945312 18.4375 23.378906 18.367188 23.8125 18.0625 C 24.148438 17.78125 24.417969 17.445312 24.5 17.007812 C 24.546875 16.40625 24.492188 15.9375 24.109375 15.457031 C 23.75 15.078125 23.28125 14.878906 22.765625 14.851562 C 22.164062 14.871094 21.71875 15.144531 21.328125 15.585938 Z M 21.328125 15.585938 "/>
<path style=" stroke:none;fill-rule:nonzero;fill:#dc2626;fill-opacity:1;" d="M 9.851562 15.277344 C 9.894531 15.277344 9.929688 15.277344 9.972656 15.277344 C 10.097656 15.277344 10.230469 15.277344 10.363281 15.277344 C 10.453125 15.277344 10.546875 15.277344 10.640625 15.277344 C 10.898438 15.277344 11.148438 15.277344 11.402344 15.277344 C 11.667969 15.277344 11.929688 15.277344 12.195312 15.277344 C 12.640625 15.277344 13.089844 15.277344 13.53125 15.277344 C 14.046875 15.28125 14.5625 15.277344 15.074219 15.277344 C 15.515625 15.277344 15.960938 15.277344 16.402344 15.277344 C 16.664062 15.277344 16.929688 15.277344 17.195312 15.277344 C 17.441406 15.277344 17.691406 15.277344 17.9375 15.277344 C 18.027344 15.277344 18.121094 15.277344 18.210938 15.277344 C 18.335938 15.277344 18.460938 15.277344 18.585938 15.277344 C 18.652344 15.277344 18.722656 15.277344 18.792969 15.277344 C 19.027344 15.320312 19.109375 15.402344 19.25 15.585938 C 19.285156 15.78125 19.285156 15.78125 19.25 15.96875 C 19.101562 16.125 19.007812 16.183594 18.792969 16.214844 C 18.726562 16.214844 18.65625 16.214844 18.585938 16.214844 C 18.523438 16.214844 18.523438 16.214844 18.464844 16.214844 C 18.339844 16.21875 18.207031 16.214844 18.074219 16.214844 C 17.984375 16.214844 17.890625 16.214844 17.796875 16.214844 C 17.539062 16.21875 17.289062 16.21875 17.035156 16.214844 C 16.769531 16.214844 16.507812 16.214844 16.242188 16.21875 C 15.796875 16.21875 15.347656 16.214844 14.90625 16.214844 C 14.390625 16.214844 13.875 16.214844 13.363281 16.214844 C 12.921875 16.21875 12.476562 16.21875 12.035156 16.214844 C 11.773438 16.214844 11.507812 16.214844 11.242188 16.21875 C 10.996094 16.21875 10.746094 16.21875 10.5 16.214844 C 10.410156 16.214844 10.316406 16.214844 10.226562 16.214844 C 10.101562 16.214844 9.976562 16.214844 9.851562 16.214844 C 9.785156 16.214844 9.714844 16.214844 9.644531 16.214844 C 9.429688 16.183594 9.335938 16.125 9.1875 15.96875 C 9.15625 15.78125 9.15625 15.78125 9.1875 15.585938 C 9.390625 15.328125 9.523438 15.277344 9.851562 15.277344 Z M 9.851562 15.277344 "/>
<path style=" stroke:none;fill-rule:nonzero;fill:#dc2626;fill-opacity:1;" d="M 22.839844 16.042969 C 22.9375 16.132812 23.03125 16.226562 23.125 16.324219 C 23.15625 16.355469 23.1875 16.386719 23.21875 16.425781 C 23.511719 16.71875 23.511719 16.71875 23.53125 16.949219 C 23.515625 17.140625 23.496094 17.207031 23.351562 17.335938 C 23.152344 17.390625 23.027344 17.417969 22.839844 17.328125 C 22.667969 17.207031 22.527344 17.070312 22.382812 16.921875 C 22.351562 16.894531 22.328125 16.867188 22.296875 16.839844 C 22.042969 16.585938 22.042969 16.585938 22.023438 16.332031 C 22.039062 16.125 22.054688 16.050781 22.203125 15.914062 C 22.425781 15.804688 22.65625 15.890625 22.839844 16.042969 Z M 22.839844 16.042969 "/>
<path style=" stroke:none;fill-rule:nonzero;fill:#dc2626;fill-opacity:1;" d="M 6.289062 15.96875 C 6.429688 16.179688 6.433594 16.265625 6.398438 16.515625 C 6.289062 16.679688 6.15625 16.8125 6.015625 16.953125 C 5.984375 16.988281 5.953125 17.027344 5.921875 17.0625 C 5.761719 17.242188 5.664062 17.328125 5.433594 17.398438 C 5.226562 17.390625 5.136719 17.355469 4.976562 17.226562 C 4.894531 17.0625 4.894531 16.976562 4.921875 16.789062 C 5.03125 16.625 5.167969 16.492188 5.304688 16.351562 C 5.363281 16.292969 5.363281 16.292969 5.421875 16.226562 C 5.722656 15.914062 5.851562 15.808594 6.289062 15.96875 Z M 6.289062 15.96875 "/>
</g>
</svg>
