<?xml version="1.0" encoding="UTF-8"?>
<svg xmlns="http://www.w3.org/2000/svg" xmlns:xlink="http://www.w3.org/1999/xlink" width="24" height="24" viewBox="0 0 28 28" version="1.1">
<g id="surface1">
<path style=" stroke:none;fill-rule:nonzero;fill:#dc2626;fill-opacity:1;" d="M 15.667969 2.050781 C 15.171875 2.320312 15.09375 2.515625 15.09375 3.527344 C 15.09375 4.3125 15.09375 4.324219 15.234375 4.464844 C 15.34375 4.574219 15.402344 4.597656 15.550781 4.570312 C 15.859375 4.507812 15.886719 4.449219 15.914062 3.589844 L 15.941406 2.816406 L 16.59375 2.796875 C 17.015625 2.789062 17.261719 2.808594 17.3125 2.847656 C 17.371094 2.898438 17.390625 3.164062 17.390625 4.179688 C 17.390625 5.582031 17.425781 5.847656 17.738281 6.421875 C 17.960938 6.855469 18.574219 7.46875 19.007812 7.703125 C 19.871094 8.148438 20.980469 8.148438 21.84375 7.703125 C 22.285156 7.464844 22.910156 6.84375 23.113281 6.425781 C 23.441406 5.773438 23.480469 5.609375 23.511719 4.15625 L 23.542969 2.816406 L 24.195312 2.796875 C 24.609375 2.789062 24.863281 2.808594 24.90625 2.84375 C 24.941406 2.878906 24.972656 3.578125 24.992188 4.914062 L 25.019531 6.917969 L 25.164062 7.226562 C 25.453125 7.839844 26.066406 8.316406 26.679688 8.394531 C 27.234375 8.46875 27.179688 8.363281 27.179688 9.375 L 27.179688 10.261719 L 23.8125 11.886719 L 20.445312 13.503906 L 17.699219 12.191406 C 16.191406 11.460938 14.664062 10.738281 14.320312 10.5625 L 13.671875 10.261719 L 13.671875 9.40625 C 13.671875 8.78125 13.691406 8.53125 13.746094 8.484375 C 13.777344 8.457031 13.9375 8.421875 14.082031 8.414062 C 14.523438 8.371094 15.003906 8.121094 15.335938 7.761719 C 15.730469 7.332031 15.863281 6.972656 15.90625 6.253906 C 15.921875 5.710938 15.921875 5.691406 15.785156 5.554688 C 15.609375 5.378906 15.371094 5.367188 15.222656 5.53125 C 15.125 5.636719 15.097656 5.75 15.085938 6.179688 C 15.058594 6.75 14.957031 7.019531 14.675781 7.28125 C 14.492188 7.460938 14.167969 7.601562 13.972656 7.601562 C 13.460938 7.601562 13.019531 7.90625 12.910156 8.339844 C 12.871094 8.503906 12.851562 9.953125 12.851562 12.980469 L 12.851562 17.367188 L 11.816406 17.988281 L 10.78125 18.597656 L 10.449219 18.484375 C 10.148438 18.382812 9.984375 18.375 8.722656 18.375 L 7.328125 18.375 L 7.328125 11.269531 L 8.824219 11.257812 L 10.308594 11.238281 L 10.609375 11.082031 C 11.023438 10.875 11.394531 10.496094 11.570312 10.09375 C 11.703125 9.816406 11.726562 9.683594 11.730469 9.296875 C 11.730469 8.882812 11.710938 8.796875 11.558594 8.472656 C 11.210938 7.773438 10.617188 7.390625 9.816406 7.347656 L 9.359375 7.308594 L 9.34375 6.886719 C 9.304688 6.324219 9.105469 5.910156 8.726562 5.628906 C 8.425781 5.394531 8.148438 5.304688 7.675781 5.257812 L 7.328125 5.230469 L 7.328125 4.730469 C 7.328125 4.296875 7.308594 4.203125 7.210938 4.046875 C 6.941406 3.660156 6.871094 3.636719 5.878906 3.636719 C 4.886719 3.636719 4.816406 3.660156 4.546875 4.046875 C 4.449219 4.203125 4.429688 4.296875 4.429688 4.730469 L 4.429688 5.230469 L 4.011719 5.273438 C 3.03125 5.355469 2.46875 5.925781 2.414062 6.871094 L 2.386719 7.328125 L 2.054688 7.328125 C 1.441406 7.328125 1.148438 7.488281 1.148438 7.824219 C 1.148438 7.902344 1.199219 8.011719 1.253906 8.0625 C 1.347656 8.148438 1.644531 8.15625 5.628906 8.148438 C 8.585938 8.148438 9.972656 8.167969 10.121094 8.203125 C 10.425781 8.285156 10.78125 8.648438 10.878906 8.976562 C 11.027344 9.515625 10.78125 10.066406 10.28125 10.316406 L 10.039062 10.445312 L 5.898438 10.445312 C 1.363281 10.445312 1.53125 10.453125 1.179688 10.125 C 0.949219 9.902344 0.820312 9.59375 0.820312 9.195312 C 0.820312 8.9375 0.796875 8.835938 0.710938 8.75 C 0.574219 8.613281 0.324219 8.609375 0.160156 8.746094 C 0.0351562 8.839844 0.0273438 8.890625 0.0273438 9.304688 C 0.0273438 9.898438 0.210938 10.3125 0.632812 10.71875 C 1.15625 11.214844 1.226562 11.234375 2.945312 11.257812 L 4.429688 11.269531 L 4.429688 18.371094 L 2.933594 18.382812 C 1.453125 18.402344 1.449219 18.402344 1.140625 18.546875 C 0.746094 18.730469 0.382812 19.105469 0.183594 19.515625 C 0.0546875 19.777344 0.03125 19.898438 0.0273438 20.316406 C 0.0273438 20.734375 0.0507812 20.855469 0.167969 21.113281 C 0.527344 21.878906 1.230469 22.308594 2.125 22.3125 L 2.40625 22.3125 L 2.40625 22.667969 C 2.40625 23.320312 2.707031 23.851562 3.234375 24.144531 C 3.46875 24.273438 3.617188 24.308594 3.964844 24.335938 L 4.402344 24.363281 L 4.429688 24.917969 C 4.460938 25.539062 4.53125 25.695312 4.871094 25.894531 C 5.035156 25.996094 5.160156 26.003906 5.878906 26.003906 C 6.597656 26.003906 6.722656 25.996094 6.886719 25.894531 C 7.226562 25.695312 7.300781 25.539062 7.320312 24.933594 L 7.335938 24.390625 L 7.664062 24.691406 C 7.847656 24.859375 8.140625 25.070312 8.316406 25.15625 C 8.996094 25.503906 8.585938 25.488281 17.097656 25.476562 L 24.855469 25.457031 L 25.148438 25.292969 C 25.464844 25.121094 25.644531 24.933594 25.832031 24.585938 C 25.945312 24.371094 25.949219 24.285156 25.96875 22.9375 L 25.980469 21.511719 L 26.335938 21.472656 C 26.527344 21.457031 26.796875 21.390625 26.933594 21.332031 C 27.269531 21.183594 27.644531 20.816406 27.816406 20.457031 L 27.972656 20.152344 L 27.992188 14.300781 C 28 9.042969 27.996094 8.425781 27.917969 8.222656 C 27.773438 7.839844 27.394531 7.601562 26.929688 7.601562 C 26.578125 7.601562 26.1875 7.359375 25.96875 7.007812 C 25.839844 6.808594 25.839844 6.785156 25.8125 4.757812 L 25.785156 2.707031 L 25.648438 2.464844 C 25.558594 2.300781 25.429688 2.183594 25.269531 2.097656 C 25.050781 1.976562 24.960938 1.96875 24.25 1.96875 C 23.410156 1.96875 23.246094 2 23.003906 2.234375 C 22.726562 2.492188 22.722656 2.519531 22.691406 4.019531 C 22.664062 5.308594 22.648438 5.46875 22.539062 5.742188 C 22.289062 6.378906 21.730469 6.917969 21.113281 7.109375 C 20.019531 7.457031 18.902344 6.964844 18.382812 5.90625 C 18.238281 5.605469 18.238281 5.597656 18.210938 4.15625 C 18.179688 2.511719 18.15625 2.40625 17.753906 2.140625 C 17.546875 2 17.5 1.996094 16.683594 1.976562 C 15.988281 1.96875 15.804688 1.976562 15.667969 2.050781 Z M 6.507812 4.839844 L 6.507812 5.25 L 5.25 5.25 L 5.25 4.429688 L 6.507812 4.429688 Z M 8.128906 6.203125 C 8.386719 6.351562 8.53125 6.652344 8.53125 7.023438 L 8.53125 7.328125 L 3.226562 7.328125 L 3.226562 7.023438 C 3.226562 6.535156 3.417969 6.253906 3.824219 6.121094 C 3.902344 6.097656 4.863281 6.078125 5.960938 6.089844 C 7.820312 6.097656 7.964844 6.101562 8.128906 6.203125 Z M 17.011719 12.769531 C 18.804688 13.625 20.3125 14.347656 20.375 14.359375 C 20.453125 14.382812 21.570312 13.871094 23.808594 12.800781 C 25.628906 11.925781 27.132812 11.210938 27.152344 11.210938 C 27.171875 11.210938 27.179688 13.15625 27.179688 15.53125 C 27.179688 20.148438 27.183594 20.066406 26.914062 20.367188 C 26.777344 20.515625 26.417969 20.671875 26.1875 20.671875 L 25.980469 20.671875 L 25.96875 18.683594 C 25.949219 16.765625 25.945312 16.703125 25.832031 16.484375 C 25.640625 16.125 25.449219 15.933594 25.121094 15.773438 C 24.855469 15.640625 24.742188 15.617188 24.367188 15.617188 C 23.644531 15.621094 23.402344 15.796875 23.027344 16.589844 C 22.636719 17.417969 22.003906 17.90625 21.128906 18.054688 C 20.050781 18.238281 18.953125 17.640625 18.464844 16.617188 C 18.050781 15.746094 17.808594 15.613281 16.652344 15.613281 C 15.75 15.617188 15.8125 15.59375 14.605469 16.324219 C 14.128906 16.605469 13.722656 16.84375 13.703125 16.84375 C 13.691406 16.84375 13.671875 15.578125 13.671875 14.027344 C 13.671875 12.476562 13.695312 11.210938 13.722656 11.210938 C 13.746094 11.210938 15.226562 11.914062 17.011719 12.769531 Z M 6.507812 14.820312 L 6.507812 18.375 L 5.25 18.375 L 5.25 11.265625 L 6.507812 11.265625 Z M 17.332031 16.464844 C 17.472656 16.515625 17.546875 16.605469 17.746094 17.007812 C 18.300781 18.121094 19.332031 18.8125 20.542969 18.898438 C 21.335938 18.957031 22.316406 18.628906 22.933594 18.097656 C 23.261719 17.808594 23.648438 17.273438 23.8125 16.863281 C 23.960938 16.484375 24.097656 16.386719 24.4375 16.429688 C 24.765625 16.46875 24.964844 16.59375 25.070312 16.8125 C 25.148438 16.976562 25.15625 17.308594 25.15625 19.65625 L 25.15625 22.3125 L 19.492188 22.3125 L 18.785156 21.296875 C 18.398438 20.730469 18.023438 20.253906 17.957031 20.214844 C 17.65625 20.078125 17.308594 20.40625 17.421875 20.707031 C 17.453125 20.789062 17.695312 21.167969 17.957031 21.542969 C 18.214844 21.910156 18.429688 22.238281 18.429688 22.261719 C 18.429688 22.289062 18.21875 22.3125 17.96875 22.3125 L 17.507812 22.3125 L 16.277344 20.539062 C 15.59375 19.570312 15.039062 18.738281 15.03125 18.703125 C 15.011719 18.644531 15.550781 18.265625 15.644531 18.265625 C 15.664062 18.265625 15.882812 18.5625 16.132812 18.921875 C 16.59375 19.578125 16.6875 19.664062 16.953125 19.625 C 17.125 19.601562 17.304688 19.351562 17.261719 19.1875 C 17.246094 19.117188 17.035156 18.777344 16.789062 18.429688 C 16.546875 18.09375 16.351562 17.777344 16.351562 17.742188 C 16.351562 17.710938 16.382812 17.644531 16.429688 17.613281 C 16.550781 17.503906 16.679688 17.066406 16.679688 16.726562 L 16.679688 16.40625 L 16.921875 16.40625 C 17.042969 16.40625 17.230469 16.433594 17.332031 16.464844 Z M 15.777344 17.089844 C 15.714844 17.222656 15.183594 17.558594 13.421875 18.621094 C 12.167969 19.367188 11.078125 19.992188 10.996094 20.007812 C 10.820312 20.035156 10.480469 19.875 10.519531 19.777344 C 10.527344 19.742188 11.730469 19 13.183594 18.125 L 15.832031 16.539062 L 15.851562 16.730469 C 15.859375 16.839844 15.832031 17 15.777344 17.089844 Z M 15.390625 20.699219 C 15.976562 21.542969 16.460938 22.25 16.460938 22.265625 C 16.460938 22.292969 16.261719 22.3125 16.003906 22.3125 L 15.554688 22.3125 L 14.578125 20.914062 C 13.886719 19.910156 13.621094 19.496094 13.667969 19.449219 C 13.78125 19.335938 14.246094 19.089844 14.28125 19.132812 C 14.304688 19.148438 14.800781 19.855469 15.390625 20.699219 Z M 9.707031 19.246094 C 9.675781 19.269531 9.25 19.523438 8.773438 19.816406 C 8.085938 20.226562 7.816406 20.421875 7.554688 20.695312 C 7.199219 21.078125 6.945312 21.546875 6.835938 22.035156 C 6.773438 22.320312 6.785156 23.128906 6.867188 23.386719 L 6.898438 23.515625 L 3.726562 23.515625 L 3.554688 23.375 C 3.3125 23.167969 3.226562 22.964844 3.226562 22.613281 L 3.226562 22.3125 L 4.402344 22.3125 C 5.640625 22.3125 5.796875 22.285156 5.902344 22.058594 C 5.984375 21.871094 5.980469 21.796875 5.855469 21.652344 L 5.75 21.519531 L 1.667969 21.464844 L 1.421875 21.328125 C 0.757812 20.949219 0.625 20.046875 1.167969 19.542969 C 1.539062 19.175781 1.261719 19.199219 5.714844 19.195312 C 7.953125 19.195312 9.734375 19.21875 9.707031 19.246094 Z M 13.695312 21.078125 C 14.132812 21.707031 14.492188 22.238281 14.492188 22.265625 C 14.492188 22.289062 14.28125 22.3125 14.03125 22.3125 L 13.570312 22.3125 L 12.878906 21.324219 C 12.5 20.78125 12.195312 20.324219 12.203125 20.316406 C 12.25 20.269531 12.875 19.910156 12.882812 19.925781 C 12.886719 19.929688 13.257812 20.449219 13.695312 21.078125 Z M 10.300781 20.675781 C 10.5625 20.8125 11.011719 20.867188 11.273438 20.789062 L 11.476562 20.734375 L 12 21.492188 C 12.285156 21.90625 12.523438 22.261719 12.523438 22.28125 C 12.523438 22.292969 11.429688 22.3125 10.089844 22.3125 L 7.65625 22.3125 L 7.65625 22.183594 C 7.65625 21.984375 7.957031 21.433594 8.183594 21.210938 C 8.304688 21.101562 8.699219 20.816406 9.070312 20.59375 L 9.742188 20.183594 L 9.917969 20.375 C 10.003906 20.480469 10.175781 20.617188 10.300781 20.675781 Z M 25.148438 23.679688 L 25.128906 24.226562 L 24.917969 24.425781 L 24.71875 24.636719 L 9.105469 24.636719 L 8.796875 24.492188 C 8.304688 24.257812 7.839844 23.738281 7.6875 23.25 L 7.652344 23.132812 L 25.164062 23.132812 Z M 6.507812 24.773438 L 6.507812 25.210938 L 5.25 25.210938 L 5.25 24.335938 L 6.507812 24.335938 Z M 6.507812 24.773438 "/>
<path style=" stroke:none;fill-rule:nonzero;fill:#dc2626;fill-opacity:1;" d="M 19.542969 9.25 C 19.226562 9.40625 19.277344 9.875 19.625 9.980469 L 19.796875 10.03125 L 19.796875 10.726562 C 19.796875 11.324219 19.789062 11.429688 19.714844 11.429688 C 19.578125 11.429688 19.359375 11.683594 19.359375 11.839844 C 19.359375 11.917969 19.417969 12.039062 19.496094 12.113281 C 19.625 12.246094 19.664062 12.25 20.234375 12.25 C 20.804688 12.25 20.84375 12.246094 20.972656 12.113281 C 21.050781 12.039062 21.109375 11.917969 21.109375 11.839844 C 21.109375 11.671875 20.886719 11.429688 20.726562 11.429688 C 20.621094 11.429688 20.617188 11.402344 20.617188 10.507812 C 20.617188 9.511719 20.59375 9.429688 20.289062 9.269531 C 20.105469 9.179688 19.714844 9.164062 19.542969 9.25 Z M 19.542969 9.25 "/>
</g>
</svg>
