<?xml version="1.0" encoding="UTF-8"?>
<svg xmlns="http://www.w3.org/2000/svg" xmlns:xlink="http://www.w3.org/1999/xlink" width="24" height="24" viewBox="0 0 28 28" version="1.1">
<g id="surface1">
<path style=" stroke:none;fill-rule:nonzero;fill:#dc2626;fill-opacity:1;" d="M 2.59375 0.078125 C 2.496094 0.117188 2.375 0.214844 2.320312 0.292969 C 2.261719 0.359375 1.96875 1.039062 1.667969 1.78125 C 1.332031 2.652344 1.070312 3.207031 0.976562 3.332031 C 0.882812 3.425781 0.789062 3.574219 0.761719 3.644531 C 0.734375 3.726562 0.710938 7.167969 0.710938 12.324219 C 0.710938 21.898438 0.675781 21.054688 1.113281 21.40625 L 1.320312 21.574219 L 2.839844 21.59375 C 4.339844 21.605469 4.351562 21.605469 4.59375 21.472656 C 4.78125 21.378906 4.875 21.277344 4.984375 21.058594 L 5.140625 20.773438 L 5.140625 12.328125 C 5.140625 3.117188 5.160156 3.667969 4.839844 3.335938 C 4.765625 3.257812 4.476562 2.601562 4.164062 1.828125 C 3.863281 1.070312 3.585938 0.402344 3.546875 0.332031 C 3.453125 0.191406 3.082031 0 2.894531 0 C 2.820312 0.00390625 2.683594 0.0351562 2.59375 0.078125 Z M 3.332031 1.945312 C 3.546875 2.488281 3.71875 2.949219 3.71875 2.972656 C 3.71875 2.988281 3.34375 3.007812 2.894531 3.007812 C 2.25 3.007812 2.074219 2.988281 2.097656 2.933594 C 2.109375 2.902344 2.289062 2.457031 2.488281 1.945312 C 2.851562 1.003906 2.898438 0.90625 2.925781 0.9375 C 2.933594 0.953125 3.117188 1.398438 3.332031 1.945312 Z M 2.515625 11.101562 L 2.515625 18.375 L 1.53125 18.375 L 1.53125 11.136719 C 1.53125 7.160156 1.550781 3.882812 1.566406 3.863281 C 1.585938 3.847656 1.808594 3.828125 2.058594 3.828125 L 2.515625 3.828125 Z M 4.257812 3.890625 C 4.300781 3.941406 4.320312 5.632812 4.320312 11.164062 L 4.320312 18.375 L 3.335938 18.375 L 3.335938 3.828125 L 3.765625 3.828125 C 4.019531 3.828125 4.214844 3.855469 4.257812 3.890625 Z M 4.320312 19.929688 C 4.320312 20.480469 4.300781 20.671875 4.242188 20.722656 C 4.191406 20.761719 3.777344 20.78125 2.867188 20.773438 L 1.558594 20.753906 L 1.539062 19.96875 L 1.527344 19.195312 L 4.320312 19.195312 Z M 4.320312 19.929688 "/>
<path style=" stroke:none;fill-rule:nonzero;fill:#dc2626;fill-opacity:1;" d="M 7.183594 0.0585938 C 6.941406 0.132812 6.636719 0.441406 6.566406 0.691406 C 6.535156 0.8125 6.507812 1.101562 6.507812 1.34375 C 6.507812 1.722656 6.484375 1.832031 6.371094 2.027344 L 6.234375 2.269531 L 6.234375 5.996094 C 6.234375 8.496094 6.257812 9.78125 6.292969 9.878906 C 6.320312 9.960938 6.429688 10.121094 6.53125 10.226562 C 6.667969 10.367188 6.828125 10.695312 7.136719 11.484375 C 7.363281 12.066406 7.59375 12.632812 7.636719 12.722656 C 7.757812 12.96875 8.019531 13.125 8.332031 13.125 C 8.78125 13.125 8.886719 12.980469 9.433594 11.597656 C 9.753906 10.78125 9.949219 10.367188 10.042969 10.277344 C 10.355469 9.988281 10.390625 9.8125 10.386719 8.585938 C 10.386719 7.386719 10.371094 7.328125 10.113281 7.222656 C 10 7.183594 9.671875 7.253906 9.617188 7.335938 C 9.605469 7.351562 9.59375 7.871094 9.574219 8.503906 L 9.542969 9.652344 L 7.082031 9.652344 L 7.0625 6.074219 C 7.058594 3.476562 7.074219 2.480469 7.113281 2.429688 C 7.191406 2.332031 9.296875 2.320312 9.464844 2.40625 C 9.566406 2.460938 9.570312 2.542969 9.570312 4.214844 L 9.570312 5.964844 L 9.710938 6.105469 C 9.820312 6.214844 9.878906 6.238281 10.027344 6.210938 C 10.121094 6.199219 10.246094 6.125 10.300781 6.0625 C 10.386719 5.953125 10.394531 5.800781 10.382812 4.070312 C 10.363281 2.222656 10.363281 2.191406 10.246094 2.027344 C 10.136719 1.886719 10.117188 1.796875 10.117188 1.414062 C 10.117188 0.867188 10.054688 0.605469 9.863281 0.378906 C 9.578125 0.0507812 9.382812 0 8.3125 0.00390625 C 7.789062 0.00390625 7.273438 0.03125 7.183594 0.0585938 Z M 9.242188 0.925781 C 9.269531 0.984375 9.296875 1.144531 9.296875 1.28125 L 9.296875 1.53125 L 7.328125 1.53125 L 7.328125 1.238281 C 7.328125 1.085938 7.355469 0.925781 7.390625 0.882812 C 7.4375 0.84375 7.71875 0.820312 8.320312 0.820312 C 9.113281 0.820312 9.1875 0.824219 9.242188 0.925781 Z M 8.945312 10.589844 C 8.746094 11.132812 8.335938 12.140625 8.308594 12.140625 C 8.28125 12.140625 7.65625 10.613281 7.65625 10.535156 C 7.65625 10.519531 7.953125 10.5 8.316406 10.5 C 8.921875 10.5 8.976562 10.503906 8.945312 10.589844 Z M 8.945312 10.589844 "/>
<path style=" stroke:none;fill-rule:nonzero;fill:#dc2626;fill-opacity:1;" d="M 14.246094 0.0625 C 14.1875 0.101562 14.0625 0.191406 13.972656 0.277344 C 13.8125 0.429688 13.800781 0.433594 13.039062 0.445312 C 12.304688 0.464844 12.257812 0.46875 12.039062 0.621094 C 11.917969 0.703125 11.761719 0.867188 11.703125 0.984375 C 11.597656 1.195312 11.59375 1.304688 11.59375 3.605469 L 11.59375 6.011719 L 11.734375 6.121094 C 11.925781 6.265625 12.050781 6.261719 12.230469 6.101562 L 12.386719 5.96875 L 12.40625 3.660156 C 12.414062 1.921875 12.4375 1.335938 12.488281 1.304688 C 12.523438 1.28125 12.828125 1.257812 13.171875 1.257812 L 13.78125 1.257812 L 13.78125 20.457031 L 13.117188 20.445312 L 12.441406 20.425781 L 12.414062 13.941406 C 12.386719 7.65625 12.382812 7.441406 12.28125 7.332031 C 12.144531 7.1875 11.8125 7.171875 11.679688 7.320312 C 11.597656 7.410156 11.59375 7.925781 11.601562 14.035156 L 11.621094 20.652344 L 11.777344 20.855469 C 12.039062 21.210938 12.25 21.273438 13.09375 21.273438 C 13.761719 21.273438 13.835938 21.28125 13.890625 21.378906 C 13.917969 21.4375 14.027344 21.539062 14.132812 21.597656 C 14.28125 21.691406 14.402344 21.710938 14.878906 21.710938 C 15.484375 21.710938 15.726562 21.628906 15.859375 21.386719 C 15.917969 21.273438 15.933594 21.273438 20.914062 21.273438 C 26.527344 21.273438 26.195312 21.296875 26.683594 20.859375 C 26.84375 20.71875 27.019531 20.480469 27.105469 20.296875 L 27.261719 19.988281 L 27.261719 10.910156 C 27.261719 2.300781 27.257812 1.8125 27.160156 1.550781 C 27.035156 1.171875 26.695312 0.800781 26.3125 0.621094 L 26.003906 0.464844 L 20.972656 0.445312 C 16.082031 0.4375 15.941406 0.433594 15.855469 0.332031 C 15.640625 0.078125 15.421875 0 14.875 0 C 14.59375 0 14.304688 0.03125 14.246094 0.0625 Z M 15.203125 10.855469 L 15.203125 20.890625 L 14.601562 20.890625 L 14.601562 0.820312 L 15.203125 0.820312 Z M 26 1.386719 C 26.117188 1.449219 26.269531 1.589844 26.328125 1.695312 C 26.441406 1.886719 26.441406 1.90625 26.441406 10.855469 C 26.441406 19.800781 26.441406 19.824219 26.328125 20.015625 C 26.269531 20.121094 26.136719 20.261719 26.03125 20.324219 L 25.847656 20.453125 L 16.023438 20.453125 L 16.023438 1.257812 L 25.785156 1.257812 Z M 26 1.386719 "/>
<path style=" stroke:none;fill-rule:nonzero;fill:#dc2626;fill-opacity:1;" d="M 24.070312 17.410156 C 23.902344 17.585938 23.917969 17.847656 24.09375 17.988281 C 24.332031 18.175781 24.5625 18.128906 24.695312 17.878906 C 24.910156 17.464844 24.390625 17.066406 24.070312 17.410156 Z M 24.070312 17.410156 "/>
<path style=" stroke:none;fill-rule:nonzero;fill:#dc2626;fill-opacity:1;" d="M 22.859375 18.355469 C 22.582031 18.460938 22.484375 18.820312 22.695312 19.03125 C 22.796875 19.132812 22.878906 19.140625 23.671875 19.140625 C 24.671875 19.140625 24.773438 19.109375 24.773438 18.757812 C 24.773438 18.59375 24.742188 18.519531 24.632812 18.433594 C 24.5 18.328125 24.414062 18.320312 23.710938 18.324219 C 23.292969 18.324219 22.90625 18.34375 22.859375 18.355469 Z M 22.859375 18.355469 "/>
<path style=" stroke:none;fill-rule:nonzero;fill:#dc2626;fill-opacity:1;" d="M 7 14.660156 C 6.816406 14.734375 6.570312 14.976562 6.472656 15.175781 C 6.421875 15.265625 6.371094 15.539062 6.351562 15.832031 C 6.335938 16.242188 6.308594 16.351562 6.203125 16.480469 C 5.984375 16.738281 5.960938 16.949219 5.960938 18.894531 C 5.960938 20.570312 5.96875 20.777344 6.066406 20.972656 C 6.1875 21.25 6.507812 21.527344 6.734375 21.574219 C 6.835938 21.59375 7.609375 21.601562 8.457031 21.59375 L 10 21.574219 L 10.207031 21.40625 C 10.628906 21.074219 10.636719 21.035156 10.65625 19.011719 C 10.671875 17.011719 10.640625 16.730469 10.386719 16.4375 C 10.234375 16.269531 10.226562 16.222656 10.226562 15.808594 C 10.226562 15.195312 10.082031 14.910156 9.644531 14.6875 C 9.492188 14.621094 9.269531 14.601562 8.304688 14.605469 C 7.660156 14.605469 7.078125 14.632812 7 14.660156 Z M 9.398438 15.769531 L 9.410156 16.078125 L 8.304688 16.070312 L 7.191406 16.050781 L 7.171875 15.851562 C 7.164062 15.742188 7.1875 15.59375 7.21875 15.53125 C 7.277344 15.421875 7.320312 15.421875 8.332031 15.429688 L 9.378906 15.449219 Z M 9.789062 17.003906 C 9.820312 17.070312 9.84375 17.75 9.84375 18.839844 C 9.84375 19.929688 9.820312 20.609375 9.789062 20.675781 C 9.734375 20.777344 9.65625 20.78125 8.320312 20.78125 C 7.300781 20.78125 6.894531 20.761719 6.84375 20.71875 C 6.753906 20.621094 6.753906 17.058594 6.84375 16.960938 C 6.894531 16.917969 7.300781 16.898438 8.320312 16.898438 C 9.65625 16.898438 9.734375 16.902344 9.789062 17.003906 Z M 9.789062 17.003906 "/>
<path style=" stroke:none;fill-rule:nonzero;fill:#dc2626;fill-opacity:1;" d="M 0.957031 22.5 C 0.71875 22.605469 0.441406 22.90625 0.382812 23.128906 C 0.351562 23.242188 0.328125 24.144531 0.328125 25.238281 C 0.328125 26.984375 0.335938 27.175781 0.433594 27.371094 C 0.550781 27.636719 0.730469 27.804688 0.992188 27.917969 C 1.175781 27.992188 2.300781 28 11.230469 28 L 21.253906 28 L 21.40625 27.886719 C 21.601562 27.730469 21.601562 27.449219 21.40625 27.292969 L 21.253906 27.179688 L 11.269531 27.179688 C 3.574219 27.179688 1.261719 27.160156 1.210938 27.117188 C 1.121094 27.019531 1.121094 23.402344 1.210938 23.304688 C 1.257812 23.265625 1.53125 23.242188 2.085938 23.242188 L 2.898438 23.242188 L 2.898438 23.59375 C 2.898438 24.03125 2.925781 24.097656 3.125 24.203125 C 3.261719 24.277344 3.316406 24.277344 3.449219 24.222656 C 3.667969 24.136719 3.71875 24.027344 3.71875 23.601562 L 3.71875 23.242188 L 4.804688 23.242188 L 4.820312 23.625 C 4.84375 24.066406 4.96875 24.246094 5.246094 24.246094 C 5.542969 24.246094 5.632812 24.097656 5.632812 23.644531 L 5.632812 23.242188 L 6.78125 23.242188 L 6.78125 23.59375 C 6.78125 24.03125 6.808594 24.097656 7.007812 24.203125 C 7.140625 24.273438 7.210938 24.277344 7.328125 24.226562 C 7.523438 24.144531 7.601562 23.960938 7.601562 23.570312 L 7.601562 23.242188 L 8.6875 23.242188 L 8.703125 23.625 C 8.726562 24.066406 8.851562 24.246094 9.128906 24.246094 C 9.425781 24.246094 9.515625 24.097656 9.515625 23.644531 L 9.515625 23.242188 L 10.664062 23.242188 L 10.664062 23.601562 C 10.664062 23.796875 10.691406 24.007812 10.722656 24.066406 C 10.855469 24.316406 11.296875 24.300781 11.425781 24.03125 C 11.457031 23.953125 11.484375 23.742188 11.484375 23.570312 L 11.484375 23.242188 L 12.578125 23.242188 L 12.578125 23.59375 C 12.578125 24.03125 12.71875 24.246094 13.015625 24.246094 C 13.292969 24.246094 13.398438 24.082031 13.398438 23.621094 L 13.398438 23.242188 L 14.546875 23.242188 L 14.546875 23.621094 C 14.546875 24.082031 14.652344 24.246094 14.929688 24.246094 C 15.226562 24.246094 15.367188 24.03125 15.367188 23.59375 L 15.367188 23.242188 L 16.460938 23.242188 L 16.460938 23.59375 C 16.460938 24.03125 16.601562 24.246094 16.898438 24.246094 C 17.175781 24.246094 17.28125 24.082031 17.28125 23.621094 L 17.28125 23.242188 L 18.429688 23.242188 L 18.429688 23.621094 C 18.429688 24.082031 18.535156 24.246094 18.8125 24.246094 C 19.109375 24.246094 19.25 24.03125 19.25 23.59375 L 19.25 23.242188 L 20.34375 23.242188 L 20.34375 23.59375 C 20.34375 24.03125 20.484375 24.246094 20.78125 24.246094 C 21.058594 24.246094 21.164062 24.082031 21.164062 23.621094 L 21.164062 23.242188 L 22.3125 23.242188 L 22.3125 23.644531 C 22.3125 24.097656 22.402344 24.246094 22.699219 24.246094 C 22.976562 24.246094 23.101562 24.066406 23.125 23.625 L 23.140625 23.242188 L 24.226562 23.242188 L 24.226562 23.570312 C 24.226562 23.960938 24.304688 24.144531 24.5 24.226562 C 24.617188 24.277344 24.6875 24.273438 24.820312 24.203125 C 25.019531 24.097656 25.046875 24.03125 25.046875 23.59375 L 25.046875 23.242188 L 25.859375 23.242188 C 26.414062 23.242188 26.6875 23.265625 26.734375 23.304688 C 26.824219 23.402344 26.824219 27.019531 26.734375 27.117188 C 26.683594 27.160156 26.164062 27.179688 24.738281 27.179688 L 22.800781 27.179688 L 22.667969 27.316406 C 22.589844 27.390625 22.53125 27.511719 22.53125 27.589844 C 22.53125 27.667969 22.589844 27.789062 22.667969 27.863281 L 22.800781 28 L 24.78125 28 C 26.742188 28 26.777344 28 27.015625 27.871094 C 27.148438 27.808594 27.335938 27.664062 27.421875 27.542969 L 27.589844 27.335938 L 27.589844 23.101562 L 27.445312 22.878906 C 27.351562 22.746094 27.203125 22.609375 27.0625 22.535156 L 26.820312 22.421875 L 13.96875 22.421875 C 3.476562 22.425781 1.089844 22.441406 0.957031 22.5 Z M 0.957031 22.5 "/>
</g>
</svg>
