<?xml version="1.0" encoding="UTF-8"?>
<svg xmlns="http://www.w3.org/2000/svg" xmlns:xlink="http://www.w3.org/1999/xlink" width="24" height="24" viewBox="0 0 28 28" version="1.1">
<g id="surface1">
<path style=" stroke:none;fill-rule:nonzero;fill:#dc2626;fill-opacity:1;" d="M 21.4375 2.386719 C 21.390625 2.40625 17.199219 3.96875 12.113281 5.871094 C 6.347656 8.015625 2.753906 9.328125 2.5625 9.359375 C 1.613281 9.492188 0.789062 10.066406 0.355469 10.886719 C 0.046875 11.484375 0 11.765625 0 13.335938 C 0 15.15625 -0.0273438 15.117188 1.039062 15.167969 C 1.945312 15.207031 2.492188 15.457031 2.984375 16.058594 C 3.335938 16.492188 3.46875 16.875 3.46875 17.5 C 3.46875 18.125 3.335938 18.507812 2.984375 18.941406 C 2.492188 19.542969 1.945312 19.792969 1.039062 19.832031 C -0.0273438 19.882812 0 19.84375 0 21.664062 C 0 23.234375 0.046875 23.515625 0.355469 24.113281 C 0.679688 24.726562 1.277344 25.242188 1.941406 25.503906 C 2.269531 25.621094 2.292969 25.621094 6.125 25.648438 C 8.25 25.667969 13.527344 25.667969 17.855469 25.648438 L 25.730469 25.621094 L 26.058594 25.503906 C 26.738281 25.242188 27.316406 24.738281 27.644531 24.113281 C 27.953125 23.515625 28 23.234375 28 21.636719 L 28 20.226562 L 27.8125 20.039062 C 27.636719 19.855469 27.617188 19.851562 27.199219 19.851562 C 26.28125 19.851562 25.707031 19.640625 25.191406 19.136719 C 24.277344 18.214844 24.277344 16.78125 25.191406 15.867188 C 25.703125 15.367188 26.296875 15.148438 27.15625 15.148438 C 27.980469 15.148438 28 15.113281 28 13.335938 C 28 11.808594 27.953125 11.503906 27.675781 10.945312 C 27.289062 10.175781 26.601562 9.628906 25.730469 9.410156 L 25.511719 9.351562 L 24.480469 6.335938 C 23.839844 4.425781 23.402344 3.230469 23.304688 3.09375 C 23.109375 2.8125 22.730469 2.539062 22.398438 2.433594 C 22.140625 2.355469 21.605469 2.328125 21.4375 2.386719 Z M 22.148438 3.582031 C 22.234375 3.628906 22.335938 3.714844 22.367188 3.773438 C 22.449219 3.917969 24.226562 9.191406 24.226562 9.277344 C 24.226562 9.34375 22.636719 9.351562 15.222656 9.351562 C 10.273438 9.351562 6.234375 9.332031 6.253906 9.320312 C 6.316406 9.246094 21.742188 3.503906 21.867188 3.503906 C 21.933594 3.5 22.0625 3.535156 22.148438 3.582031 Z M 9.351562 10.914062 C 9.351562 11.296875 9.359375 11.34375 9.511719 11.488281 C 9.625 11.601562 9.726562 11.648438 9.867188 11.648438 C 10.308594 11.648438 10.5 11.410156 10.5 10.859375 L 10.5 10.5 L 18.011719 10.507812 L 25.511719 10.527344 L 25.804688 10.660156 C 26.160156 10.820312 26.582031 11.273438 26.71875 11.628906 C 26.796875 11.839844 26.820312 12.117188 26.84375 12.941406 L 26.859375 14 L 26.679688 14 C 26.3125 14.003906 25.722656 14.164062 25.265625 14.386719 C 24.382812 14.820312 23.660156 15.722656 23.4375 16.679688 C 23.328125 17.136719 23.328125 17.863281 23.4375 18.320312 C 23.660156 19.277344 24.382812 20.179688 25.265625 20.613281 C 25.722656 20.835938 26.3125 20.996094 26.679688 21 L 26.859375 21 L 26.84375 22.046875 C 26.820312 22.882812 26.796875 23.160156 26.71875 23.371094 C 26.582031 23.726562 26.160156 24.179688 25.804688 24.339844 L 25.511719 24.472656 L 18.011719 24.492188 L 10.5 24.5 L 10.5 24.140625 C 10.5 23.589844 10.308594 23.351562 9.867188 23.351562 C 9.726562 23.351562 9.625 23.398438 9.511719 23.511719 C 9.359375 23.65625 9.351562 23.703125 9.351562 24.089844 L 9.351562 24.503906 L 5.925781 24.492188 L 2.488281 24.472656 L 2.195312 24.339844 C 1.839844 24.179688 1.417969 23.726562 1.28125 23.371094 C 1.203125 23.160156 1.179688 22.882812 1.15625 22.046875 L 1.140625 21 L 1.320312 21 C 1.6875 20.996094 2.277344 20.835938 2.734375 20.613281 C 3.617188 20.179688 4.339844 19.277344 4.5625 18.320312 C 4.671875 17.863281 4.671875 17.136719 4.5625 16.679688 C 4.339844 15.722656 3.617188 14.820312 2.734375 14.386719 C 2.277344 14.167969 1.6875 14.003906 1.332031 14 L 1.148438 14 L 1.148438 13.097656 C 1.148438 12.195312 1.203125 11.753906 1.347656 11.460938 C 1.46875 11.238281 1.855469 10.832031 2.046875 10.738281 C 2.46875 10.507812 2.542969 10.503906 6.007812 10.503906 L 9.351562 10.5 Z M 9.351562 10.914062 "/>
<path style=" stroke:none;fill-rule:nonzero;fill:#dc2626;fill-opacity:1;" d="M 9.703125 13.507812 C 9.632812 13.53125 9.535156 13.621094 9.464844 13.703125 C 9.355469 13.839844 9.351562 13.910156 9.351562 15.035156 C 9.351562 16.347656 9.359375 16.40625 9.707031 16.546875 C 9.957031 16.652344 10.253906 16.5625 10.390625 16.332031 C 10.492188 16.179688 10.5 16.050781 10.5 15.058594 C 10.5 14.445312 10.476562 13.890625 10.445312 13.8125 C 10.386719 13.652344 10.089844 13.453125 9.925781 13.457031 C 9.867188 13.457031 9.761719 13.480469 9.703125 13.507812 Z M 9.703125 13.507812 "/>
<path style=" stroke:none;fill-rule:nonzero;fill:#dc2626;fill-opacity:1;" d="M 9.753906 18.4375 C 9.65625 18.460938 9.523438 18.546875 9.464844 18.625 C 9.355469 18.761719 9.351562 18.84375 9.351562 19.964844 L 9.351562 21.164062 L 9.507812 21.328125 C 9.78125 21.636719 10.304688 21.554688 10.445312 21.1875 C 10.476562 21.109375 10.5 20.554688 10.5 19.941406 C 10.5 18.941406 10.492188 18.820312 10.390625 18.65625 C 10.332031 18.566406 10.277344 18.484375 10.273438 18.484375 C 10.257812 18.484375 10.175781 18.460938 10.089844 18.4375 C 10 18.410156 9.847656 18.410156 9.753906 18.4375 Z M 9.753906 18.4375 "/>
</g>
</svg>
