<?xml version="1.0" encoding="UTF-8"?>
<svg xmlns="http://www.w3.org/2000/svg" xmlns:xlink="http://www.w3.org/1999/xlink" width="24" height="24" viewBox="0 0 28 28" version="1.1">
<g id="surface1">
<path style=" stroke:none;fill-rule:nonzero;fill:#dc2626;fill-opacity:1;" d="M 3.640625 0.957031 C 2.296875 1.304688 1.3125 2.5625 1.3125 3.9375 C 1.3125 4.917969 1.832031 5.914062 2.617188 6.433594 L 2.929688 6.648438 L 2.835938 7.027344 C 2.523438 8.253906 2.574219 9.738281 2.957031 10.910156 C 3.136719 11.429688 3.519531 12.191406 3.824219 12.605469 C 4.070312 12.9375 4.097656 12.992188 4.015625 13.042969 C 2.046875 14.242188 1.003906 15.636719 0.605469 17.601562 C 0.375 18.761719 0.40625 19.355469 0.742188 20.023438 C 0.949219 20.425781 1.421875 20.910156 1.828125 21.113281 L 2.164062 21.292969 L 2.03125 21.652344 C 1.457031 23.238281 1.804688 24.996094 2.921875 26.109375 C 4.148438 27.339844 5.902344 27.453125 7.265625 26.394531 C 7.429688 26.277344 7.625 26.09375 7.707031 26 L 7.851562 25.816406 L 8.199219 25.953125 C 9.140625 26.335938 10.097656 26.335938 11.046875 25.957031 L 11.378906 25.820312 L 11.671875 26.113281 C 12.804688 27.253906 14.402344 27.433594 15.75 26.585938 C 16.167969 26.328125 16.671875 25.789062 16.925781 25.328125 L 17.144531 24.9375 L 27.292969 24.9375 L 27.425781 24.800781 L 27.5625 24.667969 L 27.5625 18.207031 L 27.425781 18.074219 L 27.292969 17.9375 L 24.5 17.9375 L 24.5 12.109375 L 22.886719 9.796875 C 21.675781 8.070312 21.238281 7.488281 21.136719 7.460938 C 20.8125 7.378906 20.789062 7.40625 19.113281 9.796875 L 17.5 12.109375 L 17.5 14.949219 L 17.089844 14.5 C 16.605469 13.980469 16.160156 13.621094 15.578125 13.261719 C 15.339844 13.125 15.148438 12.996094 15.148438 12.988281 C 15.148438 12.980469 15.28125 12.789062 15.441406 12.558594 C 16.519531 11.054688 16.894531 8.90625 16.40625 7.035156 C 16.34375 6.804688 16.324219 6.640625 16.355469 6.625 C 16.382812 6.617188 16.546875 6.503906 16.726562 6.371094 C 17.507812 5.777344 17.992188 4.707031 17.914062 3.746094 C 17.742188 1.53125 15.46875 0.226562 13.5 1.210938 C 13.011719 1.457031 12.523438 1.894531 12.285156 2.300781 L 12.140625 2.546875 L 11.75 2.453125 C 10.464844 2.113281 8.855469 2.109375 7.597656 2.429688 L 7.109375 2.546875 L 6.914062 2.25 C 6.347656 1.402344 5.519531 0.9375 4.484375 0.898438 C 4.136719 0.882812 3.855469 0.902344 3.640625 0.957031 Z M 5.257812 1.949219 C 5.660156 2.140625 5.910156 2.34375 6.132812 2.648438 L 6.289062 2.863281 L 5.898438 3.082031 C 4.890625 3.617188 3.996094 4.492188 3.445312 5.476562 C 3.355469 5.65625 3.253906 5.796875 3.230469 5.796875 C 3.207031 5.796875 3.089844 5.710938 2.960938 5.601562 C 1.945312 4.734375 1.9375 3.175781 2.929688 2.300781 C 3.578125 1.742188 4.507812 1.59375 5.257812 1.949219 Z M 15.773438 1.960938 C 16.261719 2.1875 16.589844 2.507812 16.816406 2.976562 C 17.25 3.851562 17.085938 4.792969 16.378906 5.503906 C 16.214844 5.664062 16.058594 5.796875 16.03125 5.796875 C 16.015625 5.796875 15.839844 5.554688 15.664062 5.269531 C 15.121094 4.378906 14.28125 3.589844 13.296875 3.054688 L 12.960938 2.863281 L 13.117188 2.648438 C 13.398438 2.261719 13.890625 1.921875 14.363281 1.804688 C 14.757812 1.703125 15.386719 1.777344 15.773438 1.960938 Z M 11.09375 3.199219 C 12.359375 3.445312 13.371094 3.972656 14.171875 4.804688 C 15.28125 5.933594 15.828125 7.445312 15.726562 9.078125 C 15.585938 11.453125 14.191406 13.316406 12 14.054688 C 10.285156 14.632812 8.167969 14.539062 6.621094 13.808594 C 5.132812 13.097656 4.121094 11.875 3.683594 10.234375 C 3.550781 9.761719 3.53125 9.605469 3.53125 8.75 C 3.53125 7.894531 3.550781 7.738281 3.683594 7.265625 C 4.289062 5 5.960938 3.550781 8.453125 3.144531 C 9.070312 3.042969 10.453125 3.070312 11.09375 3.199219 Z M 22.097656 10.207031 C 22.6875 11.042969 23.167969 11.738281 23.179688 11.765625 C 23.1875 11.789062 22.207031 11.8125 21 11.8125 C 19.792969 11.8125 18.8125 11.789062 18.820312 11.765625 C 18.867188 11.652344 20.96875 8.695312 21 8.695312 C 21.023438 8.695312 21.515625 9.378906 22.097656 10.207031 Z M 23.625 15.3125 L 23.625 17.9375 L 18.707031 17.9375 L 18.648438 17.617188 C 18.617188 17.449219 18.539062 17.164062 18.480469 16.984375 C 18.382812 16.683594 18.375 16.488281 18.375 14.675781 L 18.375 12.6875 L 23.625 12.6875 Z M 5.167969 13.964844 C 5.382812 14.117188 5.75 14.351562 5.996094 14.484375 L 6.449219 14.714844 L 6.148438 15.152344 C 5.40625 16.25 5.003906 17.398438 4.839844 18.949219 L 4.808594 19.28125 L 4.492188 19.355469 C 4.019531 19.464844 3.382812 19.820312 3 20.1875 C 2.652344 20.515625 2.652344 20.515625 2.460938 20.453125 C 1.949219 20.265625 1.496094 19.765625 1.363281 19.230469 C 1.226562 18.683594 1.484375 17.328125 1.890625 16.464844 C 2.402344 15.375 3.289062 14.445312 4.398438 13.859375 C 4.574219 13.753906 4.738281 13.671875 4.757812 13.671875 C 4.777344 13.671875 4.957031 13.804688 5.167969 13.964844 Z M 14.933594 13.910156 C 16.652344 14.882812 17.664062 16.4375 17.882812 18.433594 C 17.964844 19.175781 17.835938 19.625 17.417969 20.042969 C 17.234375 20.214844 16.753906 20.507812 16.628906 20.507812 C 16.601562 20.507812 16.433594 20.367188 16.246094 20.183594 C 15.867188 19.820312 15.226562 19.464844 14.757812 19.355469 L 14.441406 19.28125 L 14.410156 18.949219 C 14.246094 17.398438 13.84375 16.25 13.097656 15.152344 L 12.800781 14.710938 L 13.089844 14.570312 C 13.421875 14.402344 14.074219 13.980469 14.292969 13.804688 C 14.378906 13.730469 14.464844 13.671875 14.488281 13.671875 C 14.5 13.671875 14.707031 13.777344 14.933594 13.910156 Z M 8.09375 15.179688 C 9.054688 15.363281 10.398438 15.335938 11.484375 15.117188 L 11.894531 15.03125 L 12.050781 15.210938 C 12.859375 16.167969 13.367188 17.4375 13.535156 18.976562 L 13.566406 19.277344 L 13.253906 19.355469 C 12.257812 19.578125 11.261719 20.476562 10.847656 21.496094 C 10.425781 22.53125 10.394531 23.539062 10.75 24.628906 C 10.832031 24.859375 10.882812 25.066406 10.863281 25.078125 C 10.855469 25.09375 10.695312 25.15625 10.523438 25.21875 C 10.0625 25.394531 9.1875 25.394531 8.726562 25.21875 C 8.554688 25.15625 8.394531 25.09375 8.386719 25.078125 C 8.367188 25.066406 8.417969 24.859375 8.5 24.628906 C 8.855469 23.542969 8.824219 22.53125 8.402344 21.496094 C 7.988281 20.476562 6.992188 19.578125 5.996094 19.355469 L 5.6875 19.277344 L 5.71875 18.949219 C 5.871094 17.503906 6.351562 16.261719 7.160156 15.265625 C 7.328125 15.058594 7.363281 15.035156 7.515625 15.066406 C 7.605469 15.089844 7.871094 15.140625 8.09375 15.179688 Z M 20.5625 21.4375 L 20.5625 24.0625 L 17.410156 24.0625 L 17.449219 23.824219 C 17.472656 23.703125 17.496094 23.507812 17.5 23.386719 L 17.5 23.1875 L 18.457031 23.1875 C 19.40625 23.1875 19.417969 23.1875 19.550781 23.050781 L 19.6875 22.917969 L 19.6875 19.957031 L 19.550781 19.824219 C 19.4375 19.707031 19.367188 19.6875 19.050781 19.6875 L 18.671875 19.6875 L 18.757812 19.25 L 18.839844 18.8125 L 20.5625 18.8125 Z M 26.6875 21.4375 L 26.6875 24.0625 L 21.4375 24.0625 L 21.4375 18.8125 L 26.6875 18.8125 Z M 5.824219 20.207031 C 6.996094 20.511719 7.875 21.792969 7.875 23.1875 C 7.875 24.058594 7.527344 24.910156 6.949219 25.488281 C 6.171875 26.269531 5.164062 26.460938 4.21875 26 C 3.773438 25.78125 3.234375 25.230469 2.988281 24.71875 C 1.855469 22.402344 3.601562 19.632812 5.824219 20.207031 Z M 14.574219 20.207031 C 15.746094 20.511719 16.625 21.792969 16.625 23.1875 C 16.625 24.058594 16.277344 24.910156 15.699219 25.488281 C 14.683594 26.5 13.316406 26.5 12.300781 25.488281 C 11.105469 24.300781 11.070312 22.199219 12.222656 20.953125 C 12.875 20.253906 13.71875 19.988281 14.574219 20.207031 Z M 18.8125 21.4375 L 18.8125 22.3125 L 18.121094 22.3125 L 17.417969 22.308594 L 17.25 21.796875 L 17.082031 21.28125 L 17.339844 21.160156 C 17.480469 21.089844 17.71875 20.9375 17.863281 20.804688 C 18.121094 20.582031 18.148438 20.566406 18.476562 20.5625 L 18.8125 20.5625 Z M 18.8125 21.4375 "/>
<path style=" stroke:none;fill-rule:nonzero;fill:#dc2626;fill-opacity:1;" d="M 6.699219 7.574219 C 6.34375 7.925781 6.777344 8.496094 7.214844 8.257812 C 7.382812 8.171875 7.464844 7.902344 7.382812 7.710938 C 7.253906 7.410156 6.921875 7.347656 6.699219 7.574219 Z M 6.699219 7.574219 "/>
<path style=" stroke:none;fill-rule:nonzero;fill:#dc2626;fill-opacity:1;" d="M 11.949219 7.574219 C 11.59375 7.925781 12.027344 8.496094 12.464844 8.257812 C 12.632812 8.171875 12.714844 7.902344 12.632812 7.710938 C 12.503906 7.410156 12.171875 7.347656 11.949219 7.574219 Z M 11.949219 7.574219 "/>
<path style=" stroke:none;fill-rule:nonzero;fill:#dc2626;fill-opacity:1;" d="M 8.441406 8.425781 C 8.316406 8.484375 8.144531 8.640625 8.058594 8.757812 C 7.925781 8.949219 7.902344 9.042969 7.902344 9.351562 C 7.902344 9.839844 8.039062 10.039062 8.6875 10.496094 L 9.1875 10.851562 L 9.1875 12.214844 L 8.941406 12.175781 C 7.964844 12.039062 7 11.128906 7 10.355469 C 7 10.179688 6.863281 9.921875 6.753906 9.875 C 6.570312 9.8125 6.390625 9.847656 6.253906 9.984375 C 6.121094 10.117188 6.117188 10.148438 6.144531 10.507812 C 6.210938 11.378906 6.84375 12.21875 7.765625 12.667969 C 8.332031 12.953125 8.742188 13.0625 9.351562 13.101562 C 11.152344 13.234375 12.800781 12.164062 13.078125 10.6875 C 13.179688 10.164062 13.035156 9.84375 12.6875 9.84375 C 12.433594 9.84375 12.277344 10.035156 12.226562 10.414062 C 12.140625 11.183594 11.511719 11.820312 10.558594 12.109375 C 10.039062 12.257812 10.0625 12.285156 10.0625 11.519531 L 10.0625 10.851562 L 10.605469 10.453125 C 10.984375 10.179688 11.164062 10.007812 11.238281 9.867188 C 11.449219 9.425781 11.398438 9.015625 11.082031 8.660156 C 10.808594 8.34375 10.671875 8.3125 9.617188 8.3125 C 8.773438 8.3125 8.644531 8.320312 8.441406 8.425781 Z M 10.476562 9.304688 C 10.519531 9.4375 10.449219 9.507812 9.90625 9.878906 L 9.621094 10.082031 L 9.222656 9.808594 C 8.800781 9.507812 8.71875 9.410156 8.769531 9.273438 C 8.800781 9.195312 8.914062 9.1875 9.621094 9.1875 C 10.414062 9.1875 10.441406 9.191406 10.476562 9.304688 Z M 10.476562 9.304688 "/>
<path style=" stroke:none;fill-rule:nonzero;fill:#dc2626;fill-opacity:1;" d="M 20.453125 13.648438 C 19.40625 14.03125 18.957031 15.167969 19.472656 16.136719 C 19.667969 16.507812 19.847656 16.675781 20.257812 16.890625 C 20.488281 17.007812 20.609375 17.03125 21 17.035156 C 21.433594 17.035156 21.492188 17.015625 21.820312 16.839844 C 23.082031 16.140625 23.03125 14.347656 21.738281 13.730469 C 21.382812 13.5625 20.800781 13.527344 20.453125 13.648438 Z M 21.347656 14.515625 C 21.910156 14.746094 22.042969 15.472656 21.601562 15.914062 C 21.242188 16.273438 20.75 16.277344 20.394531 15.917969 C 19.714844 15.25 20.460938 14.140625 21.347656 14.515625 Z M 21.347656 14.515625 "/>
<path style=" stroke:none;fill-rule:nonzero;fill:#dc2626;fill-opacity:1;" d="M 23.824219 19.746094 C 23.703125 19.824219 22.3125 22.59375 22.3125 22.777344 C 22.3125 22.855469 22.371094 22.976562 22.449219 23.050781 L 22.582031 23.1875 L 25.542969 23.1875 L 25.675781 23.050781 C 25.753906 22.976562 25.8125 22.855469 25.8125 22.777344 C 25.8125 22.585938 24.417969 19.820312 24.285156 19.742188 C 24.148438 19.667969 23.953125 19.679688 23.824219 19.746094 Z M 24.382812 21.738281 L 24.664062 22.3125 L 23.460938 22.3125 L 23.742188 21.738281 C 23.902344 21.417969 24.042969 21.164062 24.0625 21.164062 C 24.082031 21.164062 24.222656 21.417969 24.382812 21.738281 Z M 24.382812 21.738281 "/>
</g>
</svg>
